<?xml version="1.0" encoding="utf-8" standalone="no"?>
<!DOCTYPE svg PUBLIC "-//W3C//DTD SVG 1.1//EN"
  "http://www.w3.org/Graphics/SVG/1.1/DTD/svg11.dtd">
<!-- Created with matplotlib (https://matplotlib.org/) -->
<svg height="288pt" version="1.1" viewBox="0 0 432 288" width="432pt" xmlns="http://www.w3.org/2000/svg" xmlns:xlink="http://www.w3.org/1999/xlink">
 <defs>
  <style type="text/css">
*{stroke-linecap:butt;stroke-linejoin:round;}
  </style>
 </defs>
 <g id="figure_1">
  <g id="patch_1">
   <path d="M 0 288 
L 432 288 
L 432 0 
L 0 0 
z
" style="fill:#ffffff;"/>
  </g>
  <g id="axes_1">
   <g id="patch_2">
    <path d="M 54 252 
L 388.8 252 
L 388.8 34.56 
L 54 34.56 
z
" style="fill:#ffffff;"/>
   </g>
   <g id="matplotlib.axis_1">
    <g id="xtick_1">
     <g id="line2d_1">
      <defs>
       <path d="M 0 0 
L 0 3.5 
" id="m456614f5bc" style="stroke:#000000;stroke-width:0.8;"/>
      </defs>
      <g>
       <use style="stroke:#000000;stroke-width:0.8;" x="69.218182" xlink:href="#m456614f5bc" y="252"/>
      </g>
     </g>
     <g id="text_1">
      <!-- 0 -->
      <defs>
       <path d="M 31.78125 66.40625 
Q 24.171875 66.40625 20.328125 58.90625 
Q 16.5 51.421875 16.5 36.375 
Q 16.5 21.390625 20.328125 13.890625 
Q 24.171875 6.390625 31.78125 6.390625 
Q 39.453125 6.390625 43.28125 13.890625 
Q 47.125 21.390625 47.125 36.375 
Q 47.125 51.421875 43.28125 58.90625 
Q 39.453125 66.40625 31.78125 66.40625 
z
M 31.78125 74.21875 
Q 44.046875 74.21875 50.515625 64.515625 
Q 56.984375 54.828125 56.984375 36.375 
Q 56.984375 17.96875 50.515625 8.265625 
Q 44.046875 -1.421875 31.78125 -1.421875 
Q 19.53125 -1.421875 13.0625 8.265625 
Q 6.59375 17.96875 6.59375 36.375 
Q 6.59375 54.828125 13.0625 64.515625 
Q 19.53125 74.21875 31.78125 74.21875 
z
" id="DejaVuSans-48"/>
      </defs>
      <g transform="translate(66.036932 266.598437)scale(0.1 -0.1)">
       <use xlink:href="#DejaVuSans-48"/>
      </g>
     </g>
    </g>
    <g id="xtick_2">
     <g id="line2d_2">
      <g>
       <use style="stroke:#000000;stroke-width:0.8;" x="126.607384" xlink:href="#m456614f5bc" y="252"/>
      </g>
     </g>
     <g id="text_2">
      <!-- 2000 -->
      <defs>
       <path d="M 19.1875 8.296875 
L 53.609375 8.296875 
L 53.609375 0 
L 7.328125 0 
L 7.328125 8.296875 
Q 12.9375 14.109375 22.625 23.890625 
Q 32.328125 33.6875 34.8125 36.53125 
Q 39.546875 41.84375 41.421875 45.53125 
Q 43.3125 49.21875 43.3125 52.78125 
Q 43.3125 58.59375 39.234375 62.25 
Q 35.15625 65.921875 28.609375 65.921875 
Q 23.96875 65.921875 18.8125 64.3125 
Q 13.671875 62.703125 7.8125 59.421875 
L 7.8125 69.390625 
Q 13.765625 71.78125 18.9375 73 
Q 24.125 74.21875 28.421875 74.21875 
Q 39.75 74.21875 46.484375 68.546875 
Q 53.21875 62.890625 53.21875 53.421875 
Q 53.21875 48.921875 51.53125 44.890625 
Q 49.859375 40.875 45.40625 35.40625 
Q 44.1875 33.984375 37.640625 27.21875 
Q 31.109375 20.453125 19.1875 8.296875 
z
" id="DejaVuSans-50"/>
      </defs>
      <g transform="translate(113.882384 266.598437)scale(0.1 -0.1)">
       <use xlink:href="#DejaVuSans-50"/>
       <use x="63.623047" xlink:href="#DejaVuSans-48"/>
       <use x="127.246094" xlink:href="#DejaVuSans-48"/>
       <use x="190.869141" xlink:href="#DejaVuSans-48"/>
      </g>
     </g>
    </g>
    <g id="xtick_3">
     <g id="line2d_3">
      <g>
       <use style="stroke:#000000;stroke-width:0.8;" x="183.996587" xlink:href="#m456614f5bc" y="252"/>
      </g>
     </g>
     <g id="text_3">
      <!-- 4000 -->
      <defs>
       <path d="M 37.796875 64.3125 
L 12.890625 25.390625 
L 37.796875 25.390625 
z
M 35.203125 72.90625 
L 47.609375 72.90625 
L 47.609375 25.390625 
L 58.015625 25.390625 
L 58.015625 17.1875 
L 47.609375 17.1875 
L 47.609375 0 
L 37.796875 0 
L 37.796875 17.1875 
L 4.890625 17.1875 
L 4.890625 26.703125 
z
" id="DejaVuSans-52"/>
      </defs>
      <g transform="translate(171.271587 266.598437)scale(0.1 -0.1)">
       <use xlink:href="#DejaVuSans-52"/>
       <use x="63.623047" xlink:href="#DejaVuSans-48"/>
       <use x="127.246094" xlink:href="#DejaVuSans-48"/>
       <use x="190.869141" xlink:href="#DejaVuSans-48"/>
      </g>
     </g>
    </g>
    <g id="xtick_4">
     <g id="line2d_4">
      <g>
       <use style="stroke:#000000;stroke-width:0.8;" x="241.38579" xlink:href="#m456614f5bc" y="252"/>
      </g>
     </g>
     <g id="text_4">
      <!-- 6000 -->
      <defs>
       <path d="M 33.015625 40.375 
Q 26.375 40.375 22.484375 35.828125 
Q 18.609375 31.296875 18.609375 23.390625 
Q 18.609375 15.53125 22.484375 10.953125 
Q 26.375 6.390625 33.015625 6.390625 
Q 39.65625 6.390625 43.53125 10.953125 
Q 47.40625 15.53125 47.40625 23.390625 
Q 47.40625 31.296875 43.53125 35.828125 
Q 39.65625 40.375 33.015625 40.375 
z
M 52.59375 71.296875 
L 52.59375 62.3125 
Q 48.875 64.0625 45.09375 64.984375 
Q 41.3125 65.921875 37.59375 65.921875 
Q 27.828125 65.921875 22.671875 59.328125 
Q 17.53125 52.734375 16.796875 39.40625 
Q 19.671875 43.65625 24.015625 45.921875 
Q 28.375 48.1875 33.59375 48.1875 
Q 44.578125 48.1875 50.953125 41.515625 
Q 57.328125 34.859375 57.328125 23.390625 
Q 57.328125 12.15625 50.6875 5.359375 
Q 44.046875 -1.421875 33.015625 -1.421875 
Q 20.359375 -1.421875 13.671875 8.265625 
Q 6.984375 17.96875 6.984375 36.375 
Q 6.984375 53.65625 15.1875 63.9375 
Q 23.390625 74.21875 37.203125 74.21875 
Q 40.921875 74.21875 44.703125 73.484375 
Q 48.484375 72.75 52.59375 71.296875 
z
" id="DejaVuSans-54"/>
      </defs>
      <g transform="translate(228.66079 266.598437)scale(0.1 -0.1)">
       <use xlink:href="#DejaVuSans-54"/>
       <use x="63.623047" xlink:href="#DejaVuSans-48"/>
       <use x="127.246094" xlink:href="#DejaVuSans-48"/>
       <use x="190.869141" xlink:href="#DejaVuSans-48"/>
      </g>
     </g>
    </g>
    <g id="xtick_5">
     <g id="line2d_5">
      <g>
       <use style="stroke:#000000;stroke-width:0.8;" x="298.774993" xlink:href="#m456614f5bc" y="252"/>
      </g>
     </g>
     <g id="text_5">
      <!-- 8000 -->
      <defs>
       <path d="M 31.78125 34.625 
Q 24.75 34.625 20.71875 30.859375 
Q 16.703125 27.09375 16.703125 20.515625 
Q 16.703125 13.921875 20.71875 10.15625 
Q 24.75 6.390625 31.78125 6.390625 
Q 38.8125 6.390625 42.859375 10.171875 
Q 46.921875 13.96875 46.921875 20.515625 
Q 46.921875 27.09375 42.890625 30.859375 
Q 38.875 34.625 31.78125 34.625 
z
M 21.921875 38.8125 
Q 15.578125 40.375 12.03125 44.71875 
Q 8.5 49.078125 8.5 55.328125 
Q 8.5 64.0625 14.71875 69.140625 
Q 20.953125 74.21875 31.78125 74.21875 
Q 42.671875 74.21875 48.875 69.140625 
Q 55.078125 64.0625 55.078125 55.328125 
Q 55.078125 49.078125 51.53125 44.71875 
Q 48 40.375 41.703125 38.8125 
Q 48.828125 37.15625 52.796875 32.3125 
Q 56.78125 27.484375 56.78125 20.515625 
Q 56.78125 9.90625 50.3125 4.234375 
Q 43.84375 -1.421875 31.78125 -1.421875 
Q 19.734375 -1.421875 13.25 4.234375 
Q 6.78125 9.90625 6.78125 20.515625 
Q 6.78125 27.484375 10.78125 32.3125 
Q 14.796875 37.15625 21.921875 38.8125 
z
M 18.3125 54.390625 
Q 18.3125 48.734375 21.84375 45.5625 
Q 25.390625 42.390625 31.78125 42.390625 
Q 38.140625 42.390625 41.71875 45.5625 
Q 45.3125 48.734375 45.3125 54.390625 
Q 45.3125 60.0625 41.71875 63.234375 
Q 38.140625 66.40625 31.78125 66.40625 
Q 25.390625 66.40625 21.84375 63.234375 
Q 18.3125 60.0625 18.3125 54.390625 
z
" id="DejaVuSans-56"/>
      </defs>
      <g transform="translate(286.049993 266.598437)scale(0.1 -0.1)">
       <use xlink:href="#DejaVuSans-56"/>
       <use x="63.623047" xlink:href="#DejaVuSans-48"/>
       <use x="127.246094" xlink:href="#DejaVuSans-48"/>
       <use x="190.869141" xlink:href="#DejaVuSans-48"/>
      </g>
     </g>
    </g>
    <g id="xtick_6">
     <g id="line2d_6">
      <g>
       <use style="stroke:#000000;stroke-width:0.8;" x="356.164195" xlink:href="#m456614f5bc" y="252"/>
      </g>
     </g>
     <g id="text_6">
      <!-- 10000 -->
      <defs>
       <path d="M 12.40625 8.296875 
L 28.515625 8.296875 
L 28.515625 63.921875 
L 10.984375 60.40625 
L 10.984375 69.390625 
L 28.421875 72.90625 
L 38.28125 72.90625 
L 38.28125 8.296875 
L 54.390625 8.296875 
L 54.390625 0 
L 12.40625 0 
z
" id="DejaVuSans-49"/>
      </defs>
      <g transform="translate(340.257945 266.598437)scale(0.1 -0.1)">
       <use xlink:href="#DejaVuSans-49"/>
       <use x="63.623047" xlink:href="#DejaVuSans-48"/>
       <use x="127.246094" xlink:href="#DejaVuSans-48"/>
       <use x="190.869141" xlink:href="#DejaVuSans-48"/>
       <use x="254.492188" xlink:href="#DejaVuSans-48"/>
      </g>
     </g>
    </g>
    <g id="text_7">
     <!-- Time (ns) -->
     <defs>
      <path d="M -0.296875 72.90625 
L 61.375 72.90625 
L 61.375 64.59375 
L 35.5 64.59375 
L 35.5 0 
L 25.59375 0 
L 25.59375 64.59375 
L -0.296875 64.59375 
z
" id="DejaVuSans-84"/>
      <path d="M 9.421875 54.6875 
L 18.40625 54.6875 
L 18.40625 0 
L 9.421875 0 
z
M 9.421875 75.984375 
L 18.40625 75.984375 
L 18.40625 64.59375 
L 9.421875 64.59375 
z
" id="DejaVuSans-105"/>
      <path d="M 52 44.1875 
Q 55.375 50.25 60.0625 53.125 
Q 64.75 56 71.09375 56 
Q 79.640625 56 84.28125 50.015625 
Q 88.921875 44.046875 88.921875 33.015625 
L 88.921875 0 
L 79.890625 0 
L 79.890625 32.71875 
Q 79.890625 40.578125 77.09375 44.375 
Q 74.3125 48.1875 68.609375 48.1875 
Q 61.625 48.1875 57.5625 43.546875 
Q 53.515625 38.921875 53.515625 30.90625 
L 53.515625 0 
L 44.484375 0 
L 44.484375 32.71875 
Q 44.484375 40.625 41.703125 44.40625 
Q 38.921875 48.1875 33.109375 48.1875 
Q 26.21875 48.1875 22.15625 43.53125 
Q 18.109375 38.875 18.109375 30.90625 
L 18.109375 0 
L 9.078125 0 
L 9.078125 54.6875 
L 18.109375 54.6875 
L 18.109375 46.1875 
Q 21.1875 51.21875 25.484375 53.609375 
Q 29.78125 56 35.6875 56 
Q 41.65625 56 45.828125 52.96875 
Q 50 49.953125 52 44.1875 
z
" id="DejaVuSans-109"/>
      <path d="M 56.203125 29.59375 
L 56.203125 25.203125 
L 14.890625 25.203125 
Q 15.484375 15.921875 20.484375 11.0625 
Q 25.484375 6.203125 34.421875 6.203125 
Q 39.59375 6.203125 44.453125 7.46875 
Q 49.3125 8.734375 54.109375 11.28125 
L 54.109375 2.78125 
Q 49.265625 0.734375 44.1875 -0.34375 
Q 39.109375 -1.421875 33.890625 -1.421875 
Q 20.796875 -1.421875 13.15625 6.1875 
Q 5.515625 13.8125 5.515625 26.8125 
Q 5.515625 40.234375 12.765625 48.109375 
Q 20.015625 56 32.328125 56 
Q 43.359375 56 49.78125 48.890625 
Q 56.203125 41.796875 56.203125 29.59375 
z
M 47.21875 32.234375 
Q 47.125 39.59375 43.09375 43.984375 
Q 39.0625 48.390625 32.421875 48.390625 
Q 24.90625 48.390625 20.390625 44.140625 
Q 15.875 39.890625 15.1875 32.171875 
z
" id="DejaVuSans-101"/>
      <path id="DejaVuSans-32"/>
      <path d="M 31 75.875 
Q 24.46875 64.65625 21.28125 53.65625 
Q 18.109375 42.671875 18.109375 31.390625 
Q 18.109375 20.125 21.3125 9.0625 
Q 24.515625 -2 31 -13.1875 
L 23.1875 -13.1875 
Q 15.875 -1.703125 12.234375 9.375 
Q 8.59375 20.453125 8.59375 31.390625 
Q 8.59375 42.28125 12.203125 53.3125 
Q 15.828125 64.359375 23.1875 75.875 
z
" id="DejaVuSans-40"/>
      <path d="M 54.890625 33.015625 
L 54.890625 0 
L 45.90625 0 
L 45.90625 32.71875 
Q 45.90625 40.484375 42.875 44.328125 
Q 39.84375 48.1875 33.796875 48.1875 
Q 26.515625 48.1875 22.3125 43.546875 
Q 18.109375 38.921875 18.109375 30.90625 
L 18.109375 0 
L 9.078125 0 
L 9.078125 54.6875 
L 18.109375 54.6875 
L 18.109375 46.1875 
Q 21.34375 51.125 25.703125 53.5625 
Q 30.078125 56 35.796875 56 
Q 45.21875 56 50.046875 50.171875 
Q 54.890625 44.34375 54.890625 33.015625 
z
" id="DejaVuSans-110"/>
      <path d="M 44.28125 53.078125 
L 44.28125 44.578125 
Q 40.484375 46.53125 36.375 47.5 
Q 32.28125 48.484375 27.875 48.484375 
Q 21.1875 48.484375 17.84375 46.4375 
Q 14.5 44.390625 14.5 40.28125 
Q 14.5 37.15625 16.890625 35.375 
Q 19.28125 33.59375 26.515625 31.984375 
L 29.59375 31.296875 
Q 39.15625 29.25 43.1875 25.515625 
Q 47.21875 21.78125 47.21875 15.09375 
Q 47.21875 7.46875 41.1875 3.015625 
Q 35.15625 -1.421875 24.609375 -1.421875 
Q 20.21875 -1.421875 15.453125 -0.5625 
Q 10.6875 0.296875 5.421875 2 
L 5.421875 11.28125 
Q 10.40625 8.6875 15.234375 7.390625 
Q 20.0625 6.109375 24.8125 6.109375 
Q 31.15625 6.109375 34.5625 8.28125 
Q 37.984375 10.453125 37.984375 14.40625 
Q 37.984375 18.0625 35.515625 20.015625 
Q 33.0625 21.96875 24.703125 23.78125 
L 21.578125 24.515625 
Q 13.234375 26.265625 9.515625 29.90625 
Q 5.8125 33.546875 5.8125 39.890625 
Q 5.8125 47.609375 11.28125 51.796875 
Q 16.75 56 26.8125 56 
Q 31.78125 56 36.171875 55.265625 
Q 40.578125 54.546875 44.28125 53.078125 
z
" id="DejaVuSans-115"/>
      <path d="M 8.015625 75.875 
L 15.828125 75.875 
Q 23.140625 64.359375 26.78125 53.3125 
Q 30.421875 42.28125 30.421875 31.390625 
Q 30.421875 20.453125 26.78125 9.375 
Q 23.140625 -1.703125 15.828125 -13.1875 
L 8.015625 -13.1875 
Q 14.5 -2 17.703125 9.0625 
Q 20.90625 20.125 20.90625 31.390625 
Q 20.90625 42.671875 17.703125 53.65625 
Q 14.5 64.65625 8.015625 75.875 
z
" id="DejaVuSans-41"/>
     </defs>
     <g transform="translate(197.902344 280.276563)scale(0.1 -0.1)">
      <use xlink:href="#DejaVuSans-84"/>
      <use x="57.958984" xlink:href="#DejaVuSans-105"/>
      <use x="85.742188" xlink:href="#DejaVuSans-109"/>
      <use x="183.154297" xlink:href="#DejaVuSans-101"/>
      <use x="244.677734" xlink:href="#DejaVuSans-32"/>
      <use x="276.464844" xlink:href="#DejaVuSans-40"/>
      <use x="315.478516" xlink:href="#DejaVuSans-110"/>
      <use x="378.857422" xlink:href="#DejaVuSans-115"/>
      <use x="430.957031" xlink:href="#DejaVuSans-41"/>
     </g>
    </g>
   </g>
   <g id="matplotlib.axis_2">
    <g id="ytick_1">
     <g id="line2d_7">
      <defs>
       <path d="M 0 0 
L -3.5 0 
" id="m5b38bbfc7f" style="stroke:#000000;stroke-width:0.8;"/>
      </defs>
      <g>
       <use style="stroke:#000000;stroke-width:0.8;" x="54" xlink:href="#m5b38bbfc7f" y="245.173695"/>
      </g>
     </g>
     <g id="text_8">
      <!-- −4 -->
      <defs>
       <path d="M 10.59375 35.5 
L 73.1875 35.5 
L 73.1875 27.203125 
L 10.59375 27.203125 
z
" id="DejaVuSans-8722"/>
      </defs>
      <g transform="translate(32.257812 248.972913)scale(0.1 -0.1)">
       <use xlink:href="#DejaVuSans-8722"/>
       <use x="83.789062" xlink:href="#DejaVuSans-52"/>
      </g>
     </g>
    </g>
    <g id="ytick_2">
     <g id="line2d_8">
      <g>
       <use style="stroke:#000000;stroke-width:0.8;" x="54" xlink:href="#m5b38bbfc7f" y="217.98025"/>
      </g>
     </g>
     <g id="text_9">
      <!-- −3 -->
      <defs>
       <path d="M 40.578125 39.3125 
Q 47.65625 37.796875 51.625 33 
Q 55.609375 28.21875 55.609375 21.1875 
Q 55.609375 10.40625 48.1875 4.484375 
Q 40.765625 -1.421875 27.09375 -1.421875 
Q 22.515625 -1.421875 17.65625 -0.515625 
Q 12.796875 0.390625 7.625 2.203125 
L 7.625 11.71875 
Q 11.71875 9.328125 16.59375 8.109375 
Q 21.484375 6.890625 26.8125 6.890625 
Q 36.078125 6.890625 40.9375 10.546875 
Q 45.796875 14.203125 45.796875 21.1875 
Q 45.796875 27.640625 41.28125 31.265625 
Q 36.765625 34.90625 28.71875 34.90625 
L 20.21875 34.90625 
L 20.21875 43.015625 
L 29.109375 43.015625 
Q 36.375 43.015625 40.234375 45.921875 
Q 44.09375 48.828125 44.09375 54.296875 
Q 44.09375 59.90625 40.109375 62.90625 
Q 36.140625 65.921875 28.71875 65.921875 
Q 24.65625 65.921875 20.015625 65.03125 
Q 15.375 64.15625 9.8125 62.3125 
L 9.8125 71.09375 
Q 15.4375 72.65625 20.34375 73.4375 
Q 25.25 74.21875 29.59375 74.21875 
Q 40.828125 74.21875 47.359375 69.109375 
Q 53.90625 64.015625 53.90625 55.328125 
Q 53.90625 49.265625 50.4375 45.09375 
Q 46.96875 40.921875 40.578125 39.3125 
z
" id="DejaVuSans-51"/>
      </defs>
      <g transform="translate(32.257812 221.779469)scale(0.1 -0.1)">
       <use xlink:href="#DejaVuSans-8722"/>
       <use x="83.789062" xlink:href="#DejaVuSans-51"/>
      </g>
     </g>
    </g>
    <g id="ytick_3">
     <g id="line2d_9">
      <g>
       <use style="stroke:#000000;stroke-width:0.8;" x="54" xlink:href="#m5b38bbfc7f" y="190.786806"/>
      </g>
     </g>
     <g id="text_10">
      <!-- −2 -->
      <g transform="translate(32.257812 194.586024)scale(0.1 -0.1)">
       <use xlink:href="#DejaVuSans-8722"/>
       <use x="83.789062" xlink:href="#DejaVuSans-50"/>
      </g>
     </g>
    </g>
    <g id="ytick_4">
     <g id="line2d_10">
      <g>
       <use style="stroke:#000000;stroke-width:0.8;" x="54" xlink:href="#m5b38bbfc7f" y="163.593361"/>
      </g>
     </g>
     <g id="text_11">
      <!-- −1 -->
      <g transform="translate(32.257812 167.39258)scale(0.1 -0.1)">
       <use xlink:href="#DejaVuSans-8722"/>
       <use x="83.789062" xlink:href="#DejaVuSans-49"/>
      </g>
     </g>
    </g>
    <g id="ytick_5">
     <g id="line2d_11">
      <g>
       <use style="stroke:#000000;stroke-width:0.8;" x="54" xlink:href="#m5b38bbfc7f" y="136.399917"/>
      </g>
     </g>
     <g id="text_12">
      <!-- 0 -->
      <g transform="translate(40.6375 140.199135)scale(0.1 -0.1)">
       <use xlink:href="#DejaVuSans-48"/>
      </g>
     </g>
    </g>
    <g id="ytick_6">
     <g id="line2d_12">
      <g>
       <use style="stroke:#000000;stroke-width:0.8;" x="54" xlink:href="#m5b38bbfc7f" y="109.206472"/>
      </g>
     </g>
     <g id="text_13">
      <!-- 1 -->
      <g transform="translate(40.6375 113.005691)scale(0.1 -0.1)">
       <use xlink:href="#DejaVuSans-49"/>
      </g>
     </g>
    </g>
    <g id="ytick_7">
     <g id="line2d_13">
      <g>
       <use style="stroke:#000000;stroke-width:0.8;" x="54" xlink:href="#m5b38bbfc7f" y="82.013028"/>
      </g>
     </g>
     <g id="text_14">
      <!-- 2 -->
      <g transform="translate(40.6375 85.812247)scale(0.1 -0.1)">
       <use xlink:href="#DejaVuSans-50"/>
      </g>
     </g>
    </g>
    <g id="ytick_8">
     <g id="line2d_14">
      <g>
       <use style="stroke:#000000;stroke-width:0.8;" x="54" xlink:href="#m5b38bbfc7f" y="54.819583"/>
      </g>
     </g>
     <g id="text_15">
      <!-- 3 -->
      <g transform="translate(40.6375 58.618802)scale(0.1 -0.1)">
       <use xlink:href="#DejaVuSans-51"/>
      </g>
     </g>
    </g>
    <g id="text_16">
     <!-- Vout (V) -->
     <defs>
      <path d="M 28.609375 0 
L 0.78125 72.90625 
L 11.078125 72.90625 
L 34.1875 11.53125 
L 57.328125 72.90625 
L 67.578125 72.90625 
L 39.796875 0 
z
" id="DejaVuSans-86"/>
      <path d="M 30.609375 48.390625 
Q 23.390625 48.390625 19.1875 42.75 
Q 14.984375 37.109375 14.984375 27.296875 
Q 14.984375 17.484375 19.15625 11.84375 
Q 23.34375 6.203125 30.609375 6.203125 
Q 37.796875 6.203125 41.984375 11.859375 
Q 46.1875 17.53125 46.1875 27.296875 
Q 46.1875 37.015625 41.984375 42.703125 
Q 37.796875 48.390625 30.609375 48.390625 
z
M 30.609375 56 
Q 42.328125 56 49.015625 48.375 
Q 55.71875 40.765625 55.71875 27.296875 
Q 55.71875 13.875 49.015625 6.21875 
Q 42.328125 -1.421875 30.609375 -1.421875 
Q 18.84375 -1.421875 12.171875 6.21875 
Q 5.515625 13.875 5.515625 27.296875 
Q 5.515625 40.765625 12.171875 48.375 
Q 18.84375 56 30.609375 56 
z
" id="DejaVuSans-111"/>
      <path d="M 8.5 21.578125 
L 8.5 54.6875 
L 17.484375 54.6875 
L 17.484375 21.921875 
Q 17.484375 14.15625 20.5 10.265625 
Q 23.53125 6.390625 29.59375 6.390625 
Q 36.859375 6.390625 41.078125 11.03125 
Q 45.3125 15.671875 45.3125 23.6875 
L 45.3125 54.6875 
L 54.296875 54.6875 
L 54.296875 0 
L 45.3125 0 
L 45.3125 8.40625 
Q 42.046875 3.421875 37.71875 1 
Q 33.40625 -1.421875 27.6875 -1.421875 
Q 18.265625 -1.421875 13.375 4.4375 
Q 8.5 10.296875 8.5 21.578125 
z
M 31.109375 56 
z
" id="DejaVuSans-117"/>
      <path d="M 18.3125 70.21875 
L 18.3125 54.6875 
L 36.8125 54.6875 
L 36.8125 47.703125 
L 18.3125 47.703125 
L 18.3125 18.015625 
Q 18.3125 11.328125 20.140625 9.421875 
Q 21.96875 7.515625 27.59375 7.515625 
L 36.8125 7.515625 
L 36.8125 0 
L 27.59375 0 
Q 17.1875 0 13.234375 3.875 
Q 9.28125 7.765625 9.28125 18.015625 
L 9.28125 47.703125 
L 2.6875 47.703125 
L 2.6875 54.6875 
L 9.28125 54.6875 
L 9.28125 70.21875 
z
" id="DejaVuSans-116"/>
     </defs>
     <g transform="translate(26.178125 163.412031)rotate(-90)scale(0.1 -0.1)">
      <use xlink:href="#DejaVuSans-86"/>
      <use x="60.658203" xlink:href="#DejaVuSans-111"/>
      <use x="121.839844" xlink:href="#DejaVuSans-117"/>
      <use x="185.21875" xlink:href="#DejaVuSans-116"/>
      <use x="224.427734" xlink:href="#DejaVuSans-32"/>
      <use x="256.214844" xlink:href="#DejaVuSans-40"/>
      <use x="295.228516" xlink:href="#DejaVuSans-86"/>
      <use x="363.636719" xlink:href="#DejaVuSans-41"/>
     </g>
    </g>
    <g id="text_17">
     <!-- 1e−5 -->
     <defs>
      <path d="M 10.796875 72.90625 
L 49.515625 72.90625 
L 49.515625 64.59375 
L 19.828125 64.59375 
L 19.828125 46.734375 
Q 21.96875 47.46875 24.109375 47.828125 
Q 26.265625 48.1875 28.421875 48.1875 
Q 40.625 48.1875 47.75 41.5 
Q 54.890625 34.8125 54.890625 23.390625 
Q 54.890625 11.625 47.5625 5.09375 
Q 40.234375 -1.421875 26.90625 -1.421875 
Q 22.3125 -1.421875 17.546875 -0.640625 
Q 12.796875 0.140625 7.71875 1.703125 
L 7.71875 11.625 
Q 12.109375 9.234375 16.796875 8.0625 
Q 21.484375 6.890625 26.703125 6.890625 
Q 35.15625 6.890625 40.078125 11.328125 
Q 45.015625 15.765625 45.015625 23.390625 
Q 45.015625 31 40.078125 35.4375 
Q 35.15625 39.890625 26.703125 39.890625 
Q 22.75 39.890625 18.8125 39.015625 
Q 14.890625 38.140625 10.796875 36.28125 
z
" id="DejaVuSans-53"/>
     </defs>
     <g transform="translate(54 31.56)scale(0.1 -0.1)">
      <use xlink:href="#DejaVuSans-49"/>
      <use x="63.623047" xlink:href="#DejaVuSans-101"/>
      <use x="125.146484" xlink:href="#DejaVuSans-8722"/>
      <use x="208.935547" xlink:href="#DejaVuSans-53"/>
     </g>
    </g>
   </g>
   <g id="line2d_15">
    <path clip-path="url(#p72dc66ff14)" d="M 69.218182 240.913532 
L 70.710301 240.965763 
L 70.853774 241.634652 
L 70.911163 242.116364 
L 70.968552 241.99453 
L 72.001558 239.978844 
L 73.063258 238.322217 
L 73.206731 238.174686 
L 74.211042 236.865689 
L 75.789246 234.91797 
L 76.707473 234.024586 
L 76.822251 234.132999 
L 77.137892 235.780133 
L 77.424838 234.177883 
L 78.285676 230.118376 
L 79.175208 226.782008 
L 79.289987 226.432509 
L 80.093436 223.829111 
L 81.55686 219.148039 
L 82.389004 217.050874 
L 82.848117 215.978975 
L 82.876812 215.990664 
L 82.934201 216.23471 
L 83.077674 216.500782 
L 83.163758 216.707683 
L 83.249842 217.395756 
L 83.307231 217.101222 
L 84.196764 210.651839 
L 85.229769 204.790218 
L 85.315853 204.568713 
L 86.090607 200.931998 
L 87.525337 194.234045 
L 88.328786 191.25871 
L 88.960068 189.166383 
L 89.017457 189.375831 
L 89.074846 189.617794 
L 89.132235 189.554353 
L 89.218319 189.477141 
L 89.247014 189.503519 
L 89.304403 189.698485 
L 89.361792 190.228392 
L 89.419181 190.016033 
L 90.653049 179.305812 
L 91.370414 174.727921 
L 92.71906 166.67492 
L 94.15379 158.817333 
L 94.928545 155.484322 
L 95.043323 155.302214 
L 95.072018 155.33778 
L 95.158101 155.622627 
L 95.215491 155.500643 
L 95.301574 155.432145 
L 95.330269 155.481356 
L 95.416353 155.998664 
L 95.445047 155.848645 
L 97.281502 140.506783 
L 97.998867 136.145256 
L 98.285813 134.824422 
L 99.720543 126.238995 
L 100.495297 122.570933 
L 101.126579 119.864316 
L 101.183968 120.027874 
L 101.212662 120.13322 
L 101.270052 120.052526 
L 101.356135 119.985163 
L 101.38483 120.04809 
L 101.442219 120.472743 
L 101.499608 120.186742 
L 102.647392 110.68897 
L 103.50823 105.076658 
L 103.623009 104.465302 
L 104.397763 100.085952 
L 105.832493 92.019864 
L 106.607247 88.60102 
L 107.209834 86.160138 
L 107.410696 86.517919 
L 107.439391 86.329458 
L 108.902815 77.701838 
L 109.67757 74.174917 
L 110.452324 70.922011 
L 111.887054 64.927804 
L 112.690503 62.285386 
L 113.493952 59.85431 
L 114.957376 55.481098 
L 115.78952 53.521949 
L 116.650358 51.659451 
L 118.142477 48.512162 
L 119.060704 46.979965 
L 119.118094 46.796572 
L 119.318956 45.468749 
L 119.835459 45.588665 
L 121.643218 45.980414 
L 124.656152 46.425154 
L 125.201349 46.403074 
L 125.488295 44.479025 
L 125.51699 44.491631 
L 125.660463 44.88305 
L 127.583001 51.820317 
L 128.38645 53.987977 
L 129.218593 56.057679 
L 130.682018 59.631443 
L 131.25591 60.695418 
L 131.284605 60.674014 
L 131.370688 59.631931 
L 131.485467 58.882673 
L 131.514161 58.884356 
L 131.600245 58.938989 
L 131.743718 59.565347 
L 133.895813 71.877046 
L 133.981897 72.080263 
L 134.756651 75.419227 
L 136.191381 81.57208 
L 136.99483 84.305382 
L 137.36786 85.528215 
L 137.396555 85.376987 
L 137.597417 83.772947 
L 137.654806 83.797076 
L 137.769584 84.235536 
L 138.142614 87.224468 
L 139.347787 96.533311 
L 140.093847 101.024765 
L 140.868601 105.352869 
L 142.303331 113.328355 
L 143.078086 116.736309 
L 143.451115 118.350245 
L 143.508505 117.961429 
L 143.594588 116.948405 
L 143.680672 117.010343 
L 143.766756 117.159349 
L 143.996313 118.854223 
L 145.431043 130.537145 
L 146.177103 135.21684 
L 146.951857 139.728213 
L 148.386587 148.042072 
L 149.161341 151.594636 
L 149.534371 153.279924 
L 149.59176 152.836079 
L 149.677844 152.092884 
L 149.735233 152.207129 
L 149.821317 152.289859 
L 149.993485 153.433422 
L 151.629077 165.984874 
L 152.403831 170.542838 
L 153.178585 174.748372 
L 154.613315 182.499316 
L 155.38807 185.785092 
L 155.617626 186.740278 
L 155.646321 186.501649 
L 155.675016 186.093864 
L 155.761099 186.323262 
L 158.831422 201.928282 
L 159.118368 202.827421 
L 160.553098 208.674334 
L 161.356547 211.252019 
L 162.159996 213.6236 
L 163.62342 217.889939 
L 164.455564 219.801273 
L 165.316402 221.618362 
L 166.808521 224.689014 
L 167.726748 226.183953 
L 168.099778 226.988607 
L 168.243251 228.105131 
L 168.386724 228.024236 
L 169.132784 227.697358 
L 170.883154 227.252813 
L 173.494363 226.754664 
L 174.125644 226.71328 
L 174.326507 227.631816 
L 174.46998 228.705347 
L 174.556063 228.325781 
L 175.273428 225.191402 
L 176.421212 221.2301 
L 176.708158 220.598463 
L 177.511607 218.46183 
L 178.975032 214.619859 
L 179.83587 212.83533 
L 180.180205 212.205941 
L 180.2089 212.220144 
L 180.294984 212.683135 
L 180.58193 213.775492 
L 180.639319 213.505013 
L 181.528851 207.408682 
L 182.561857 201.900338 
L 182.647941 201.692287 
L 183.422695 198.27672 
L 184.857425 191.986399 
L 185.660874 189.192152 
L 186.292155 187.230523 
L 186.349544 187.447698 
L 186.406934 187.702473 
L 186.464323 187.651758 
L 186.550407 187.593477 
L 186.579101 187.626123 
L 186.63649 187.833564 
L 186.69388 188.375862 
L 186.751269 188.175812 
L 187.985137 177.711327 
L 188.702502 173.247169 
L 190.051148 165.395319 
L 191.485878 157.734176 
L 192.260632 154.484443 
L 192.375411 154.308315 
L 192.404105 154.345206 
L 192.490189 154.639274 
L 192.547578 154.523824 
L 192.633662 154.465045 
L 192.662357 154.517475 
L 192.748441 155.044374 
L 192.777135 154.897531 
L 194.61359 139.738397 
L 195.330955 135.431203 
L 195.617901 134.126838 
L 197.052631 125.648507 
L 197.827385 122.02621 
L 198.458666 119.354045 
L 198.516055 119.51964 
L 198.54475 119.626678 
L 198.602139 119.54935 
L 198.688223 119.486994 
L 198.716918 119.551579 
L 198.774307 119.979531 
L 198.831696 119.696808 
L 199.97948 110.260198 
L 200.840318 104.685836 
L 200.955097 104.078628 
L 201.729851 99.729008 
L 203.164581 91.717724 
L 203.939335 88.322111 
L 204.541922 85.898173 
L 204.742784 86.261313 
L 204.771479 86.073706 
L 206.234903 77.486075 
L 207.009657 73.975746 
L 207.784412 70.738154 
L 209.219142 64.772178 
L 210.022591 62.142205 
L 210.826039 59.722579 
L 212.289464 55.369966 
L 213.121608 53.420045 
L 213.982446 51.56632 
L 215.474565 48.433856 
L 216.392792 46.908876 
L 216.450181 46.725955 
L 216.651043 45.399646 
L 217.167546 45.523043 
L 218.975306 45.927225 
L 221.93085 46.379057 
L 222.533437 46.366826 
L 222.820383 44.443637 
L 222.849077 44.456338 
L 222.99255 44.848339 
L 224.915089 51.792556 
L 225.718538 53.962436 
L 226.550681 56.034259 
L 228.014106 59.611685 
L 228.587998 60.676749 
L 228.616692 60.655407 
L 228.702776 59.61351 
L 228.817554 58.864465 
L 228.846249 58.866154 
L 228.932333 58.920873 
L 229.075806 59.54753 
L 231.227901 71.863106 
L 231.313985 72.066387 
L 232.088739 75.406419 
L 233.523469 81.561239 
L 234.326918 84.295414 
L 234.699948 85.518663 
L 234.728642 85.367467 
L 234.929505 83.763603 
L 234.986894 83.787751 
L 235.101672 84.226329 
L 235.474702 87.215651 
L 236.679875 96.525646 
L 237.425935 101.017665 
L 238.200689 105.346314 
L 239.635419 113.322807 
L 240.410173 116.73119 
L 240.783203 118.34534 
L 240.840592 117.956557 
L 240.926676 116.943581 
L 241.01276 117.005545 
L 241.098844 117.154573 
L 241.328401 118.849573 
L 242.763131 130.533208 
L 243.50919 135.213193 
L 244.283945 139.724847 
L 245.718675 148.039222 
L 246.493429 151.592007 
L 246.866459 153.277404 
L 246.923848 152.833576 
L 247.009932 152.090405 
L 247.067321 152.204663 
L 247.153405 152.287399 
L 247.325572 153.431008 
L 248.961165 165.982877 
L 249.735919 170.540995 
L 250.510673 174.74667 
L 251.945403 182.497875 
L 252.720157 185.783761 
L 252.949714 186.738982 
L 252.978409 186.500357 
L 253.007103 186.092577 
L 253.093187 186.321987 
L 256.16351 201.927371 
L 256.450456 202.826531 
L 257.885186 208.67358 
L 258.688634 211.251325 
L 259.492083 213.622961 
L 260.955508 217.889399 
L 261.787651 219.800778 
L 262.648489 221.617909 
L 264.140609 224.688633 
L 265.058836 226.183607 
L 265.431866 226.988272 
L 265.575339 228.104802 
L 265.718812 228.023912 
L 266.464871 227.697061 
L 268.215242 227.252568 
L 270.826451 226.754479 
L 271.457732 226.713106 
L 271.658594 227.631646 
L 271.802067 228.70518 
L 271.888151 228.325615 
L 272.605516 225.191249 
L 273.7533 221.229967 
L 274.040246 220.598332 
L 274.843695 218.46171 
L 276.30712 214.619757 
L 277.167958 212.835237 
L 277.512293 212.205851 
L 277.540988 212.220054 
L 277.627071 212.683046 
L 277.914017 213.775406 
L 277.971407 213.504928 
L 278.860939 207.408605 
L 279.893945 201.900269 
L 279.980029 201.692219 
L 280.754783 198.276657 
L 282.189513 191.986345 
L 282.992962 189.192103 
L 283.624243 187.230477 
L 283.681632 187.447653 
L 283.739021 187.702427 
L 283.796411 187.651712 
L 283.882494 187.593432 
L 283.911189 187.626078 
L 283.968578 187.83352 
L 284.025967 188.375818 
L 284.083357 188.175768 
L 285.317224 177.711289 
L 286.03459 173.247134 
L 287.383236 165.395288 
L 288.817966 157.73415 
L 289.59272 154.484419 
L 289.707498 154.308292 
L 289.736193 154.345183 
L 289.822277 154.639251 
L 289.879666 154.523801 
L 289.96575 154.465022 
L 289.994444 154.517452 
L 290.080528 155.044351 
L 290.109223 154.897508 
L 291.945677 139.738379 
L 292.663042 135.431187 
L 292.949988 134.126822 
L 294.384718 125.648494 
L 295.159473 122.026197 
L 295.790754 119.354033 
L 295.848143 119.519629 
L 295.876838 119.626666 
L 295.934227 119.549338 
L 296.020311 119.486983 
L 296.049005 119.551567 
L 296.106395 119.97952 
L 296.163784 119.696796 
L 297.311568 110.260188 
L 298.172406 104.685827 
L 298.287184 104.078619 
L 299.061939 99.729 
L 300.496669 91.717717 
L 301.271423 88.322105 
L 301.874009 85.898167 
L 302.074872 86.261307 
L 302.103566 86.0737 
L 303.566991 77.48607 
L 304.341745 73.975741 
L 305.116499 70.73815 
L 306.551229 64.772175 
L 307.354678 62.142202 
L 308.158127 59.722577 
L 309.621552 55.369963 
L 310.453695 53.420043 
L 311.314533 51.566318 
L 312.806653 48.433855 
L 313.72488 46.908875 
L 313.782269 46.725954 
L 313.983131 45.399645 
L 314.499634 45.523042 
L 316.307394 45.927224 
L 319.262938 46.379056 
L 319.865524 46.366826 
L 320.15247 44.443636 
L 320.181165 44.456337 
L 320.324638 44.848339 
L 322.247176 51.792555 
L 323.050625 53.962436 
L 323.882769 56.034259 
L 325.346193 59.611685 
L 325.920085 60.676749 
L 325.94878 60.655407 
L 326.034864 59.61351 
L 326.149642 58.864465 
L 326.178337 58.866154 
L 326.264421 58.920872 
L 326.407894 59.54753 
L 328.559989 71.863106 
L 328.646072 72.066387 
L 329.420827 75.406419 
L 330.855557 81.561239 
L 331.659006 84.295413 
L 332.032035 85.518663 
L 332.06073 85.367467 
L 332.261592 83.763603 
L 332.318981 83.787751 
L 332.43376 84.226329 
L 332.80679 87.215651 
L 334.011963 96.525645 
L 334.758023 101.017665 
L 335.532777 105.346314 
L 336.967507 113.322807 
L 337.742261 116.73119 
L 338.115291 118.34534 
L 338.17268 117.956557 
L 338.258764 116.943581 
L 338.344848 117.005545 
L 338.430932 117.154573 
L 338.660488 118.849573 
L 340.095218 130.533208 
L 340.841278 135.213193 
L 341.616032 139.724847 
L 343.050762 148.039222 
L 343.825517 151.592007 
L 344.198546 153.277404 
L 344.255936 152.833576 
L 344.342019 152.090405 
L 344.399409 152.204663 
L 344.485492 152.287399 
L 344.65766 153.431008 
L 346.293252 165.982877 
L 347.068007 170.540995 
L 347.842761 174.74667 
L 349.277491 182.497875 
L 350.052245 185.783761 
L 350.281802 186.738982 
L 350.310496 186.500357 
L 350.339191 186.092577 
L 350.425275 186.321987 
L 353.495597 201.927371 
L 353.782543 202.826531 
L 355.217273 208.67358 
L 356.020722 211.251325 
L 356.824171 213.622961 
L 358.287596 217.889399 
L 359.119739 219.800778 
L 359.980577 221.617909 
L 361.472696 224.688633 
L 362.390924 226.183607 
L 362.763953 226.988272 
L 362.907426 228.104802 
L 363.050899 228.023912 
L 363.796959 227.697061 
L 365.54733 227.252568 
L 368.158539 226.754479 
L 368.78982 226.713106 
L 368.990682 227.631646 
L 369.134155 228.70518 
L 369.220239 228.325615 
L 369.937604 225.191249 
L 371.085388 221.229967 
L 371.372334 220.598332 
L 372.175783 218.46171 
L 373.553124 214.82813 
L 373.581818 214.793257 
L 373.581818 214.793257 
" style="fill:none;stroke:#1f77b4;stroke-linecap:square;stroke-width:1.5;"/>
   </g>
   <g id="patch_3">
    <path d="M 54 252 
L 54 34.56 
" style="fill:none;stroke:#000000;stroke-linecap:square;stroke-linejoin:miter;stroke-width:0.8;"/>
   </g>
   <g id="patch_4">
    <path d="M 388.8 252 
L 388.8 34.56 
" style="fill:none;stroke:#000000;stroke-linecap:square;stroke-linejoin:miter;stroke-width:0.8;"/>
   </g>
   <g id="patch_5">
    <path d="M 54 252 
L 388.8 252 
" style="fill:none;stroke:#000000;stroke-linecap:square;stroke-linejoin:miter;stroke-width:0.8;"/>
   </g>
   <g id="patch_6">
    <path d="M 54 34.56 
L 388.8 34.56 
" style="fill:none;stroke:#000000;stroke-linecap:square;stroke-linejoin:miter;stroke-width:0.8;"/>
   </g>
   <g id="text_18">
    <!-- Monte Carlo Simulation of Sine Wave Voltage Output -->
    <defs>
     <path d="M 9.8125 72.90625 
L 24.515625 72.90625 
L 43.109375 23.296875 
L 61.8125 72.90625 
L 76.515625 72.90625 
L 76.515625 0 
L 66.890625 0 
L 66.890625 64.015625 
L 48.09375 14.015625 
L 38.1875 14.015625 
L 19.390625 64.015625 
L 19.390625 0 
L 9.8125 0 
z
" id="DejaVuSans-77"/>
     <path d="M 64.40625 67.28125 
L 64.40625 56.890625 
Q 59.421875 61.53125 53.78125 63.8125 
Q 48.140625 66.109375 41.796875 66.109375 
Q 29.296875 66.109375 22.65625 58.46875 
Q 16.015625 50.828125 16.015625 36.375 
Q 16.015625 21.96875 22.65625 14.328125 
Q 29.296875 6.6875 41.796875 6.6875 
Q 48.140625 6.6875 53.78125 8.984375 
Q 59.421875 11.28125 64.40625 15.921875 
L 64.40625 5.609375 
Q 59.234375 2.09375 53.4375 0.328125 
Q 47.65625 -1.421875 41.21875 -1.421875 
Q 24.65625 -1.421875 15.125 8.703125 
Q 5.609375 18.84375 5.609375 36.375 
Q 5.609375 53.953125 15.125 64.078125 
Q 24.65625 74.21875 41.21875 74.21875 
Q 47.75 74.21875 53.53125 72.484375 
Q 59.328125 70.75 64.40625 67.28125 
z
" id="DejaVuSans-67"/>
     <path d="M 34.28125 27.484375 
Q 23.390625 27.484375 19.1875 25 
Q 14.984375 22.515625 14.984375 16.5 
Q 14.984375 11.71875 18.140625 8.90625 
Q 21.296875 6.109375 26.703125 6.109375 
Q 34.1875 6.109375 38.703125 11.40625 
Q 43.21875 16.703125 43.21875 25.484375 
L 43.21875 27.484375 
z
M 52.203125 31.203125 
L 52.203125 0 
L 43.21875 0 
L 43.21875 8.296875 
Q 40.140625 3.328125 35.546875 0.953125 
Q 30.953125 -1.421875 24.3125 -1.421875 
Q 15.921875 -1.421875 10.953125 3.296875 
Q 6 8.015625 6 15.921875 
Q 6 25.140625 12.171875 29.828125 
Q 18.359375 34.515625 30.609375 34.515625 
L 43.21875 34.515625 
L 43.21875 35.40625 
Q 43.21875 41.609375 39.140625 45 
Q 35.0625 48.390625 27.6875 48.390625 
Q 23 48.390625 18.546875 47.265625 
Q 14.109375 46.140625 10.015625 43.890625 
L 10.015625 52.203125 
Q 14.9375 54.109375 19.578125 55.046875 
Q 24.21875 56 28.609375 56 
Q 40.484375 56 46.34375 49.84375 
Q 52.203125 43.703125 52.203125 31.203125 
z
" id="DejaVuSans-97"/>
     <path d="M 41.109375 46.296875 
Q 39.59375 47.171875 37.8125 47.578125 
Q 36.03125 48 33.890625 48 
Q 26.265625 48 22.1875 43.046875 
Q 18.109375 38.09375 18.109375 28.8125 
L 18.109375 0 
L 9.078125 0 
L 9.078125 54.6875 
L 18.109375 54.6875 
L 18.109375 46.1875 
Q 20.953125 51.171875 25.484375 53.578125 
Q 30.03125 56 36.53125 56 
Q 37.453125 56 38.578125 55.875 
Q 39.703125 55.765625 41.0625 55.515625 
z
" id="DejaVuSans-114"/>
     <path d="M 9.421875 75.984375 
L 18.40625 75.984375 
L 18.40625 0 
L 9.421875 0 
z
" id="DejaVuSans-108"/>
     <path d="M 53.515625 70.515625 
L 53.515625 60.890625 
Q 47.90625 63.578125 42.921875 64.890625 
Q 37.9375 66.21875 33.296875 66.21875 
Q 25.25 66.21875 20.875 63.09375 
Q 16.5 59.96875 16.5 54.203125 
Q 16.5 49.359375 19.40625 46.890625 
Q 22.3125 44.4375 30.421875 42.921875 
L 36.375 41.703125 
Q 47.40625 39.59375 52.65625 34.296875 
Q 57.90625 29 57.90625 20.125 
Q 57.90625 9.515625 50.796875 4.046875 
Q 43.703125 -1.421875 29.984375 -1.421875 
Q 24.8125 -1.421875 18.96875 -0.25 
Q 13.140625 0.921875 6.890625 3.21875 
L 6.890625 13.375 
Q 12.890625 10.015625 18.65625 8.296875 
Q 24.421875 6.59375 29.984375 6.59375 
Q 38.421875 6.59375 43.015625 9.90625 
Q 47.609375 13.234375 47.609375 19.390625 
Q 47.609375 24.75 44.3125 27.78125 
Q 41.015625 30.8125 33.5 32.328125 
L 27.484375 33.5 
Q 16.453125 35.6875 11.515625 40.375 
Q 6.59375 45.0625 6.59375 53.421875 
Q 6.59375 63.09375 13.40625 68.65625 
Q 20.21875 74.21875 32.171875 74.21875 
Q 37.3125 74.21875 42.625 73.28125 
Q 47.953125 72.359375 53.515625 70.515625 
z
" id="DejaVuSans-83"/>
     <path d="M 37.109375 75.984375 
L 37.109375 68.5 
L 28.515625 68.5 
Q 23.6875 68.5 21.796875 66.546875 
Q 19.921875 64.59375 19.921875 59.515625 
L 19.921875 54.6875 
L 34.71875 54.6875 
L 34.71875 47.703125 
L 19.921875 47.703125 
L 19.921875 0 
L 10.890625 0 
L 10.890625 47.703125 
L 2.296875 47.703125 
L 2.296875 54.6875 
L 10.890625 54.6875 
L 10.890625 58.5 
Q 10.890625 67.625 15.140625 71.796875 
Q 19.390625 75.984375 28.609375 75.984375 
z
" id="DejaVuSans-102"/>
     <path d="M 3.328125 72.90625 
L 13.28125 72.90625 
L 28.609375 11.28125 
L 43.890625 72.90625 
L 54.984375 72.90625 
L 70.3125 11.28125 
L 85.59375 72.90625 
L 95.609375 72.90625 
L 77.296875 0 
L 64.890625 0 
L 49.515625 63.28125 
L 33.984375 0 
L 21.578125 0 
z
" id="DejaVuSans-87"/>
     <path d="M 2.984375 54.6875 
L 12.5 54.6875 
L 29.59375 8.796875 
L 46.6875 54.6875 
L 56.203125 54.6875 
L 35.6875 0 
L 23.484375 0 
z
" id="DejaVuSans-118"/>
     <path d="M 45.40625 27.984375 
Q 45.40625 37.75 41.375 43.109375 
Q 37.359375 48.484375 30.078125 48.484375 
Q 22.859375 48.484375 18.828125 43.109375 
Q 14.796875 37.75 14.796875 27.984375 
Q 14.796875 18.265625 18.828125 12.890625 
Q 22.859375 7.515625 30.078125 7.515625 
Q 37.359375 7.515625 41.375 12.890625 
Q 45.40625 18.265625 45.40625 27.984375 
z
M 54.390625 6.78125 
Q 54.390625 -7.171875 48.1875 -13.984375 
Q 42 -20.796875 29.203125 -20.796875 
Q 24.46875 -20.796875 20.265625 -20.09375 
Q 16.0625 -19.390625 12.109375 -17.921875 
L 12.109375 -9.1875 
Q 16.0625 -11.328125 19.921875 -12.34375 
Q 23.78125 -13.375 27.78125 -13.375 
Q 36.625 -13.375 41.015625 -8.765625 
Q 45.40625 -4.15625 45.40625 5.171875 
L 45.40625 9.625 
Q 42.625 4.78125 38.28125 2.390625 
Q 33.9375 0 27.875 0 
Q 17.828125 0 11.671875 7.65625 
Q 5.515625 15.328125 5.515625 27.984375 
Q 5.515625 40.671875 11.671875 48.328125 
Q 17.828125 56 27.875 56 
Q 33.9375 56 38.28125 53.609375 
Q 42.625 51.21875 45.40625 46.390625 
L 45.40625 54.6875 
L 54.390625 54.6875 
z
" id="DejaVuSans-103"/>
     <path d="M 39.40625 66.21875 
Q 28.65625 66.21875 22.328125 58.203125 
Q 16.015625 50.203125 16.015625 36.375 
Q 16.015625 22.609375 22.328125 14.59375 
Q 28.65625 6.59375 39.40625 6.59375 
Q 50.140625 6.59375 56.421875 14.59375 
Q 62.703125 22.609375 62.703125 36.375 
Q 62.703125 50.203125 56.421875 58.203125 
Q 50.140625 66.21875 39.40625 66.21875 
z
M 39.40625 74.21875 
Q 54.734375 74.21875 63.90625 63.9375 
Q 73.09375 53.65625 73.09375 36.375 
Q 73.09375 19.140625 63.90625 8.859375 
Q 54.734375 -1.421875 39.40625 -1.421875 
Q 24.03125 -1.421875 14.8125 8.828125 
Q 5.609375 19.09375 5.609375 36.375 
Q 5.609375 53.65625 14.8125 63.9375 
Q 24.03125 74.21875 39.40625 74.21875 
z
" id="DejaVuSans-79"/>
     <path d="M 18.109375 8.203125 
L 18.109375 -20.796875 
L 9.078125 -20.796875 
L 9.078125 54.6875 
L 18.109375 54.6875 
L 18.109375 46.390625 
Q 20.953125 51.265625 25.265625 53.625 
Q 29.59375 56 35.59375 56 
Q 45.5625 56 51.78125 48.09375 
Q 58.015625 40.1875 58.015625 27.296875 
Q 58.015625 14.40625 51.78125 6.484375 
Q 45.5625 -1.421875 35.59375 -1.421875 
Q 29.59375 -1.421875 25.265625 0.953125 
Q 20.953125 3.328125 18.109375 8.203125 
z
M 48.6875 27.296875 
Q 48.6875 37.203125 44.609375 42.84375 
Q 40.53125 48.484375 33.40625 48.484375 
Q 26.265625 48.484375 22.1875 42.84375 
Q 18.109375 37.203125 18.109375 27.296875 
Q 18.109375 17.390625 22.1875 11.75 
Q 26.265625 6.109375 33.40625 6.109375 
Q 40.53125 6.109375 44.609375 11.75 
Q 48.6875 17.390625 48.6875 27.296875 
z
" id="DejaVuSans-112"/>
    </defs>
    <g transform="translate(63.15375 28.56)scale(0.12 -0.12)">
     <use xlink:href="#DejaVuSans-77"/>
     <use x="86.279297" xlink:href="#DejaVuSans-111"/>
     <use x="147.460938" xlink:href="#DejaVuSans-110"/>
     <use x="210.839844" xlink:href="#DejaVuSans-116"/>
     <use x="250.048828" xlink:href="#DejaVuSans-101"/>
     <use x="311.572266" xlink:href="#DejaVuSans-32"/>
     <use x="343.359375" xlink:href="#DejaVuSans-67"/>
     <use x="413.183594" xlink:href="#DejaVuSans-97"/>
     <use x="474.462891" xlink:href="#DejaVuSans-114"/>
     <use x="515.576172" xlink:href="#DejaVuSans-108"/>
     <use x="543.359375" xlink:href="#DejaVuSans-111"/>
     <use x="604.541016" xlink:href="#DejaVuSans-32"/>
     <use x="636.328125" xlink:href="#DejaVuSans-83"/>
     <use x="699.804688" xlink:href="#DejaVuSans-105"/>
     <use x="727.587891" xlink:href="#DejaVuSans-109"/>
     <use x="825" xlink:href="#DejaVuSans-117"/>
     <use x="888.378906" xlink:href="#DejaVuSans-108"/>
     <use x="916.162109" xlink:href="#DejaVuSans-97"/>
     <use x="977.441406" xlink:href="#DejaVuSans-116"/>
     <use x="1016.650391" xlink:href="#DejaVuSans-105"/>
     <use x="1044.433594" xlink:href="#DejaVuSans-111"/>
     <use x="1105.615234" xlink:href="#DejaVuSans-110"/>
     <use x="1168.994141" xlink:href="#DejaVuSans-32"/>
     <use x="1200.78125" xlink:href="#DejaVuSans-111"/>
     <use x="1261.962891" xlink:href="#DejaVuSans-102"/>
     <use x="1297.167969" xlink:href="#DejaVuSans-32"/>
     <use x="1328.955078" xlink:href="#DejaVuSans-83"/>
     <use x="1392.431641" xlink:href="#DejaVuSans-105"/>
     <use x="1420.214844" xlink:href="#DejaVuSans-110"/>
     <use x="1483.59375" xlink:href="#DejaVuSans-101"/>
     <use x="1545.117188" xlink:href="#DejaVuSans-32"/>
     <use x="1576.904297" xlink:href="#DejaVuSans-87"/>
     <use x="1669.40625" xlink:href="#DejaVuSans-97"/>
     <use x="1730.685547" xlink:href="#DejaVuSans-118"/>
     <use x="1789.865234" xlink:href="#DejaVuSans-101"/>
     <use x="1851.388672" xlink:href="#DejaVuSans-32"/>
     <use x="1883.175781" xlink:href="#DejaVuSans-86"/>
     <use x="1943.833984" xlink:href="#DejaVuSans-111"/>
     <use x="2005.015625" xlink:href="#DejaVuSans-108"/>
     <use x="2032.798828" xlink:href="#DejaVuSans-116"/>
     <use x="2072.007812" xlink:href="#DejaVuSans-97"/>
     <use x="2133.287109" xlink:href="#DejaVuSans-103"/>
     <use x="2196.763672" xlink:href="#DejaVuSans-101"/>
     <use x="2258.287109" xlink:href="#DejaVuSans-32"/>
     <use x="2290.074219" xlink:href="#DejaVuSans-79"/>
     <use x="2368.785156" xlink:href="#DejaVuSans-117"/>
     <use x="2432.164062" xlink:href="#DejaVuSans-116"/>
     <use x="2471.373047" xlink:href="#DejaVuSans-112"/>
     <use x="2534.849609" xlink:href="#DejaVuSans-117"/>
     <use x="2598.228516" xlink:href="#DejaVuSans-116"/>
    </g>
   </g>
   <g id="legend_1">
    <g id="patch_7">
     <path d="M 262.432813 247 
L 381.8 247 
Q 383.8 247 383.8 245 
L 383.8 231.321875 
Q 383.8 229.321875 381.8 229.321875 
L 262.432813 229.321875 
Q 260.432813 229.321875 260.432813 231.321875 
L 260.432813 245 
Q 260.432813 247 262.432813 247 
z
" style="fill:#ffffff;opacity:0.8;stroke:#cccccc;stroke-linejoin:miter;"/>
    </g>
    <g id="line2d_16">
     <path d="M 264.432813 237.420312 
L 284.432813 237.420312 
" style="fill:none;stroke:#1f77b4;stroke-linecap:square;stroke-width:1.5;"/>
    </g>
    <g id="line2d_17"/>
    <g id="text_19">
     <!-- v(vout+)-v(vout-) -->
     <defs>
      <path d="M 46 62.703125 
L 46 35.5 
L 73.1875 35.5 
L 73.1875 27.203125 
L 46 27.203125 
L 46 0 
L 37.796875 0 
L 37.796875 27.203125 
L 10.59375 27.203125 
L 10.59375 35.5 
L 37.796875 35.5 
L 37.796875 62.703125 
z
" id="DejaVuSans-43"/>
      <path d="M 4.890625 31.390625 
L 31.203125 31.390625 
L 31.203125 23.390625 
L 4.890625 23.390625 
z
" id="DejaVuSans-45"/>
     </defs>
     <g transform="translate(292.432813 240.920312)scale(0.1 -0.1)">
      <use xlink:href="#DejaVuSans-118"/>
      <use x="59.179688" xlink:href="#DejaVuSans-40"/>
      <use x="98.193359" xlink:href="#DejaVuSans-118"/>
      <use x="157.373047" xlink:href="#DejaVuSans-111"/>
      <use x="218.554688" xlink:href="#DejaVuSans-117"/>
      <use x="281.933594" xlink:href="#DejaVuSans-116"/>
      <use x="321.142578" xlink:href="#DejaVuSans-43"/>
      <use x="404.931641" xlink:href="#DejaVuSans-41"/>
      <use x="443.945312" xlink:href="#DejaVuSans-45"/>
      <use x="477.404297" xlink:href="#DejaVuSans-118"/>
      <use x="536.583984" xlink:href="#DejaVuSans-40"/>
      <use x="575.597656" xlink:href="#DejaVuSans-118"/>
      <use x="634.777344" xlink:href="#DejaVuSans-111"/>
      <use x="695.958984" xlink:href="#DejaVuSans-117"/>
      <use x="759.337891" xlink:href="#DejaVuSans-116"/>
      <use x="798.546875" xlink:href="#DejaVuSans-45"/>
      <use x="834.630859" xlink:href="#DejaVuSans-41"/>
     </g>
    </g>
   </g>
  </g>
 </g>
 <defs>
  <clipPath id="p72dc66ff14">
   <rect height="217.44" width="334.8" x="54" y="34.56"/>
  </clipPath>
 </defs>
</svg>
