<?xml version="1.0" encoding="utf-8" standalone="no"?>
<!DOCTYPE svg PUBLIC "-//W3C//DTD SVG 1.1//EN"
  "http://www.w3.org/Graphics/SVG/1.1/DTD/svg11.dtd">
<!-- Created with matplotlib (https://matplotlib.org/) -->
<svg height="288pt" version="1.1" viewBox="0 0 432 288" width="432pt" xmlns="http://www.w3.org/2000/svg" xmlns:xlink="http://www.w3.org/1999/xlink">
 <defs>
  <style type="text/css">
*{stroke-linecap:butt;stroke-linejoin:round;}
  </style>
 </defs>
 <g id="figure_1">
  <g id="patch_1">
   <path d="M 0 288 
L 432 288 
L 432 0 
L 0 0 
z
" style="fill:#ffffff;"/>
  </g>
  <g id="axes_1">
   <g id="patch_2">
    <path d="M 54 252 
L 388.8 252 
L 388.8 34.56 
L 54 34.56 
z
" style="fill:#ffffff;"/>
   </g>
   <g id="matplotlib.axis_1">
    <g id="xtick_1">
     <g id="line2d_1">
      <defs>
       <path d="M 0 0 
L 0 3.5 
" id="m9e72add096" style="stroke:#000000;stroke-width:0.8;"/>
      </defs>
      <g>
       <use style="stroke:#000000;stroke-width:0.8;" x="69.218182" xlink:href="#m9e72add096" y="252"/>
      </g>
     </g>
     <g id="text_1">
      <!-- 0 -->
      <defs>
       <path d="M 31.78125 66.40625 
Q 24.171875 66.40625 20.328125 58.90625 
Q 16.5 51.421875 16.5 36.375 
Q 16.5 21.390625 20.328125 13.890625 
Q 24.171875 6.390625 31.78125 6.390625 
Q 39.453125 6.390625 43.28125 13.890625 
Q 47.125 21.390625 47.125 36.375 
Q 47.125 51.421875 43.28125 58.90625 
Q 39.453125 66.40625 31.78125 66.40625 
z
M 31.78125 74.21875 
Q 44.046875 74.21875 50.515625 64.515625 
Q 56.984375 54.828125 56.984375 36.375 
Q 56.984375 17.96875 50.515625 8.265625 
Q 44.046875 -1.421875 31.78125 -1.421875 
Q 19.53125 -1.421875 13.0625 8.265625 
Q 6.59375 17.96875 6.59375 36.375 
Q 6.59375 54.828125 13.0625 64.515625 
Q 19.53125 74.21875 31.78125 74.21875 
z
" id="DejaVuSans-48"/>
      </defs>
      <g transform="translate(66.036932 266.598437)scale(0.1 -0.1)">
       <use xlink:href="#DejaVuSans-48"/>
      </g>
     </g>
    </g>
    <g id="xtick_2">
     <g id="line2d_2">
      <g>
       <use style="stroke:#000000;stroke-width:0.8;" x="118.281394" xlink:href="#m9e72add096" y="252"/>
      </g>
     </g>
     <g id="text_2">
      <!-- 2000 -->
      <defs>
       <path d="M 19.1875 8.296875 
L 53.609375 8.296875 
L 53.609375 0 
L 7.328125 0 
L 7.328125 8.296875 
Q 12.9375 14.109375 22.625 23.890625 
Q 32.328125 33.6875 34.8125 36.53125 
Q 39.546875 41.84375 41.421875 45.53125 
Q 43.3125 49.21875 43.3125 52.78125 
Q 43.3125 58.59375 39.234375 62.25 
Q 35.15625 65.921875 28.609375 65.921875 
Q 23.96875 65.921875 18.8125 64.3125 
Q 13.671875 62.703125 7.8125 59.421875 
L 7.8125 69.390625 
Q 13.765625 71.78125 18.9375 73 
Q 24.125 74.21875 28.421875 74.21875 
Q 39.75 74.21875 46.484375 68.546875 
Q 53.21875 62.890625 53.21875 53.421875 
Q 53.21875 48.921875 51.53125 44.890625 
Q 49.859375 40.875 45.40625 35.40625 
Q 44.1875 33.984375 37.640625 27.21875 
Q 31.109375 20.453125 19.1875 8.296875 
z
" id="DejaVuSans-50"/>
      </defs>
      <g transform="translate(105.556394 266.598437)scale(0.1 -0.1)">
       <use xlink:href="#DejaVuSans-50"/>
       <use x="63.623047" xlink:href="#DejaVuSans-48"/>
       <use x="127.246094" xlink:href="#DejaVuSans-48"/>
       <use x="190.869141" xlink:href="#DejaVuSans-48"/>
      </g>
     </g>
    </g>
    <g id="xtick_3">
     <g id="line2d_3">
      <g>
       <use style="stroke:#000000;stroke-width:0.8;" x="167.344606" xlink:href="#m9e72add096" y="252"/>
      </g>
     </g>
     <g id="text_3">
      <!-- 4000 -->
      <defs>
       <path d="M 37.796875 64.3125 
L 12.890625 25.390625 
L 37.796875 25.390625 
z
M 35.203125 72.90625 
L 47.609375 72.90625 
L 47.609375 25.390625 
L 58.015625 25.390625 
L 58.015625 17.1875 
L 47.609375 17.1875 
L 47.609375 0 
L 37.796875 0 
L 37.796875 17.1875 
L 4.890625 17.1875 
L 4.890625 26.703125 
z
" id="DejaVuSans-52"/>
      </defs>
      <g transform="translate(154.619606 266.598437)scale(0.1 -0.1)">
       <use xlink:href="#DejaVuSans-52"/>
       <use x="63.623047" xlink:href="#DejaVuSans-48"/>
       <use x="127.246094" xlink:href="#DejaVuSans-48"/>
       <use x="190.869141" xlink:href="#DejaVuSans-48"/>
      </g>
     </g>
    </g>
    <g id="xtick_4">
     <g id="line2d_4">
      <g>
       <use style="stroke:#000000;stroke-width:0.8;" x="216.407818" xlink:href="#m9e72add096" y="252"/>
      </g>
     </g>
     <g id="text_4">
      <!-- 6000 -->
      <defs>
       <path d="M 33.015625 40.375 
Q 26.375 40.375 22.484375 35.828125 
Q 18.609375 31.296875 18.609375 23.390625 
Q 18.609375 15.53125 22.484375 10.953125 
Q 26.375 6.390625 33.015625 6.390625 
Q 39.65625 6.390625 43.53125 10.953125 
Q 47.40625 15.53125 47.40625 23.390625 
Q 47.40625 31.296875 43.53125 35.828125 
Q 39.65625 40.375 33.015625 40.375 
z
M 52.59375 71.296875 
L 52.59375 62.3125 
Q 48.875 64.0625 45.09375 64.984375 
Q 41.3125 65.921875 37.59375 65.921875 
Q 27.828125 65.921875 22.671875 59.328125 
Q 17.53125 52.734375 16.796875 39.40625 
Q 19.671875 43.65625 24.015625 45.921875 
Q 28.375 48.1875 33.59375 48.1875 
Q 44.578125 48.1875 50.953125 41.515625 
Q 57.328125 34.859375 57.328125 23.390625 
Q 57.328125 12.15625 50.6875 5.359375 
Q 44.046875 -1.421875 33.015625 -1.421875 
Q 20.359375 -1.421875 13.671875 8.265625 
Q 6.984375 17.96875 6.984375 36.375 
Q 6.984375 53.65625 15.1875 63.9375 
Q 23.390625 74.21875 37.203125 74.21875 
Q 40.921875 74.21875 44.703125 73.484375 
Q 48.484375 72.75 52.59375 71.296875 
z
" id="DejaVuSans-54"/>
      </defs>
      <g transform="translate(203.682818 266.598437)scale(0.1 -0.1)">
       <use xlink:href="#DejaVuSans-54"/>
       <use x="63.623047" xlink:href="#DejaVuSans-48"/>
       <use x="127.246094" xlink:href="#DejaVuSans-48"/>
       <use x="190.869141" xlink:href="#DejaVuSans-48"/>
      </g>
     </g>
    </g>
    <g id="xtick_5">
     <g id="line2d_5">
      <g>
       <use style="stroke:#000000;stroke-width:0.8;" x="265.47103" xlink:href="#m9e72add096" y="252"/>
      </g>
     </g>
     <g id="text_5">
      <!-- 8000 -->
      <defs>
       <path d="M 31.78125 34.625 
Q 24.75 34.625 20.71875 30.859375 
Q 16.703125 27.09375 16.703125 20.515625 
Q 16.703125 13.921875 20.71875 10.15625 
Q 24.75 6.390625 31.78125 6.390625 
Q 38.8125 6.390625 42.859375 10.171875 
Q 46.921875 13.96875 46.921875 20.515625 
Q 46.921875 27.09375 42.890625 30.859375 
Q 38.875 34.625 31.78125 34.625 
z
M 21.921875 38.8125 
Q 15.578125 40.375 12.03125 44.71875 
Q 8.5 49.078125 8.5 55.328125 
Q 8.5 64.0625 14.71875 69.140625 
Q 20.953125 74.21875 31.78125 74.21875 
Q 42.671875 74.21875 48.875 69.140625 
Q 55.078125 64.0625 55.078125 55.328125 
Q 55.078125 49.078125 51.53125 44.71875 
Q 48 40.375 41.703125 38.8125 
Q 48.828125 37.15625 52.796875 32.3125 
Q 56.78125 27.484375 56.78125 20.515625 
Q 56.78125 9.90625 50.3125 4.234375 
Q 43.84375 -1.421875 31.78125 -1.421875 
Q 19.734375 -1.421875 13.25 4.234375 
Q 6.78125 9.90625 6.78125 20.515625 
Q 6.78125 27.484375 10.78125 32.3125 
Q 14.796875 37.15625 21.921875 38.8125 
z
M 18.3125 54.390625 
Q 18.3125 48.734375 21.84375 45.5625 
Q 25.390625 42.390625 31.78125 42.390625 
Q 38.140625 42.390625 41.71875 45.5625 
Q 45.3125 48.734375 45.3125 54.390625 
Q 45.3125 60.0625 41.71875 63.234375 
Q 38.140625 66.40625 31.78125 66.40625 
Q 25.390625 66.40625 21.84375 63.234375 
Q 18.3125 60.0625 18.3125 54.390625 
z
" id="DejaVuSans-56"/>
      </defs>
      <g transform="translate(252.74603 266.598437)scale(0.1 -0.1)">
       <use xlink:href="#DejaVuSans-56"/>
       <use x="63.623047" xlink:href="#DejaVuSans-48"/>
       <use x="127.246094" xlink:href="#DejaVuSans-48"/>
       <use x="190.869141" xlink:href="#DejaVuSans-48"/>
      </g>
     </g>
    </g>
    <g id="xtick_6">
     <g id="line2d_6">
      <g>
       <use style="stroke:#000000;stroke-width:0.8;" x="314.534242" xlink:href="#m9e72add096" y="252"/>
      </g>
     </g>
     <g id="text_6">
      <!-- 10000 -->
      <defs>
       <path d="M 12.40625 8.296875 
L 28.515625 8.296875 
L 28.515625 63.921875 
L 10.984375 60.40625 
L 10.984375 69.390625 
L 28.421875 72.90625 
L 38.28125 72.90625 
L 38.28125 8.296875 
L 54.390625 8.296875 
L 54.390625 0 
L 12.40625 0 
z
" id="DejaVuSans-49"/>
      </defs>
      <g transform="translate(298.627992 266.598437)scale(0.1 -0.1)">
       <use xlink:href="#DejaVuSans-49"/>
       <use x="63.623047" xlink:href="#DejaVuSans-48"/>
       <use x="127.246094" xlink:href="#DejaVuSans-48"/>
       <use x="190.869141" xlink:href="#DejaVuSans-48"/>
       <use x="254.492188" xlink:href="#DejaVuSans-48"/>
      </g>
     </g>
    </g>
    <g id="xtick_7">
     <g id="line2d_7">
      <g>
       <use style="stroke:#000000;stroke-width:0.8;" x="363.597455" xlink:href="#m9e72add096" y="252"/>
      </g>
     </g>
     <g id="text_7">
      <!-- 12000 -->
      <g transform="translate(347.691205 266.598437)scale(0.1 -0.1)">
       <use xlink:href="#DejaVuSans-49"/>
       <use x="63.623047" xlink:href="#DejaVuSans-50"/>
       <use x="127.246094" xlink:href="#DejaVuSans-48"/>
       <use x="190.869141" xlink:href="#DejaVuSans-48"/>
       <use x="254.492188" xlink:href="#DejaVuSans-48"/>
      </g>
     </g>
    </g>
    <g id="text_8">
     <!-- Time (ns) -->
     <defs>
      <path d="M -0.296875 72.90625 
L 61.375 72.90625 
L 61.375 64.59375 
L 35.5 64.59375 
L 35.5 0 
L 25.59375 0 
L 25.59375 64.59375 
L -0.296875 64.59375 
z
" id="DejaVuSans-84"/>
      <path d="M 9.421875 54.6875 
L 18.40625 54.6875 
L 18.40625 0 
L 9.421875 0 
z
M 9.421875 75.984375 
L 18.40625 75.984375 
L 18.40625 64.59375 
L 9.421875 64.59375 
z
" id="DejaVuSans-105"/>
      <path d="M 52 44.1875 
Q 55.375 50.25 60.0625 53.125 
Q 64.75 56 71.09375 56 
Q 79.640625 56 84.28125 50.015625 
Q 88.921875 44.046875 88.921875 33.015625 
L 88.921875 0 
L 79.890625 0 
L 79.890625 32.71875 
Q 79.890625 40.578125 77.09375 44.375 
Q 74.3125 48.1875 68.609375 48.1875 
Q 61.625 48.1875 57.5625 43.546875 
Q 53.515625 38.921875 53.515625 30.90625 
L 53.515625 0 
L 44.484375 0 
L 44.484375 32.71875 
Q 44.484375 40.625 41.703125 44.40625 
Q 38.921875 48.1875 33.109375 48.1875 
Q 26.21875 48.1875 22.15625 43.53125 
Q 18.109375 38.875 18.109375 30.90625 
L 18.109375 0 
L 9.078125 0 
L 9.078125 54.6875 
L 18.109375 54.6875 
L 18.109375 46.1875 
Q 21.1875 51.21875 25.484375 53.609375 
Q 29.78125 56 35.6875 56 
Q 41.65625 56 45.828125 52.96875 
Q 50 49.953125 52 44.1875 
z
" id="DejaVuSans-109"/>
      <path d="M 56.203125 29.59375 
L 56.203125 25.203125 
L 14.890625 25.203125 
Q 15.484375 15.921875 20.484375 11.0625 
Q 25.484375 6.203125 34.421875 6.203125 
Q 39.59375 6.203125 44.453125 7.46875 
Q 49.3125 8.734375 54.109375 11.28125 
L 54.109375 2.78125 
Q 49.265625 0.734375 44.1875 -0.34375 
Q 39.109375 -1.421875 33.890625 -1.421875 
Q 20.796875 -1.421875 13.15625 6.1875 
Q 5.515625 13.8125 5.515625 26.8125 
Q 5.515625 40.234375 12.765625 48.109375 
Q 20.015625 56 32.328125 56 
Q 43.359375 56 49.78125 48.890625 
Q 56.203125 41.796875 56.203125 29.59375 
z
M 47.21875 32.234375 
Q 47.125 39.59375 43.09375 43.984375 
Q 39.0625 48.390625 32.421875 48.390625 
Q 24.90625 48.390625 20.390625 44.140625 
Q 15.875 39.890625 15.1875 32.171875 
z
" id="DejaVuSans-101"/>
      <path id="DejaVuSans-32"/>
      <path d="M 31 75.875 
Q 24.46875 64.65625 21.28125 53.65625 
Q 18.109375 42.671875 18.109375 31.390625 
Q 18.109375 20.125 21.3125 9.0625 
Q 24.515625 -2 31 -13.1875 
L 23.1875 -13.1875 
Q 15.875 -1.703125 12.234375 9.375 
Q 8.59375 20.453125 8.59375 31.390625 
Q 8.59375 42.28125 12.203125 53.3125 
Q 15.828125 64.359375 23.1875 75.875 
z
" id="DejaVuSans-40"/>
      <path d="M 54.890625 33.015625 
L 54.890625 0 
L 45.90625 0 
L 45.90625 32.71875 
Q 45.90625 40.484375 42.875 44.328125 
Q 39.84375 48.1875 33.796875 48.1875 
Q 26.515625 48.1875 22.3125 43.546875 
Q 18.109375 38.921875 18.109375 30.90625 
L 18.109375 0 
L 9.078125 0 
L 9.078125 54.6875 
L 18.109375 54.6875 
L 18.109375 46.1875 
Q 21.34375 51.125 25.703125 53.5625 
Q 30.078125 56 35.796875 56 
Q 45.21875 56 50.046875 50.171875 
Q 54.890625 44.34375 54.890625 33.015625 
z
" id="DejaVuSans-110"/>
      <path d="M 44.28125 53.078125 
L 44.28125 44.578125 
Q 40.484375 46.53125 36.375 47.5 
Q 32.28125 48.484375 27.875 48.484375 
Q 21.1875 48.484375 17.84375 46.4375 
Q 14.5 44.390625 14.5 40.28125 
Q 14.5 37.15625 16.890625 35.375 
Q 19.28125 33.59375 26.515625 31.984375 
L 29.59375 31.296875 
Q 39.15625 29.25 43.1875 25.515625 
Q 47.21875 21.78125 47.21875 15.09375 
Q 47.21875 7.46875 41.1875 3.015625 
Q 35.15625 -1.421875 24.609375 -1.421875 
Q 20.21875 -1.421875 15.453125 -0.5625 
Q 10.6875 0.296875 5.421875 2 
L 5.421875 11.28125 
Q 10.40625 8.6875 15.234375 7.390625 
Q 20.0625 6.109375 24.8125 6.109375 
Q 31.15625 6.109375 34.5625 8.28125 
Q 37.984375 10.453125 37.984375 14.40625 
Q 37.984375 18.0625 35.515625 20.015625 
Q 33.0625 21.96875 24.703125 23.78125 
L 21.578125 24.515625 
Q 13.234375 26.265625 9.515625 29.90625 
Q 5.8125 33.546875 5.8125 39.890625 
Q 5.8125 47.609375 11.28125 51.796875 
Q 16.75 56 26.8125 56 
Q 31.78125 56 36.171875 55.265625 
Q 40.578125 54.546875 44.28125 53.078125 
z
" id="DejaVuSans-115"/>
      <path d="M 8.015625 75.875 
L 15.828125 75.875 
Q 23.140625 64.359375 26.78125 53.3125 
Q 30.421875 42.28125 30.421875 31.390625 
Q 30.421875 20.453125 26.78125 9.375 
Q 23.140625 -1.703125 15.828125 -13.1875 
L 8.015625 -13.1875 
Q 14.5 -2 17.703125 9.0625 
Q 20.90625 20.125 20.90625 31.390625 
Q 20.90625 42.671875 17.703125 53.65625 
Q 14.5 64.65625 8.015625 75.875 
z
" id="DejaVuSans-41"/>
     </defs>
     <g transform="translate(197.902344 280.276563)scale(0.1 -0.1)">
      <use xlink:href="#DejaVuSans-84"/>
      <use x="57.958984" xlink:href="#DejaVuSans-105"/>
      <use x="85.742188" xlink:href="#DejaVuSans-109"/>
      <use x="183.154297" xlink:href="#DejaVuSans-101"/>
      <use x="244.677734" xlink:href="#DejaVuSans-32"/>
      <use x="276.464844" xlink:href="#DejaVuSans-40"/>
      <use x="315.478516" xlink:href="#DejaVuSans-110"/>
      <use x="378.857422" xlink:href="#DejaVuSans-115"/>
      <use x="430.957031" xlink:href="#DejaVuSans-41"/>
     </g>
    </g>
   </g>
   <g id="matplotlib.axis_2">
    <g id="ytick_1">
     <g id="line2d_8">
      <defs>
       <path d="M 0 0 
L -3.5 0 
" id="m3a09597be7" style="stroke:#000000;stroke-width:0.8;"/>
      </defs>
      <g>
       <use style="stroke:#000000;stroke-width:0.8;" x="54" xlink:href="#m3a09597be7" y="246.183505"/>
      </g>
     </g>
     <g id="text_9">
      <!-- −4 -->
      <defs>
       <path d="M 10.59375 35.5 
L 73.1875 35.5 
L 73.1875 27.203125 
L 10.59375 27.203125 
z
" id="DejaVuSans-8722"/>
      </defs>
      <g transform="translate(32.257812 249.982724)scale(0.1 -0.1)">
       <use xlink:href="#DejaVuSans-8722"/>
       <use x="83.789062" xlink:href="#DejaVuSans-52"/>
      </g>
     </g>
    </g>
    <g id="ytick_2">
     <g id="line2d_9">
      <g>
       <use style="stroke:#000000;stroke-width:0.8;" x="54" xlink:href="#m3a09597be7" y="209.988071"/>
      </g>
     </g>
     <g id="text_10">
      <!-- −3 -->
      <defs>
       <path d="M 40.578125 39.3125 
Q 47.65625 37.796875 51.625 33 
Q 55.609375 28.21875 55.609375 21.1875 
Q 55.609375 10.40625 48.1875 4.484375 
Q 40.765625 -1.421875 27.09375 -1.421875 
Q 22.515625 -1.421875 17.65625 -0.515625 
Q 12.796875 0.390625 7.625 2.203125 
L 7.625 11.71875 
Q 11.71875 9.328125 16.59375 8.109375 
Q 21.484375 6.890625 26.8125 6.890625 
Q 36.078125 6.890625 40.9375 10.546875 
Q 45.796875 14.203125 45.796875 21.1875 
Q 45.796875 27.640625 41.28125 31.265625 
Q 36.765625 34.90625 28.71875 34.90625 
L 20.21875 34.90625 
L 20.21875 43.015625 
L 29.109375 43.015625 
Q 36.375 43.015625 40.234375 45.921875 
Q 44.09375 48.828125 44.09375 54.296875 
Q 44.09375 59.90625 40.109375 62.90625 
Q 36.140625 65.921875 28.71875 65.921875 
Q 24.65625 65.921875 20.015625 65.03125 
Q 15.375 64.15625 9.8125 62.3125 
L 9.8125 71.09375 
Q 15.4375 72.65625 20.34375 73.4375 
Q 25.25 74.21875 29.59375 74.21875 
Q 40.828125 74.21875 47.359375 69.109375 
Q 53.90625 64.015625 53.90625 55.328125 
Q 53.90625 49.265625 50.4375 45.09375 
Q 46.96875 40.921875 40.578125 39.3125 
z
" id="DejaVuSans-51"/>
      </defs>
      <g transform="translate(32.257812 213.787289)scale(0.1 -0.1)">
       <use xlink:href="#DejaVuSans-8722"/>
       <use x="83.789062" xlink:href="#DejaVuSans-51"/>
      </g>
     </g>
    </g>
    <g id="ytick_3">
     <g id="line2d_10">
      <g>
       <use style="stroke:#000000;stroke-width:0.8;" x="54" xlink:href="#m3a09597be7" y="173.792636"/>
      </g>
     </g>
     <g id="text_11">
      <!-- −2 -->
      <g transform="translate(32.257812 177.591855)scale(0.1 -0.1)">
       <use xlink:href="#DejaVuSans-8722"/>
       <use x="83.789062" xlink:href="#DejaVuSans-50"/>
      </g>
     </g>
    </g>
    <g id="ytick_4">
     <g id="line2d_11">
      <g>
       <use style="stroke:#000000;stroke-width:0.8;" x="54" xlink:href="#m3a09597be7" y="137.597201"/>
      </g>
     </g>
     <g id="text_12">
      <!-- −1 -->
      <g transform="translate(32.257812 141.39642)scale(0.1 -0.1)">
       <use xlink:href="#DejaVuSans-8722"/>
       <use x="83.789062" xlink:href="#DejaVuSans-49"/>
      </g>
     </g>
    </g>
    <g id="ytick_5">
     <g id="line2d_12">
      <g>
       <use style="stroke:#000000;stroke-width:0.8;" x="54" xlink:href="#m3a09597be7" y="101.401767"/>
      </g>
     </g>
     <g id="text_13">
      <!-- 0 -->
      <g transform="translate(40.6375 105.200986)scale(0.1 -0.1)">
       <use xlink:href="#DejaVuSans-48"/>
      </g>
     </g>
    </g>
    <g id="ytick_6">
     <g id="line2d_13">
      <g>
       <use style="stroke:#000000;stroke-width:0.8;" x="54" xlink:href="#m3a09597be7" y="65.206332"/>
      </g>
     </g>
     <g id="text_14">
      <!-- 1 -->
      <g transform="translate(40.6375 69.005551)scale(0.1 -0.1)">
       <use xlink:href="#DejaVuSans-49"/>
      </g>
     </g>
    </g>
    <g id="text_15">
     <!-- Vout (V) -->
     <defs>
      <path d="M 28.609375 0 
L 0.78125 72.90625 
L 11.078125 72.90625 
L 34.1875 11.53125 
L 57.328125 72.90625 
L 67.578125 72.90625 
L 39.796875 0 
z
" id="DejaVuSans-86"/>
      <path d="M 30.609375 48.390625 
Q 23.390625 48.390625 19.1875 42.75 
Q 14.984375 37.109375 14.984375 27.296875 
Q 14.984375 17.484375 19.15625 11.84375 
Q 23.34375 6.203125 30.609375 6.203125 
Q 37.796875 6.203125 41.984375 11.859375 
Q 46.1875 17.53125 46.1875 27.296875 
Q 46.1875 37.015625 41.984375 42.703125 
Q 37.796875 48.390625 30.609375 48.390625 
z
M 30.609375 56 
Q 42.328125 56 49.015625 48.375 
Q 55.71875 40.765625 55.71875 27.296875 
Q 55.71875 13.875 49.015625 6.21875 
Q 42.328125 -1.421875 30.609375 -1.421875 
Q 18.84375 -1.421875 12.171875 6.21875 
Q 5.515625 13.875 5.515625 27.296875 
Q 5.515625 40.765625 12.171875 48.375 
Q 18.84375 56 30.609375 56 
z
" id="DejaVuSans-111"/>
      <path d="M 8.5 21.578125 
L 8.5 54.6875 
L 17.484375 54.6875 
L 17.484375 21.921875 
Q 17.484375 14.15625 20.5 10.265625 
Q 23.53125 6.390625 29.59375 6.390625 
Q 36.859375 6.390625 41.078125 11.03125 
Q 45.3125 15.671875 45.3125 23.6875 
L 45.3125 54.6875 
L 54.296875 54.6875 
L 54.296875 0 
L 45.3125 0 
L 45.3125 8.40625 
Q 42.046875 3.421875 37.71875 1 
Q 33.40625 -1.421875 27.6875 -1.421875 
Q 18.265625 -1.421875 13.375 4.4375 
Q 8.5 10.296875 8.5 21.578125 
z
M 31.109375 56 
z
" id="DejaVuSans-117"/>
      <path d="M 18.3125 70.21875 
L 18.3125 54.6875 
L 36.8125 54.6875 
L 36.8125 47.703125 
L 18.3125 47.703125 
L 18.3125 18.015625 
Q 18.3125 11.328125 20.140625 9.421875 
Q 21.96875 7.515625 27.59375 7.515625 
L 36.8125 7.515625 
L 36.8125 0 
L 27.59375 0 
Q 17.1875 0 13.234375 3.875 
Q 9.28125 7.765625 9.28125 18.015625 
L 9.28125 47.703125 
L 2.6875 47.703125 
L 2.6875 54.6875 
L 9.28125 54.6875 
L 9.28125 70.21875 
z
" id="DejaVuSans-116"/>
     </defs>
     <g transform="translate(26.178125 163.412031)rotate(-90)scale(0.1 -0.1)">
      <use xlink:href="#DejaVuSans-86"/>
      <use x="60.658203" xlink:href="#DejaVuSans-111"/>
      <use x="121.839844" xlink:href="#DejaVuSans-117"/>
      <use x="185.21875" xlink:href="#DejaVuSans-116"/>
      <use x="224.427734" xlink:href="#DejaVuSans-32"/>
      <use x="256.214844" xlink:href="#DejaVuSans-40"/>
      <use x="295.228516" xlink:href="#DejaVuSans-86"/>
      <use x="363.636719" xlink:href="#DejaVuSans-41"/>
     </g>
    </g>
    <g id="text_16">
     <!-- 1e−5 -->
     <defs>
      <path d="M 10.796875 72.90625 
L 49.515625 72.90625 
L 49.515625 64.59375 
L 19.828125 64.59375 
L 19.828125 46.734375 
Q 21.96875 47.46875 24.109375 47.828125 
Q 26.265625 48.1875 28.421875 48.1875 
Q 40.625 48.1875 47.75 41.5 
Q 54.890625 34.8125 54.890625 23.390625 
Q 54.890625 11.625 47.5625 5.09375 
Q 40.234375 -1.421875 26.90625 -1.421875 
Q 22.3125 -1.421875 17.546875 -0.640625 
Q 12.796875 0.140625 7.71875 1.703125 
L 7.71875 11.625 
Q 12.109375 9.234375 16.796875 8.0625 
Q 21.484375 6.890625 26.703125 6.890625 
Q 35.15625 6.890625 40.078125 11.328125 
Q 45.015625 15.765625 45.015625 23.390625 
Q 45.015625 31 40.078125 35.4375 
Q 35.15625 39.890625 26.703125 39.890625 
Q 22.75 39.890625 18.8125 39.015625 
Q 14.890625 38.140625 10.796875 36.28125 
z
" id="DejaVuSans-53"/>
     </defs>
     <g transform="translate(54 31.56)scale(0.1 -0.1)">
      <use xlink:href="#DejaVuSans-49"/>
      <use x="63.623047" xlink:href="#DejaVuSans-101"/>
      <use x="125.146484" xlink:href="#DejaVuSans-8722"/>
      <use x="208.935547" xlink:href="#DejaVuSans-53"/>
     </g>
    </g>
   </g>
   <g id="line2d_14">
    <path clip-path="url(#p1cc86afc37)" d="M 69.218182 240.513079 
L 69.80694 240.616473 
L 69.95413 242.116364 
L 70.003193 241.957285 
L 70.469294 240.710284 
L 70.56742 240.598894 
L 71.205242 239.012556 
L 71.303368 238.923236 
L 71.3279 238.984805 
L 71.597748 240.983901 
L 72.84886 232.828538 
L 72.922454 233.225161 
L 72.971518 233.051717 
L 73.045112 232.932767 
L 73.069644 232.987208 
L 73.143239 233.663872 
L 73.192302 233.126285 
L 73.535744 229.376625 
L 73.609339 228.863828 
L 74.173566 222.143818 
L 74.369819 220.685271 
L 74.418882 220.840735 
L 74.443414 220.775095 
L 74.615135 219.563434 
L 74.664198 219.805845 
L 74.68873 219.968519 
L 74.713262 219.801455 
L 75.866247 202.6595 
L 76.307816 197.413944 
L 76.553132 193.414601 
L 76.626727 192.997823 
L 77.558928 177.049143 
L 77.804244 172.70653 
L 78.074092 167.791919 
L 78.147686 167.345766 
L 79.595051 139.379379 
L 79.668646 138.963176 
L 81.165074 111.973305 
L 81.2632 110.384107 
L 81.876491 99.983134 
L 81.925554 99.727823 
L 82.686034 88.918486 
L 82.78416 87.800782 
L 83.39745 80.425948 
L 83.471045 79.933018 
L 83.789956 74.18774 
L 84.15793 72.419221 
L 84.231525 72.313997 
L 84.992005 68.201904 
L 85.286384 64.273635 
L 85.433573 64.440663 
L 85.703421 64.715691 
L 85.826079 64.85006 
L 86.341243 65.450441 
L 86.414838 65.494554 
L 86.439369 65.405881 
L 86.512964 65.172944 
L 86.684685 62.383054 
L 86.782812 62.681779 
L 87.567823 68.273775 
L 87.935797 70.674205 
L 88.033924 70.548191 
L 88.13205 68.938653 
L 88.230177 69.422175 
L 89.015188 78.299642 
L 89.481288 83.222511 
L 89.554883 83.178572 
L 89.628478 82.191504 
L 89.702073 82.710614 
L 89.996452 87.697035 
L 90.2663 90.631423 
L 90.339895 91.243316 
L 90.977716 100.757836 
L 91.051311 100.847714 
L 91.075843 100.781552 
L 91.100374 100.465371 
L 91.149438 100.895683 
L 93.283687 130.410173 
L 93.357282 130.666818 
L 94.264952 142.729035 
L 94.461204 145.01892 
L 94.829179 147.536319 
L 94.902773 147.866158 
L 95.565127 153.232242 
L 95.638722 153.377605 
L 95.859506 157.074526 
L 96.031227 158.911886 
L 96.546391 159.445453 
L 97.184213 160.609077 
L 97.503124 164.31242 
L 98.631577 159.594592 
L 98.680641 159.522498 
L 98.705172 159.552963 
L 98.803299 160.272053 
L 98.852362 160.222781 
L 98.925957 160.320207 
L 98.999552 161.070579 
L 99.048615 161.456464 
L 99.097678 160.925044 
L 99.392057 158.218834 
L 99.465652 157.757165 
L 99.980816 152.231518 
L 100.078942 151.369401 
L 100.226132 150.677425 
L 100.275195 150.901035 
L 100.324258 150.691537 
L 100.446916 150.15314 
L 100.471448 150.271111 
L 100.520511 150.610815 
L 100.545043 150.345208 
L 100.937548 145.434748 
L 101.035675 144.05925 
L 101.624433 135.741722 
L 101.943344 133.836117 
L 101.967876 133.928844 
L 101.992408 134.039413 
L 102.016939 133.78567 
L 102.973672 117.764228 
L 103.047267 117.446914 
L 103.390709 113.99941 
L 103.464304 112.806392 
L 103.930404 105.093639 
L 104.003999 104.757336 
L 105.500427 82.979781 
L 105.598554 81.698187 
L 106.211844 73.281001 
L 106.260907 73.052377 
L 106.874197 65.404219 
L 107.53655 59.228443 
L 107.610145 59.051348 
L 107.83093 56.775167 
L 108.027183 53.052897 
L 108.29703 52.026641 
L 108.395157 51.905858 
L 109.082042 49.975541 
L 109.180168 49.779763 
L 109.327358 49.113369 
L 109.548142 45.827519 
L 109.597205 45.868392 
L 109.940648 46.857612 
L 110.529406 48.809538 
L 110.750191 49.271672 
L 110.872849 48.736137 
L 110.995507 46.565578 
L 111.069102 46.766938 
L 111.265355 48.565566 
L 111.559734 50.673402 
L 111.633329 51.058298 
L 112.27115 56.941833 
L 112.344745 56.927774 
L 112.393808 56.69776 
L 112.467403 55.433255 
L 112.540998 55.849114 
L 112.786314 59.385508 
L 113.080693 62.436885 
L 113.154288 62.989836 
L 113.79211 71.545109 
L 113.865705 71.617456 
L 113.890236 71.600778 
L 113.963831 70.721267 
L 114.037426 71.354508 
L 114.920564 85.231211 
L 115.337601 91.02271 
L 115.411196 90.981156 
L 115.435728 90.691074 
L 115.484791 91.186331 
L 117.447319 120.820175 
L 117.520914 121.377601 
L 118.183268 130.355114 
L 118.256862 130.611856 
L 118.600305 135.841147 
L 118.796558 138.312276 
L 119.164532 141.062497 
L 119.238127 141.422476 
L 119.90048 147.274033 
L 119.974075 147.433281 
L 120.194859 151.302029 
L 120.36658 153.272518 
L 121.028934 154.48863 
L 121.445971 155.384044 
L 121.495034 155.418968 
L 121.715819 157.727427 
L 121.838477 159.506839 
L 121.912072 159.098955 
L 122.181919 157.995162 
L 122.255514 157.903949 
L 122.991462 155.305204 
L 123.015994 155.263164 
L 123.040526 155.304971 
L 123.138652 156.080325 
L 123.212247 156.070332 
L 123.285842 156.326562 
L 123.383968 157.402156 
L 123.433031 156.897675 
L 123.72741 154.292215 
L 123.801005 153.848827 
L 124.316169 148.560591 
L 124.414295 147.737423 
L 124.561485 147.081586 
L 124.610548 147.32909 
L 124.659612 147.143325 
L 124.78227 146.663578 
L 124.806801 146.793161 
L 124.855864 147.155975 
L 124.880396 146.901866 
L 125.272902 142.113171 
L 125.371028 140.772917 
L 125.959787 132.67758 
L 126.278698 130.872438 
L 126.327761 131.095426 
L 126.352292 130.851481 
L 127.309025 115.131334 
L 127.38262 114.820157 
L 127.726062 111.465546 
L 127.799657 110.297745 
L 128.265758 102.711335 
L 128.339352 102.380585 
L 129.83578 80.965284 
L 129.933907 79.705068 
L 130.547197 71.425753 
L 130.59626 71.198983 
L 131.185019 63.890512 
L 132.190815 54.183072 
L 132.362536 51.531477 
L 132.632383 50.557557 
L 132.73051 50.444102 
L 133.441926 48.608936 
L 133.540053 48.362473 
L 133.687243 47.359435 
L 133.883495 44.539697 
L 133.95709 44.646324 
L 135.085544 48.144613 
L 135.159139 48.008338 
L 135.208202 47.616567 
L 135.33086 45.464515 
L 135.404455 45.67683 
L 135.600708 47.504141 
L 135.895087 49.638526 
L 135.968682 50.02824 
L 136.606504 55.987789 
L 136.680098 55.976271 
L 136.729162 55.750054 
L 136.802757 54.49498 
L 136.876351 54.920173 
L 137.121667 58.487014 
L 137.416047 61.560862 
L 137.489641 62.11789 
L 138.127463 70.737499 
L 138.201058 70.811996 
L 138.22559 70.796391 
L 138.299184 69.924351 
L 138.372779 70.565519 
L 139.255917 84.517275 
L 139.672954 90.340176 
L 139.746549 90.300211 
L 139.771081 90.011942 
L 139.820144 90.51171 
L 141.782673 120.279793 
L 141.856267 120.839733 
L 142.518621 129.857747 
L 142.592216 130.115647 
L 142.935658 135.362473 
L 143.131911 137.846191 
L 143.499885 140.612583 
L 143.57348 140.974656 
L 144.235833 146.859934 
L 144.309428 147.020146 
L 144.530212 150.90083 
L 144.701934 152.880568 
L 145.388819 154.194282 
L 145.781324 155.033607 
L 145.830388 155.069231 
L 146.051172 157.387797 
L 146.17383 159.17282 
L 146.247425 158.76826 
L 146.517273 157.67263 
L 146.590867 157.58217 
L 147.326816 155.008754 
L 147.351347 154.967108 
L 147.375879 155.009703 
L 147.474005 155.788968 
L 147.5476 155.781874 
L 147.621195 156.040974 
L 147.719321 157.120349 
L 147.768384 156.617742 
L 148.062764 154.019287 
L 148.136359 153.57717 
L 148.651522 148.305439 
L 148.749649 147.484979 
L 148.896838 146.831654 
L 148.945902 147.080819 
L 148.994965 146.896704 
L 149.117623 146.421035 
L 149.142154 146.551426 
L 149.191218 146.915845 
L 149.215749 146.662536 
L 149.608255 141.88231 
L 149.706381 140.544507 
L 150.29514 132.464621 
L 150.614051 130.666465 
L 150.663114 130.890823 
L 150.687646 130.647559 
L 151.644378 114.948371 
L 151.717973 114.63762 
L 152.036884 111.317751 
L 152.085947 111.123971 
L 152.601111 102.545803 
L 152.674706 102.21544 
L 154.171134 80.825338 
L 154.26926 79.56661 
L 154.88255 71.296885 
L 154.931613 71.070244 
L 155.520372 63.770248 
L 156.526168 54.07492 
L 156.697889 51.425823 
L 156.967737 50.455541 
L 157.065863 50.342595 
L 157.77728 48.515179 
L 157.875406 48.269711 
L 158.022596 47.267598 
L 158.218849 44.450278 
L 158.292443 44.557795 
L 159.420897 48.06636 
L 159.494492 47.930294 
L 159.543555 47.538834 
L 159.666213 45.388067 
L 159.739808 45.601144 
L 159.936061 47.430445 
L 160.23044 49.566672 
L 160.304035 49.95672 
L 160.941857 55.921545 
L 161.015452 55.910203 
L 161.064515 55.684251 
L 161.13811 54.42983 
L 161.211705 54.855671 
L 161.457021 58.424624 
L 161.7514 61.50003 
L 161.824995 62.057341 
L 162.462816 70.681412 
L 162.536411 70.756058 
L 162.560943 70.740528 
L 162.634538 69.869007 
L 162.708133 70.510724 
L 163.59127 84.467682 
L 164.008308 90.29276 
L 164.081902 90.252905 
L 164.106434 89.964762 
L 164.155497 90.464843 
L 166.118026 120.242229 
L 166.191621 120.802344 
L 166.853974 129.823164 
L 166.927569 130.081145 
L 167.271011 135.329187 
L 167.491796 138.076123 
L 167.835238 140.581292 
L 167.908833 140.94351 
L 168.571186 146.831126 
L 168.644781 146.991405 
L 168.865566 150.872918 
L 169.037287 152.853297 
L 169.724172 154.168937 
L 170.116678 155.00922 
L 170.165741 155.044893 
L 170.386525 157.36416 
L 170.509183 159.149573 
L 170.582778 158.745245 
L 170.852626 157.650183 
L 170.926221 157.559775 
L 171.662169 154.98812 
L 171.6867 154.946502 
L 171.711232 154.989152 
L 171.809358 155.768688 
L 171.882953 155.761797 
L 171.956548 156.021096 
L 172.054674 157.100735 
L 172.103738 156.598258 
L 172.398117 154.000292 
L 172.471712 153.558264 
L 172.986875 148.287682 
L 173.085002 147.467411 
L 173.232192 146.814261 
L 173.281255 147.063541 
L 173.330318 146.879541 
L 173.452976 146.404156 
L 173.477508 146.534604 
L 173.526571 146.899135 
L 173.551102 146.645881 
L 173.943608 141.866246 
L 174.041735 140.528615 
L 174.630493 132.449807 
L 174.949404 130.652138 
L 174.998467 130.876592 
L 175.022999 130.633375 
L 175.979731 114.935651 
L 176.053326 114.62493 
L 176.372237 111.305471 
L 176.4213 111.111773 
L 176.936464 102.534302 
L 177.010059 102.203966 
L 178.506487 80.815624 
L 178.604613 79.557 
L 179.217903 71.287945 
L 179.266967 71.061313 
L 179.855725 63.761909 
L 180.861521 54.067426 
L 181.033242 51.418503 
L 181.30309 50.448473 
L 181.401216 50.335563 
L 182.112633 48.508686 
L 182.210759 48.263288 
L 182.357949 47.261238 
L 182.554202 44.444087 
L 182.627797 44.551666 
L 183.756251 48.060943 
L 183.829845 47.924891 
L 183.878909 47.533453 
L 184.001567 45.382776 
L 184.075161 45.595905 
L 184.271414 47.425343 
L 184.565794 49.561698 
L 184.639388 49.951769 
L 185.27721 55.916958 
L 185.350805 55.905629 
L 185.399868 55.679694 
L 185.473463 54.425319 
L 185.547058 54.851205 
L 185.792374 58.420303 
L 186.086753 61.495816 
L 186.160348 62.053146 
L 186.79817 70.677525 
L 186.871764 70.752182 
L 186.896296 70.736657 
L 186.969891 69.865171 
L 187.043486 70.506926 
L 187.926624 84.464241 
L 188.343661 90.289468 
L 188.417256 90.249622 
L 188.441787 89.961487 
L 188.49085 90.461589 
L 190.453379 120.239614 
L 190.526974 120.79974 
L 191.189327 129.820753 
L 191.262922 130.07874 
L 191.606364 135.326865 
L 191.827149 138.073869 
L 192.170591 140.579107 
L 192.244186 140.941335 
L 192.90654 146.829113 
L 192.980134 146.989397 
L 193.200919 150.870966 
L 193.37264 152.85139 
L 194.059525 154.167163 
L 194.452031 155.007513 
L 194.501094 155.043189 
L 194.721878 157.362505 
L 194.844536 159.147945 
L 194.918131 158.743633 
L 195.187979 157.648612 
L 195.261574 157.558207 
L 195.997522 154.986675 
L 196.022054 154.945059 
L 196.046585 154.987713 
L 196.144712 155.767268 
L 196.218306 155.76039 
L 196.291901 156.019704 
L 196.390028 157.099361 
L 196.439091 156.596893 
L 196.73347 153.998961 
L 196.807065 153.556939 
L 197.322229 148.286439 
L 197.420355 147.466181 
L 197.567545 146.813043 
L 197.616608 147.062332 
L 197.665671 146.87834 
L 197.788329 146.402975 
L 197.812861 146.533426 
L 197.861924 146.897965 
L 197.886456 146.644715 
L 198.278961 141.865123 
L 198.377088 140.527503 
L 198.965846 132.448771 
L 199.284757 130.651138 
L 199.33382 130.875598 
L 199.358352 130.632385 
L 200.315085 114.934765 
L 200.388679 114.624046 
L 200.70759 111.304616 
L 200.756654 111.110924 
L 201.271817 102.533502 
L 201.345412 102.203168 
L 202.84184 80.814953 
L 202.939966 79.556336 
L 203.553257 71.287329 
L 203.60232 71.060697 
L 204.191078 63.761335 
L 205.196874 54.066912 
L 205.368595 51.418001 
L 205.638443 50.447989 
L 205.73657 50.335081 
L 206.447986 48.508242 
L 206.546113 48.262849 
L 206.693302 47.260804 
L 206.889555 44.443664 
L 206.96315 44.551247 
L 208.091604 48.060573 
L 208.165199 47.924523 
L 208.214262 47.533086 
L 208.33692 45.382415 
L 208.410515 45.595547 
L 208.606767 47.424995 
L 208.901147 49.561358 
L 208.974742 49.951431 
L 209.612563 55.916645 
L 209.686158 55.905316 
L 209.735221 55.679383 
L 209.808816 54.425011 
L 209.882411 54.8509 
L 210.127727 58.420007 
L 210.422106 61.495528 
L 210.495701 62.052859 
L 211.133523 70.677258 
L 211.207118 70.751916 
L 211.231649 70.736391 
L 211.305244 69.864908 
L 211.378839 70.506665 
L 212.261977 84.464004 
L 212.679014 90.289241 
L 212.752609 90.249394 
L 212.77714 89.961261 
L 212.826204 90.461364 
L 214.788732 120.23943 
L 214.862327 120.799557 
L 215.52468 129.820583 
L 215.598275 130.07857 
L 215.941718 135.326701 
L 216.162502 138.073709 
L 216.505945 140.578952 
L 216.579539 140.941181 
L 217.241893 146.828969 
L 217.315488 146.989253 
L 217.536272 150.870827 
L 217.707993 152.851254 
L 218.394878 154.167035 
L 218.787384 155.00739 
L 218.836447 155.043067 
L 219.057232 157.362386 
L 219.17989 159.147828 
L 219.253484 158.743517 
L 219.523332 157.648498 
L 219.596927 157.558093 
L 220.332875 154.986571 
L 220.357407 154.944954 
L 220.381938 154.987609 
L 220.480065 155.767165 
L 220.55366 155.760288 
L 220.627254 156.019603 
L 220.725381 157.099261 
L 220.774444 156.596795 
L 221.068823 153.998865 
L 221.142418 153.556844 
L 221.657582 148.286349 
L 221.755708 147.466092 
L 221.902898 146.812955 
L 221.951961 147.062244 
L 222.001024 146.878253 
L 222.123682 146.40289 
L 222.148214 146.533341 
L 222.197277 146.89788 
L 222.221809 146.644631 
L 222.614314 141.865042 
L 222.712441 140.527424 
L 223.301199 132.448697 
L 223.62011 130.651066 
L 223.669174 130.875527 
L 223.693705 130.632314 
L 224.650438 114.934703 
L 224.724033 114.623984 
L 225.042943 111.304556 
L 225.092007 111.110865 
L 225.60717 102.533447 
L 225.680765 102.203113 
L 227.177193 80.814907 
L 227.27532 79.556291 
L 227.88861 71.287288 
L 227.937673 71.060656 
L 228.526432 63.761297 
L 229.532227 54.066879 
L 229.703949 51.417969 
L 229.973796 50.447958 
L 230.071923 50.33505 
L 230.783339 48.508214 
L 230.881466 48.262821 
L 231.028655 47.260776 
L 231.224908 44.443637 
L 231.298503 44.55122 
L 232.426957 48.06055 
L 232.500552 47.924499 
L 232.549615 47.533063 
L 232.672273 45.382392 
L 232.745868 45.595525 
L 232.942121 47.424973 
L 233.2365 49.561337 
L 233.310095 49.95141 
L 233.947916 55.916625 
L 234.021511 55.905296 
L 234.070575 55.679363 
L 234.144169 54.424991 
L 234.217764 54.85088 
L 234.46308 58.419988 
L 234.757459 61.495509 
L 234.831054 62.052841 
L 235.468876 70.677241 
L 235.542471 70.751898 
L 235.567002 70.736373 
L 235.640597 69.86489 
L 235.714192 70.506648 
L 236.59733 84.463988 
L 237.014367 90.289225 
L 237.087962 90.249379 
L 237.112494 89.961245 
L 237.161557 90.461349 
L 239.124085 120.239417 
L 239.19768 120.799544 
L 239.860034 129.82057 
L 239.933628 130.078557 
L 240.277071 135.326688 
L 240.497855 138.073697 
L 240.841298 140.57894 
L 240.914893 140.941169 
L 241.577246 146.828957 
L 241.650841 146.989242 
L 241.871625 150.870816 
L 242.043346 152.851243 
L 242.730231 154.167025 
L 243.122737 155.00738 
L 243.1718 155.043056 
L 243.392585 157.362376 
L 243.515243 159.147818 
L 243.588838 158.743507 
L 243.858685 157.648489 
L 243.93228 157.558084 
L 244.668228 154.986562 
L 244.69276 154.944946 
L 244.717292 154.9876 
L 244.815418 155.767157 
L 244.889013 155.76028 
L 244.962608 156.019595 
L 245.060734 157.099253 
L 245.109797 156.596786 
L 245.404177 153.998857 
L 245.477771 153.556836 
L 245.992935 148.286342 
L 246.091061 147.466085 
L 246.238251 146.812948 
L 246.287314 147.062237 
L 246.336378 146.878246 
L 246.459036 146.402883 
L 246.483567 146.533334 
L 246.53263 146.897874 
L 246.557162 146.644624 
L 246.949668 141.865036 
L 247.047794 140.527417 
L 247.636553 132.448692 
L 247.955464 130.651061 
L 248.004527 130.875521 
L 248.029058 130.632309 
L 248.985791 114.934698 
L 249.059386 114.62398 
L 249.378297 111.304552 
L 249.42736 111.11086 
L 249.942524 102.533443 
L 250.016118 102.203109 
L 251.512546 80.814905 
L 251.610673 79.556288 
L 252.223963 71.287285 
L 252.273026 71.060654 
L 252.861785 63.761295 
L 253.867581 54.066877 
L 254.039302 51.417967 
L 254.30915 50.447957 
L 254.407276 50.335049 
L 255.118693 48.508212 
L 255.216819 48.26282 
L 255.364009 47.260775 
L 255.560261 44.443636 
L 255.633856 44.551219 
L 256.76231 48.060549 
L 256.835905 47.924498 
L 256.884968 47.533063 
L 257.007626 45.382391 
L 257.081221 45.595524 
L 257.277474 47.424973 
L 257.571853 49.561336 
L 257.645448 49.951409 
L 258.28327 55.916624 
L 258.356865 55.905296 
L 258.405928 55.679362 
L 258.479523 54.424991 
L 258.553117 54.85088 
L 258.798433 58.419988 
L 259.092813 61.495508 
L 259.166408 62.05284 
L 259.804229 70.67724 
L 259.877824 70.751898 
L 259.902356 70.736373 
L 259.975951 69.86489 
L 260.049545 70.506648 
L 260.932683 84.463987 
L 261.34972 90.289224 
L 261.423315 90.249378 
L 261.447847 89.961244 
L 261.49691 90.461348 
L 263.459439 120.239416 
L 263.533033 120.799543 
L 264.195387 129.820569 
L 264.268982 130.078556 
L 264.612424 135.326687 
L 264.833209 138.073696 
L 265.176651 140.578939 
L 265.250246 140.941167 
L 265.912599 146.828956 
L 265.986194 146.989241 
L 266.206978 150.870814 
L 266.3787 152.851241 
L 267.065585 154.167024 
L 267.45809 155.007379 
L 267.507154 155.043055 
L 267.727938 157.362375 
L 267.850596 159.147817 
L 267.924191 158.743506 
L 268.194039 157.648488 
L 268.267633 157.558083 
L 269.003582 154.986561 
L 269.028113 154.944945 
L 269.052645 154.987599 
L 269.150771 155.767155 
L 269.224366 155.760279 
L 269.297961 156.019594 
L 269.396087 157.099252 
L 269.44515 156.596785 
L 269.73953 153.998856 
L 269.813125 153.556835 
L 270.328288 148.286341 
L 270.426415 147.466084 
L 270.573604 146.812947 
L 270.622668 147.062236 
L 270.671731 146.878245 
L 270.794389 146.402882 
L 270.81892 146.533333 
L 270.867984 146.897873 
L 270.892515 146.644624 
L 271.285021 141.865035 
L 271.383147 140.527416 
L 271.971906 132.448691 
L 272.290817 130.65106 
L 272.33988 130.875521 
L 272.364412 130.632308 
L 273.321144 114.934698 
L 273.394739 114.623979 
L 273.71365 111.304551 
L 273.762713 111.11086 
L 274.277877 102.533443 
L 274.351472 102.203109 
L 275.8479 80.814905 
L 275.946026 79.556288 
L 276.559316 71.287285 
L 276.608379 71.060654 
L 277.197138 63.761295 
L 278.202934 54.066877 
L 278.374655 51.417967 
L 278.644503 50.447957 
L 278.742629 50.335049 
L 279.454046 48.508212 
L 279.552172 48.26282 
L 279.699362 47.260775 
L 279.895615 44.443636 
L 279.969209 44.55122 
L 281.097663 48.06055 
L 281.171258 47.924499 
L 281.220321 47.533063 
L 281.342979 45.382391 
L 281.416574 45.595524 
L 281.612827 47.424973 
L 281.907206 49.561336 
L 281.980801 49.951409 
L 282.618623 55.916624 
L 282.692218 55.905296 
L 282.741281 55.679362 
L 282.814876 54.424991 
L 282.888471 54.85088 
L 283.133787 58.419988 
L 283.428166 61.495509 
L 283.501761 62.05284 
L 284.139582 70.67724 
L 284.213177 70.751898 
L 284.237709 70.736373 
L 284.311304 69.86489 
L 284.384899 70.506648 
L 285.268036 84.463987 
L 285.685074 90.289224 
L 285.758668 90.249378 
L 285.7832 89.961244 
L 285.832263 90.461348 
L 287.794792 120.239415 
L 287.868387 120.799543 
L 288.53074 129.820569 
L 288.604335 130.078556 
L 288.947777 135.326687 
L 289.168562 138.073696 
L 289.512004 140.578939 
L 289.585599 140.941167 
L 290.247952 146.828956 
L 290.321547 146.98924 
L 290.542332 150.870814 
L 290.714053 152.851241 
L 291.400938 154.167024 
L 291.793444 155.007378 
L 291.842507 155.043055 
L 292.063291 157.362374 
L 292.185949 159.147817 
L 292.259544 158.743505 
L 292.529392 157.648487 
L 292.602987 157.558083 
L 293.338935 154.98656 
L 293.363466 154.944944 
L 293.387998 154.987599 
L 293.486124 155.767155 
L 293.559719 155.760279 
L 293.633314 156.019593 
L 293.73144 157.099252 
L 293.780504 156.596785 
L 294.074883 153.998856 
L 294.148478 153.556835 
L 294.663641 148.286341 
L 294.761768 147.466084 
L 294.908958 146.812947 
L 294.958021 147.062236 
L 295.007084 146.878245 
L 295.129742 146.402882 
L 295.154274 146.533333 
L 295.203337 146.897872 
L 295.227868 146.644623 
L 295.620374 141.865034 
L 295.718501 140.527416 
L 296.307259 132.448691 
L 296.62617 130.65106 
L 296.675233 130.875521 
L 296.699765 130.632308 
L 297.656497 114.934698 
L 297.730092 114.623979 
L 298.049003 111.304551 
L 298.098066 111.11086 
L 298.61323 102.533443 
L 298.686825 102.203109 
L 300.183253 80.814905 
L 300.281379 79.556288 
L 300.894669 71.287285 
L 300.943733 71.060654 
L 301.532491 63.761295 
L 302.538287 54.066877 
L 302.710008 51.417967 
L 302.979856 50.447957 
L 303.077982 50.33505 
L 303.789399 48.508213 
L 303.887525 48.26282 
L 304.034715 47.260776 
L 304.230968 44.443637 
L 304.304563 44.55122 
L 305.433017 48.06055 
L 305.506611 47.924499 
L 305.555675 47.533063 
L 305.678333 45.382392 
L 305.751927 45.595524 
L 305.94818 47.424973 
L 306.24256 49.561336 
L 306.316154 49.951409 
L 306.953976 55.916625 
L 307.027571 55.905296 
L 307.076634 55.679363 
L 307.150229 54.424991 
L 307.223824 54.85088 
L 307.46914 58.419988 
L 307.763519 61.495509 
L 307.837114 62.05284 
L 308.474936 70.67724 
L 308.548531 70.751898 
L 308.573062 70.736373 
L 308.646657 69.86489 
L 308.720252 70.506648 
L 309.60339 84.463987 
L 310.020427 90.289224 
L 310.094022 90.249378 
L 310.118553 89.961244 
L 310.167617 90.461348 
L 312.130145 120.239415 
L 312.20374 120.799543 
L 312.866093 129.820569 
L 312.939688 130.078556 
L 313.28313 135.326687 
L 313.503915 138.073695 
L 313.847357 140.578938 
L 313.920952 140.941167 
L 314.583306 146.828956 
L 314.6569 146.98924 
L 314.877685 150.870814 
L 315.049406 152.851241 
L 315.736291 154.167023 
L 316.128797 155.007378 
L 316.17786 155.043055 
L 316.398644 157.362374 
L 316.521302 159.147816 
L 316.594897 158.743505 
L 316.864745 157.648487 
L 316.93834 157.558083 
L 317.674288 154.98656 
L 317.69882 154.944944 
L 317.723351 154.987599 
L 317.821478 155.767155 
L 317.895072 155.760279 
L 317.968667 156.019593 
L 318.066794 157.099252 
L 318.115857 156.596785 
L 318.410236 153.998856 
L 318.483831 153.556835 
L 318.998995 148.286341 
L 319.097121 147.466084 
L 319.244311 146.812947 
L 319.293374 147.062236 
L 319.342437 146.878245 
L 319.465095 146.402882 
L 319.489627 146.533333 
L 319.53869 146.897872 
L 319.563222 146.644623 
L 319.955727 141.865034 
L 320.053854 140.527416 
L 320.642612 132.448691 
L 320.961523 130.65106 
L 321.010586 130.875521 
L 321.035118 130.632308 
L 321.991851 114.934698 
L 322.065445 114.623979 
L 322.384356 111.304551 
L 322.43342 111.11086 
L 322.948583 102.533443 
L 323.022178 102.203109 
L 324.518606 80.814905 
L 324.616732 79.556288 
L 325.230023 71.287285 
L 325.279086 71.060654 
L 325.867844 63.761295 
L 326.87364 54.066877 
L 327.045361 51.417967 
L 327.315209 50.447957 
L 327.413336 50.33505 
L 328.124752 48.508213 
L 328.222879 48.26282 
L 328.370068 47.260775 
L 328.566321 44.443636 
L 328.639916 44.55122 
L 329.76837 48.06055 
L 329.841965 47.924499 
L 329.891028 47.533063 
L 330.013686 45.382391 
L 330.087281 45.595524 
L 330.283533 47.424973 
L 330.577913 49.561336 
L 330.651508 49.951409 
L 331.289329 55.916625 
L 331.362924 55.905296 
L 331.411987 55.679362 
L 331.485582 54.424991 
L 331.559177 54.85088 
L 331.804493 58.419988 
L 332.098872 61.495509 
L 332.172467 62.05284 
L 332.810289 70.67724 
L 332.883884 70.751898 
L 332.908415 70.736373 
L 332.98201 69.86489 
L 333.055605 70.506648 
L 333.938743 84.463987 
L 334.35578 90.289224 
L 334.429375 90.249378 
L 334.453907 89.961244 
L 334.50297 90.461348 
L 336.465498 120.239415 
L 336.539093 120.799543 
L 337.201446 129.820569 
L 337.275041 130.078556 
L 337.618484 135.326687 
L 337.839268 138.073696 
L 338.182711 140.578939 
L 338.256305 140.941167 
L 338.918659 146.828956 
L 338.992254 146.98924 
L 339.213038 150.870814 
L 339.384759 152.851241 
L 340.071644 154.167024 
L 340.46415 155.007378 
L 340.513213 155.043055 
L 340.733998 157.362375 
L 340.856656 159.147817 
L 340.930251 158.743505 
L 341.200098 157.648487 
L 341.273693 157.558083 
L 342.009641 154.98656 
L 342.034173 154.944944 
L 342.058704 154.987599 
L 342.156831 155.767155 
L 342.230426 155.760279 
L 342.30402 156.019593 
L 342.402147 157.099252 
L 342.45121 156.596785 
L 342.745589 153.998856 
L 342.819184 153.556835 
L 343.334348 148.286341 
L 343.432474 147.466084 
L 343.579664 146.812947 
L 343.628727 147.062236 
L 343.67779 146.878245 
L 343.800448 146.402882 
L 343.82498 146.533333 
L 343.874043 146.897872 
L 343.898575 146.644623 
L 344.291081 141.865034 
L 344.389207 140.527416 
L 344.977966 132.448691 
L 345.296876 130.65106 
L 345.34594 130.875521 
L 345.370471 130.632308 
L 346.327204 114.934698 
L 346.400799 114.623979 
L 346.71971 111.304551 
L 346.768773 111.11086 
L 347.283936 102.533443 
L 347.357531 102.203109 
L 348.853959 80.814905 
L 348.952086 79.556288 
L 349.565376 71.287285 
L 349.614439 71.060654 
L 350.203198 63.761295 
L 351.208993 54.066877 
L 351.380715 51.417967 
L 351.650562 50.447957 
L 351.748689 50.33505 
L 352.460105 48.508213 
L 352.558232 48.26282 
L 352.705421 47.260775 
L 352.901674 44.443637 
L 352.975269 44.55122 
L 354.103723 48.06055 
L 354.177318 47.924499 
L 354.226381 47.533063 
L 354.349039 45.382392 
L 354.422634 45.595524 
L 354.618887 47.424973 
L 354.913266 49.561336 
L 354.986861 49.951409 
L 355.624683 55.916625 
L 355.698277 55.905296 
L 355.747341 55.679363 
L 355.820935 54.424991 
L 355.89453 54.85088 
L 356.139846 58.419988 
L 356.434226 61.495509 
L 356.50782 62.05284 
L 357.145642 70.67724 
L 357.219237 70.751898 
L 357.243769 70.736373 
L 357.317363 69.86489 
L 357.390958 70.506648 
L 358.274096 84.463987 
L 358.691133 90.289224 
L 358.764728 90.249378 
L 358.78926 89.961244 
L 358.838323 90.461348 
L 360.800851 120.239415 
L 360.874446 120.799543 
L 361.5368 129.820569 
L 361.610394 130.078556 
L 361.953837 135.326687 
L 362.174621 138.073695 
L 362.518064 140.578938 
L 362.591659 140.941167 
L 363.254012 146.828956 
L 363.327607 146.98924 
L 363.548391 150.870814 
L 363.720113 152.851241 
L 364.406998 154.167023 
L 364.799503 155.007378 
L 364.848566 155.043055 
L 365.069351 157.362374 
L 365.192009 159.147816 
L 365.265604 158.743505 
L 365.535451 157.648487 
L 365.609046 157.558083 
L 366.344994 154.98656 
L 366.369526 154.944944 
L 366.394058 154.987599 
L 366.492184 155.767155 
L 366.565779 155.760279 
L 366.639374 156.019593 
L 366.7375 157.099252 
L 366.786563 156.596785 
L 367.080943 153.998856 
L 367.154537 153.556835 
L 367.669701 148.286341 
L 367.767828 147.466084 
L 367.915017 146.812947 
L 367.96408 147.062236 
L 368.013144 146.878245 
L 368.135802 146.402882 
L 368.160333 146.533333 
L 368.209396 146.897872 
L 368.233928 146.644623 
L 368.626434 141.865034 
L 368.72456 140.527416 
L 369.313319 132.448691 
L 369.63223 130.65106 
L 369.681293 130.875521 
L 369.705824 130.632308 
L 370.662557 114.934698 
L 370.736152 114.623979 
L 371.055063 111.304551 
L 371.104126 111.11086 
L 371.61929 102.533443 
L 371.692885 102.203109 
L 373.189312 80.814905 
L 373.287439 79.556288 
L 373.581818 75.143114 
L 373.581818 75.143114 
" style="fill:none;stroke:#1f77b4;stroke-linecap:square;stroke-width:1.5;"/>
   </g>
   <g id="patch_3">
    <path d="M 54 252 
L 54 34.56 
" style="fill:none;stroke:#000000;stroke-linecap:square;stroke-linejoin:miter;stroke-width:0.8;"/>
   </g>
   <g id="patch_4">
    <path d="M 388.8 252 
L 388.8 34.56 
" style="fill:none;stroke:#000000;stroke-linecap:square;stroke-linejoin:miter;stroke-width:0.8;"/>
   </g>
   <g id="patch_5">
    <path d="M 54 252 
L 388.8 252 
" style="fill:none;stroke:#000000;stroke-linecap:square;stroke-linejoin:miter;stroke-width:0.8;"/>
   </g>
   <g id="patch_6">
    <path d="M 54 34.56 
L 388.8 34.56 
" style="fill:none;stroke:#000000;stroke-linecap:square;stroke-linejoin:miter;stroke-width:0.8;"/>
   </g>
   <g id="text_17">
    <!-- Monte Carlo Simulation of Sine Wave Voltage Output -->
    <defs>
     <path d="M 9.8125 72.90625 
L 24.515625 72.90625 
L 43.109375 23.296875 
L 61.8125 72.90625 
L 76.515625 72.90625 
L 76.515625 0 
L 66.890625 0 
L 66.890625 64.015625 
L 48.09375 14.015625 
L 38.1875 14.015625 
L 19.390625 64.015625 
L 19.390625 0 
L 9.8125 0 
z
" id="DejaVuSans-77"/>
     <path d="M 64.40625 67.28125 
L 64.40625 56.890625 
Q 59.421875 61.53125 53.78125 63.8125 
Q 48.140625 66.109375 41.796875 66.109375 
Q 29.296875 66.109375 22.65625 58.46875 
Q 16.015625 50.828125 16.015625 36.375 
Q 16.015625 21.96875 22.65625 14.328125 
Q 29.296875 6.6875 41.796875 6.6875 
Q 48.140625 6.6875 53.78125 8.984375 
Q 59.421875 11.28125 64.40625 15.921875 
L 64.40625 5.609375 
Q 59.234375 2.09375 53.4375 0.328125 
Q 47.65625 -1.421875 41.21875 -1.421875 
Q 24.65625 -1.421875 15.125 8.703125 
Q 5.609375 18.84375 5.609375 36.375 
Q 5.609375 53.953125 15.125 64.078125 
Q 24.65625 74.21875 41.21875 74.21875 
Q 47.75 74.21875 53.53125 72.484375 
Q 59.328125 70.75 64.40625 67.28125 
z
" id="DejaVuSans-67"/>
     <path d="M 34.28125 27.484375 
Q 23.390625 27.484375 19.1875 25 
Q 14.984375 22.515625 14.984375 16.5 
Q 14.984375 11.71875 18.140625 8.90625 
Q 21.296875 6.109375 26.703125 6.109375 
Q 34.1875 6.109375 38.703125 11.40625 
Q 43.21875 16.703125 43.21875 25.484375 
L 43.21875 27.484375 
z
M 52.203125 31.203125 
L 52.203125 0 
L 43.21875 0 
L 43.21875 8.296875 
Q 40.140625 3.328125 35.546875 0.953125 
Q 30.953125 -1.421875 24.3125 -1.421875 
Q 15.921875 -1.421875 10.953125 3.296875 
Q 6 8.015625 6 15.921875 
Q 6 25.140625 12.171875 29.828125 
Q 18.359375 34.515625 30.609375 34.515625 
L 43.21875 34.515625 
L 43.21875 35.40625 
Q 43.21875 41.609375 39.140625 45 
Q 35.0625 48.390625 27.6875 48.390625 
Q 23 48.390625 18.546875 47.265625 
Q 14.109375 46.140625 10.015625 43.890625 
L 10.015625 52.203125 
Q 14.9375 54.109375 19.578125 55.046875 
Q 24.21875 56 28.609375 56 
Q 40.484375 56 46.34375 49.84375 
Q 52.203125 43.703125 52.203125 31.203125 
z
" id="DejaVuSans-97"/>
     <path d="M 41.109375 46.296875 
Q 39.59375 47.171875 37.8125 47.578125 
Q 36.03125 48 33.890625 48 
Q 26.265625 48 22.1875 43.046875 
Q 18.109375 38.09375 18.109375 28.8125 
L 18.109375 0 
L 9.078125 0 
L 9.078125 54.6875 
L 18.109375 54.6875 
L 18.109375 46.1875 
Q 20.953125 51.171875 25.484375 53.578125 
Q 30.03125 56 36.53125 56 
Q 37.453125 56 38.578125 55.875 
Q 39.703125 55.765625 41.0625 55.515625 
z
" id="DejaVuSans-114"/>
     <path d="M 9.421875 75.984375 
L 18.40625 75.984375 
L 18.40625 0 
L 9.421875 0 
z
" id="DejaVuSans-108"/>
     <path d="M 53.515625 70.515625 
L 53.515625 60.890625 
Q 47.90625 63.578125 42.921875 64.890625 
Q 37.9375 66.21875 33.296875 66.21875 
Q 25.25 66.21875 20.875 63.09375 
Q 16.5 59.96875 16.5 54.203125 
Q 16.5 49.359375 19.40625 46.890625 
Q 22.3125 44.4375 30.421875 42.921875 
L 36.375 41.703125 
Q 47.40625 39.59375 52.65625 34.296875 
Q 57.90625 29 57.90625 20.125 
Q 57.90625 9.515625 50.796875 4.046875 
Q 43.703125 -1.421875 29.984375 -1.421875 
Q 24.8125 -1.421875 18.96875 -0.25 
Q 13.140625 0.921875 6.890625 3.21875 
L 6.890625 13.375 
Q 12.890625 10.015625 18.65625 8.296875 
Q 24.421875 6.59375 29.984375 6.59375 
Q 38.421875 6.59375 43.015625 9.90625 
Q 47.609375 13.234375 47.609375 19.390625 
Q 47.609375 24.75 44.3125 27.78125 
Q 41.015625 30.8125 33.5 32.328125 
L 27.484375 33.5 
Q 16.453125 35.6875 11.515625 40.375 
Q 6.59375 45.0625 6.59375 53.421875 
Q 6.59375 63.09375 13.40625 68.65625 
Q 20.21875 74.21875 32.171875 74.21875 
Q 37.3125 74.21875 42.625 73.28125 
Q 47.953125 72.359375 53.515625 70.515625 
z
" id="DejaVuSans-83"/>
     <path d="M 37.109375 75.984375 
L 37.109375 68.5 
L 28.515625 68.5 
Q 23.6875 68.5 21.796875 66.546875 
Q 19.921875 64.59375 19.921875 59.515625 
L 19.921875 54.6875 
L 34.71875 54.6875 
L 34.71875 47.703125 
L 19.921875 47.703125 
L 19.921875 0 
L 10.890625 0 
L 10.890625 47.703125 
L 2.296875 47.703125 
L 2.296875 54.6875 
L 10.890625 54.6875 
L 10.890625 58.5 
Q 10.890625 67.625 15.140625 71.796875 
Q 19.390625 75.984375 28.609375 75.984375 
z
" id="DejaVuSans-102"/>
     <path d="M 3.328125 72.90625 
L 13.28125 72.90625 
L 28.609375 11.28125 
L 43.890625 72.90625 
L 54.984375 72.90625 
L 70.3125 11.28125 
L 85.59375 72.90625 
L 95.609375 72.90625 
L 77.296875 0 
L 64.890625 0 
L 49.515625 63.28125 
L 33.984375 0 
L 21.578125 0 
z
" id="DejaVuSans-87"/>
     <path d="M 2.984375 54.6875 
L 12.5 54.6875 
L 29.59375 8.796875 
L 46.6875 54.6875 
L 56.203125 54.6875 
L 35.6875 0 
L 23.484375 0 
z
" id="DejaVuSans-118"/>
     <path d="M 45.40625 27.984375 
Q 45.40625 37.75 41.375 43.109375 
Q 37.359375 48.484375 30.078125 48.484375 
Q 22.859375 48.484375 18.828125 43.109375 
Q 14.796875 37.75 14.796875 27.984375 
Q 14.796875 18.265625 18.828125 12.890625 
Q 22.859375 7.515625 30.078125 7.515625 
Q 37.359375 7.515625 41.375 12.890625 
Q 45.40625 18.265625 45.40625 27.984375 
z
M 54.390625 6.78125 
Q 54.390625 -7.171875 48.1875 -13.984375 
Q 42 -20.796875 29.203125 -20.796875 
Q 24.46875 -20.796875 20.265625 -20.09375 
Q 16.0625 -19.390625 12.109375 -17.921875 
L 12.109375 -9.1875 
Q 16.0625 -11.328125 19.921875 -12.34375 
Q 23.78125 -13.375 27.78125 -13.375 
Q 36.625 -13.375 41.015625 -8.765625 
Q 45.40625 -4.15625 45.40625 5.171875 
L 45.40625 9.625 
Q 42.625 4.78125 38.28125 2.390625 
Q 33.9375 0 27.875 0 
Q 17.828125 0 11.671875 7.65625 
Q 5.515625 15.328125 5.515625 27.984375 
Q 5.515625 40.671875 11.671875 48.328125 
Q 17.828125 56 27.875 56 
Q 33.9375 56 38.28125 53.609375 
Q 42.625 51.21875 45.40625 46.390625 
L 45.40625 54.6875 
L 54.390625 54.6875 
z
" id="DejaVuSans-103"/>
     <path d="M 39.40625 66.21875 
Q 28.65625 66.21875 22.328125 58.203125 
Q 16.015625 50.203125 16.015625 36.375 
Q 16.015625 22.609375 22.328125 14.59375 
Q 28.65625 6.59375 39.40625 6.59375 
Q 50.140625 6.59375 56.421875 14.59375 
Q 62.703125 22.609375 62.703125 36.375 
Q 62.703125 50.203125 56.421875 58.203125 
Q 50.140625 66.21875 39.40625 66.21875 
z
M 39.40625 74.21875 
Q 54.734375 74.21875 63.90625 63.9375 
Q 73.09375 53.65625 73.09375 36.375 
Q 73.09375 19.140625 63.90625 8.859375 
Q 54.734375 -1.421875 39.40625 -1.421875 
Q 24.03125 -1.421875 14.8125 8.828125 
Q 5.609375 19.09375 5.609375 36.375 
Q 5.609375 53.65625 14.8125 63.9375 
Q 24.03125 74.21875 39.40625 74.21875 
z
" id="DejaVuSans-79"/>
     <path d="M 18.109375 8.203125 
L 18.109375 -20.796875 
L 9.078125 -20.796875 
L 9.078125 54.6875 
L 18.109375 54.6875 
L 18.109375 46.390625 
Q 20.953125 51.265625 25.265625 53.625 
Q 29.59375 56 35.59375 56 
Q 45.5625 56 51.78125 48.09375 
Q 58.015625 40.1875 58.015625 27.296875 
Q 58.015625 14.40625 51.78125 6.484375 
Q 45.5625 -1.421875 35.59375 -1.421875 
Q 29.59375 -1.421875 25.265625 0.953125 
Q 20.953125 3.328125 18.109375 8.203125 
z
M 48.6875 27.296875 
Q 48.6875 37.203125 44.609375 42.84375 
Q 40.53125 48.484375 33.40625 48.484375 
Q 26.265625 48.484375 22.1875 42.84375 
Q 18.109375 37.203125 18.109375 27.296875 
Q 18.109375 17.390625 22.1875 11.75 
Q 26.265625 6.109375 33.40625 6.109375 
Q 40.53125 6.109375 44.609375 11.75 
Q 48.6875 17.390625 48.6875 27.296875 
z
" id="DejaVuSans-112"/>
    </defs>
    <g transform="translate(63.15375 28.56)scale(0.12 -0.12)">
     <use xlink:href="#DejaVuSans-77"/>
     <use x="86.279297" xlink:href="#DejaVuSans-111"/>
     <use x="147.460938" xlink:href="#DejaVuSans-110"/>
     <use x="210.839844" xlink:href="#DejaVuSans-116"/>
     <use x="250.048828" xlink:href="#DejaVuSans-101"/>
     <use x="311.572266" xlink:href="#DejaVuSans-32"/>
     <use x="343.359375" xlink:href="#DejaVuSans-67"/>
     <use x="413.183594" xlink:href="#DejaVuSans-97"/>
     <use x="474.462891" xlink:href="#DejaVuSans-114"/>
     <use x="515.576172" xlink:href="#DejaVuSans-108"/>
     <use x="543.359375" xlink:href="#DejaVuSans-111"/>
     <use x="604.541016" xlink:href="#DejaVuSans-32"/>
     <use x="636.328125" xlink:href="#DejaVuSans-83"/>
     <use x="699.804688" xlink:href="#DejaVuSans-105"/>
     <use x="727.587891" xlink:href="#DejaVuSans-109"/>
     <use x="825" xlink:href="#DejaVuSans-117"/>
     <use x="888.378906" xlink:href="#DejaVuSans-108"/>
     <use x="916.162109" xlink:href="#DejaVuSans-97"/>
     <use x="977.441406" xlink:href="#DejaVuSans-116"/>
     <use x="1016.650391" xlink:href="#DejaVuSans-105"/>
     <use x="1044.433594" xlink:href="#DejaVuSans-111"/>
     <use x="1105.615234" xlink:href="#DejaVuSans-110"/>
     <use x="1168.994141" xlink:href="#DejaVuSans-32"/>
     <use x="1200.78125" xlink:href="#DejaVuSans-111"/>
     <use x="1261.962891" xlink:href="#DejaVuSans-102"/>
     <use x="1297.167969" xlink:href="#DejaVuSans-32"/>
     <use x="1328.955078" xlink:href="#DejaVuSans-83"/>
     <use x="1392.431641" xlink:href="#DejaVuSans-105"/>
     <use x="1420.214844" xlink:href="#DejaVuSans-110"/>
     <use x="1483.59375" xlink:href="#DejaVuSans-101"/>
     <use x="1545.117188" xlink:href="#DejaVuSans-32"/>
     <use x="1576.904297" xlink:href="#DejaVuSans-87"/>
     <use x="1669.40625" xlink:href="#DejaVuSans-97"/>
     <use x="1730.685547" xlink:href="#DejaVuSans-118"/>
     <use x="1789.865234" xlink:href="#DejaVuSans-101"/>
     <use x="1851.388672" xlink:href="#DejaVuSans-32"/>
     <use x="1883.175781" xlink:href="#DejaVuSans-86"/>
     <use x="1943.833984" xlink:href="#DejaVuSans-111"/>
     <use x="2005.015625" xlink:href="#DejaVuSans-108"/>
     <use x="2032.798828" xlink:href="#DejaVuSans-116"/>
     <use x="2072.007812" xlink:href="#DejaVuSans-97"/>
     <use x="2133.287109" xlink:href="#DejaVuSans-103"/>
     <use x="2196.763672" xlink:href="#DejaVuSans-101"/>
     <use x="2258.287109" xlink:href="#DejaVuSans-32"/>
     <use x="2290.074219" xlink:href="#DejaVuSans-79"/>
     <use x="2368.785156" xlink:href="#DejaVuSans-117"/>
     <use x="2432.164062" xlink:href="#DejaVuSans-116"/>
     <use x="2471.373047" xlink:href="#DejaVuSans-112"/>
     <use x="2534.849609" xlink:href="#DejaVuSans-117"/>
     <use x="2598.228516" xlink:href="#DejaVuSans-116"/>
    </g>
   </g>
   <g id="legend_1">
    <g id="patch_7">
     <path d="M 262.432813 247 
L 381.8 247 
Q 383.8 247 383.8 245 
L 383.8 231.321875 
Q 383.8 229.321875 381.8 229.321875 
L 262.432813 229.321875 
Q 260.432813 229.321875 260.432813 231.321875 
L 260.432813 245 
Q 260.432813 247 262.432813 247 
z
" style="fill:#ffffff;opacity:0.8;stroke:#cccccc;stroke-linejoin:miter;"/>
    </g>
    <g id="line2d_15">
     <path d="M 264.432813 237.420312 
L 284.432813 237.420312 
" style="fill:none;stroke:#1f77b4;stroke-linecap:square;stroke-width:1.5;"/>
    </g>
    <g id="line2d_16"/>
    <g id="text_18">
     <!-- v(vout+)-v(vout-) -->
     <defs>
      <path d="M 46 62.703125 
L 46 35.5 
L 73.1875 35.5 
L 73.1875 27.203125 
L 46 27.203125 
L 46 0 
L 37.796875 0 
L 37.796875 27.203125 
L 10.59375 27.203125 
L 10.59375 35.5 
L 37.796875 35.5 
L 37.796875 62.703125 
z
" id="DejaVuSans-43"/>
      <path d="M 4.890625 31.390625 
L 31.203125 31.390625 
L 31.203125 23.390625 
L 4.890625 23.390625 
z
" id="DejaVuSans-45"/>
     </defs>
     <g transform="translate(292.432813 240.920312)scale(0.1 -0.1)">
      <use xlink:href="#DejaVuSans-118"/>
      <use x="59.179688" xlink:href="#DejaVuSans-40"/>
      <use x="98.193359" xlink:href="#DejaVuSans-118"/>
      <use x="157.373047" xlink:href="#DejaVuSans-111"/>
      <use x="218.554688" xlink:href="#DejaVuSans-117"/>
      <use x="281.933594" xlink:href="#DejaVuSans-116"/>
      <use x="321.142578" xlink:href="#DejaVuSans-43"/>
      <use x="404.931641" xlink:href="#DejaVuSans-41"/>
      <use x="443.945312" xlink:href="#DejaVuSans-45"/>
      <use x="477.404297" xlink:href="#DejaVuSans-118"/>
      <use x="536.583984" xlink:href="#DejaVuSans-40"/>
      <use x="575.597656" xlink:href="#DejaVuSans-118"/>
      <use x="634.777344" xlink:href="#DejaVuSans-111"/>
      <use x="695.958984" xlink:href="#DejaVuSans-117"/>
      <use x="759.337891" xlink:href="#DejaVuSans-116"/>
      <use x="798.546875" xlink:href="#DejaVuSans-45"/>
      <use x="834.630859" xlink:href="#DejaVuSans-41"/>
     </g>
    </g>
   </g>
  </g>
 </g>
 <defs>
  <clipPath id="p1cc86afc37">
   <rect height="217.44" width="334.8" x="54" y="34.56"/>
  </clipPath>
 </defs>
</svg>
