<?xml version="1.0" encoding="utf-8" standalone="no"?>
<!DOCTYPE svg PUBLIC "-//W3C//DTD SVG 1.1//EN"
  "http://www.w3.org/Graphics/SVG/1.1/DTD/svg11.dtd">
<!-- Created with matplotlib (https://matplotlib.org/) -->
<svg height="288pt" version="1.1" viewBox="0 0 432 288" width="432pt" xmlns="http://www.w3.org/2000/svg" xmlns:xlink="http://www.w3.org/1999/xlink">
 <defs>
  <style type="text/css">
*{stroke-linecap:butt;stroke-linejoin:round;}
  </style>
 </defs>
 <g id="figure_1">
  <g id="patch_1">
   <path d="M 0 288 
L 432 288 
L 432 0 
L 0 0 
z
" style="fill:#ffffff;"/>
  </g>
  <g id="axes_1">
   <g id="patch_2">
    <path d="M 54 252 
L 388.8 252 
L 388.8 34.56 
L 54 34.56 
z
" style="fill:#ffffff;"/>
   </g>
   <g id="matplotlib.axis_1">
    <g id="xtick_1">
     <g id="line2d_1">
      <defs>
       <path d="M 0 0 
L 0 3.5 
" id="m10ad909f20" style="stroke:#000000;stroke-width:0.8;"/>
      </defs>
      <g>
       <use style="stroke:#000000;stroke-width:0.8;" x="69.218182" xlink:href="#m10ad909f20" y="252"/>
      </g>
     </g>
     <g id="text_1">
      <!-- 0 -->
      <defs>
       <path d="M 31.78125 66.40625 
Q 24.171875 66.40625 20.328125 58.90625 
Q 16.5 51.421875 16.5 36.375 
Q 16.5 21.390625 20.328125 13.890625 
Q 24.171875 6.390625 31.78125 6.390625 
Q 39.453125 6.390625 43.28125 13.890625 
Q 47.125 21.390625 47.125 36.375 
Q 47.125 51.421875 43.28125 58.90625 
Q 39.453125 66.40625 31.78125 66.40625 
z
M 31.78125 74.21875 
Q 44.046875 74.21875 50.515625 64.515625 
Q 56.984375 54.828125 56.984375 36.375 
Q 56.984375 17.96875 50.515625 8.265625 
Q 44.046875 -1.421875 31.78125 -1.421875 
Q 19.53125 -1.421875 13.0625 8.265625 
Q 6.59375 17.96875 6.59375 36.375 
Q 6.59375 54.828125 13.0625 64.515625 
Q 19.53125 74.21875 31.78125 74.21875 
z
" id="DejaVuSans-48"/>
      </defs>
      <g transform="translate(66.036932 266.598437)scale(0.1 -0.1)">
       <use xlink:href="#DejaVuSans-48"/>
      </g>
     </g>
    </g>
    <g id="xtick_2">
     <g id="line2d_2">
      <g>
       <use style="stroke:#000000;stroke-width:0.8;" x="129.97547" xlink:href="#m10ad909f20" y="252"/>
      </g>
     </g>
     <g id="text_2">
      <!-- 2000 -->
      <defs>
       <path d="M 19.1875 8.296875 
L 53.609375 8.296875 
L 53.609375 0 
L 7.328125 0 
L 7.328125 8.296875 
Q 12.9375 14.109375 22.625 23.890625 
Q 32.328125 33.6875 34.8125 36.53125 
Q 39.546875 41.84375 41.421875 45.53125 
Q 43.3125 49.21875 43.3125 52.78125 
Q 43.3125 58.59375 39.234375 62.25 
Q 35.15625 65.921875 28.609375 65.921875 
Q 23.96875 65.921875 18.8125 64.3125 
Q 13.671875 62.703125 7.8125 59.421875 
L 7.8125 69.390625 
Q 13.765625 71.78125 18.9375 73 
Q 24.125 74.21875 28.421875 74.21875 
Q 39.75 74.21875 46.484375 68.546875 
Q 53.21875 62.890625 53.21875 53.421875 
Q 53.21875 48.921875 51.53125 44.890625 
Q 49.859375 40.875 45.40625 35.40625 
Q 44.1875 33.984375 37.640625 27.21875 
Q 31.109375 20.453125 19.1875 8.296875 
z
" id="DejaVuSans-50"/>
      </defs>
      <g transform="translate(117.25047 266.598437)scale(0.1 -0.1)">
       <use xlink:href="#DejaVuSans-50"/>
       <use x="63.623047" xlink:href="#DejaVuSans-48"/>
       <use x="127.246094" xlink:href="#DejaVuSans-48"/>
       <use x="190.869141" xlink:href="#DejaVuSans-48"/>
      </g>
     </g>
    </g>
    <g id="xtick_3">
     <g id="line2d_3">
      <g>
       <use style="stroke:#000000;stroke-width:0.8;" x="190.732759" xlink:href="#m10ad909f20" y="252"/>
      </g>
     </g>
     <g id="text_3">
      <!-- 4000 -->
      <defs>
       <path d="M 37.796875 64.3125 
L 12.890625 25.390625 
L 37.796875 25.390625 
z
M 35.203125 72.90625 
L 47.609375 72.90625 
L 47.609375 25.390625 
L 58.015625 25.390625 
L 58.015625 17.1875 
L 47.609375 17.1875 
L 47.609375 0 
L 37.796875 0 
L 37.796875 17.1875 
L 4.890625 17.1875 
L 4.890625 26.703125 
z
" id="DejaVuSans-52"/>
      </defs>
      <g transform="translate(178.007759 266.598437)scale(0.1 -0.1)">
       <use xlink:href="#DejaVuSans-52"/>
       <use x="63.623047" xlink:href="#DejaVuSans-48"/>
       <use x="127.246094" xlink:href="#DejaVuSans-48"/>
       <use x="190.869141" xlink:href="#DejaVuSans-48"/>
      </g>
     </g>
    </g>
    <g id="xtick_4">
     <g id="line2d_4">
      <g>
       <use style="stroke:#000000;stroke-width:0.8;" x="251.490047" xlink:href="#m10ad909f20" y="252"/>
      </g>
     </g>
     <g id="text_4">
      <!-- 6000 -->
      <defs>
       <path d="M 33.015625 40.375 
Q 26.375 40.375 22.484375 35.828125 
Q 18.609375 31.296875 18.609375 23.390625 
Q 18.609375 15.53125 22.484375 10.953125 
Q 26.375 6.390625 33.015625 6.390625 
Q 39.65625 6.390625 43.53125 10.953125 
Q 47.40625 15.53125 47.40625 23.390625 
Q 47.40625 31.296875 43.53125 35.828125 
Q 39.65625 40.375 33.015625 40.375 
z
M 52.59375 71.296875 
L 52.59375 62.3125 
Q 48.875 64.0625 45.09375 64.984375 
Q 41.3125 65.921875 37.59375 65.921875 
Q 27.828125 65.921875 22.671875 59.328125 
Q 17.53125 52.734375 16.796875 39.40625 
Q 19.671875 43.65625 24.015625 45.921875 
Q 28.375 48.1875 33.59375 48.1875 
Q 44.578125 48.1875 50.953125 41.515625 
Q 57.328125 34.859375 57.328125 23.390625 
Q 57.328125 12.15625 50.6875 5.359375 
Q 44.046875 -1.421875 33.015625 -1.421875 
Q 20.359375 -1.421875 13.671875 8.265625 
Q 6.984375 17.96875 6.984375 36.375 
Q 6.984375 53.65625 15.1875 63.9375 
Q 23.390625 74.21875 37.203125 74.21875 
Q 40.921875 74.21875 44.703125 73.484375 
Q 48.484375 72.75 52.59375 71.296875 
z
" id="DejaVuSans-54"/>
      </defs>
      <g transform="translate(238.765047 266.598437)scale(0.1 -0.1)">
       <use xlink:href="#DejaVuSans-54"/>
       <use x="63.623047" xlink:href="#DejaVuSans-48"/>
       <use x="127.246094" xlink:href="#DejaVuSans-48"/>
       <use x="190.869141" xlink:href="#DejaVuSans-48"/>
      </g>
     </g>
    </g>
    <g id="xtick_5">
     <g id="line2d_5">
      <g>
       <use style="stroke:#000000;stroke-width:0.8;" x="312.247336" xlink:href="#m10ad909f20" y="252"/>
      </g>
     </g>
     <g id="text_5">
      <!-- 8000 -->
      <defs>
       <path d="M 31.78125 34.625 
Q 24.75 34.625 20.71875 30.859375 
Q 16.703125 27.09375 16.703125 20.515625 
Q 16.703125 13.921875 20.71875 10.15625 
Q 24.75 6.390625 31.78125 6.390625 
Q 38.8125 6.390625 42.859375 10.171875 
Q 46.921875 13.96875 46.921875 20.515625 
Q 46.921875 27.09375 42.890625 30.859375 
Q 38.875 34.625 31.78125 34.625 
z
M 21.921875 38.8125 
Q 15.578125 40.375 12.03125 44.71875 
Q 8.5 49.078125 8.5 55.328125 
Q 8.5 64.0625 14.71875 69.140625 
Q 20.953125 74.21875 31.78125 74.21875 
Q 42.671875 74.21875 48.875 69.140625 
Q 55.078125 64.0625 55.078125 55.328125 
Q 55.078125 49.078125 51.53125 44.71875 
Q 48 40.375 41.703125 38.8125 
Q 48.828125 37.15625 52.796875 32.3125 
Q 56.78125 27.484375 56.78125 20.515625 
Q 56.78125 9.90625 50.3125 4.234375 
Q 43.84375 -1.421875 31.78125 -1.421875 
Q 19.734375 -1.421875 13.25 4.234375 
Q 6.78125 9.90625 6.78125 20.515625 
Q 6.78125 27.484375 10.78125 32.3125 
Q 14.796875 37.15625 21.921875 38.8125 
z
M 18.3125 54.390625 
Q 18.3125 48.734375 21.84375 45.5625 
Q 25.390625 42.390625 31.78125 42.390625 
Q 38.140625 42.390625 41.71875 45.5625 
Q 45.3125 48.734375 45.3125 54.390625 
Q 45.3125 60.0625 41.71875 63.234375 
Q 38.140625 66.40625 31.78125 66.40625 
Q 25.390625 66.40625 21.84375 63.234375 
Q 18.3125 60.0625 18.3125 54.390625 
z
" id="DejaVuSans-56"/>
      </defs>
      <g transform="translate(299.522336 266.598437)scale(0.1 -0.1)">
       <use xlink:href="#DejaVuSans-56"/>
       <use x="63.623047" xlink:href="#DejaVuSans-48"/>
       <use x="127.246094" xlink:href="#DejaVuSans-48"/>
       <use x="190.869141" xlink:href="#DejaVuSans-48"/>
      </g>
     </g>
    </g>
    <g id="xtick_6">
     <g id="line2d_6">
      <g>
       <use style="stroke:#000000;stroke-width:0.8;" x="373.004624" xlink:href="#m10ad909f20" y="252"/>
      </g>
     </g>
     <g id="text_6">
      <!-- 10000 -->
      <defs>
       <path d="M 12.40625 8.296875 
L 28.515625 8.296875 
L 28.515625 63.921875 
L 10.984375 60.40625 
L 10.984375 69.390625 
L 28.421875 72.90625 
L 38.28125 72.90625 
L 38.28125 8.296875 
L 54.390625 8.296875 
L 54.390625 0 
L 12.40625 0 
z
" id="DejaVuSans-49"/>
      </defs>
      <g transform="translate(357.098374 266.598437)scale(0.1 -0.1)">
       <use xlink:href="#DejaVuSans-49"/>
       <use x="63.623047" xlink:href="#DejaVuSans-48"/>
       <use x="127.246094" xlink:href="#DejaVuSans-48"/>
       <use x="190.869141" xlink:href="#DejaVuSans-48"/>
       <use x="254.492188" xlink:href="#DejaVuSans-48"/>
      </g>
     </g>
    </g>
    <g id="text_7">
     <!-- Time (ns) -->
     <defs>
      <path d="M -0.296875 72.90625 
L 61.375 72.90625 
L 61.375 64.59375 
L 35.5 64.59375 
L 35.5 0 
L 25.59375 0 
L 25.59375 64.59375 
L -0.296875 64.59375 
z
" id="DejaVuSans-84"/>
      <path d="M 9.421875 54.6875 
L 18.40625 54.6875 
L 18.40625 0 
L 9.421875 0 
z
M 9.421875 75.984375 
L 18.40625 75.984375 
L 18.40625 64.59375 
L 9.421875 64.59375 
z
" id="DejaVuSans-105"/>
      <path d="M 52 44.1875 
Q 55.375 50.25 60.0625 53.125 
Q 64.75 56 71.09375 56 
Q 79.640625 56 84.28125 50.015625 
Q 88.921875 44.046875 88.921875 33.015625 
L 88.921875 0 
L 79.890625 0 
L 79.890625 32.71875 
Q 79.890625 40.578125 77.09375 44.375 
Q 74.3125 48.1875 68.609375 48.1875 
Q 61.625 48.1875 57.5625 43.546875 
Q 53.515625 38.921875 53.515625 30.90625 
L 53.515625 0 
L 44.484375 0 
L 44.484375 32.71875 
Q 44.484375 40.625 41.703125 44.40625 
Q 38.921875 48.1875 33.109375 48.1875 
Q 26.21875 48.1875 22.15625 43.53125 
Q 18.109375 38.875 18.109375 30.90625 
L 18.109375 0 
L 9.078125 0 
L 9.078125 54.6875 
L 18.109375 54.6875 
L 18.109375 46.1875 
Q 21.1875 51.21875 25.484375 53.609375 
Q 29.78125 56 35.6875 56 
Q 41.65625 56 45.828125 52.96875 
Q 50 49.953125 52 44.1875 
z
" id="DejaVuSans-109"/>
      <path d="M 56.203125 29.59375 
L 56.203125 25.203125 
L 14.890625 25.203125 
Q 15.484375 15.921875 20.484375 11.0625 
Q 25.484375 6.203125 34.421875 6.203125 
Q 39.59375 6.203125 44.453125 7.46875 
Q 49.3125 8.734375 54.109375 11.28125 
L 54.109375 2.78125 
Q 49.265625 0.734375 44.1875 -0.34375 
Q 39.109375 -1.421875 33.890625 -1.421875 
Q 20.796875 -1.421875 13.15625 6.1875 
Q 5.515625 13.8125 5.515625 26.8125 
Q 5.515625 40.234375 12.765625 48.109375 
Q 20.015625 56 32.328125 56 
Q 43.359375 56 49.78125 48.890625 
Q 56.203125 41.796875 56.203125 29.59375 
z
M 47.21875 32.234375 
Q 47.125 39.59375 43.09375 43.984375 
Q 39.0625 48.390625 32.421875 48.390625 
Q 24.90625 48.390625 20.390625 44.140625 
Q 15.875 39.890625 15.1875 32.171875 
z
" id="DejaVuSans-101"/>
      <path id="DejaVuSans-32"/>
      <path d="M 31 75.875 
Q 24.46875 64.65625 21.28125 53.65625 
Q 18.109375 42.671875 18.109375 31.390625 
Q 18.109375 20.125 21.3125 9.0625 
Q 24.515625 -2 31 -13.1875 
L 23.1875 -13.1875 
Q 15.875 -1.703125 12.234375 9.375 
Q 8.59375 20.453125 8.59375 31.390625 
Q 8.59375 42.28125 12.203125 53.3125 
Q 15.828125 64.359375 23.1875 75.875 
z
" id="DejaVuSans-40"/>
      <path d="M 54.890625 33.015625 
L 54.890625 0 
L 45.90625 0 
L 45.90625 32.71875 
Q 45.90625 40.484375 42.875 44.328125 
Q 39.84375 48.1875 33.796875 48.1875 
Q 26.515625 48.1875 22.3125 43.546875 
Q 18.109375 38.921875 18.109375 30.90625 
L 18.109375 0 
L 9.078125 0 
L 9.078125 54.6875 
L 18.109375 54.6875 
L 18.109375 46.1875 
Q 21.34375 51.125 25.703125 53.5625 
Q 30.078125 56 35.796875 56 
Q 45.21875 56 50.046875 50.171875 
Q 54.890625 44.34375 54.890625 33.015625 
z
" id="DejaVuSans-110"/>
      <path d="M 44.28125 53.078125 
L 44.28125 44.578125 
Q 40.484375 46.53125 36.375 47.5 
Q 32.28125 48.484375 27.875 48.484375 
Q 21.1875 48.484375 17.84375 46.4375 
Q 14.5 44.390625 14.5 40.28125 
Q 14.5 37.15625 16.890625 35.375 
Q 19.28125 33.59375 26.515625 31.984375 
L 29.59375 31.296875 
Q 39.15625 29.25 43.1875 25.515625 
Q 47.21875 21.78125 47.21875 15.09375 
Q 47.21875 7.46875 41.1875 3.015625 
Q 35.15625 -1.421875 24.609375 -1.421875 
Q 20.21875 -1.421875 15.453125 -0.5625 
Q 10.6875 0.296875 5.421875 2 
L 5.421875 11.28125 
Q 10.40625 8.6875 15.234375 7.390625 
Q 20.0625 6.109375 24.8125 6.109375 
Q 31.15625 6.109375 34.5625 8.28125 
Q 37.984375 10.453125 37.984375 14.40625 
Q 37.984375 18.0625 35.515625 20.015625 
Q 33.0625 21.96875 24.703125 23.78125 
L 21.578125 24.515625 
Q 13.234375 26.265625 9.515625 29.90625 
Q 5.8125 33.546875 5.8125 39.890625 
Q 5.8125 47.609375 11.28125 51.796875 
Q 16.75 56 26.8125 56 
Q 31.78125 56 36.171875 55.265625 
Q 40.578125 54.546875 44.28125 53.078125 
z
" id="DejaVuSans-115"/>
      <path d="M 8.015625 75.875 
L 15.828125 75.875 
Q 23.140625 64.359375 26.78125 53.3125 
Q 30.421875 42.28125 30.421875 31.390625 
Q 30.421875 20.453125 26.78125 9.375 
Q 23.140625 -1.703125 15.828125 -13.1875 
L 8.015625 -13.1875 
Q 14.5 -2 17.703125 9.0625 
Q 20.90625 20.125 20.90625 31.390625 
Q 20.90625 42.671875 17.703125 53.65625 
Q 14.5 64.65625 8.015625 75.875 
z
" id="DejaVuSans-41"/>
     </defs>
     <g transform="translate(197.902344 280.276563)scale(0.1 -0.1)">
      <use xlink:href="#DejaVuSans-84"/>
      <use x="57.958984" xlink:href="#DejaVuSans-105"/>
      <use x="85.742188" xlink:href="#DejaVuSans-109"/>
      <use x="183.154297" xlink:href="#DejaVuSans-101"/>
      <use x="244.677734" xlink:href="#DejaVuSans-32"/>
      <use x="276.464844" xlink:href="#DejaVuSans-40"/>
      <use x="315.478516" xlink:href="#DejaVuSans-110"/>
      <use x="378.857422" xlink:href="#DejaVuSans-115"/>
      <use x="430.957031" xlink:href="#DejaVuSans-41"/>
     </g>
    </g>
   </g>
   <g id="matplotlib.axis_2">
    <g id="ytick_1">
     <g id="line2d_7">
      <defs>
       <path d="M 0 0 
L -3.5 0 
" id="m10e7f793d2" style="stroke:#000000;stroke-width:0.8;"/>
      </defs>
      <g>
       <use style="stroke:#000000;stroke-width:0.8;" x="54" xlink:href="#m10e7f793d2" y="245.822391"/>
      </g>
     </g>
     <g id="text_8">
      <!-- −4 -->
      <defs>
       <path d="M 10.59375 35.5 
L 73.1875 35.5 
L 73.1875 27.203125 
L 10.59375 27.203125 
z
" id="DejaVuSans-8722"/>
      </defs>
      <g transform="translate(32.257812 249.62161)scale(0.1 -0.1)">
       <use xlink:href="#DejaVuSans-8722"/>
       <use x="83.789062" xlink:href="#DejaVuSans-52"/>
      </g>
     </g>
    </g>
    <g id="ytick_2">
     <g id="line2d_8">
      <g>
       <use style="stroke:#000000;stroke-width:0.8;" x="54" xlink:href="#m10e7f793d2" y="213.083877"/>
      </g>
     </g>
     <g id="text_9">
      <!-- −3 -->
      <defs>
       <path d="M 40.578125 39.3125 
Q 47.65625 37.796875 51.625 33 
Q 55.609375 28.21875 55.609375 21.1875 
Q 55.609375 10.40625 48.1875 4.484375 
Q 40.765625 -1.421875 27.09375 -1.421875 
Q 22.515625 -1.421875 17.65625 -0.515625 
Q 12.796875 0.390625 7.625 2.203125 
L 7.625 11.71875 
Q 11.71875 9.328125 16.59375 8.109375 
Q 21.484375 6.890625 26.8125 6.890625 
Q 36.078125 6.890625 40.9375 10.546875 
Q 45.796875 14.203125 45.796875 21.1875 
Q 45.796875 27.640625 41.28125 31.265625 
Q 36.765625 34.90625 28.71875 34.90625 
L 20.21875 34.90625 
L 20.21875 43.015625 
L 29.109375 43.015625 
Q 36.375 43.015625 40.234375 45.921875 
Q 44.09375 48.828125 44.09375 54.296875 
Q 44.09375 59.90625 40.109375 62.90625 
Q 36.140625 65.921875 28.71875 65.921875 
Q 24.65625 65.921875 20.015625 65.03125 
Q 15.375 64.15625 9.8125 62.3125 
L 9.8125 71.09375 
Q 15.4375 72.65625 20.34375 73.4375 
Q 25.25 74.21875 29.59375 74.21875 
Q 40.828125 74.21875 47.359375 69.109375 
Q 53.90625 64.015625 53.90625 55.328125 
Q 53.90625 49.265625 50.4375 45.09375 
Q 46.96875 40.921875 40.578125 39.3125 
z
" id="DejaVuSans-51"/>
      </defs>
      <g transform="translate(32.257812 216.883096)scale(0.1 -0.1)">
       <use xlink:href="#DejaVuSans-8722"/>
       <use x="83.789062" xlink:href="#DejaVuSans-51"/>
      </g>
     </g>
    </g>
    <g id="ytick_3">
     <g id="line2d_9">
      <g>
       <use style="stroke:#000000;stroke-width:0.8;" x="54" xlink:href="#m10e7f793d2" y="180.345363"/>
      </g>
     </g>
     <g id="text_10">
      <!-- −2 -->
      <g transform="translate(32.257812 184.144582)scale(0.1 -0.1)">
       <use xlink:href="#DejaVuSans-8722"/>
       <use x="83.789062" xlink:href="#DejaVuSans-50"/>
      </g>
     </g>
    </g>
    <g id="ytick_4">
     <g id="line2d_10">
      <g>
       <use style="stroke:#000000;stroke-width:0.8;" x="54" xlink:href="#m10e7f793d2" y="147.606849"/>
      </g>
     </g>
     <g id="text_11">
      <!-- −1 -->
      <g transform="translate(32.257812 151.406068)scale(0.1 -0.1)">
       <use xlink:href="#DejaVuSans-8722"/>
       <use x="83.789062" xlink:href="#DejaVuSans-49"/>
      </g>
     </g>
    </g>
    <g id="ytick_5">
     <g id="line2d_11">
      <g>
       <use style="stroke:#000000;stroke-width:0.8;" x="54" xlink:href="#m10e7f793d2" y="114.868335"/>
      </g>
     </g>
     <g id="text_12">
      <!-- 0 -->
      <g transform="translate(40.6375 118.667554)scale(0.1 -0.1)">
       <use xlink:href="#DejaVuSans-48"/>
      </g>
     </g>
    </g>
    <g id="ytick_6">
     <g id="line2d_12">
      <g>
       <use style="stroke:#000000;stroke-width:0.8;" x="54" xlink:href="#m10e7f793d2" y="82.129821"/>
      </g>
     </g>
     <g id="text_13">
      <!-- 1 -->
      <g transform="translate(40.6375 85.92904)scale(0.1 -0.1)">
       <use xlink:href="#DejaVuSans-49"/>
      </g>
     </g>
    </g>
    <g id="ytick_7">
     <g id="line2d_13">
      <g>
       <use style="stroke:#000000;stroke-width:0.8;" x="54" xlink:href="#m10e7f793d2" y="49.391307"/>
      </g>
     </g>
     <g id="text_14">
      <!-- 2 -->
      <g transform="translate(40.6375 53.190526)scale(0.1 -0.1)">
       <use xlink:href="#DejaVuSans-50"/>
      </g>
     </g>
    </g>
    <g id="text_15">
     <!-- Vout (V) -->
     <defs>
      <path d="M 28.609375 0 
L 0.78125 72.90625 
L 11.078125 72.90625 
L 34.1875 11.53125 
L 57.328125 72.90625 
L 67.578125 72.90625 
L 39.796875 0 
z
" id="DejaVuSans-86"/>
      <path d="M 30.609375 48.390625 
Q 23.390625 48.390625 19.1875 42.75 
Q 14.984375 37.109375 14.984375 27.296875 
Q 14.984375 17.484375 19.15625 11.84375 
Q 23.34375 6.203125 30.609375 6.203125 
Q 37.796875 6.203125 41.984375 11.859375 
Q 46.1875 17.53125 46.1875 27.296875 
Q 46.1875 37.015625 41.984375 42.703125 
Q 37.796875 48.390625 30.609375 48.390625 
z
M 30.609375 56 
Q 42.328125 56 49.015625 48.375 
Q 55.71875 40.765625 55.71875 27.296875 
Q 55.71875 13.875 49.015625 6.21875 
Q 42.328125 -1.421875 30.609375 -1.421875 
Q 18.84375 -1.421875 12.171875 6.21875 
Q 5.515625 13.875 5.515625 27.296875 
Q 5.515625 40.765625 12.171875 48.375 
Q 18.84375 56 30.609375 56 
z
" id="DejaVuSans-111"/>
      <path d="M 8.5 21.578125 
L 8.5 54.6875 
L 17.484375 54.6875 
L 17.484375 21.921875 
Q 17.484375 14.15625 20.5 10.265625 
Q 23.53125 6.390625 29.59375 6.390625 
Q 36.859375 6.390625 41.078125 11.03125 
Q 45.3125 15.671875 45.3125 23.6875 
L 45.3125 54.6875 
L 54.296875 54.6875 
L 54.296875 0 
L 45.3125 0 
L 45.3125 8.40625 
Q 42.046875 3.421875 37.71875 1 
Q 33.40625 -1.421875 27.6875 -1.421875 
Q 18.265625 -1.421875 13.375 4.4375 
Q 8.5 10.296875 8.5 21.578125 
z
M 31.109375 56 
z
" id="DejaVuSans-117"/>
      <path d="M 18.3125 70.21875 
L 18.3125 54.6875 
L 36.8125 54.6875 
L 36.8125 47.703125 
L 18.3125 47.703125 
L 18.3125 18.015625 
Q 18.3125 11.328125 20.140625 9.421875 
Q 21.96875 7.515625 27.59375 7.515625 
L 36.8125 7.515625 
L 36.8125 0 
L 27.59375 0 
Q 17.1875 0 13.234375 3.875 
Q 9.28125 7.765625 9.28125 18.015625 
L 9.28125 47.703125 
L 2.6875 47.703125 
L 2.6875 54.6875 
L 9.28125 54.6875 
L 9.28125 70.21875 
z
" id="DejaVuSans-116"/>
     </defs>
     <g transform="translate(26.178125 163.412031)rotate(-90)scale(0.1 -0.1)">
      <use xlink:href="#DejaVuSans-86"/>
      <use x="60.658203" xlink:href="#DejaVuSans-111"/>
      <use x="121.839844" xlink:href="#DejaVuSans-117"/>
      <use x="185.21875" xlink:href="#DejaVuSans-116"/>
      <use x="224.427734" xlink:href="#DejaVuSans-32"/>
      <use x="256.214844" xlink:href="#DejaVuSans-40"/>
      <use x="295.228516" xlink:href="#DejaVuSans-86"/>
      <use x="363.636719" xlink:href="#DejaVuSans-41"/>
     </g>
    </g>
    <g id="text_16">
     <!-- 1e−5 -->
     <defs>
      <path d="M 10.796875 72.90625 
L 49.515625 72.90625 
L 49.515625 64.59375 
L 19.828125 64.59375 
L 19.828125 46.734375 
Q 21.96875 47.46875 24.109375 47.828125 
Q 26.265625 48.1875 28.421875 48.1875 
Q 40.625 48.1875 47.75 41.5 
Q 54.890625 34.8125 54.890625 23.390625 
Q 54.890625 11.625 47.5625 5.09375 
Q 40.234375 -1.421875 26.90625 -1.421875 
Q 22.3125 -1.421875 17.546875 -0.640625 
Q 12.796875 0.140625 7.71875 1.703125 
L 7.71875 11.625 
Q 12.109375 9.234375 16.796875 8.0625 
Q 21.484375 6.890625 26.703125 6.890625 
Q 35.15625 6.890625 40.078125 11.328125 
Q 45.015625 15.765625 45.015625 23.390625 
Q 45.015625 31 40.078125 35.4375 
Q 35.15625 39.890625 26.703125 39.890625 
Q 22.75 39.890625 18.8125 39.015625 
Q 14.890625 38.140625 10.796875 36.28125 
z
" id="DejaVuSans-53"/>
     </defs>
     <g transform="translate(54 31.56)scale(0.1 -0.1)">
      <use xlink:href="#DejaVuSans-49"/>
      <use x="63.623047" xlink:href="#DejaVuSans-101"/>
      <use x="125.146484" xlink:href="#DejaVuSans-8722"/>
      <use x="208.935547" xlink:href="#DejaVuSans-53"/>
     </g>
    </g>
   </g>
   <g id="line2d_14">
    <path clip-path="url(#p11f08cc7b4)" d="M 69.218182 240.693531 
L 70.068784 240.716996 
L 70.281434 242.116364 
L 70.342192 241.9666 
L 71.010522 240.505655 
L 71.132036 240.351165 
L 71.982638 238.818984 
L 72.499075 237.872619 
L 72.529454 237.939087 
L 72.711726 238.70988 
L 72.802862 239.384098 
L 72.863619 239.775531 
L 72.893998 239.619319 
L 73.95725 232.959404 
L 74.807852 228.68331 
L 74.898988 229.079009 
L 74.959746 228.957029 
L 75.020503 228.886247 
L 75.050882 228.907253 
L 75.111639 229.176615 
L 75.172396 229.634848 
L 75.202775 229.467151 
L 77.055872 212.308368 
L 77.086251 212.187977 
L 77.147008 212.391831 
L 77.207765 212.236206 
L 77.390037 211.527339 
L 77.420416 211.576928 
L 77.481173 212.001604 
L 77.511552 211.874142 
L 77.845717 206.990252 
L 78.848212 194.348332 
L 79.455785 188.52125 
L 79.638057 187.345621 
L 79.668435 187.369878 
L 79.698814 187.544244 
L 79.729193 187.478607 
L 79.972222 183.586675 
L 81.005096 168.362723 
L 81.764562 159.487673 
L 82.220242 154.265276 
L 83.37463 136.52614 
L 84.04296 128.268548 
L 84.103717 128.057452 
L 85.501135 108.138917 
L 86.95931 90.517211 
L 88.842786 70.756787 
L 90.300961 61.50234 
L 90.726262 58.619601 
L 90.969291 55.331031 
L 91.181942 54.984294 
L 92.427466 53.947359 
L 92.974282 53.365295 
L 93.247689 50.503968 
L 93.308447 50.601231 
L 93.581854 51.691609 
L 94.797 56.610231 
L 95.25268 58.125472 
L 95.343816 57.071094 
L 95.434952 55.920513 
L 95.495709 55.998243 
L 95.647602 56.849535 
L 97.531078 72.45826 
L 97.591836 72.104009 
L 97.682971 71.112184 
L 97.743729 71.372746 
L 97.956379 73.430415 
L 99.718341 93.072471 
L 99.809477 93.872058 
L 99.870234 93.584392 
L 99.930991 92.98854 
L 99.991748 93.345664 
L 100.265156 96.66371 
L 101.723331 115.325185 
L 102.087875 119.394965 
L 102.148632 118.984162 
L 102.42204 122.161863 
L 103.7587 138.381357 
L 105.156118 152.928474 
L 106.583914 165.656596 
L 106.826943 168.477264 
L 107.009215 170.229595 
L 109.166099 182.170541 
L 109.348371 184.214516 
L 109.439507 184.107356 
L 109.80405 183.78797 
L 110.290109 183.664927 
L 111.231847 183.650984 
L 111.292604 184.088219 
L 111.474876 185.003737 
L 111.59639 186.210007 
L 111.626769 186.479943 
L 111.687526 186.316956 
L 112.50775 181.646538 
L 113.540624 177.206592 
L 113.63176 177.73459 
L 113.692517 177.672647 
L 113.783653 177.585131 
L 113.814032 177.618254 
L 113.874789 177.845811 
L 113.935546 178.499471 
L 113.996303 178.278248 
L 115.332964 165.268994 
L 115.819022 161.420205 
L 115.879779 161.601026 
L 115.970915 161.247966 
L 116.09243 160.900975 
L 116.122808 161.00144 
L 116.183566 161.304331 
L 116.213944 161.061483 
L 118.09742 138.929015 
L 118.158178 138.934815 
L 118.522721 136.668527 
L 119.585974 122.01684 
L 120.466955 112.109272 
L 120.618848 111.050428 
L 121.985887 93.907177 
L 123.444062 78.390258 
L 125.327538 60.957704 
L 127.089499 51.667685 
L 127.180635 50.803593 
L 127.423664 47.710119 
L 127.605936 47.541946 
L 129.428655 47.252575 
L 129.671684 44.549851 
L 129.76282 44.703512 
L 130.066606 46.122452 
L 131.160237 51.215261 
L 131.707053 53.365381 
L 131.798189 52.371863 
L 131.889325 51.253654 
L 131.950082 51.359968 
L 132.101975 52.284748 
L 133.985451 68.749039 
L 134.046209 68.427872 
L 134.137344 67.46472 
L 134.198102 67.746502 
L 134.441131 70.257843 
L 136.02082 88.570404 
L 136.26385 90.983848 
L 136.324607 90.725043 
L 136.385364 90.13975 
L 136.446121 90.511794 
L 136.719529 93.909623 
L 138.177704 112.978463 
L 138.542248 117.14459 
L 138.603005 116.748831 
L 138.876413 119.99035 
L 140.213073 136.506053 
L 141.610491 151.319789 
L 143.038287 164.281197 
L 143.281316 167.131015 
L 143.463588 168.918662 
L 145.650851 181.443632 
L 145.802744 183.20391 
L 145.89388 183.10769 
L 146.258424 182.826819 
L 146.744482 182.753372 
L 147.68622 182.828864 
L 147.746977 183.260922 
L 147.929249 184.199163 
L 148.050764 185.407684 
L 148.081142 185.689506 
L 148.141899 185.539732 
L 148.962123 180.935352 
L 149.994997 176.565828 
L 150.086133 177.101422 
L 150.14689 177.046068 
L 150.238026 176.962882 
L 150.268405 176.99708 
L 150.329162 177.223579 
L 150.420298 177.890495 
L 150.450676 177.678739 
L 151.817715 164.499214 
L 152.273395 160.924512 
L 152.334152 161.106928 
L 152.425288 160.763626 
L 152.546803 160.418698 
L 152.577182 160.514754 
L 152.637939 160.83028 
L 152.668317 160.594721 
L 154.551793 138.544846 
L 154.612551 138.552539 
L 154.977094 136.311525 
L 156.040347 121.698309 
L 156.921328 111.815523 
L 157.073221 110.767528 
L 158.44026 93.663926 
L 159.898435 78.182977 
L 161.781911 60.788918 
L 163.665387 49.982232 
L 163.847659 47.665386 
L 164.02993 47.410502 
L 165.852649 47.251027 
L 165.913406 46.827479 
L 166.126057 44.443636 
L 166.156435 44.461149 
L 166.308329 44.956005 
L 168.161426 53.281396 
L 168.252562 52.299955 
L 168.343698 51.170566 
L 168.404455 51.275376 
L 168.556348 52.198903 
L 170.439824 68.681909 
L 170.500582 68.368388 
L 170.591718 67.399026 
L 170.652475 67.678437 
L 170.895504 70.188013 
L 172.475193 88.51171 
L 172.718223 90.930089 
L 172.77898 90.679993 
L 172.839737 90.087975 
L 172.900495 90.456868 
L 173.173902 93.853076 
L 174.632077 112.930585 
L 174.996621 117.102171 
L 175.057378 116.706848 
L 175.330786 119.943304 
L 176.667446 136.465451 
L 178.064864 151.284957 
L 179.49266 164.251439 
L 179.735689 167.090915 
L 179.917961 168.89287 
L 182.105224 181.414397 
L 182.257117 183.189669 
L 182.348253 183.0951 
L 182.712797 182.813579 
L 183.198855 182.74029 
L 184.140593 182.817054 
L 184.20135 183.231865 
L 184.383622 184.181129 
L 184.505137 185.37587 
L 184.565894 185.67689 
L 184.596273 185.536174 
L 185.446875 180.788247 
L 186.44937 176.552589 
L 186.570884 177.086878 
L 186.601263 177.038862 
L 186.692399 176.952722 
L 186.722778 176.985324 
L 186.783535 177.203837 
L 186.874671 177.886948 
L 186.905049 177.682153 
L 188.302467 164.252334 
L 188.727768 160.91955 
L 188.788525 161.098978 
L 188.849283 160.922264 
L 189.001176 160.412003 
L 189.031555 160.498618 
L 189.092312 160.828627 
L 189.122691 160.602577 
L 191.036545 138.542876 
L 191.066924 138.550459 
L 191.431467 136.326492 
L 192.49472 121.710158 
L 193.375701 111.819083 
L 193.557973 110.367959 
L 194.894633 93.675057 
L 196.352808 78.192427 
L 198.236284 60.795951 
L 200.11976 50.008145 
L 200.302032 47.670379 
L 200.484303 47.412336 
L 202.337401 47.153968 
L 202.58043 44.44557 
L 202.671566 44.595118 
L 202.975352 46.014303 
L 204.068983 51.119935 
L 204.615799 53.284406 
L 204.706935 52.322184 
L 204.798071 51.1725 
L 204.858828 51.273618 
L 205.010721 52.192525 
L 206.894197 68.681027 
L 206.954955 68.379806 
L 207.046091 67.398969 
L 207.106848 67.673564 
L 207.349877 70.177209 
L 208.929567 88.502653 
L 209.172596 90.926885 
L 209.233353 90.691362 
L 209.29411 90.087552 
L 209.354868 90.450172 
L 209.628275 93.840577 
L 211.08645 112.920247 
L 211.450994 117.098146 
L 211.511751 116.704929 
L 211.75478 119.527896 
L 213.273713 138.179745 
L 214.792645 153.919075 
L 216.615364 170.212288 
L 218.559597 181.397799 
L 218.71149 183.195314 
L 218.802626 183.10324 
L 219.16717 182.819623 
L 219.653228 182.745201 
L 220.594966 182.82161 
L 220.655723 183.209588 
L 220.837995 184.175748 
L 220.95951 185.348139 
L 221.020267 185.686773 
L 221.050646 185.552101 
L 221.931626 180.658088 
L 222.903743 176.550366 
L 223.025257 177.092089 
L 223.086015 176.99353 
L 223.146772 176.954802 
L 223.177151 176.984887 
L 223.237908 177.191848 
L 223.329044 177.897718 
L 223.359423 177.703938 
L 224.878355 163.276858 
L 225.182141 160.925844 
L 225.242898 161.099921 
L 225.303656 160.936264 
L 225.455549 160.415463 
L 225.485928 160.488352 
L 225.546685 160.838315 
L 225.577064 160.627358 
L 227.490918 138.540502 
L 227.521297 138.55763 
L 227.885841 136.360175 
L 228.949093 121.737811 
L 229.830074 111.833755 
L 230.012346 110.396644 
L 231.349006 93.699396 
L 232.807181 78.213105 
L 234.690657 60.81081 
L 236.574133 50.054368 
L 236.756405 47.681609 
L 236.938677 47.418655 
L 238.791774 47.169401 
L 239.034803 44.452429 
L 239.125939 44.596525 
L 239.429725 46.012072 
L 240.523357 51.11853 
L 241.070172 53.291886 
L 241.100551 53.125106 
L 241.252444 51.178553 
L 241.34358 51.390794 
L 241.55623 52.989112 
L 243.318192 68.528802 
L 243.34857 68.681671 
L 243.378949 68.624957 
L 243.500464 67.401572 
L 243.5916 67.88234 
L 243.895386 71.305252 
L 245.292804 87.52757 
L 245.657347 90.931064 
L 245.687726 90.712453 
L 245.748483 90.089768 
L 245.809241 90.441129 
L 246.082648 93.822635 
L 247.540823 112.906787 
L 247.905367 117.094731 
L 247.966124 116.710695 
L 248.178775 119.100465 
L 249.545814 136.093185 
L 251.064746 152.153546 
L 253.008979 169.877303 
L 255.01397 181.377531 
L 255.165863 183.203854 
L 255.256999 183.115627 
L 255.621543 182.829244 
L 256.107601 182.753255 
L 257.049339 182.829283 
L 257.110096 183.181559 
L 257.292368 184.170674 
L 257.413883 185.312105 
L 257.47464 185.700514 
L 257.505019 185.574385 
L 258.416378 180.536155 
L 259.358116 176.549738 
L 259.479631 177.100677 
L 259.540388 177.00345 
L 259.601145 176.959796 
L 259.631524 176.986544 
L 259.692281 177.179617 
L 259.783417 177.911983 
L 259.813796 177.733573 
L 261.484621 162.080373 
L 261.636514 160.93569 
L 261.697272 161.10136 
L 261.758029 160.955884 
L 261.909922 160.421807 
L 261.940301 160.478229 
L 262.001058 160.850374 
L 262.031437 160.660312 
L 264.066806 138.012249 
L 264.157942 137.595414 
L 264.18832 137.647475 
L 264.218699 137.815815 
L 264.249078 137.68578 
L 264.826272 129.349552 
L 266.132554 112.983954 
L 266.345204 111.666277 
L 266.375583 111.646209 
L 268.502088 85.998152 
L 269.960263 71.656588 
L 270.780486 63.286245 
L 271.053894 61.355182 
L 272.451312 53.802037 
L 272.998127 50.768962 
L 273.241156 47.599112 
L 273.423428 47.42088 
L 275.246147 47.184175 
L 275.489176 44.457105 
L 275.610691 44.697602 
L 276.005613 46.626453 
L 277.068866 51.501277 
L 277.524545 53.297384 
L 277.554924 53.14438 
L 277.706817 51.183331 
L 277.828332 51.537676 
L 278.101739 53.842505 
L 279.4384 65.836097 
L 279.802943 68.679267 
L 279.863701 68.424809 
L 279.954837 67.402643 
L 280.015594 67.658321 
L 280.228245 69.768109 
L 282.050963 90.679102 
L 282.11172 90.939081 
L 282.142099 90.736856 
L 282.202856 90.092145 
L 282.263614 90.427924 
L 282.537021 93.79531 
L 283.995196 112.883524 
L 284.35974 117.083697 
L 284.420497 116.721574 
L 284.602769 118.674852 
L 286.243216 138.825862 
L 287.762148 154.465754 
L 289.554488 170.366518 
L 291.437964 181.058231 
L 291.620236 183.207994 
L 291.741751 183.086112 
L 292.106294 182.823009 
L 292.65311 182.758848 
L 293.534091 182.886125 
L 293.929013 185.71004 
L 294.111285 184.590298 
L 294.809994 180.836012 
L 295.812489 176.548779 
L 295.934004 177.107249 
L 295.994761 177.011687 
L 296.085897 176.987513 
L 296.146654 177.16935 
L 296.23779 177.922052 
L 296.268169 177.758273 
L 298.090887 160.944066 
L 298.182023 161.094875 
L 298.212402 160.972477 
L 298.364295 160.427164 
L 298.394674 160.470548 
L 298.455431 160.858458 
L 298.48581 160.687988 
L 300.612315 137.60416 
L 300.673072 137.813134 
L 300.703451 137.711312 
L 301.15913 131.076883 
L 302.404655 115.144581 
L 302.799577 111.664073 
L 302.829956 111.667588 
L 305.564034 79.769443 
L 307.052587 66.093335 
L 307.174102 64.634469 
L 307.356374 62.272535 
L 308.541141 55.687909 
L 309.482879 50.148661 
L 309.665151 47.708345 
L 309.847423 47.43262 
L 311.70052 47.195356 
L 311.822034 45.063807 
L 311.943549 44.463282 
L 311.973928 44.472983 
L 312.095442 44.81517 
L 313.978918 53.302859 
L 314.039676 52.867912 
L 314.16119 51.188968 
L 314.252326 51.384791 
L 314.464977 52.968247 
L 316.226938 68.510558 
L 316.257317 68.679958 
L 316.318074 68.439247 
L 316.40921 67.405589 
L 316.469967 67.655569 
L 316.682618 69.759083 
L 318.505336 90.671117 
L 318.566094 90.944606 
L 318.596472 90.751249 
L 318.657229 90.095845 
L 318.717987 90.422935 
L 318.991395 93.782325 
L 320.449569 112.872151 
L 320.814113 117.078248 
L 320.87487 116.732008 
L 321.026764 118.260806 
L 322.636832 138.135041 
L 324.155764 153.881285 
L 325.978483 170.198325 
L 327.922716 181.346616 
L 328.074609 183.212862 
L 328.165745 183.131482 
L 328.530289 182.841502 
L 329.016347 182.763426 
L 329.958085 182.839355 
L 329.988464 182.88237 
L 330.383386 185.717405 
L 330.413765 185.60469 
L 331.41626 180.144735 
L 332.266862 176.552098 
L 332.388377 177.114653 
L 332.449134 177.020312 
L 332.54027 176.991735 
L 332.601027 177.167183 
L 332.692163 177.930719 
L 332.722542 177.776275 
L 334.54526 160.952278 
L 334.636396 161.104298 
L 334.666775 160.985273 
L 334.818668 160.433391 
L 334.849047 160.469631 
L 334.909804 160.865195 
L 334.940183 160.707 
L 335.66927 151.251316 
L 336.823659 138.594421 
L 336.945173 138.265039 
L 337.066688 137.612127 
L 337.097066 137.633547 
L 337.127445 137.812664 
L 337.157824 137.728318 
L 337.552746 131.964182 
L 338.767892 116.247052 
L 339.25395 111.66453 
L 339.284329 111.680364 
L 342.565222 74.50146 
L 344.236048 59.824382 
L 345.937252 50.169154 
L 346.119524 47.717841 
L 346.301796 47.439964 
L 348.154893 47.203623 
L 348.246029 45.848449 
L 348.397922 44.469191 
L 348.489058 44.601264 
L 348.792845 46.00829 
L 349.856097 50.987644 
L 350.433291 53.307744 
L 350.46367 53.165564 
L 350.615563 51.194065 
L 350.737078 51.537902 
L 351.010486 53.836278 
L 352.377525 66.079404 
L 352.71169 68.682037 
L 352.772447 68.447962 
L 352.863583 67.40885 
L 352.92434 67.656073 
L 353.136991 69.756552 
L 354.959709 90.66879 
L 355.020467 90.948608 
L 355.050845 90.759579 
L 355.111603 90.099234 
L 355.17236 90.422076 
L 355.445768 93.777841 
L 356.903943 112.868419 
L 357.298865 117.075379 
L 357.329244 116.739571 
L 357.481137 118.257415 
L 359.091205 138.132272 
L 360.610137 153.878948 
L 362.432856 170.19899 
L 364.377089 181.342387 
L 364.528982 183.216838 
L 364.620118 183.137109 
L 364.984662 182.846332 
L 365.47072 182.767712 
L 366.412458 182.843436 
L 366.442837 182.881551 
L 366.837759 185.722604 
L 366.868138 185.61296 
L 367.901012 180.014619 
L 368.721235 176.554466 
L 368.84275 177.119058 
L 368.933886 176.986722 
L 369.025022 177.053319 
L 369.085779 177.451061 
L 369.146536 177.935569 
L 369.176915 177.786463 
L 370.999633 160.957174 
L 371.030012 160.968569 
L 371.090769 161.10959 
L 371.121148 160.992568 
L 371.273041 160.437059 
L 371.30342 160.469499 
L 371.364177 160.868772 
L 371.394556 160.717425 
L 372.032507 152.364224 
L 373.278032 138.602688 
L 373.429925 138.058029 
L 373.521061 137.618471 
L 373.581818 137.673573 
" style="fill:none;stroke:#1f77b4;stroke-linecap:square;stroke-width:1.5;"/>
   </g>
   <g id="patch_3">
    <path d="M 54 252 
L 54 34.56 
" style="fill:none;stroke:#000000;stroke-linecap:square;stroke-linejoin:miter;stroke-width:0.8;"/>
   </g>
   <g id="patch_4">
    <path d="M 388.8 252 
L 388.8 34.56 
" style="fill:none;stroke:#000000;stroke-linecap:square;stroke-linejoin:miter;stroke-width:0.8;"/>
   </g>
   <g id="patch_5">
    <path d="M 54 252 
L 388.8 252 
" style="fill:none;stroke:#000000;stroke-linecap:square;stroke-linejoin:miter;stroke-width:0.8;"/>
   </g>
   <g id="patch_6">
    <path d="M 54 34.56 
L 388.8 34.56 
" style="fill:none;stroke:#000000;stroke-linecap:square;stroke-linejoin:miter;stroke-width:0.8;"/>
   </g>
   <g id="text_17">
    <!-- Monte Carlo Simulation of Sine Wave Voltage Output -->
    <defs>
     <path d="M 9.8125 72.90625 
L 24.515625 72.90625 
L 43.109375 23.296875 
L 61.8125 72.90625 
L 76.515625 72.90625 
L 76.515625 0 
L 66.890625 0 
L 66.890625 64.015625 
L 48.09375 14.015625 
L 38.1875 14.015625 
L 19.390625 64.015625 
L 19.390625 0 
L 9.8125 0 
z
" id="DejaVuSans-77"/>
     <path d="M 64.40625 67.28125 
L 64.40625 56.890625 
Q 59.421875 61.53125 53.78125 63.8125 
Q 48.140625 66.109375 41.796875 66.109375 
Q 29.296875 66.109375 22.65625 58.46875 
Q 16.015625 50.828125 16.015625 36.375 
Q 16.015625 21.96875 22.65625 14.328125 
Q 29.296875 6.6875 41.796875 6.6875 
Q 48.140625 6.6875 53.78125 8.984375 
Q 59.421875 11.28125 64.40625 15.921875 
L 64.40625 5.609375 
Q 59.234375 2.09375 53.4375 0.328125 
Q 47.65625 -1.421875 41.21875 -1.421875 
Q 24.65625 -1.421875 15.125 8.703125 
Q 5.609375 18.84375 5.609375 36.375 
Q 5.609375 53.953125 15.125 64.078125 
Q 24.65625 74.21875 41.21875 74.21875 
Q 47.75 74.21875 53.53125 72.484375 
Q 59.328125 70.75 64.40625 67.28125 
z
" id="DejaVuSans-67"/>
     <path d="M 34.28125 27.484375 
Q 23.390625 27.484375 19.1875 25 
Q 14.984375 22.515625 14.984375 16.5 
Q 14.984375 11.71875 18.140625 8.90625 
Q 21.296875 6.109375 26.703125 6.109375 
Q 34.1875 6.109375 38.703125 11.40625 
Q 43.21875 16.703125 43.21875 25.484375 
L 43.21875 27.484375 
z
M 52.203125 31.203125 
L 52.203125 0 
L 43.21875 0 
L 43.21875 8.296875 
Q 40.140625 3.328125 35.546875 0.953125 
Q 30.953125 -1.421875 24.3125 -1.421875 
Q 15.921875 -1.421875 10.953125 3.296875 
Q 6 8.015625 6 15.921875 
Q 6 25.140625 12.171875 29.828125 
Q 18.359375 34.515625 30.609375 34.515625 
L 43.21875 34.515625 
L 43.21875 35.40625 
Q 43.21875 41.609375 39.140625 45 
Q 35.0625 48.390625 27.6875 48.390625 
Q 23 48.390625 18.546875 47.265625 
Q 14.109375 46.140625 10.015625 43.890625 
L 10.015625 52.203125 
Q 14.9375 54.109375 19.578125 55.046875 
Q 24.21875 56 28.609375 56 
Q 40.484375 56 46.34375 49.84375 
Q 52.203125 43.703125 52.203125 31.203125 
z
" id="DejaVuSans-97"/>
     <path d="M 41.109375 46.296875 
Q 39.59375 47.171875 37.8125 47.578125 
Q 36.03125 48 33.890625 48 
Q 26.265625 48 22.1875 43.046875 
Q 18.109375 38.09375 18.109375 28.8125 
L 18.109375 0 
L 9.078125 0 
L 9.078125 54.6875 
L 18.109375 54.6875 
L 18.109375 46.1875 
Q 20.953125 51.171875 25.484375 53.578125 
Q 30.03125 56 36.53125 56 
Q 37.453125 56 38.578125 55.875 
Q 39.703125 55.765625 41.0625 55.515625 
z
" id="DejaVuSans-114"/>
     <path d="M 9.421875 75.984375 
L 18.40625 75.984375 
L 18.40625 0 
L 9.421875 0 
z
" id="DejaVuSans-108"/>
     <path d="M 53.515625 70.515625 
L 53.515625 60.890625 
Q 47.90625 63.578125 42.921875 64.890625 
Q 37.9375 66.21875 33.296875 66.21875 
Q 25.25 66.21875 20.875 63.09375 
Q 16.5 59.96875 16.5 54.203125 
Q 16.5 49.359375 19.40625 46.890625 
Q 22.3125 44.4375 30.421875 42.921875 
L 36.375 41.703125 
Q 47.40625 39.59375 52.65625 34.296875 
Q 57.90625 29 57.90625 20.125 
Q 57.90625 9.515625 50.796875 4.046875 
Q 43.703125 -1.421875 29.984375 -1.421875 
Q 24.8125 -1.421875 18.96875 -0.25 
Q 13.140625 0.921875 6.890625 3.21875 
L 6.890625 13.375 
Q 12.890625 10.015625 18.65625 8.296875 
Q 24.421875 6.59375 29.984375 6.59375 
Q 38.421875 6.59375 43.015625 9.90625 
Q 47.609375 13.234375 47.609375 19.390625 
Q 47.609375 24.75 44.3125 27.78125 
Q 41.015625 30.8125 33.5 32.328125 
L 27.484375 33.5 
Q 16.453125 35.6875 11.515625 40.375 
Q 6.59375 45.0625 6.59375 53.421875 
Q 6.59375 63.09375 13.40625 68.65625 
Q 20.21875 74.21875 32.171875 74.21875 
Q 37.3125 74.21875 42.625 73.28125 
Q 47.953125 72.359375 53.515625 70.515625 
z
" id="DejaVuSans-83"/>
     <path d="M 37.109375 75.984375 
L 37.109375 68.5 
L 28.515625 68.5 
Q 23.6875 68.5 21.796875 66.546875 
Q 19.921875 64.59375 19.921875 59.515625 
L 19.921875 54.6875 
L 34.71875 54.6875 
L 34.71875 47.703125 
L 19.921875 47.703125 
L 19.921875 0 
L 10.890625 0 
L 10.890625 47.703125 
L 2.296875 47.703125 
L 2.296875 54.6875 
L 10.890625 54.6875 
L 10.890625 58.5 
Q 10.890625 67.625 15.140625 71.796875 
Q 19.390625 75.984375 28.609375 75.984375 
z
" id="DejaVuSans-102"/>
     <path d="M 3.328125 72.90625 
L 13.28125 72.90625 
L 28.609375 11.28125 
L 43.890625 72.90625 
L 54.984375 72.90625 
L 70.3125 11.28125 
L 85.59375 72.90625 
L 95.609375 72.90625 
L 77.296875 0 
L 64.890625 0 
L 49.515625 63.28125 
L 33.984375 0 
L 21.578125 0 
z
" id="DejaVuSans-87"/>
     <path d="M 2.984375 54.6875 
L 12.5 54.6875 
L 29.59375 8.796875 
L 46.6875 54.6875 
L 56.203125 54.6875 
L 35.6875 0 
L 23.484375 0 
z
" id="DejaVuSans-118"/>
     <path d="M 45.40625 27.984375 
Q 45.40625 37.75 41.375 43.109375 
Q 37.359375 48.484375 30.078125 48.484375 
Q 22.859375 48.484375 18.828125 43.109375 
Q 14.796875 37.75 14.796875 27.984375 
Q 14.796875 18.265625 18.828125 12.890625 
Q 22.859375 7.515625 30.078125 7.515625 
Q 37.359375 7.515625 41.375 12.890625 
Q 45.40625 18.265625 45.40625 27.984375 
z
M 54.390625 6.78125 
Q 54.390625 -7.171875 48.1875 -13.984375 
Q 42 -20.796875 29.203125 -20.796875 
Q 24.46875 -20.796875 20.265625 -20.09375 
Q 16.0625 -19.390625 12.109375 -17.921875 
L 12.109375 -9.1875 
Q 16.0625 -11.328125 19.921875 -12.34375 
Q 23.78125 -13.375 27.78125 -13.375 
Q 36.625 -13.375 41.015625 -8.765625 
Q 45.40625 -4.15625 45.40625 5.171875 
L 45.40625 9.625 
Q 42.625 4.78125 38.28125 2.390625 
Q 33.9375 0 27.875 0 
Q 17.828125 0 11.671875 7.65625 
Q 5.515625 15.328125 5.515625 27.984375 
Q 5.515625 40.671875 11.671875 48.328125 
Q 17.828125 56 27.875 56 
Q 33.9375 56 38.28125 53.609375 
Q 42.625 51.21875 45.40625 46.390625 
L 45.40625 54.6875 
L 54.390625 54.6875 
z
" id="DejaVuSans-103"/>
     <path d="M 39.40625 66.21875 
Q 28.65625 66.21875 22.328125 58.203125 
Q 16.015625 50.203125 16.015625 36.375 
Q 16.015625 22.609375 22.328125 14.59375 
Q 28.65625 6.59375 39.40625 6.59375 
Q 50.140625 6.59375 56.421875 14.59375 
Q 62.703125 22.609375 62.703125 36.375 
Q 62.703125 50.203125 56.421875 58.203125 
Q 50.140625 66.21875 39.40625 66.21875 
z
M 39.40625 74.21875 
Q 54.734375 74.21875 63.90625 63.9375 
Q 73.09375 53.65625 73.09375 36.375 
Q 73.09375 19.140625 63.90625 8.859375 
Q 54.734375 -1.421875 39.40625 -1.421875 
Q 24.03125 -1.421875 14.8125 8.828125 
Q 5.609375 19.09375 5.609375 36.375 
Q 5.609375 53.65625 14.8125 63.9375 
Q 24.03125 74.21875 39.40625 74.21875 
z
" id="DejaVuSans-79"/>
     <path d="M 18.109375 8.203125 
L 18.109375 -20.796875 
L 9.078125 -20.796875 
L 9.078125 54.6875 
L 18.109375 54.6875 
L 18.109375 46.390625 
Q 20.953125 51.265625 25.265625 53.625 
Q 29.59375 56 35.59375 56 
Q 45.5625 56 51.78125 48.09375 
Q 58.015625 40.1875 58.015625 27.296875 
Q 58.015625 14.40625 51.78125 6.484375 
Q 45.5625 -1.421875 35.59375 -1.421875 
Q 29.59375 -1.421875 25.265625 0.953125 
Q 20.953125 3.328125 18.109375 8.203125 
z
M 48.6875 27.296875 
Q 48.6875 37.203125 44.609375 42.84375 
Q 40.53125 48.484375 33.40625 48.484375 
Q 26.265625 48.484375 22.1875 42.84375 
Q 18.109375 37.203125 18.109375 27.296875 
Q 18.109375 17.390625 22.1875 11.75 
Q 26.265625 6.109375 33.40625 6.109375 
Q 40.53125 6.109375 44.609375 11.75 
Q 48.6875 17.390625 48.6875 27.296875 
z
" id="DejaVuSans-112"/>
    </defs>
    <g transform="translate(63.15375 28.56)scale(0.12 -0.12)">
     <use xlink:href="#DejaVuSans-77"/>
     <use x="86.279297" xlink:href="#DejaVuSans-111"/>
     <use x="147.460938" xlink:href="#DejaVuSans-110"/>
     <use x="210.839844" xlink:href="#DejaVuSans-116"/>
     <use x="250.048828" xlink:href="#DejaVuSans-101"/>
     <use x="311.572266" xlink:href="#DejaVuSans-32"/>
     <use x="343.359375" xlink:href="#DejaVuSans-67"/>
     <use x="413.183594" xlink:href="#DejaVuSans-97"/>
     <use x="474.462891" xlink:href="#DejaVuSans-114"/>
     <use x="515.576172" xlink:href="#DejaVuSans-108"/>
     <use x="543.359375" xlink:href="#DejaVuSans-111"/>
     <use x="604.541016" xlink:href="#DejaVuSans-32"/>
     <use x="636.328125" xlink:href="#DejaVuSans-83"/>
     <use x="699.804688" xlink:href="#DejaVuSans-105"/>
     <use x="727.587891" xlink:href="#DejaVuSans-109"/>
     <use x="825" xlink:href="#DejaVuSans-117"/>
     <use x="888.378906" xlink:href="#DejaVuSans-108"/>
     <use x="916.162109" xlink:href="#DejaVuSans-97"/>
     <use x="977.441406" xlink:href="#DejaVuSans-116"/>
     <use x="1016.650391" xlink:href="#DejaVuSans-105"/>
     <use x="1044.433594" xlink:href="#DejaVuSans-111"/>
     <use x="1105.615234" xlink:href="#DejaVuSans-110"/>
     <use x="1168.994141" xlink:href="#DejaVuSans-32"/>
     <use x="1200.78125" xlink:href="#DejaVuSans-111"/>
     <use x="1261.962891" xlink:href="#DejaVuSans-102"/>
     <use x="1297.167969" xlink:href="#DejaVuSans-32"/>
     <use x="1328.955078" xlink:href="#DejaVuSans-83"/>
     <use x="1392.431641" xlink:href="#DejaVuSans-105"/>
     <use x="1420.214844" xlink:href="#DejaVuSans-110"/>
     <use x="1483.59375" xlink:href="#DejaVuSans-101"/>
     <use x="1545.117188" xlink:href="#DejaVuSans-32"/>
     <use x="1576.904297" xlink:href="#DejaVuSans-87"/>
     <use x="1669.40625" xlink:href="#DejaVuSans-97"/>
     <use x="1730.685547" xlink:href="#DejaVuSans-118"/>
     <use x="1789.865234" xlink:href="#DejaVuSans-101"/>
     <use x="1851.388672" xlink:href="#DejaVuSans-32"/>
     <use x="1883.175781" xlink:href="#DejaVuSans-86"/>
     <use x="1943.833984" xlink:href="#DejaVuSans-111"/>
     <use x="2005.015625" xlink:href="#DejaVuSans-108"/>
     <use x="2032.798828" xlink:href="#DejaVuSans-116"/>
     <use x="2072.007812" xlink:href="#DejaVuSans-97"/>
     <use x="2133.287109" xlink:href="#DejaVuSans-103"/>
     <use x="2196.763672" xlink:href="#DejaVuSans-101"/>
     <use x="2258.287109" xlink:href="#DejaVuSans-32"/>
     <use x="2290.074219" xlink:href="#DejaVuSans-79"/>
     <use x="2368.785156" xlink:href="#DejaVuSans-117"/>
     <use x="2432.164062" xlink:href="#DejaVuSans-116"/>
     <use x="2471.373047" xlink:href="#DejaVuSans-112"/>
     <use x="2534.849609" xlink:href="#DejaVuSans-117"/>
     <use x="2598.228516" xlink:href="#DejaVuSans-116"/>
    </g>
   </g>
   <g id="legend_1">
    <g id="patch_7">
     <path d="M 262.432813 247 
L 381.8 247 
Q 383.8 247 383.8 245 
L 383.8 231.321875 
Q 383.8 229.321875 381.8 229.321875 
L 262.432813 229.321875 
Q 260.432813 229.321875 260.432813 231.321875 
L 260.432813 245 
Q 260.432813 247 262.432813 247 
z
" style="fill:#ffffff;opacity:0.8;stroke:#cccccc;stroke-linejoin:miter;"/>
    </g>
    <g id="line2d_15">
     <path d="M 264.432813 237.420312 
L 284.432813 237.420312 
" style="fill:none;stroke:#1f77b4;stroke-linecap:square;stroke-width:1.5;"/>
    </g>
    <g id="line2d_16"/>
    <g id="text_18">
     <!-- v(vout+)-v(vout-) -->
     <defs>
      <path d="M 46 62.703125 
L 46 35.5 
L 73.1875 35.5 
L 73.1875 27.203125 
L 46 27.203125 
L 46 0 
L 37.796875 0 
L 37.796875 27.203125 
L 10.59375 27.203125 
L 10.59375 35.5 
L 37.796875 35.5 
L 37.796875 62.703125 
z
" id="DejaVuSans-43"/>
      <path d="M 4.890625 31.390625 
L 31.203125 31.390625 
L 31.203125 23.390625 
L 4.890625 23.390625 
z
" id="DejaVuSans-45"/>
     </defs>
     <g transform="translate(292.432813 240.920312)scale(0.1 -0.1)">
      <use xlink:href="#DejaVuSans-118"/>
      <use x="59.179688" xlink:href="#DejaVuSans-40"/>
      <use x="98.193359" xlink:href="#DejaVuSans-118"/>
      <use x="157.373047" xlink:href="#DejaVuSans-111"/>
      <use x="218.554688" xlink:href="#DejaVuSans-117"/>
      <use x="281.933594" xlink:href="#DejaVuSans-116"/>
      <use x="321.142578" xlink:href="#DejaVuSans-43"/>
      <use x="404.931641" xlink:href="#DejaVuSans-41"/>
      <use x="443.945312" xlink:href="#DejaVuSans-45"/>
      <use x="477.404297" xlink:href="#DejaVuSans-118"/>
      <use x="536.583984" xlink:href="#DejaVuSans-40"/>
      <use x="575.597656" xlink:href="#DejaVuSans-118"/>
      <use x="634.777344" xlink:href="#DejaVuSans-111"/>
      <use x="695.958984" xlink:href="#DejaVuSans-117"/>
      <use x="759.337891" xlink:href="#DejaVuSans-116"/>
      <use x="798.546875" xlink:href="#DejaVuSans-45"/>
      <use x="834.630859" xlink:href="#DejaVuSans-41"/>
     </g>
    </g>
   </g>
  </g>
 </g>
 <defs>
  <clipPath id="p11f08cc7b4">
   <rect height="217.44" width="334.8" x="54" y="34.56"/>
  </clipPath>
 </defs>
</svg>
