<?xml version="1.0" encoding="utf-8" standalone="no"?>
<!DOCTYPE svg PUBLIC "-//W3C//DTD SVG 1.1//EN"
  "http://www.w3.org/Graphics/SVG/1.1/DTD/svg11.dtd">
<svg xmlns:xlink="http://www.w3.org/1999/xlink" width="460.8pt" height="345.6pt" viewBox="0 0 460.8 345.6" xmlns="http://www.w3.org/2000/svg" version="1.1">
 <metadata>
  <rdf:RDF xmlns:dc="http://purl.org/dc/elements/1.1/" xmlns:cc="http://creativecommons.org/ns#" xmlns:rdf="http://www.w3.org/1999/02/22-rdf-syntax-ns#">
   <cc:Work>
    <dc:type rdf:resource="http://purl.org/dc/dcmitype/StillImage"/>
    <dc:date>2023-12-12T00:12:47.825019</dc:date>
    <dc:format>image/svg+xml</dc:format>
    <dc:creator>
     <cc:Agent>
      <dc:title>Matplotlib v3.5.1, https://matplotlib.org/</dc:title>
     </cc:Agent>
    </dc:creator>
   </cc:Work>
  </rdf:RDF>
 </metadata>
 <defs>
  <style type="text/css">*{stroke-linejoin: round; stroke-linecap: butt}</style>
 </defs>
 <g id="figure_1">
  <g id="patch_1">
   <path d="M 0 345.6 
L 460.8 345.6 
L 460.8 0 
L 0 0 
z
" style="fill: #ffffff"/>
  </g>
  <g id="axes_1">
   <g id="patch_2">
    <path d="M 57.6 307.584 
L 414.72 307.584 
L 414.72 41.472 
L 57.6 41.472 
z
" style="fill: #ffffff"/>
   </g>
   <g id="matplotlib.axis_1">
    <g id="xtick_1">
     <g id="line2d_1">
      <defs>
       <path id="m1877ef331f" d="M 0 0 
L 0 3.5 
" style="stroke: #000000; stroke-width: 0.8"/>
      </defs>
      <g>
       <use xlink:href="#m1877ef331f" x="58.671872" y="307.584" style="stroke: #000000; stroke-width: 0.8"/>
      </g>
     </g>
     <g id="text_1">
      <!-- 0 -->
      <g transform="translate(55.490622 322.182437)scale(0.1 -0.1)">
       <defs>
        <path id="DejaVuSans-30" d="M 2034 4250 
Q 1547 4250 1301 3770 
Q 1056 3291 1056 2328 
Q 1056 1369 1301 889 
Q 1547 409 2034 409 
Q 2525 409 2770 889 
Q 3016 1369 3016 2328 
Q 3016 3291 2770 3770 
Q 2525 4250 2034 4250 
z
M 2034 4750 
Q 2819 4750 3233 4129 
Q 3647 3509 3647 2328 
Q 3647 1150 3233 529 
Q 2819 -91 2034 -91 
Q 1250 -91 836 529 
Q 422 1150 422 2328 
Q 422 3509 836 4129 
Q 1250 4750 2034 4750 
z
" transform="scale(0.015625)"/>
       </defs>
       <use xlink:href="#DejaVuSans-30"/>
      </g>
     </g>
    </g>
    <g id="xtick_2">
     <g id="line2d_2">
      <g>
       <use xlink:href="#m1877ef331f" x="119.315292" y="307.584" style="stroke: #000000; stroke-width: 0.8"/>
      </g>
     </g>
     <g id="text_2">
      <!-- 2000 -->
      <g transform="translate(106.590292 322.182437)scale(0.1 -0.1)">
       <defs>
        <path id="DejaVuSans-32" d="M 1228 531 
L 3431 531 
L 3431 0 
L 469 0 
L 469 531 
Q 828 903 1448 1529 
Q 2069 2156 2228 2338 
Q 2531 2678 2651 2914 
Q 2772 3150 2772 3378 
Q 2772 3750 2511 3984 
Q 2250 4219 1831 4219 
Q 1534 4219 1204 4116 
Q 875 4013 500 3803 
L 500 4441 
Q 881 4594 1212 4672 
Q 1544 4750 1819 4750 
Q 2544 4750 2975 4387 
Q 3406 4025 3406 3419 
Q 3406 3131 3298 2873 
Q 3191 2616 2906 2266 
Q 2828 2175 2409 1742 
Q 1991 1309 1228 531 
z
" transform="scale(0.015625)"/>
       </defs>
       <use xlink:href="#DejaVuSans-32"/>
       <use xlink:href="#DejaVuSans-30" x="63.623047"/>
       <use xlink:href="#DejaVuSans-30" x="127.246094"/>
       <use xlink:href="#DejaVuSans-30" x="190.869141"/>
      </g>
     </g>
    </g>
    <g id="xtick_3">
     <g id="line2d_3">
      <g>
       <use xlink:href="#m1877ef331f" x="179.958711" y="307.584" style="stroke: #000000; stroke-width: 0.8"/>
      </g>
     </g>
     <g id="text_3">
      <!-- 4000 -->
      <g transform="translate(167.233711 322.182437)scale(0.1 -0.1)">
       <defs>
        <path id="DejaVuSans-34" d="M 2419 4116 
L 825 1625 
L 2419 1625 
L 2419 4116 
z
M 2253 4666 
L 3047 4666 
L 3047 1625 
L 3713 1625 
L 3713 1100 
L 3047 1100 
L 3047 0 
L 2419 0 
L 2419 1100 
L 313 1100 
L 313 1709 
L 2253 4666 
z
" transform="scale(0.015625)"/>
       </defs>
       <use xlink:href="#DejaVuSans-34"/>
       <use xlink:href="#DejaVuSans-30" x="63.623047"/>
       <use xlink:href="#DejaVuSans-30" x="127.246094"/>
       <use xlink:href="#DejaVuSans-30" x="190.869141"/>
      </g>
     </g>
    </g>
    <g id="xtick_4">
     <g id="line2d_4">
      <g>
       <use xlink:href="#m1877ef331f" x="240.60213" y="307.584" style="stroke: #000000; stroke-width: 0.8"/>
      </g>
     </g>
     <g id="text_4">
      <!-- 6000 -->
      <g transform="translate(227.87713 322.182437)scale(0.1 -0.1)">
       <defs>
        <path id="DejaVuSans-36" d="M 2113 2584 
Q 1688 2584 1439 2293 
Q 1191 2003 1191 1497 
Q 1191 994 1439 701 
Q 1688 409 2113 409 
Q 2538 409 2786 701 
Q 3034 994 3034 1497 
Q 3034 2003 2786 2293 
Q 2538 2584 2113 2584 
z
M 3366 4563 
L 3366 3988 
Q 3128 4100 2886 4159 
Q 2644 4219 2406 4219 
Q 1781 4219 1451 3797 
Q 1122 3375 1075 2522 
Q 1259 2794 1537 2939 
Q 1816 3084 2150 3084 
Q 2853 3084 3261 2657 
Q 3669 2231 3669 1497 
Q 3669 778 3244 343 
Q 2819 -91 2113 -91 
Q 1303 -91 875 529 
Q 447 1150 447 2328 
Q 447 3434 972 4092 
Q 1497 4750 2381 4750 
Q 2619 4750 2861 4703 
Q 3103 4656 3366 4563 
z
" transform="scale(0.015625)"/>
       </defs>
       <use xlink:href="#DejaVuSans-36"/>
       <use xlink:href="#DejaVuSans-30" x="63.623047"/>
       <use xlink:href="#DejaVuSans-30" x="127.246094"/>
       <use xlink:href="#DejaVuSans-30" x="190.869141"/>
      </g>
     </g>
    </g>
    <g id="xtick_5">
     <g id="line2d_5">
      <g>
       <use xlink:href="#m1877ef331f" x="301.24555" y="307.584" style="stroke: #000000; stroke-width: 0.8"/>
      </g>
     </g>
     <g id="text_5">
      <!-- 8000 -->
      <g transform="translate(288.52055 322.182437)scale(0.1 -0.1)">
       <defs>
        <path id="DejaVuSans-38" d="M 2034 2216 
Q 1584 2216 1326 1975 
Q 1069 1734 1069 1313 
Q 1069 891 1326 650 
Q 1584 409 2034 409 
Q 2484 409 2743 651 
Q 3003 894 3003 1313 
Q 3003 1734 2745 1975 
Q 2488 2216 2034 2216 
z
M 1403 2484 
Q 997 2584 770 2862 
Q 544 3141 544 3541 
Q 544 4100 942 4425 
Q 1341 4750 2034 4750 
Q 2731 4750 3128 4425 
Q 3525 4100 3525 3541 
Q 3525 3141 3298 2862 
Q 3072 2584 2669 2484 
Q 3125 2378 3379 2068 
Q 3634 1759 3634 1313 
Q 3634 634 3220 271 
Q 2806 -91 2034 -91 
Q 1263 -91 848 271 
Q 434 634 434 1313 
Q 434 1759 690 2068 
Q 947 2378 1403 2484 
z
M 1172 3481 
Q 1172 3119 1398 2916 
Q 1625 2713 2034 2713 
Q 2441 2713 2670 2916 
Q 2900 3119 2900 3481 
Q 2900 3844 2670 4047 
Q 2441 4250 2034 4250 
Q 1625 4250 1398 4047 
Q 1172 3844 1172 3481 
z
" transform="scale(0.015625)"/>
       </defs>
       <use xlink:href="#DejaVuSans-38"/>
       <use xlink:href="#DejaVuSans-30" x="63.623047"/>
       <use xlink:href="#DejaVuSans-30" x="127.246094"/>
       <use xlink:href="#DejaVuSans-30" x="190.869141"/>
      </g>
     </g>
    </g>
    <g id="xtick_6">
     <g id="line2d_6">
      <g>
       <use xlink:href="#m1877ef331f" x="361.888969" y="307.584" style="stroke: #000000; stroke-width: 0.8"/>
      </g>
     </g>
     <g id="text_6">
      <!-- 10000 -->
      <g transform="translate(345.982719 322.182437)scale(0.1 -0.1)">
       <defs>
        <path id="DejaVuSans-31" d="M 794 531 
L 1825 531 
L 1825 4091 
L 703 3866 
L 703 4441 
L 1819 4666 
L 2450 4666 
L 2450 531 
L 3481 531 
L 3481 0 
L 794 0 
L 794 531 
z
" transform="scale(0.015625)"/>
       </defs>
       <use xlink:href="#DejaVuSans-31"/>
       <use xlink:href="#DejaVuSans-30" x="63.623047"/>
       <use xlink:href="#DejaVuSans-30" x="127.246094"/>
       <use xlink:href="#DejaVuSans-30" x="190.869141"/>
       <use xlink:href="#DejaVuSans-30" x="254.492188"/>
      </g>
     </g>
    </g>
    <g id="text_7">
     <!-- Time (0.1 ns) -->
     <g transform="translate(203.121719 335.860562)scale(0.1 -0.1)">
      <defs>
       <path id="DejaVuSans-54" d="M -19 4666 
L 3928 4666 
L 3928 4134 
L 2272 4134 
L 2272 0 
L 1638 0 
L 1638 4134 
L -19 4134 
L -19 4666 
z
" transform="scale(0.015625)"/>
       <path id="DejaVuSans-69" d="M 603 3500 
L 1178 3500 
L 1178 0 
L 603 0 
L 603 3500 
z
M 603 4863 
L 1178 4863 
L 1178 4134 
L 603 4134 
L 603 4863 
z
" transform="scale(0.015625)"/>
       <path id="DejaVuSans-6d" d="M 3328 2828 
Q 3544 3216 3844 3400 
Q 4144 3584 4550 3584 
Q 5097 3584 5394 3201 
Q 5691 2819 5691 2113 
L 5691 0 
L 5113 0 
L 5113 2094 
Q 5113 2597 4934 2840 
Q 4756 3084 4391 3084 
Q 3944 3084 3684 2787 
Q 3425 2491 3425 1978 
L 3425 0 
L 2847 0 
L 2847 2094 
Q 2847 2600 2669 2842 
Q 2491 3084 2119 3084 
Q 1678 3084 1418 2786 
Q 1159 2488 1159 1978 
L 1159 0 
L 581 0 
L 581 3500 
L 1159 3500 
L 1159 2956 
Q 1356 3278 1631 3431 
Q 1906 3584 2284 3584 
Q 2666 3584 2933 3390 
Q 3200 3197 3328 2828 
z
" transform="scale(0.015625)"/>
       <path id="DejaVuSans-65" d="M 3597 1894 
L 3597 1613 
L 953 1613 
Q 991 1019 1311 708 
Q 1631 397 2203 397 
Q 2534 397 2845 478 
Q 3156 559 3463 722 
L 3463 178 
Q 3153 47 2828 -22 
Q 2503 -91 2169 -91 
Q 1331 -91 842 396 
Q 353 884 353 1716 
Q 353 2575 817 3079 
Q 1281 3584 2069 3584 
Q 2775 3584 3186 3129 
Q 3597 2675 3597 1894 
z
M 3022 2063 
Q 3016 2534 2758 2815 
Q 2500 3097 2075 3097 
Q 1594 3097 1305 2825 
Q 1016 2553 972 2059 
L 3022 2063 
z
" transform="scale(0.015625)"/>
       <path id="DejaVuSans-20" transform="scale(0.015625)"/>
       <path id="DejaVuSans-28" d="M 1984 4856 
Q 1566 4138 1362 3434 
Q 1159 2731 1159 2009 
Q 1159 1288 1364 580 
Q 1569 -128 1984 -844 
L 1484 -844 
Q 1016 -109 783 600 
Q 550 1309 550 2009 
Q 550 2706 781 3412 
Q 1013 4119 1484 4856 
L 1984 4856 
z
" transform="scale(0.015625)"/>
       <path id="DejaVuSans-2e" d="M 684 794 
L 1344 794 
L 1344 0 
L 684 0 
L 684 794 
z
" transform="scale(0.015625)"/>
       <path id="DejaVuSans-6e" d="M 3513 2113 
L 3513 0 
L 2938 0 
L 2938 2094 
Q 2938 2591 2744 2837 
Q 2550 3084 2163 3084 
Q 1697 3084 1428 2787 
Q 1159 2491 1159 1978 
L 1159 0 
L 581 0 
L 581 3500 
L 1159 3500 
L 1159 2956 
Q 1366 3272 1645 3428 
Q 1925 3584 2291 3584 
Q 2894 3584 3203 3211 
Q 3513 2838 3513 2113 
z
" transform="scale(0.015625)"/>
       <path id="DejaVuSans-73" d="M 2834 3397 
L 2834 2853 
Q 2591 2978 2328 3040 
Q 2066 3103 1784 3103 
Q 1356 3103 1142 2972 
Q 928 2841 928 2578 
Q 928 2378 1081 2264 
Q 1234 2150 1697 2047 
L 1894 2003 
Q 2506 1872 2764 1633 
Q 3022 1394 3022 966 
Q 3022 478 2636 193 
Q 2250 -91 1575 -91 
Q 1294 -91 989 -36 
Q 684 19 347 128 
L 347 722 
Q 666 556 975 473 
Q 1284 391 1588 391 
Q 1994 391 2212 530 
Q 2431 669 2431 922 
Q 2431 1156 2273 1281 
Q 2116 1406 1581 1522 
L 1381 1569 
Q 847 1681 609 1914 
Q 372 2147 372 2553 
Q 372 3047 722 3315 
Q 1072 3584 1716 3584 
Q 2034 3584 2315 3537 
Q 2597 3491 2834 3397 
z
" transform="scale(0.015625)"/>
       <path id="DejaVuSans-29" d="M 513 4856 
L 1013 4856 
Q 1481 4119 1714 3412 
Q 1947 2706 1947 2009 
Q 1947 1309 1714 600 
Q 1481 -109 1013 -844 
L 513 -844 
Q 928 -128 1133 580 
Q 1338 1288 1338 2009 
Q 1338 2731 1133 3434 
Q 928 4138 513 4856 
z
" transform="scale(0.015625)"/>
      </defs>
      <use xlink:href="#DejaVuSans-54"/>
      <use xlink:href="#DejaVuSans-69" x="57.958984"/>
      <use xlink:href="#DejaVuSans-6d" x="85.742188"/>
      <use xlink:href="#DejaVuSans-65" x="183.154297"/>
      <use xlink:href="#DejaVuSans-20" x="244.677734"/>
      <use xlink:href="#DejaVuSans-28" x="276.464844"/>
      <use xlink:href="#DejaVuSans-30" x="315.478516"/>
      <use xlink:href="#DejaVuSans-2e" x="379.101562"/>
      <use xlink:href="#DejaVuSans-31" x="410.888672"/>
      <use xlink:href="#DejaVuSans-20" x="474.511719"/>
      <use xlink:href="#DejaVuSans-6e" x="506.298828"/>
      <use xlink:href="#DejaVuSans-73" x="569.677734"/>
      <use xlink:href="#DejaVuSans-29" x="621.777344"/>
     </g>
    </g>
   </g>
   <g id="matplotlib.axis_2">
    <g id="ytick_1">
     <g id="line2d_7">
      <defs>
       <path id="m60c6d4668d" d="M 0 0 
L -3.5 0 
" style="stroke: #000000; stroke-width: 0.8"/>
      </defs>
      <g>
       <use xlink:href="#m60c6d4668d" x="57.6" y="297.156832" style="stroke: #000000; stroke-width: 0.8"/>
      </g>
     </g>
     <g id="text_8">
      <!-- −0.06 -->
      <g transform="translate(19.954687 300.956051)scale(0.1 -0.1)">
       <defs>
        <path id="DejaVuSans-2212" d="M 678 2272 
L 4684 2272 
L 4684 1741 
L 678 1741 
L 678 2272 
z
" transform="scale(0.015625)"/>
       </defs>
       <use xlink:href="#DejaVuSans-2212"/>
       <use xlink:href="#DejaVuSans-30" x="83.789062"/>
       <use xlink:href="#DejaVuSans-2e" x="147.412109"/>
       <use xlink:href="#DejaVuSans-30" x="179.199219"/>
       <use xlink:href="#DejaVuSans-36" x="242.822266"/>
      </g>
     </g>
    </g>
    <g id="ytick_2">
     <g id="line2d_8">
      <g>
       <use xlink:href="#m60c6d4668d" x="57.6" y="241.993866" style="stroke: #000000; stroke-width: 0.8"/>
      </g>
     </g>
     <g id="text_9">
      <!-- −0.04 -->
      <g transform="translate(19.954687 245.793085)scale(0.1 -0.1)">
       <use xlink:href="#DejaVuSans-2212"/>
       <use xlink:href="#DejaVuSans-30" x="83.789062"/>
       <use xlink:href="#DejaVuSans-2e" x="147.412109"/>
       <use xlink:href="#DejaVuSans-30" x="179.199219"/>
       <use xlink:href="#DejaVuSans-34" x="242.822266"/>
      </g>
     </g>
    </g>
    <g id="ytick_3">
     <g id="line2d_9">
      <g>
       <use xlink:href="#m60c6d4668d" x="57.6" y="186.8309" style="stroke: #000000; stroke-width: 0.8"/>
      </g>
     </g>
     <g id="text_10">
      <!-- −0.02 -->
      <g transform="translate(19.954687 190.630119)scale(0.1 -0.1)">
       <use xlink:href="#DejaVuSans-2212"/>
       <use xlink:href="#DejaVuSans-30" x="83.789062"/>
       <use xlink:href="#DejaVuSans-2e" x="147.412109"/>
       <use xlink:href="#DejaVuSans-30" x="179.199219"/>
       <use xlink:href="#DejaVuSans-32" x="242.822266"/>
      </g>
     </g>
    </g>
    <g id="ytick_4">
     <g id="line2d_10">
      <g>
       <use xlink:href="#m60c6d4668d" x="57.6" y="131.667934" style="stroke: #000000; stroke-width: 0.8"/>
      </g>
     </g>
     <g id="text_11">
      <!-- 0.00 -->
      <g transform="translate(28.334375 135.467153)scale(0.1 -0.1)">
       <use xlink:href="#DejaVuSans-30"/>
       <use xlink:href="#DejaVuSans-2e" x="63.623047"/>
       <use xlink:href="#DejaVuSans-30" x="95.410156"/>
       <use xlink:href="#DejaVuSans-30" x="159.033203"/>
      </g>
     </g>
    </g>
    <g id="ytick_5">
     <g id="line2d_11">
      <g>
       <use xlink:href="#m60c6d4668d" x="57.6" y="76.504968" style="stroke: #000000; stroke-width: 0.8"/>
      </g>
     </g>
     <g id="text_12">
      <!-- 0.02 -->
      <g transform="translate(28.334375 80.304187)scale(0.1 -0.1)">
       <use xlink:href="#DejaVuSans-30"/>
       <use xlink:href="#DejaVuSans-2e" x="63.623047"/>
       <use xlink:href="#DejaVuSans-30" x="95.410156"/>
       <use xlink:href="#DejaVuSans-32" x="159.033203"/>
      </g>
     </g>
    </g>
    <g id="text_13">
     <!-- Vout (V) -->
     <g transform="translate(13.875 194.660031)rotate(-90)scale(0.1 -0.1)">
      <defs>
       <path id="DejaVuSans-56" d="M 1831 0 
L 50 4666 
L 709 4666 
L 2188 738 
L 3669 4666 
L 4325 4666 
L 2547 0 
L 1831 0 
z
" transform="scale(0.015625)"/>
       <path id="DejaVuSans-6f" d="M 1959 3097 
Q 1497 3097 1228 2736 
Q 959 2375 959 1747 
Q 959 1119 1226 758 
Q 1494 397 1959 397 
Q 2419 397 2687 759 
Q 2956 1122 2956 1747 
Q 2956 2369 2687 2733 
Q 2419 3097 1959 3097 
z
M 1959 3584 
Q 2709 3584 3137 3096 
Q 3566 2609 3566 1747 
Q 3566 888 3137 398 
Q 2709 -91 1959 -91 
Q 1206 -91 779 398 
Q 353 888 353 1747 
Q 353 2609 779 3096 
Q 1206 3584 1959 3584 
z
" transform="scale(0.015625)"/>
       <path id="DejaVuSans-75" d="M 544 1381 
L 544 3500 
L 1119 3500 
L 1119 1403 
Q 1119 906 1312 657 
Q 1506 409 1894 409 
Q 2359 409 2629 706 
Q 2900 1003 2900 1516 
L 2900 3500 
L 3475 3500 
L 3475 0 
L 2900 0 
L 2900 538 
Q 2691 219 2414 64 
Q 2138 -91 1772 -91 
Q 1169 -91 856 284 
Q 544 659 544 1381 
z
M 1991 3584 
L 1991 3584 
z
" transform="scale(0.015625)"/>
       <path id="DejaVuSans-74" d="M 1172 4494 
L 1172 3500 
L 2356 3500 
L 2356 3053 
L 1172 3053 
L 1172 1153 
Q 1172 725 1289 603 
Q 1406 481 1766 481 
L 2356 481 
L 2356 0 
L 1766 0 
Q 1100 0 847 248 
Q 594 497 594 1153 
L 594 3053 
L 172 3053 
L 172 3500 
L 594 3500 
L 594 4494 
L 1172 4494 
z
" transform="scale(0.015625)"/>
      </defs>
      <use xlink:href="#DejaVuSans-56"/>
      <use xlink:href="#DejaVuSans-6f" x="60.658203"/>
      <use xlink:href="#DejaVuSans-75" x="121.839844"/>
      <use xlink:href="#DejaVuSans-74" x="185.21875"/>
      <use xlink:href="#DejaVuSans-20" x="224.427734"/>
      <use xlink:href="#DejaVuSans-28" x="256.214844"/>
      <use xlink:href="#DejaVuSans-56" x="295.228516"/>
      <use xlink:href="#DejaVuSans-29" x="363.636719"/>
     </g>
    </g>
   </g>
   <g id="line2d_12">
    <path d="M 73.832727 295.488 
L 75.530743 279.072844 
L 76.561681 268.00508 
L 76.652646 267.74952 
L 77.289402 260.600582 
L 78.350662 249.518588 
L 78.775166 243.953008 
L 79.957713 229.374127 
L 80.048678 229.086604 
L 80.594469 222.029949 
L 81.68605 209.066572 
L 81.746693 208.81687 
L 82.201519 202.651601 
L 83.323422 188.608879 
L 83.596318 186.167011 
L 84.778864 171.837395 
L 85.840124 159.624983 
L 86.719454 150.085136 
L 86.992349 147.829243 
L 88.053609 135.85604 
L 88.144574 135.630857 
L 89.418086 123.918729 
L 90.115485 118.344835 
L 90.388381 116.56937 
L 91.26771 108.848033 
L 91.752858 106.050191 
L 92.268327 103.346977 
L 93.177978 98.530013 
L 93.268943 98.312813 
L 94.63342 91.91795 
L 94.997281 91.053446 
L 95.361141 90.34833 
L 95.967575 89.209817 
L 96.543688 88.527995 
L 96.75594 88.401116 
L 97.241087 87.836776 
L 97.635269 87.240188 
L 97.908165 87.175484 
L 98.18106 87.347435 
L 98.939103 88.274922 
L 99.575859 89.888175 
L 100.394545 91.931608 
L 100.576475 92.299345 
L 101.000979 93.369243 
L 101.516448 95.430195 
L 102.062239 97.506869 
L 102.153204 97.736404 
L 103.275107 104.459249 
L 103.729933 106.692301 
L 103.820898 106.821503 
L 104.366689 109.890141 
L 105.97374 120.770287 
L 107.156286 129.843619 
L 107.247251 130.194544 
L 110.006527 153.55299 
L 110.521996 157.387056 
L 110.612961 157.585035 
L 111.098108 162.02572 
L 112.18969 171.083302 
L 112.462585 172.693585 
L 113.61481 181.892308 
L 114.49414 188.55733 
L 115.252183 194.165263 
L 115.343148 194.475445 
L 115.979904 198.292637 
L 116.950198 204.216038 
L 117.041164 204.473614 
L 118.466284 212.444466 
L 118.860466 213.778325 
L 119.28497 215.048304 
L 120.103656 217.550865 
L 120.649447 218.680238 
L 121.953281 221.463805 
L 122.286819 221.595411 
L 122.711323 221.589013 
L 123.135827 221.345505 
L 123.954513 220.518911 
L 124.439661 220.02748 
L 125.13706 219.27835 
L 126.046711 216.900526 
L 126.926041 212.880152 
L 127.502153 210.47551 
L 127.593119 210.3644 
L 128.442126 206.359036 
L 129.92789 197.312305 
L 130.928507 190.38036 
L 131.019472 190.035037 
L 132.626522 177.860142 
L 132.717487 177.455322 
L 134.385181 162.523376 
L 134.961294 156.945905 
L 136.022554 147.328914 
L 136.113519 146.877739 
L 137.690248 131.186447 
L 137.781213 130.961981 
L 138.26636 125.929275 
L 139.357942 115.673351 
L 139.630837 113.850928 
L 140.783062 103.443653 
L 141.63207 96.170164 
L 142.420435 89.601976 
L 142.5114 89.250818 
L 143.178477 84.673955 
L 144.148772 78.059442 
L 144.239737 77.593031 
L 145.634536 68.651475 
L 146.05904 66.949184 
L 146.513865 65.309907 
L 147.453838 61.810423 
L 147.757055 61.126006 
L 149.091211 57.294609 
L 149.424749 56.999658 
L 149.78861 56.800957 
L 150.213114 56.71101 
L 150.698261 56.849018 
L 151.486626 57.136131 
L 151.850486 57.022406 
L 152.09306 57.208843 
L 152.426599 57.79555 
L 153.427215 60.330375 
L 155.731665 69.45987 
L 156.429064 72.796804 
L 156.52003 73.241987 
L 160.128313 98.292869 
L 161.49279 110.149556 
L 161.583755 110.542438 
L 166.617159 155.632469 
L 166.708124 156.276125 
L 167.920992 167.050072 
L 168.011958 167.660183 
L 169.406756 179.371211 
L 169.922225 182.740032 
L 170.195121 184.123016 
L 171.286702 191.554804 
L 171.377667 191.839353 
L 172.802788 200.629299 
L 173.227292 202.282749 
L 173.682117 203.852419 
L 174.591769 207.045112 
L 175.016272 208.033038 
L 175.289168 208.57348 
L 176.229141 211.279004 
L 176.56268 211.567117 
L 176.92654 211.742014 
L 177.320722 211.780238 
L 177.775548 211.592843 
L 179.018738 210.920616 
L 179.23099 210.849097 
L 179.503885 210.455674 
L 180.383215 208.450723 
L 181.201901 205.072056 
L 181.838657 202.580061 
L 181.929622 202.47737 
L 182.808952 198.638781 
L 184.264394 190.231318 
L 185.26501 183.601113 
L 185.355975 183.270227 
L 186.963026 171.578003 
L 187.053991 171.186566 
L 189.964875 145.055129 
L 190.05584 144.620738 
L 191.632569 129.328281 
L 191.723534 129.107784 
L 192.693829 120.128525 
L 193.694446 111.036901 
L 193.967341 109.256663 
L 195.119566 99.089253 
L 195.968574 91.977203 
L 196.756938 85.563243 
L 196.847903 85.22069 
L 197.514981 80.758806 
L 198.485276 74.318054 
L 198.576241 73.864161 
L 199.97104 65.159047 
L 200.395543 63.514797 
L 200.850369 61.937736 
L 201.76002 58.68928 
L 202.214846 57.622198 
L 202.336133 57.469985 
L 203.215462 54.642006 
L 203.579323 54.200137 
L 204.579939 53.865469 
L 205.065087 54.085307 
L 205.792808 54.447263 
L 206.217312 54.386362 
L 206.490207 54.678731 
L 206.854068 55.446822 
L 207.369537 56.516568 
L 207.490824 56.848506 
L 208.30951 60.140525 
L 209.037231 62.870495 
L 209.128196 63.051809 
L 210.007525 66.893349 
L 210.79589 70.71668 
L 211.190072 73.427819 
L 212.463584 81.816792 
L 212.584871 82.490593 
L 213.4642 89.051674 
L 214.131278 93.795981 
L 214.222243 94.188463 
L 215.859615 108.485949 
L 215.950581 109.104815 
L 222.227174 165.706168 
L 222.31814 166.097492 
L 223.712938 177.918306 
L 224.258729 181.563749 
L 224.531624 182.957513 
L 225.623206 190.44944 
L 225.714171 190.736351 
L 227.139291 199.597967 
L 227.563795 201.268579 
L 228.018621 202.85664 
L 228.928272 206.093848 
L 229.352776 207.097588 
L 229.625672 207.646544 
L 230.565645 210.394836 
L 230.899183 210.693662 
L 231.263044 210.880456 
L 231.657226 210.935578 
L 232.112052 210.767268 
L 233.355242 210.137907 
L 233.567494 210.074691 
L 233.840389 209.691814 
L 234.689397 207.820493 
L 235.477762 204.635474 
L 236.205483 201.876297 
L 236.296448 201.672576 
L 238.328002 191.595921 
L 239.631836 182.962249 
L 239.722801 182.446756 
L 242.209181 162.826295 
L 242.967224 156.409391 
L 243.058189 156.199635 
L 243.634301 150.800702 
L 244.695561 141.463609 
L 244.786526 141.02493 
L 246.363255 125.750485 
L 246.45422 125.531812 
L 246.939368 120.628247 
L 248.030949 110.632224 
L 248.303845 108.855668 
L 249.45607 98.709194 
L 250.305078 91.611235 
L 251.093442 85.210736 
L 251.184407 84.868934 
L 251.851485 80.417086 
L 252.821779 73.9915 
L 252.912745 73.5387 
L 254.307543 64.854224 
L 254.732047 63.215039 
L 255.186873 61.643408 
L 256.096524 58.408101 
L 256.55135 57.345903 
L 256.672637 57.19432 
L 257.521644 54.435659 
L 257.885505 53.947166 
L 258.097757 53.788292 
L 258.461617 53.633324 
L 258.886121 53.610224 
L 259.371269 53.822899 
L 260.129311 54.211272 
L 260.553815 54.155351 
L 260.826711 54.450867 
L 261.433145 55.645684 
L 262.40344 58.878421 
L 263.404056 62.693772 
L 263.525343 63.079242 
L 264.162099 65.71814 
L 265.587219 73.680978 
L 266.769766 81.597099 
L 266.860731 81.903548 
L 267.952313 90.192677 
L 268.43746 93.605905 
L 268.528425 93.802035 
L 268.952929 97.747346 
L 270.135476 108.249871 
L 270.226441 108.449662 
L 270.681266 112.644881 
L 271.894135 123.25767 
L 271.9851 123.947255 
L 273.531507 138.866379 
L 273.622472 139.084096 
L 274.10762 143.964758 
L 275.199201 153.907813 
L 275.472097 155.674362 
L 276.624322 165.761626 
L 277.503651 173.048386 
L 278.261694 179.204384 
L 278.352659 179.546462 
L 278.989415 183.767694 
L 279.990031 190.393963 
L 280.080996 190.844418 
L 281.475795 199.507859 
L 281.900299 201.179968 
L 282.355125 202.769635 
L 283.264776 206.010729 
L 283.68928 207.01585 
L 283.962175 207.565551 
L 284.902148 210.317579 
L 285.235687 210.617341 
L 285.599548 210.805174 
L 285.99373 210.861772 
L 286.448555 210.695129 
L 287.691746 210.069514 
L 287.903998 210.007023 
L 288.176893 209.625069 
L 289.025901 207.755947 
L 289.814265 204.573435 
L 290.541986 201.816083 
L 290.632951 201.612491 
L 292.664506 191.541168 
L 293.968339 182.91056 
L 294.059305 182.39524 
L 296.545685 162.780411 
L 297.303728 156.364986 
L 297.394693 156.155277 
L 297.970805 150.757597 
L 299.032065 141.422467 
L 299.12303 140.983876 
L 300.699759 125.712354 
L 300.790724 125.493723 
L 301.275872 120.591064 
L 302.367453 110.596864 
L 302.640348 108.820629 
L 303.792573 98.675985 
L 304.641581 91.579256 
L 305.429946 85.179934 
L 305.520911 84.838198 
L 306.187988 80.387227 
L 307.158283 73.962966 
L 307.249248 73.510261 
L 308.644047 64.827588 
L 309.068551 63.188846 
L 309.523377 61.61769 
L 310.433028 58.383532 
L 310.887853 57.32176 
L 311.00914 57.170232 
L 311.858148 54.412577 
L 312.222009 53.924454 
L 312.434261 53.765767 
L 312.798121 53.611105 
L 313.222625 53.588473 
L 313.707772 53.801673 
L 314.465815 54.190651 
L 314.890319 54.135165 
L 315.163215 54.430956 
L 315.769649 55.626283 
L 316.739943 58.859858 
L 317.74056 62.675978 
L 317.861847 63.061536 
L 318.498603 65.700991 
L 319.923723 73.664868 
L 321.10627 81.581815 
L 321.197235 81.888297 
L 322.288816 90.17824 
L 322.773964 93.59174 
L 322.864929 93.787885 
L 323.289433 97.73349 
L 324.471979 108.236745 
L 324.562945 108.43655 
L 325.01777 112.632061 
L 326.230639 123.245512 
L 326.321604 123.935138 
L 327.868011 138.855108 
L 327.958976 139.072837 
L 328.444123 143.953766 
L 329.535705 153.89736 
L 329.8086 155.664004 
L 330.960825 165.751809 
L 331.840155 173.038947 
L 332.598198 179.195279 
L 332.689163 179.537376 
L 333.325919 183.758854 
L 334.326535 190.385528 
L 334.4175 190.836011 
L 335.812299 199.499986 
L 336.236803 201.172226 
L 336.691628 202.762032 
L 337.60128 206.003466 
L 338.025784 207.008708 
L 338.298679 207.558473 
L 339.238652 210.310828 
L 339.572191 210.610672 
L 339.936051 210.798596 
L 340.330234 210.855323 
L 340.785059 210.688826 
L 342.028249 210.063538 
L 342.240501 210.00111 
L 342.513397 209.619236 
L 343.362405 207.750307 
L 344.150769 204.568015 
L 344.87849 201.810821 
L 344.969455 201.60724 
L 347.00101 191.536384 
L 348.304843 182.906043 
L 348.395808 182.390738 
L 350.882189 162.776402 
L 351.640231 156.361106 
L 351.731196 156.151401 
L 352.307309 150.75383 
L 353.368569 141.418872 
L 353.459534 140.980289 
L 355.036263 125.709023 
L 355.127228 125.490395 
L 355.612375 120.587815 
L 356.703957 110.593774 
L 356.976852 108.817568 
L 358.129077 98.673083 
L 358.978085 91.576462 
L 359.766449 85.177243 
L 359.857415 84.835512 
L 360.524492 80.384618 
L 361.494787 73.960473 
L 361.585752 73.507777 
L 362.980551 64.825261 
L 363.405055 63.186557 
L 363.85988 61.615443 
L 364.769532 58.381385 
L 365.224357 57.319651 
L 365.345644 57.168128 
L 366.194652 54.410561 
L 366.558512 53.92247 
L 366.770764 53.763798 
L 367.134625 53.609164 
L 367.559129 53.586573 
L 368.044276 53.799818 
L 368.802319 54.18885 
L 369.226823 54.133402 
L 369.499718 54.429217 
L 370.106152 55.624588 
L 371.076447 58.858236 
L 372.077064 62.674424 
L 372.19835 63.059989 
L 372.835106 65.699493 
L 374.260227 73.66346 
L 375.442773 81.58048 
L 375.533739 81.886964 
L 376.62532 90.176978 
L 377.110467 93.590502 
L 377.201433 93.786649 
L 377.625936 97.73228 
L 378.808483 108.235598 
L 378.899448 108.435405 
L 379.354274 112.630941 
L 380.567142 123.24445 
L 380.658107 123.93408 
L 382.204515 138.854123 
L 382.29548 139.071853 
L 382.780627 143.952806 
L 383.872209 153.896447 
L 384.145104 155.663099 
L 385.297329 165.750952 
L 386.176659 173.038122 
L 386.934701 179.194483 
L 387.025666 179.536582 
L 387.662422 183.758082 
L 388.663039 190.384791 
L 388.754004 190.835277 
L 390.148803 199.499298 
L 390.573307 201.171549 
L 391.028132 202.761368 
L 391.937783 206.002831 
L 392.362287 207.008084 
L 392.635183 207.557855 
L 393.575156 210.310238 
L 393.908695 210.610089 
L 394.272555 210.798021 
L 394.666737 210.854759 
L 395.121563 210.688275 
L 396.364753 210.063016 
L 396.577005 210.000594 
L 396.8499 209.618727 
L 397.698908 207.749814 
L 398.487273 204.634853 
L 398.487273 204.634853 
" clip-path="url(#p80ef89b985)" style="fill: none; stroke: #1f77b4; stroke-width: 1.5; stroke-linecap: square"/>
   </g>
   <g id="patch_3">
    <path d="M 57.6 307.584 
L 57.6 41.472 
" style="fill: none; stroke: #000000; stroke-width: 0.8; stroke-linejoin: miter; stroke-linecap: square"/>
   </g>
   <g id="patch_4">
    <path d="M 414.72 307.584 
L 414.72 41.472 
" style="fill: none; stroke: #000000; stroke-width: 0.8; stroke-linejoin: miter; stroke-linecap: square"/>
   </g>
   <g id="patch_5">
    <path d="M 57.6 307.584 
L 414.72 307.584 
" style="fill: none; stroke: #000000; stroke-width: 0.8; stroke-linejoin: miter; stroke-linecap: square"/>
   </g>
   <g id="patch_6">
    <path d="M 57.6 41.472 
L 414.72 41.472 
" style="fill: none; stroke: #000000; stroke-width: 0.8; stroke-linejoin: miter; stroke-linecap: square"/>
   </g>
   <g id="text_14">
    <!-- Monte Carlo Simulation of Sine Wave Voltage Output -->
    <g transform="translate(77.91375 35.472)scale(0.12 -0.12)">
     <defs>
      <path id="DejaVuSans-4d" d="M 628 4666 
L 1569 4666 
L 2759 1491 
L 3956 4666 
L 4897 4666 
L 4897 0 
L 4281 0 
L 4281 4097 
L 3078 897 
L 2444 897 
L 1241 4097 
L 1241 0 
L 628 0 
L 628 4666 
z
" transform="scale(0.015625)"/>
      <path id="DejaVuSans-43" d="M 4122 4306 
L 4122 3641 
Q 3803 3938 3442 4084 
Q 3081 4231 2675 4231 
Q 1875 4231 1450 3742 
Q 1025 3253 1025 2328 
Q 1025 1406 1450 917 
Q 1875 428 2675 428 
Q 3081 428 3442 575 
Q 3803 722 4122 1019 
L 4122 359 
Q 3791 134 3420 21 
Q 3050 -91 2638 -91 
Q 1578 -91 968 557 
Q 359 1206 359 2328 
Q 359 3453 968 4101 
Q 1578 4750 2638 4750 
Q 3056 4750 3426 4639 
Q 3797 4528 4122 4306 
z
" transform="scale(0.015625)"/>
      <path id="DejaVuSans-61" d="M 2194 1759 
Q 1497 1759 1228 1600 
Q 959 1441 959 1056 
Q 959 750 1161 570 
Q 1363 391 1709 391 
Q 2188 391 2477 730 
Q 2766 1069 2766 1631 
L 2766 1759 
L 2194 1759 
z
M 3341 1997 
L 3341 0 
L 2766 0 
L 2766 531 
Q 2569 213 2275 61 
Q 1981 -91 1556 -91 
Q 1019 -91 701 211 
Q 384 513 384 1019 
Q 384 1609 779 1909 
Q 1175 2209 1959 2209 
L 2766 2209 
L 2766 2266 
Q 2766 2663 2505 2880 
Q 2244 3097 1772 3097 
Q 1472 3097 1187 3025 
Q 903 2953 641 2809 
L 641 3341 
Q 956 3463 1253 3523 
Q 1550 3584 1831 3584 
Q 2591 3584 2966 3190 
Q 3341 2797 3341 1997 
z
" transform="scale(0.015625)"/>
      <path id="DejaVuSans-72" d="M 2631 2963 
Q 2534 3019 2420 3045 
Q 2306 3072 2169 3072 
Q 1681 3072 1420 2755 
Q 1159 2438 1159 1844 
L 1159 0 
L 581 0 
L 581 3500 
L 1159 3500 
L 1159 2956 
Q 1341 3275 1631 3429 
Q 1922 3584 2338 3584 
Q 2397 3584 2469 3576 
Q 2541 3569 2628 3553 
L 2631 2963 
z
" transform="scale(0.015625)"/>
      <path id="DejaVuSans-6c" d="M 603 4863 
L 1178 4863 
L 1178 0 
L 603 0 
L 603 4863 
z
" transform="scale(0.015625)"/>
      <path id="DejaVuSans-53" d="M 3425 4513 
L 3425 3897 
Q 3066 4069 2747 4153 
Q 2428 4238 2131 4238 
Q 1616 4238 1336 4038 
Q 1056 3838 1056 3469 
Q 1056 3159 1242 3001 
Q 1428 2844 1947 2747 
L 2328 2669 
Q 3034 2534 3370 2195 
Q 3706 1856 3706 1288 
Q 3706 609 3251 259 
Q 2797 -91 1919 -91 
Q 1588 -91 1214 -16 
Q 841 59 441 206 
L 441 856 
Q 825 641 1194 531 
Q 1563 422 1919 422 
Q 2459 422 2753 634 
Q 3047 847 3047 1241 
Q 3047 1584 2836 1778 
Q 2625 1972 2144 2069 
L 1759 2144 
Q 1053 2284 737 2584 
Q 422 2884 422 3419 
Q 422 4038 858 4394 
Q 1294 4750 2059 4750 
Q 2388 4750 2728 4690 
Q 3069 4631 3425 4513 
z
" transform="scale(0.015625)"/>
      <path id="DejaVuSans-66" d="M 2375 4863 
L 2375 4384 
L 1825 4384 
Q 1516 4384 1395 4259 
Q 1275 4134 1275 3809 
L 1275 3500 
L 2222 3500 
L 2222 3053 
L 1275 3053 
L 1275 0 
L 697 0 
L 697 3053 
L 147 3053 
L 147 3500 
L 697 3500 
L 697 3744 
Q 697 4328 969 4595 
Q 1241 4863 1831 4863 
L 2375 4863 
z
" transform="scale(0.015625)"/>
      <path id="DejaVuSans-57" d="M 213 4666 
L 850 4666 
L 1831 722 
L 2809 4666 
L 3519 4666 
L 4500 722 
L 5478 4666 
L 6119 4666 
L 4947 0 
L 4153 0 
L 3169 4050 
L 2175 0 
L 1381 0 
L 213 4666 
z
" transform="scale(0.015625)"/>
      <path id="DejaVuSans-76" d="M 191 3500 
L 800 3500 
L 1894 563 
L 2988 3500 
L 3597 3500 
L 2284 0 
L 1503 0 
L 191 3500 
z
" transform="scale(0.015625)"/>
      <path id="DejaVuSans-67" d="M 2906 1791 
Q 2906 2416 2648 2759 
Q 2391 3103 1925 3103 
Q 1463 3103 1205 2759 
Q 947 2416 947 1791 
Q 947 1169 1205 825 
Q 1463 481 1925 481 
Q 2391 481 2648 825 
Q 2906 1169 2906 1791 
z
M 3481 434 
Q 3481 -459 3084 -895 
Q 2688 -1331 1869 -1331 
Q 1566 -1331 1297 -1286 
Q 1028 -1241 775 -1147 
L 775 -588 
Q 1028 -725 1275 -790 
Q 1522 -856 1778 -856 
Q 2344 -856 2625 -561 
Q 2906 -266 2906 331 
L 2906 616 
Q 2728 306 2450 153 
Q 2172 0 1784 0 
Q 1141 0 747 490 
Q 353 981 353 1791 
Q 353 2603 747 3093 
Q 1141 3584 1784 3584 
Q 2172 3584 2450 3431 
Q 2728 3278 2906 2969 
L 2906 3500 
L 3481 3500 
L 3481 434 
z
" transform="scale(0.015625)"/>
      <path id="DejaVuSans-4f" d="M 2522 4238 
Q 1834 4238 1429 3725 
Q 1025 3213 1025 2328 
Q 1025 1447 1429 934 
Q 1834 422 2522 422 
Q 3209 422 3611 934 
Q 4013 1447 4013 2328 
Q 4013 3213 3611 3725 
Q 3209 4238 2522 4238 
z
M 2522 4750 
Q 3503 4750 4090 4092 
Q 4678 3434 4678 2328 
Q 4678 1225 4090 567 
Q 3503 -91 2522 -91 
Q 1538 -91 948 565 
Q 359 1222 359 2328 
Q 359 3434 948 4092 
Q 1538 4750 2522 4750 
z
" transform="scale(0.015625)"/>
      <path id="DejaVuSans-70" d="M 1159 525 
L 1159 -1331 
L 581 -1331 
L 581 3500 
L 1159 3500 
L 1159 2969 
Q 1341 3281 1617 3432 
Q 1894 3584 2278 3584 
Q 2916 3584 3314 3078 
Q 3713 2572 3713 1747 
Q 3713 922 3314 415 
Q 2916 -91 2278 -91 
Q 1894 -91 1617 61 
Q 1341 213 1159 525 
z
M 3116 1747 
Q 3116 2381 2855 2742 
Q 2594 3103 2138 3103 
Q 1681 3103 1420 2742 
Q 1159 2381 1159 1747 
Q 1159 1113 1420 752 
Q 1681 391 2138 391 
Q 2594 391 2855 752 
Q 3116 1113 3116 1747 
z
" transform="scale(0.015625)"/>
     </defs>
     <use xlink:href="#DejaVuSans-4d"/>
     <use xlink:href="#DejaVuSans-6f" x="86.279297"/>
     <use xlink:href="#DejaVuSans-6e" x="147.460938"/>
     <use xlink:href="#DejaVuSans-74" x="210.839844"/>
     <use xlink:href="#DejaVuSans-65" x="250.048828"/>
     <use xlink:href="#DejaVuSans-20" x="311.572266"/>
     <use xlink:href="#DejaVuSans-43" x="343.359375"/>
     <use xlink:href="#DejaVuSans-61" x="413.183594"/>
     <use xlink:href="#DejaVuSans-72" x="474.462891"/>
     <use xlink:href="#DejaVuSans-6c" x="515.576172"/>
     <use xlink:href="#DejaVuSans-6f" x="543.359375"/>
     <use xlink:href="#DejaVuSans-20" x="604.541016"/>
     <use xlink:href="#DejaVuSans-53" x="636.328125"/>
     <use xlink:href="#DejaVuSans-69" x="699.804688"/>
     <use xlink:href="#DejaVuSans-6d" x="727.587891"/>
     <use xlink:href="#DejaVuSans-75" x="825"/>
     <use xlink:href="#DejaVuSans-6c" x="888.378906"/>
     <use xlink:href="#DejaVuSans-61" x="916.162109"/>
     <use xlink:href="#DejaVuSans-74" x="977.441406"/>
     <use xlink:href="#DejaVuSans-69" x="1016.650391"/>
     <use xlink:href="#DejaVuSans-6f" x="1044.433594"/>
     <use xlink:href="#DejaVuSans-6e" x="1105.615234"/>
     <use xlink:href="#DejaVuSans-20" x="1168.994141"/>
     <use xlink:href="#DejaVuSans-6f" x="1200.78125"/>
     <use xlink:href="#DejaVuSans-66" x="1261.962891"/>
     <use xlink:href="#DejaVuSans-20" x="1297.167969"/>
     <use xlink:href="#DejaVuSans-53" x="1328.955078"/>
     <use xlink:href="#DejaVuSans-69" x="1392.431641"/>
     <use xlink:href="#DejaVuSans-6e" x="1420.214844"/>
     <use xlink:href="#DejaVuSans-65" x="1483.59375"/>
     <use xlink:href="#DejaVuSans-20" x="1545.117188"/>
     <use xlink:href="#DejaVuSans-57" x="1576.904297"/>
     <use xlink:href="#DejaVuSans-61" x="1669.40625"/>
     <use xlink:href="#DejaVuSans-76" x="1730.685547"/>
     <use xlink:href="#DejaVuSans-65" x="1789.865234"/>
     <use xlink:href="#DejaVuSans-20" x="1851.388672"/>
     <use xlink:href="#DejaVuSans-56" x="1883.175781"/>
     <use xlink:href="#DejaVuSans-6f" x="1943.833984"/>
     <use xlink:href="#DejaVuSans-6c" x="2005.015625"/>
     <use xlink:href="#DejaVuSans-74" x="2032.798828"/>
     <use xlink:href="#DejaVuSans-61" x="2072.007812"/>
     <use xlink:href="#DejaVuSans-67" x="2133.287109"/>
     <use xlink:href="#DejaVuSans-65" x="2196.763672"/>
     <use xlink:href="#DejaVuSans-20" x="2258.287109"/>
     <use xlink:href="#DejaVuSans-4f" x="2290.074219"/>
     <use xlink:href="#DejaVuSans-75" x="2368.785156"/>
     <use xlink:href="#DejaVuSans-74" x="2432.164062"/>
     <use xlink:href="#DejaVuSans-70" x="2471.373047"/>
     <use xlink:href="#DejaVuSans-75" x="2534.849609"/>
     <use xlink:href="#DejaVuSans-74" x="2598.228516"/>
    </g>
   </g>
   <g id="legend_1">
    <g id="patch_7">
     <path d="M 288.059063 302.584 
L 407.72 302.584 
Q 409.72 302.584 409.72 300.584 
L 409.72 286.905875 
Q 409.72 284.905875 407.72 284.905875 
L 288.059063 284.905875 
Q 286.059063 284.905875 286.059063 286.905875 
L 286.059063 300.584 
Q 286.059063 302.584 288.059063 302.584 
z
" style="fill: #ffffff; opacity: 0.8; stroke: #cccccc; stroke-linejoin: miter"/>
    </g>
    <g id="line2d_13">
     <path d="M 290.059063 293.004312 
L 300.059063 293.004312 
L 310.059063 293.004312 
" style="fill: none; stroke: #1f77b4; stroke-width: 1.5; stroke-linecap: square"/>
    </g>
    <g id="text_15">
     <!-- v(Vout+)-v(Vout-) -->
     <g transform="translate(318.059063 296.504312)scale(0.1 -0.1)">
      <defs>
       <path id="DejaVuSans-2b" d="M 2944 4013 
L 2944 2272 
L 4684 2272 
L 4684 1741 
L 2944 1741 
L 2944 0 
L 2419 0 
L 2419 1741 
L 678 1741 
L 678 2272 
L 2419 2272 
L 2419 4013 
L 2944 4013 
z
" transform="scale(0.015625)"/>
       <path id="DejaVuSans-2d" d="M 313 2009 
L 1997 2009 
L 1997 1497 
L 313 1497 
L 313 2009 
z
" transform="scale(0.015625)"/>
      </defs>
      <use xlink:href="#DejaVuSans-76"/>
      <use xlink:href="#DejaVuSans-28" x="59.179688"/>
      <use xlink:href="#DejaVuSans-56" x="98.193359"/>
      <use xlink:href="#DejaVuSans-6f" x="158.851562"/>
      <use xlink:href="#DejaVuSans-75" x="220.033203"/>
      <use xlink:href="#DejaVuSans-74" x="283.412109"/>
      <use xlink:href="#DejaVuSans-2b" x="322.621094"/>
      <use xlink:href="#DejaVuSans-29" x="406.410156"/>
      <use xlink:href="#DejaVuSans-2d" x="445.423828"/>
      <use xlink:href="#DejaVuSans-76" x="478.882812"/>
      <use xlink:href="#DejaVuSans-28" x="538.0625"/>
      <use xlink:href="#DejaVuSans-56" x="577.076172"/>
      <use xlink:href="#DejaVuSans-6f" x="637.734375"/>
      <use xlink:href="#DejaVuSans-75" x="698.916016"/>
      <use xlink:href="#DejaVuSans-74" x="762.294922"/>
      <use xlink:href="#DejaVuSans-2d" x="801.503906"/>
      <use xlink:href="#DejaVuSans-29" x="837.587891"/>
     </g>
    </g>
   </g>
  </g>
 </g>
 <defs>
  <clipPath id="p80ef89b985">
   <rect x="57.6" y="41.472" width="357.12" height="266.112"/>
  </clipPath>
 </defs>
</svg>
