<?xml version="1.0" encoding="utf-8" standalone="no"?>
<!DOCTYPE svg PUBLIC "-//W3C//DTD SVG 1.1//EN"
  "http://www.w3.org/Graphics/SVG/1.1/DTD/svg11.dtd">
<svg xmlns:xlink="http://www.w3.org/1999/xlink" width="460.8pt" height="345.6pt" viewBox="0 0 460.8 345.6" xmlns="http://www.w3.org/2000/svg" version="1.1">
 <metadata>
  <rdf:RDF xmlns:dc="http://purl.org/dc/elements/1.1/" xmlns:cc="http://creativecommons.org/ns#" xmlns:rdf="http://www.w3.org/1999/02/22-rdf-syntax-ns#">
   <cc:Work>
    <dc:type rdf:resource="http://purl.org/dc/dcmitype/StillImage"/>
    <dc:date>2023-12-18T20:51:06.388088</dc:date>
    <dc:format>image/svg+xml</dc:format>
    <dc:creator>
     <cc:Agent>
      <dc:title>Matplotlib v3.5.1, https://matplotlib.org/</dc:title>
     </cc:Agent>
    </dc:creator>
   </cc:Work>
  </rdf:RDF>
 </metadata>
 <defs>
  <style type="text/css">*{stroke-linejoin: round; stroke-linecap: butt}</style>
 </defs>
 <g id="figure_1">
  <g id="patch_1">
   <path d="M 0 345.6 
L 460.8 345.6 
L 460.8 0 
L 0 0 
z
" style="fill: #ffffff"/>
  </g>
  <g id="axes_1">
   <g id="patch_2">
    <path d="M 57.6 307.584 
L 414.72 307.584 
L 414.72 41.472 
L 57.6 41.472 
z
" style="fill: #ffffff"/>
   </g>
   <g id="matplotlib.axis_1">
    <g id="xtick_1">
     <g id="line2d_1">
      <defs>
       <path id="m08b85d5866" d="M 0 0 
L 0 3.5 
" style="stroke: #000000; stroke-width: 0.8"/>
      </defs>
      <g>
       <use xlink:href="#m08b85d5866" x="64.502014" y="307.584" style="stroke: #000000; stroke-width: 0.8"/>
      </g>
     </g>
     <g id="text_1">
      <!-- 0.2 -->
      <g transform="translate(56.550452 322.182437)scale(0.1 -0.1)">
       <defs>
        <path id="DejaVuSans-30" d="M 2034 4250 
Q 1547 4250 1301 3770 
Q 1056 3291 1056 2328 
Q 1056 1369 1301 889 
Q 1547 409 2034 409 
Q 2525 409 2770 889 
Q 3016 1369 3016 2328 
Q 3016 3291 2770 3770 
Q 2525 4250 2034 4250 
z
M 2034 4750 
Q 2819 4750 3233 4129 
Q 3647 3509 3647 2328 
Q 3647 1150 3233 529 
Q 2819 -91 2034 -91 
Q 1250 -91 836 529 
Q 422 1150 422 2328 
Q 422 3509 836 4129 
Q 1250 4750 2034 4750 
z
" transform="scale(0.015625)"/>
        <path id="DejaVuSans-2e" d="M 684 794 
L 1344 794 
L 1344 0 
L 684 0 
L 684 794 
z
" transform="scale(0.015625)"/>
        <path id="DejaVuSans-32" d="M 1228 531 
L 3431 531 
L 3431 0 
L 469 0 
L 469 531 
Q 828 903 1448 1529 
Q 2069 2156 2228 2338 
Q 2531 2678 2651 2914 
Q 2772 3150 2772 3378 
Q 2772 3750 2511 3984 
Q 2250 4219 1831 4219 
Q 1534 4219 1204 4116 
Q 875 4013 500 3803 
L 500 4441 
Q 881 4594 1212 4672 
Q 1544 4750 1819 4750 
Q 2544 4750 2975 4387 
Q 3406 4025 3406 3419 
Q 3406 3131 3298 2873 
Q 3191 2616 2906 2266 
Q 2828 2175 2409 1742 
Q 1991 1309 1228 531 
z
" transform="scale(0.015625)"/>
       </defs>
       <use xlink:href="#DejaVuSans-30"/>
       <use xlink:href="#DejaVuSans-2e" x="63.623047"/>
       <use xlink:href="#DejaVuSans-32" x="95.410156"/>
      </g>
     </g>
    </g>
    <g id="xtick_2">
     <g id="line2d_2">
      <g>
       <use xlink:href="#m08b85d5866" x="106.250171" y="307.584" style="stroke: #000000; stroke-width: 0.8"/>
      </g>
     </g>
     <g id="text_2">
      <!-- 0.3 -->
      <g transform="translate(98.298609 322.182437)scale(0.1 -0.1)">
       <defs>
        <path id="DejaVuSans-33" d="M 2597 2516 
Q 3050 2419 3304 2112 
Q 3559 1806 3559 1356 
Q 3559 666 3084 287 
Q 2609 -91 1734 -91 
Q 1441 -91 1130 -33 
Q 819 25 488 141 
L 488 750 
Q 750 597 1062 519 
Q 1375 441 1716 441 
Q 2309 441 2620 675 
Q 2931 909 2931 1356 
Q 2931 1769 2642 2001 
Q 2353 2234 1838 2234 
L 1294 2234 
L 1294 2753 
L 1863 2753 
Q 2328 2753 2575 2939 
Q 2822 3125 2822 3475 
Q 2822 3834 2567 4026 
Q 2313 4219 1838 4219 
Q 1578 4219 1281 4162 
Q 984 4106 628 3988 
L 628 4550 
Q 988 4650 1302 4700 
Q 1616 4750 1894 4750 
Q 2613 4750 3031 4423 
Q 3450 4097 3450 3541 
Q 3450 3153 3228 2886 
Q 3006 2619 2597 2516 
z
" transform="scale(0.015625)"/>
       </defs>
       <use xlink:href="#DejaVuSans-30"/>
       <use xlink:href="#DejaVuSans-2e" x="63.623047"/>
       <use xlink:href="#DejaVuSans-33" x="95.410156"/>
      </g>
     </g>
    </g>
    <g id="xtick_3">
     <g id="line2d_3">
      <g>
       <use xlink:href="#m08b85d5866" x="147.998329" y="307.584" style="stroke: #000000; stroke-width: 0.8"/>
      </g>
     </g>
     <g id="text_3">
      <!-- 0.4 -->
      <g transform="translate(140.046766 322.182437)scale(0.1 -0.1)">
       <defs>
        <path id="DejaVuSans-34" d="M 2419 4116 
L 825 1625 
L 2419 1625 
L 2419 4116 
z
M 2253 4666 
L 3047 4666 
L 3047 1625 
L 3713 1625 
L 3713 1100 
L 3047 1100 
L 3047 0 
L 2419 0 
L 2419 1100 
L 313 1100 
L 313 1709 
L 2253 4666 
z
" transform="scale(0.015625)"/>
       </defs>
       <use xlink:href="#DejaVuSans-30"/>
       <use xlink:href="#DejaVuSans-2e" x="63.623047"/>
       <use xlink:href="#DejaVuSans-34" x="95.410156"/>
      </g>
     </g>
    </g>
    <g id="xtick_4">
     <g id="line2d_4">
      <g>
       <use xlink:href="#m08b85d5866" x="189.746486" y="307.584" style="stroke: #000000; stroke-width: 0.8"/>
      </g>
     </g>
     <g id="text_4">
      <!-- 0.5 -->
      <g transform="translate(181.794924 322.182437)scale(0.1 -0.1)">
       <defs>
        <path id="DejaVuSans-35" d="M 691 4666 
L 3169 4666 
L 3169 4134 
L 1269 4134 
L 1269 2991 
Q 1406 3038 1543 3061 
Q 1681 3084 1819 3084 
Q 2600 3084 3056 2656 
Q 3513 2228 3513 1497 
Q 3513 744 3044 326 
Q 2575 -91 1722 -91 
Q 1428 -91 1123 -41 
Q 819 9 494 109 
L 494 744 
Q 775 591 1075 516 
Q 1375 441 1709 441 
Q 2250 441 2565 725 
Q 2881 1009 2881 1497 
Q 2881 1984 2565 2268 
Q 2250 2553 1709 2553 
Q 1456 2553 1204 2497 
Q 953 2441 691 2322 
L 691 4666 
z
" transform="scale(0.015625)"/>
       </defs>
       <use xlink:href="#DejaVuSans-30"/>
       <use xlink:href="#DejaVuSans-2e" x="63.623047"/>
       <use xlink:href="#DejaVuSans-35" x="95.410156"/>
      </g>
     </g>
    </g>
    <g id="xtick_5">
     <g id="line2d_5">
      <g>
       <use xlink:href="#m08b85d5866" x="231.494643" y="307.584" style="stroke: #000000; stroke-width: 0.8"/>
      </g>
     </g>
     <g id="text_5">
      <!-- 0.6 -->
      <g transform="translate(223.543081 322.182437)scale(0.1 -0.1)">
       <defs>
        <path id="DejaVuSans-36" d="M 2113 2584 
Q 1688 2584 1439 2293 
Q 1191 2003 1191 1497 
Q 1191 994 1439 701 
Q 1688 409 2113 409 
Q 2538 409 2786 701 
Q 3034 994 3034 1497 
Q 3034 2003 2786 2293 
Q 2538 2584 2113 2584 
z
M 3366 4563 
L 3366 3988 
Q 3128 4100 2886 4159 
Q 2644 4219 2406 4219 
Q 1781 4219 1451 3797 
Q 1122 3375 1075 2522 
Q 1259 2794 1537 2939 
Q 1816 3084 2150 3084 
Q 2853 3084 3261 2657 
Q 3669 2231 3669 1497 
Q 3669 778 3244 343 
Q 2819 -91 2113 -91 
Q 1303 -91 875 529 
Q 447 1150 447 2328 
Q 447 3434 972 4092 
Q 1497 4750 2381 4750 
Q 2619 4750 2861 4703 
Q 3103 4656 3366 4563 
z
" transform="scale(0.015625)"/>
       </defs>
       <use xlink:href="#DejaVuSans-30"/>
       <use xlink:href="#DejaVuSans-2e" x="63.623047"/>
       <use xlink:href="#DejaVuSans-36" x="95.410156"/>
      </g>
     </g>
    </g>
    <g id="xtick_6">
     <g id="line2d_6">
      <g>
       <use xlink:href="#m08b85d5866" x="273.242801" y="307.584" style="stroke: #000000; stroke-width: 0.8"/>
      </g>
     </g>
     <g id="text_6">
      <!-- 0.7 -->
      <g transform="translate(265.291238 322.182437)scale(0.1 -0.1)">
       <defs>
        <path id="DejaVuSans-37" d="M 525 4666 
L 3525 4666 
L 3525 4397 
L 1831 0 
L 1172 0 
L 2766 4134 
L 525 4134 
L 525 4666 
z
" transform="scale(0.015625)"/>
       </defs>
       <use xlink:href="#DejaVuSans-30"/>
       <use xlink:href="#DejaVuSans-2e" x="63.623047"/>
       <use xlink:href="#DejaVuSans-37" x="95.410156"/>
      </g>
     </g>
    </g>
    <g id="xtick_7">
     <g id="line2d_7">
      <g>
       <use xlink:href="#m08b85d5866" x="314.990958" y="307.584" style="stroke: #000000; stroke-width: 0.8"/>
      </g>
     </g>
     <g id="text_7">
      <!-- 0.8 -->
      <g transform="translate(307.039396 322.182437)scale(0.1 -0.1)">
       <defs>
        <path id="DejaVuSans-38" d="M 2034 2216 
Q 1584 2216 1326 1975 
Q 1069 1734 1069 1313 
Q 1069 891 1326 650 
Q 1584 409 2034 409 
Q 2484 409 2743 651 
Q 3003 894 3003 1313 
Q 3003 1734 2745 1975 
Q 2488 2216 2034 2216 
z
M 1403 2484 
Q 997 2584 770 2862 
Q 544 3141 544 3541 
Q 544 4100 942 4425 
Q 1341 4750 2034 4750 
Q 2731 4750 3128 4425 
Q 3525 4100 3525 3541 
Q 3525 3141 3298 2862 
Q 3072 2584 2669 2484 
Q 3125 2378 3379 2068 
Q 3634 1759 3634 1313 
Q 3634 634 3220 271 
Q 2806 -91 2034 -91 
Q 1263 -91 848 271 
Q 434 634 434 1313 
Q 434 1759 690 2068 
Q 947 2378 1403 2484 
z
M 1172 3481 
Q 1172 3119 1398 2916 
Q 1625 2713 2034 2713 
Q 2441 2713 2670 2916 
Q 2900 3119 2900 3481 
Q 2900 3844 2670 4047 
Q 2441 4250 2034 4250 
Q 1625 4250 1398 4047 
Q 1172 3844 1172 3481 
z
" transform="scale(0.015625)"/>
       </defs>
       <use xlink:href="#DejaVuSans-30"/>
       <use xlink:href="#DejaVuSans-2e" x="63.623047"/>
       <use xlink:href="#DejaVuSans-38" x="95.410156"/>
      </g>
     </g>
    </g>
    <g id="xtick_8">
     <g id="line2d_8">
      <g>
       <use xlink:href="#m08b85d5866" x="356.739115" y="307.584" style="stroke: #000000; stroke-width: 0.8"/>
      </g>
     </g>
     <g id="text_8">
      <!-- 0.9 -->
      <g transform="translate(348.787553 322.182437)scale(0.1 -0.1)">
       <defs>
        <path id="DejaVuSans-39" d="M 703 97 
L 703 672 
Q 941 559 1184 500 
Q 1428 441 1663 441 
Q 2288 441 2617 861 
Q 2947 1281 2994 2138 
Q 2813 1869 2534 1725 
Q 2256 1581 1919 1581 
Q 1219 1581 811 2004 
Q 403 2428 403 3163 
Q 403 3881 828 4315 
Q 1253 4750 1959 4750 
Q 2769 4750 3195 4129 
Q 3622 3509 3622 2328 
Q 3622 1225 3098 567 
Q 2575 -91 1691 -91 
Q 1453 -91 1209 -44 
Q 966 3 703 97 
z
M 1959 2075 
Q 2384 2075 2632 2365 
Q 2881 2656 2881 3163 
Q 2881 3666 2632 3958 
Q 2384 4250 1959 4250 
Q 1534 4250 1286 3958 
Q 1038 3666 1038 3163 
Q 1038 2656 1286 2365 
Q 1534 2075 1959 2075 
z
" transform="scale(0.015625)"/>
       </defs>
       <use xlink:href="#DejaVuSans-30"/>
       <use xlink:href="#DejaVuSans-2e" x="63.623047"/>
       <use xlink:href="#DejaVuSans-39" x="95.410156"/>
      </g>
     </g>
    </g>
    <g id="xtick_9">
     <g id="line2d_9">
      <g>
       <use xlink:href="#m08b85d5866" x="398.487273" y="307.584" style="stroke: #000000; stroke-width: 0.8"/>
      </g>
     </g>
     <g id="text_9">
      <!-- 1.0 -->
      <g transform="translate(390.53571 322.182437)scale(0.1 -0.1)">
       <defs>
        <path id="DejaVuSans-31" d="M 794 531 
L 1825 531 
L 1825 4091 
L 703 3866 
L 703 4441 
L 1819 4666 
L 2450 4666 
L 2450 531 
L 3481 531 
L 3481 0 
L 794 0 
L 794 531 
z
" transform="scale(0.015625)"/>
       </defs>
       <use xlink:href="#DejaVuSans-31"/>
       <use xlink:href="#DejaVuSans-2e" x="63.623047"/>
       <use xlink:href="#DejaVuSans-30" x="95.410156"/>
      </g>
     </g>
    </g>
    <g id="text_10">
     <!-- Time -->
     <g transform="translate(223.926406 335.860562)scale(0.1 -0.1)">
      <defs>
       <path id="DejaVuSans-54" d="M -19 4666 
L 3928 4666 
L 3928 4134 
L 2272 4134 
L 2272 0 
L 1638 0 
L 1638 4134 
L -19 4134 
L -19 4666 
z
" transform="scale(0.015625)"/>
       <path id="DejaVuSans-69" d="M 603 3500 
L 1178 3500 
L 1178 0 
L 603 0 
L 603 3500 
z
M 603 4863 
L 1178 4863 
L 1178 4134 
L 603 4134 
L 603 4863 
z
" transform="scale(0.015625)"/>
       <path id="DejaVuSans-6d" d="M 3328 2828 
Q 3544 3216 3844 3400 
Q 4144 3584 4550 3584 
Q 5097 3584 5394 3201 
Q 5691 2819 5691 2113 
L 5691 0 
L 5113 0 
L 5113 2094 
Q 5113 2597 4934 2840 
Q 4756 3084 4391 3084 
Q 3944 3084 3684 2787 
Q 3425 2491 3425 1978 
L 3425 0 
L 2847 0 
L 2847 2094 
Q 2847 2600 2669 2842 
Q 2491 3084 2119 3084 
Q 1678 3084 1418 2786 
Q 1159 2488 1159 1978 
L 1159 0 
L 581 0 
L 581 3500 
L 1159 3500 
L 1159 2956 
Q 1356 3278 1631 3431 
Q 1906 3584 2284 3584 
Q 2666 3584 2933 3390 
Q 3200 3197 3328 2828 
z
" transform="scale(0.015625)"/>
       <path id="DejaVuSans-65" d="M 3597 1894 
L 3597 1613 
L 953 1613 
Q 991 1019 1311 708 
Q 1631 397 2203 397 
Q 2534 397 2845 478 
Q 3156 559 3463 722 
L 3463 178 
Q 3153 47 2828 -22 
Q 2503 -91 2169 -91 
Q 1331 -91 842 396 
Q 353 884 353 1716 
Q 353 2575 817 3079 
Q 1281 3584 2069 3584 
Q 2775 3584 3186 3129 
Q 3597 2675 3597 1894 
z
M 3022 2063 
Q 3016 2534 2758 2815 
Q 2500 3097 2075 3097 
Q 1594 3097 1305 2825 
Q 1016 2553 972 2059 
L 3022 2063 
z
" transform="scale(0.015625)"/>
      </defs>
      <use xlink:href="#DejaVuSans-54"/>
      <use xlink:href="#DejaVuSans-69" x="57.958984"/>
      <use xlink:href="#DejaVuSans-6d" x="85.742188"/>
      <use xlink:href="#DejaVuSans-65" x="183.154297"/>
     </g>
    </g>
    <g id="text_11">
     <!-- 1e−6 -->
     <g transform="translate(387.462188 334.860562)scale(0.1 -0.1)">
      <defs>
       <path id="DejaVuSans-2212" d="M 678 2272 
L 4684 2272 
L 4684 1741 
L 678 1741 
L 678 2272 
z
" transform="scale(0.015625)"/>
      </defs>
      <use xlink:href="#DejaVuSans-31"/>
      <use xlink:href="#DejaVuSans-65" x="63.623047"/>
      <use xlink:href="#DejaVuSans-2212" x="125.146484"/>
      <use xlink:href="#DejaVuSans-36" x="208.935547"/>
     </g>
    </g>
   </g>
   <g id="matplotlib.axis_2">
    <g id="ytick_1">
     <g id="line2d_10">
      <defs>
       <path id="m77ab73b367" d="M 0 0 
L -3.5 0 
" style="stroke: #000000; stroke-width: 0.8"/>
      </defs>
      <g>
       <use xlink:href="#m77ab73b367" x="57.6" y="290.481023" style="stroke: #000000; stroke-width: 0.8"/>
      </g>
     </g>
     <g id="text_12">
      <!-- −0.6 -->
      <g transform="translate(26.317187 294.280241)scale(0.1 -0.1)">
       <use xlink:href="#DejaVuSans-2212"/>
       <use xlink:href="#DejaVuSans-30" x="83.789062"/>
       <use xlink:href="#DejaVuSans-2e" x="147.412109"/>
       <use xlink:href="#DejaVuSans-36" x="179.199219"/>
      </g>
     </g>
    </g>
    <g id="ytick_2">
     <g id="line2d_11">
      <g>
       <use xlink:href="#m77ab73b367" x="57.6" y="251.840225" style="stroke: #000000; stroke-width: 0.8"/>
      </g>
     </g>
     <g id="text_13">
      <!-- −0.4 -->
      <g transform="translate(26.317187 255.639444)scale(0.1 -0.1)">
       <use xlink:href="#DejaVuSans-2212"/>
       <use xlink:href="#DejaVuSans-30" x="83.789062"/>
       <use xlink:href="#DejaVuSans-2e" x="147.412109"/>
       <use xlink:href="#DejaVuSans-34" x="179.199219"/>
      </g>
     </g>
    </g>
    <g id="ytick_3">
     <g id="line2d_12">
      <g>
       <use xlink:href="#m77ab73b367" x="57.6" y="213.199427" style="stroke: #000000; stroke-width: 0.8"/>
      </g>
     </g>
     <g id="text_14">
      <!-- −0.2 -->
      <g transform="translate(26.317187 216.998646)scale(0.1 -0.1)">
       <use xlink:href="#DejaVuSans-2212"/>
       <use xlink:href="#DejaVuSans-30" x="83.789062"/>
       <use xlink:href="#DejaVuSans-2e" x="147.412109"/>
       <use xlink:href="#DejaVuSans-32" x="179.199219"/>
      </g>
     </g>
    </g>
    <g id="ytick_4">
     <g id="line2d_13">
      <g>
       <use xlink:href="#m77ab73b367" x="57.6" y="174.55863" style="stroke: #000000; stroke-width: 0.8"/>
      </g>
     </g>
     <g id="text_15">
      <!-- 0.0 -->
      <g transform="translate(34.696875 178.357848)scale(0.1 -0.1)">
       <use xlink:href="#DejaVuSans-30"/>
       <use xlink:href="#DejaVuSans-2e" x="63.623047"/>
       <use xlink:href="#DejaVuSans-30" x="95.410156"/>
      </g>
     </g>
    </g>
    <g id="ytick_5">
     <g id="line2d_14">
      <g>
       <use xlink:href="#m77ab73b367" x="57.6" y="135.917832" style="stroke: #000000; stroke-width: 0.8"/>
      </g>
     </g>
     <g id="text_16">
      <!-- 0.2 -->
      <g transform="translate(34.696875 139.717051)scale(0.1 -0.1)">
       <use xlink:href="#DejaVuSans-30"/>
       <use xlink:href="#DejaVuSans-2e" x="63.623047"/>
       <use xlink:href="#DejaVuSans-32" x="95.410156"/>
      </g>
     </g>
    </g>
    <g id="ytick_6">
     <g id="line2d_15">
      <g>
       <use xlink:href="#m77ab73b367" x="57.6" y="97.277034" style="stroke: #000000; stroke-width: 0.8"/>
      </g>
     </g>
     <g id="text_17">
      <!-- 0.4 -->
      <g transform="translate(34.696875 101.076253)scale(0.1 -0.1)">
       <use xlink:href="#DejaVuSans-30"/>
       <use xlink:href="#DejaVuSans-2e" x="63.623047"/>
       <use xlink:href="#DejaVuSans-34" x="95.410156"/>
      </g>
     </g>
    </g>
    <g id="ytick_7">
     <g id="line2d_16">
      <g>
       <use xlink:href="#m77ab73b367" x="57.6" y="58.636237" style="stroke: #000000; stroke-width: 0.8"/>
      </g>
     </g>
     <g id="text_18">
      <!-- 0.6 -->
      <g transform="translate(34.696875 62.435455)scale(0.1 -0.1)">
       <use xlink:href="#DejaVuSans-30"/>
       <use xlink:href="#DejaVuSans-2e" x="63.623047"/>
       <use xlink:href="#DejaVuSans-36" x="95.410156"/>
      </g>
     </g>
    </g>
    <g id="text_19">
     <!-- Vout (V) -->
     <g transform="translate(20.2375 194.660031)rotate(-90)scale(0.1 -0.1)">
      <defs>
       <path id="DejaVuSans-56" d="M 1831 0 
L 50 4666 
L 709 4666 
L 2188 738 
L 3669 4666 
L 4325 4666 
L 2547 0 
L 1831 0 
z
" transform="scale(0.015625)"/>
       <path id="DejaVuSans-6f" d="M 1959 3097 
Q 1497 3097 1228 2736 
Q 959 2375 959 1747 
Q 959 1119 1226 758 
Q 1494 397 1959 397 
Q 2419 397 2687 759 
Q 2956 1122 2956 1747 
Q 2956 2369 2687 2733 
Q 2419 3097 1959 3097 
z
M 1959 3584 
Q 2709 3584 3137 3096 
Q 3566 2609 3566 1747 
Q 3566 888 3137 398 
Q 2709 -91 1959 -91 
Q 1206 -91 779 398 
Q 353 888 353 1747 
Q 353 2609 779 3096 
Q 1206 3584 1959 3584 
z
" transform="scale(0.015625)"/>
       <path id="DejaVuSans-75" d="M 544 1381 
L 544 3500 
L 1119 3500 
L 1119 1403 
Q 1119 906 1312 657 
Q 1506 409 1894 409 
Q 2359 409 2629 706 
Q 2900 1003 2900 1516 
L 2900 3500 
L 3475 3500 
L 3475 0 
L 2900 0 
L 2900 538 
Q 2691 219 2414 64 
Q 2138 -91 1772 -91 
Q 1169 -91 856 284 
Q 544 659 544 1381 
z
M 1991 3584 
L 1991 3584 
z
" transform="scale(0.015625)"/>
       <path id="DejaVuSans-74" d="M 1172 4494 
L 1172 3500 
L 2356 3500 
L 2356 3053 
L 1172 3053 
L 1172 1153 
Q 1172 725 1289 603 
Q 1406 481 1766 481 
L 2356 481 
L 2356 0 
L 1766 0 
Q 1100 0 847 248 
Q 594 497 594 1153 
L 594 3053 
L 172 3053 
L 172 3500 
L 594 3500 
L 594 4494 
L 1172 4494 
z
" transform="scale(0.015625)"/>
       <path id="DejaVuSans-20" transform="scale(0.015625)"/>
       <path id="DejaVuSans-28" d="M 1984 4856 
Q 1566 4138 1362 3434 
Q 1159 2731 1159 2009 
Q 1159 1288 1364 580 
Q 1569 -128 1984 -844 
L 1484 -844 
Q 1016 -109 783 600 
Q 550 1309 550 2009 
Q 550 2706 781 3412 
Q 1013 4119 1484 4856 
L 1984 4856 
z
" transform="scale(0.015625)"/>
       <path id="DejaVuSans-29" d="M 513 4856 
L 1013 4856 
Q 1481 4119 1714 3412 
Q 1947 2706 1947 2009 
Q 1947 1309 1714 600 
Q 1481 -109 1013 -844 
L 513 -844 
Q 928 -128 1133 580 
Q 1338 1288 1338 2009 
Q 1338 2731 1133 3434 
Q 928 4138 513 4856 
z
" transform="scale(0.015625)"/>
      </defs>
      <use xlink:href="#DejaVuSans-56"/>
      <use xlink:href="#DejaVuSans-6f" x="60.658203"/>
      <use xlink:href="#DejaVuSans-75" x="121.839844"/>
      <use xlink:href="#DejaVuSans-74" x="185.21875"/>
      <use xlink:href="#DejaVuSans-20" x="224.427734"/>
      <use xlink:href="#DejaVuSans-28" x="256.214844"/>
      <use xlink:href="#DejaVuSans-56" x="295.228516"/>
      <use xlink:href="#DejaVuSans-29" x="363.636719"/>
     </g>
    </g>
   </g>
   <g id="line2d_17">
    <path d="M 74.312831 205.092278 
L 78.894401 153.419833 
L 81.837035 121.68636 
L 83.922953 101.498037 
L 85.636386 86.98085 
L 87.126327 76.190561 
L 88.430026 68.325097 
L 89.547482 62.849379 
L 90.553192 58.974082 
L 91.409908 56.48709 
L 92.154879 54.946977 
L 92.788104 54.099279 
L 93.346832 53.706051 
L 93.831063 53.635192 
L 94.278046 53.792423 
L 94.762276 54.203617 
L 95.321004 54.988213 
L 95.95423 56.276435 
L 96.6992 58.328659 
L 97.555917 61.393251 
L 98.524378 65.740802 
L 99.604586 71.652708 
L 100.833788 79.66739 
L 102.249232 90.458578 
L 103.850919 104.453757 
L 105.750594 123.083822 
L 108.208997 149.533714 
L 116.03119 235.414783 
L 117.968113 253.341845 
L 119.5698 266.219518 
L 120.985245 275.879654 
L 122.214446 282.819008 
L 123.294654 287.726398 
L 124.263116 291.134884 
L 125.082583 293.264789 
L 125.790306 294.537283 
L 126.386282 295.196766 
L 126.907762 295.462931 
L 127.354744 295.459582 
L 127.801726 295.242539 
L 128.323206 294.71977 
L 128.919182 293.768468 
L 129.589656 292.250751 
L 130.371875 289.889154 
L 131.26584 286.42689 
L 132.271551 281.58831 
L 133.426255 274.855621 
L 134.729954 265.838158 
L 136.219895 253.862602 
L 137.933328 238.184222 
L 140.019246 216.91481 
L 142.924631 184.771299 
L 148.251172 125.637121 
L 150.411587 104.324007 
L 152.162268 89.136179 
L 153.652209 78.016528 
L 154.955908 69.833262 
L 156.110613 63.8954 
L 157.116323 59.784322 
L 158.010288 56.990752 
L 158.792507 55.227397 
L 159.462981 54.229643 
L 160.021709 53.76355 
L 160.50594 53.629407 
L 160.952922 53.728229 
L 161.437153 54.076279 
L 161.995881 54.788352 
L 162.629106 55.995059 
L 163.336828 57.841117 
L 164.156296 60.623975 
L 165.087509 64.606546 
L 166.167717 70.280157 
L 167.35967 77.786347 
L 168.737866 87.973354 
L 170.302304 101.287528 
L 172.127482 118.800353 
L 174.436891 143.238523 
L 178.720473 191.547053 
L 181.84935 225.548312 
L 183.972516 246.288843 
L 185.723197 261.278675 
L 187.213139 272.201926 
L 188.516837 280.195486 
L 189.671542 285.953794 
L 190.677252 289.901381 
L 191.533969 292.451686 
L 192.278939 294.047809 
L 192.912165 294.943599 
L 193.470893 295.379487 
L 193.955123 295.487391 
L 194.402106 295.364349 
L 194.886337 294.990112 
L 195.445065 294.247956 
L 196.07829 293.00743 
L 196.823261 291.01055 
L 197.679977 288.00824 
L 198.648439 283.728853 
L 199.728646 277.889503 
L 200.957848 269.952013 
L 202.336044 259.5433 
L 203.937731 245.667923 
L 205.837406 227.150262 
L 208.258561 201.206105 
L 216.41599 111.852202 
L 218.315665 94.471992 
L 219.917352 81.779523 
L 221.295548 72.531118 
L 222.524749 65.723065 
L 223.604957 60.937462 
L 224.53617 57.75114 
L 225.355638 55.687411 
L 226.06336 54.47287 
L 226.659337 53.86257 
L 227.143568 53.645876 
L 227.59055 53.668463 
L 228.074781 53.934048 
L 228.59626 54.499861 
L 229.192237 55.500048 
L 229.899959 57.17329 
L 230.682178 59.627301 
L 231.576143 63.192509 
L 232.581854 68.142624 
L 233.736558 74.996545 
L 235.040257 84.140403 
L 236.530198 96.244468 
L 238.280879 112.409586 
L 240.404046 134.225127 
L 243.458426 168.183978 
L 248.300735 221.956627 
L 250.498399 243.782433 
L 252.286328 259.403323 
L 253.813518 270.865481 
L 255.154465 279.300942 
L 256.30917 285.235522 
L 257.31488 289.343609 
L 258.208845 292.134439 
L 258.991065 293.89535 
L 259.661538 294.890985 
L 260.220266 295.355301 
L 260.704497 295.487901 
L 261.15148 295.387654 
L 261.63571 295.038064 
L 262.194438 294.324221 
L 262.827664 293.115523 
L 263.535386 291.26727 
L 264.354853 288.481919 
L 265.286067 284.496597 
L 266.366274 278.819933 
L 267.558227 271.310581 
L 268.936423 261.120239 
L 270.500862 247.802762 
L 272.363288 229.910452 
L 274.709946 205.026677 
L 279.328764 152.936078 
L 282.271398 121.244766 
L 284.320068 101.444027 
L 286.0335 86.934115 
L 287.523442 76.151144 
L 288.827141 68.292723 
L 289.944597 62.823434 
L 290.950307 58.954169 
L 291.807023 56.472457 
L 292.551994 54.937015 
L 293.185219 54.093326 
L 293.706699 53.719256 
L 294.190929 53.632189 
L 294.637912 53.774463 
L 295.122143 54.169491 
L 295.680871 54.935524 
L 296.314096 56.202886 
L 297.059067 58.230908 
L 297.915783 61.268269 
L 298.884245 65.586021 
L 299.964452 71.466217 
L 301.193654 79.447172 
L 302.57185 89.900115 
L 304.173537 103.819973 
L 306.073212 122.379434 
L 308.531615 148.771498 
L 316.54005 236.568045 
L 318.439725 254.033914 
L 320.041412 266.813863 
L 321.419608 276.147123 
L 322.64881 283.03712 
L 323.729017 287.898709 
L 324.660231 291.152892 
L 325.479698 293.27771 
L 326.187421 294.545749 
L 326.783397 295.201449 
L 327.304877 295.464292 
L 327.751859 295.458093 
L 328.198841 295.238203 
L 328.720321 294.712122 
L 329.316297 293.757057 
L 329.986771 292.235151 
L 330.76899 289.868747 
L 331.662955 286.401125 
L 332.668666 281.556737 
L 333.82337 274.817731 
L 335.127069 265.793675 
L 336.61701 253.81141 
L 338.330443 238.126561 
L 340.416361 216.851305 
L 343.321746 184.703747 
L 348.648287 125.575131 
L 350.808702 104.268831 
L 352.559383 89.088206 
L 354.049324 77.975718 
L 355.353023 69.79938 
L 356.507728 63.868083 
L 357.513438 59.762988 
L 358.407403 56.974897 
L 359.189622 55.216431 
L 359.860096 54.222915 
L 360.418824 53.760375 
L 360.903055 53.629319 
L 361.350037 53.730991 
L 361.834268 54.082121 
L 362.392996 54.797734 
L 363.026221 56.008422 
L 363.771192 57.970666 
L 364.590659 60.789649 
L 365.521873 64.812066 
L 366.60208 70.529904 
L 367.794033 78.081888 
L 369.172229 88.317183 
L 370.736668 101.679138 
L 372.599094 119.614054 
L 374.945752 144.533639 
L 379.974304 201.196186 
L 382.730696 230.548378 
L 384.742117 249.708436 
L 386.418301 263.652587 
L 387.870993 273.960758 
L 389.137444 281.44121 
L 390.2549 286.786429 
L 391.223362 290.418659 
L 392.080078 292.831646 
L 392.825049 294.306326 
L 393.458274 295.097868 
L 393.979753 295.428789 
L 394.463984 295.47572 
L 394.910966 295.296413 
L 395.395197 294.86136 
L 395.953925 294.049374 
L 396.624399 292.639685 
L 397.36937 290.523011 
L 398.226086 287.385932 
L 398.486826 286.284749 
L 398.486826 286.284749 
" clip-path="url(#p9b1556cdd4)" style="fill: none; stroke-dasharray: 5.55,2.4; stroke-dashoffset: 0; stroke: #1f77b4; stroke-width: 1.5"/>
   </g>
   <g id="line2d_18">
    <path d="M 73.832727 216.084479 
L 81.631283 122.581094 
L 83.810537 100.477855 
L 85.229974 88.507794 
L 87.150389 74.449002 
L 88.110597 68.620369 
L 89.029057 64.37075 
L 89.997614 60.913596 
L 91.742687 55.766914 
L 92.285413 54.921163 
L 92.744643 54.582074 
L 93.162124 54.521896 
L 93.621354 54.675867 
L 94.205828 55.130139 
L 95.29128 56.051808 
L 95.708762 56.459019 
L 96.167991 57.264327 
L 96.710717 58.721899 
L 97.420436 61.33055 
L 98.380644 65.77562 
L 100.593296 77.501 
L 101.595252 84.838233 
L 103.056437 97.430026 
L 105.227342 117.429097 
L 107.022512 137.177097 
L 113.576973 210.514838 
L 115.873122 233.247394 
L 117.751789 250.083966 
L 119.379967 262.583436 
L 121.34213 275.814649 
L 122.427582 281.575534 
L 123.513034 286.151418 
L 125.057716 291.516212 
L 125.767435 293.352352 
L 126.393657 294.40339 
L 126.978132 294.964087 
L 127.520858 295.182466 
L 128.063584 295.161972 
L 129.441273 294.757711 
L 129.858754 294.26976 
L 130.359732 293.317049 
L 130.985955 291.594856 
L 131.745771 288.805747 
L 132.989866 283.181325 
L 133.833179 278.723853 
L 134.659792 273.03697 
L 135.745245 263.9048 
L 138.166638 240.950528 
L 139.627823 224.806827 
L 143.635646 176.717737 
L 147.100743 135.1656 
L 149.313396 111.445662 
L 150.858078 96.597665 
L 152.277515 85.115372 
L 154.281426 70.962924 
L 155.199886 65.938103 
L 156.118345 62.1018 
L 157.120301 58.863127 
L 158.790227 54.360822 
L 159.282856 53.813629 
L 159.708687 53.636502 
L 160.167917 53.696194 
L 160.668895 53.99617 
L 161.357739 54.70393 
L 161.837843 55.11489 
L 162.422317 55.595514 
L 162.839799 56.264021 
L 163.340777 57.499572 
L 164.008747 59.800301 
L 164.927207 63.878472 
L 167.098111 75.062262 
L 168.01657 81.346872 
L 169.269015 91.679462 
L 171.982645 116.510837 
L 173.736068 135.775418 
L 180.332277 209.766548 
L 182.628425 232.575261 
L 184.548841 249.83731 
L 186.177019 262.357854 
L 188.139182 275.611767 
L 189.224634 281.384526 
L 190.310086 285.971294 
L 191.854768 291.349946 
L 192.564487 293.192277 
L 193.190709 294.248576 
L 193.775183 294.813895 
L 194.317909 295.036286 
L 194.860635 295.019526 
L 196.238325 294.623765 
L 196.655806 294.1382 
L 197.156784 293.188084 
L 197.783006 291.468521 
L 198.542823 288.681482 
L 199.786918 283.058599 
L 200.630231 278.602051 
L 201.456844 272.916469 
L 202.542296 263.786924 
L 204.963689 240.84079 
L 206.424875 224.701826 
L 210.432698 176.622867 
L 213.897795 135.078667 
L 216.110447 111.365477 
L 217.655129 96.522827 
L 219.074567 85.045136 
L 221.078478 70.898856 
L 221.996938 65.877463 
L 222.915397 62.044321 
L 223.917353 58.808606 
L 225.587279 54.311809 
L 226.079907 53.766595 
L 226.505739 53.591083 
L 226.964968 53.652367 
L 227.465946 53.953886 
L 228.154791 54.663447 
L 228.634895 55.075467 
L 229.219369 55.557784 
L 229.63685 56.227793 
L 230.137828 57.465163 
L 230.805799 59.767994 
L 231.724258 63.848098 
L 233.895162 75.033527 
L 234.813622 81.318981 
L 236.066067 91.653094 
L 238.779697 116.48975 
L 240.574868 136.234758 
L 247.129328 209.758638 
L 249.425477 232.570213 
L 251.345892 249.834665 
L 252.97407 262.357218 
L 254.936234 275.613212 
L 256.021686 281.386581 
L 257.107138 285.973982 
L 258.65182 291.353575 
L 259.361538 293.195965 
L 259.987761 294.252234 
L 260.572235 294.817559 
L 261.114961 295.040017 
L 261.657687 295.023397 
L 263.035376 294.62806 
L 263.452858 294.142538 
L 263.953836 293.192579 
L 264.580058 291.473583 
L 265.339875 288.68803 
L 266.58397 283.068881 
L 267.427282 278.614522 
L 268.253896 272.930288 
L 269.339348 263.801091 
L 271.760741 240.851379 
L 273.221927 224.708514 
L 277.22975 176.617712 
L 280.694847 135.066018 
L 282.907499 111.350755 
L 284.452181 96.507672 
L 285.871618 85.029746 
L 287.87553 70.883456 
L 288.793989 65.862644 
L 289.712449 62.030027 
L 290.714405 58.794688 
L 292.384331 54.299155 
L 292.876959 53.754601 
L 293.30279 53.579617 
L 293.76202 53.641394 
L 294.262998 53.943346 
L 294.951843 54.653333 
L 295.431946 55.065552 
L 296.016421 55.548384 
L 296.433902 56.218951 
L 296.976628 57.580484 
L 297.644599 59.925712 
L 298.563058 64.045693 
L 300.733962 75.281399 
L 301.652422 81.627853 
L 302.913216 92.087869 
L 305.660245 117.350855 
L 307.505513 137.753796 
L 314.302113 213.650137 
L 316.64001 236.528849 
L 318.351685 251.546214 
L 319.979863 263.840215 
L 321.900278 276.593754 
L 322.98573 282.164641 
L 324.071182 286.598089 
L 325.657612 291.972064 
L 326.325583 293.53134 
L 326.951805 294.455668 
L 327.494531 294.896306 
L 328.037257 295.059244 
L 328.621731 294.99241 
L 329.832428 294.631877 
L 330.24991 294.14636 
L 330.750887 293.196468 
L 331.37711 291.477762 
L 332.136926 288.693007 
L 333.381021 283.075895 
L 334.224334 278.622736 
L 335.050948 272.939243 
L 336.1364 263.810244 
L 338.557793 240.858606 
L 340.018978 224.713666 
L 344.026801 176.616654 
L 347.491899 135.061054 
L 349.704551 111.344652 
L 351.249233 96.501274 
L 352.66867 85.023161 
L 354.672582 70.876771 
L 355.591041 65.856197 
L 356.509501 62.023792 
L 357.511456 58.788592 
L 359.181383 54.293598 
L 359.674011 53.749338 
L 360.099842 53.574589 
L 360.559072 53.636584 
L 361.06005 53.938725 
L 361.748894 54.648891 
L 362.228998 55.061187 
L 362.813472 55.544244 
L 363.272702 56.300389 
L 363.815428 57.703381 
L 364.483399 60.089857 
L 365.401858 64.248572 
L 367.606161 75.745241 
L 368.53297 82.2641 
L 369.827163 93.122022 
L 372.582541 118.661045 
L 374.628201 141.418454 
L 382.059373 223.309917 
L 384.39727 245.23126 
L 385.9837 258.071068 
L 387.862367 271.371208 
L 388.989567 278.224823 
L 390.075019 283.458006 
L 391.202219 287.788107 
L 392.671754 292.548949 
L 393.331375 293.89527 
L 393.915849 294.6255 
L 394.458576 294.975103 
L 395.001302 295.062739 
L 396.086754 294.883813 
L 396.545983 294.697748 
L 396.963465 294.267383 
L 397.464443 293.383685 
L 398.048917 291.86758 
L 398.487273 290.418666 
L 398.487273 290.418666 
" clip-path="url(#p9b1556cdd4)" style="fill: none; stroke: #ff7f0e; stroke-width: 1.5; stroke-linecap: square"/>
   </g>
   <g id="patch_3">
    <path d="M 57.6 307.584 
L 57.6 41.472 
" style="fill: none; stroke: #000000; stroke-width: 0.8; stroke-linejoin: miter; stroke-linecap: square"/>
   </g>
   <g id="patch_4">
    <path d="M 414.72 307.584 
L 414.72 41.472 
" style="fill: none; stroke: #000000; stroke-width: 0.8; stroke-linejoin: miter; stroke-linecap: square"/>
   </g>
   <g id="patch_5">
    <path d="M 57.6 307.584 
L 414.72 307.584 
" style="fill: none; stroke: #000000; stroke-width: 0.8; stroke-linejoin: miter; stroke-linecap: square"/>
   </g>
   <g id="patch_6">
    <path d="M 57.6 41.472 
L 414.72 41.472 
" style="fill: none; stroke: #000000; stroke-width: 0.8; stroke-linejoin: miter; stroke-linecap: square"/>
   </g>
   <g id="text_20">
    <!-- Comparison Between Ideal and Generated Sine Waves -->
    <g transform="translate(72.24 35.472)scale(0.12 -0.12)">
     <defs>
      <path id="DejaVuSans-43" d="M 4122 4306 
L 4122 3641 
Q 3803 3938 3442 4084 
Q 3081 4231 2675 4231 
Q 1875 4231 1450 3742 
Q 1025 3253 1025 2328 
Q 1025 1406 1450 917 
Q 1875 428 2675 428 
Q 3081 428 3442 575 
Q 3803 722 4122 1019 
L 4122 359 
Q 3791 134 3420 21 
Q 3050 -91 2638 -91 
Q 1578 -91 968 557 
Q 359 1206 359 2328 
Q 359 3453 968 4101 
Q 1578 4750 2638 4750 
Q 3056 4750 3426 4639 
Q 3797 4528 4122 4306 
z
" transform="scale(0.015625)"/>
      <path id="DejaVuSans-70" d="M 1159 525 
L 1159 -1331 
L 581 -1331 
L 581 3500 
L 1159 3500 
L 1159 2969 
Q 1341 3281 1617 3432 
Q 1894 3584 2278 3584 
Q 2916 3584 3314 3078 
Q 3713 2572 3713 1747 
Q 3713 922 3314 415 
Q 2916 -91 2278 -91 
Q 1894 -91 1617 61 
Q 1341 213 1159 525 
z
M 3116 1747 
Q 3116 2381 2855 2742 
Q 2594 3103 2138 3103 
Q 1681 3103 1420 2742 
Q 1159 2381 1159 1747 
Q 1159 1113 1420 752 
Q 1681 391 2138 391 
Q 2594 391 2855 752 
Q 3116 1113 3116 1747 
z
" transform="scale(0.015625)"/>
      <path id="DejaVuSans-61" d="M 2194 1759 
Q 1497 1759 1228 1600 
Q 959 1441 959 1056 
Q 959 750 1161 570 
Q 1363 391 1709 391 
Q 2188 391 2477 730 
Q 2766 1069 2766 1631 
L 2766 1759 
L 2194 1759 
z
M 3341 1997 
L 3341 0 
L 2766 0 
L 2766 531 
Q 2569 213 2275 61 
Q 1981 -91 1556 -91 
Q 1019 -91 701 211 
Q 384 513 384 1019 
Q 384 1609 779 1909 
Q 1175 2209 1959 2209 
L 2766 2209 
L 2766 2266 
Q 2766 2663 2505 2880 
Q 2244 3097 1772 3097 
Q 1472 3097 1187 3025 
Q 903 2953 641 2809 
L 641 3341 
Q 956 3463 1253 3523 
Q 1550 3584 1831 3584 
Q 2591 3584 2966 3190 
Q 3341 2797 3341 1997 
z
" transform="scale(0.015625)"/>
      <path id="DejaVuSans-72" d="M 2631 2963 
Q 2534 3019 2420 3045 
Q 2306 3072 2169 3072 
Q 1681 3072 1420 2755 
Q 1159 2438 1159 1844 
L 1159 0 
L 581 0 
L 581 3500 
L 1159 3500 
L 1159 2956 
Q 1341 3275 1631 3429 
Q 1922 3584 2338 3584 
Q 2397 3584 2469 3576 
Q 2541 3569 2628 3553 
L 2631 2963 
z
" transform="scale(0.015625)"/>
      <path id="DejaVuSans-73" d="M 2834 3397 
L 2834 2853 
Q 2591 2978 2328 3040 
Q 2066 3103 1784 3103 
Q 1356 3103 1142 2972 
Q 928 2841 928 2578 
Q 928 2378 1081 2264 
Q 1234 2150 1697 2047 
L 1894 2003 
Q 2506 1872 2764 1633 
Q 3022 1394 3022 966 
Q 3022 478 2636 193 
Q 2250 -91 1575 -91 
Q 1294 -91 989 -36 
Q 684 19 347 128 
L 347 722 
Q 666 556 975 473 
Q 1284 391 1588 391 
Q 1994 391 2212 530 
Q 2431 669 2431 922 
Q 2431 1156 2273 1281 
Q 2116 1406 1581 1522 
L 1381 1569 
Q 847 1681 609 1914 
Q 372 2147 372 2553 
Q 372 3047 722 3315 
Q 1072 3584 1716 3584 
Q 2034 3584 2315 3537 
Q 2597 3491 2834 3397 
z
" transform="scale(0.015625)"/>
      <path id="DejaVuSans-6e" d="M 3513 2113 
L 3513 0 
L 2938 0 
L 2938 2094 
Q 2938 2591 2744 2837 
Q 2550 3084 2163 3084 
Q 1697 3084 1428 2787 
Q 1159 2491 1159 1978 
L 1159 0 
L 581 0 
L 581 3500 
L 1159 3500 
L 1159 2956 
Q 1366 3272 1645 3428 
Q 1925 3584 2291 3584 
Q 2894 3584 3203 3211 
Q 3513 2838 3513 2113 
z
" transform="scale(0.015625)"/>
      <path id="DejaVuSans-42" d="M 1259 2228 
L 1259 519 
L 2272 519 
Q 2781 519 3026 730 
Q 3272 941 3272 1375 
Q 3272 1813 3026 2020 
Q 2781 2228 2272 2228 
L 1259 2228 
z
M 1259 4147 
L 1259 2741 
L 2194 2741 
Q 2656 2741 2882 2914 
Q 3109 3088 3109 3444 
Q 3109 3797 2882 3972 
Q 2656 4147 2194 4147 
L 1259 4147 
z
M 628 4666 
L 2241 4666 
Q 2963 4666 3353 4366 
Q 3744 4066 3744 3513 
Q 3744 3084 3544 2831 
Q 3344 2578 2956 2516 
Q 3422 2416 3680 2098 
Q 3938 1781 3938 1306 
Q 3938 681 3513 340 
Q 3088 0 2303 0 
L 628 0 
L 628 4666 
z
" transform="scale(0.015625)"/>
      <path id="DejaVuSans-77" d="M 269 3500 
L 844 3500 
L 1563 769 
L 2278 3500 
L 2956 3500 
L 3675 769 
L 4391 3500 
L 4966 3500 
L 4050 0 
L 3372 0 
L 2619 2869 
L 1863 0 
L 1184 0 
L 269 3500 
z
" transform="scale(0.015625)"/>
      <path id="DejaVuSans-49" d="M 628 4666 
L 1259 4666 
L 1259 0 
L 628 0 
L 628 4666 
z
" transform="scale(0.015625)"/>
      <path id="DejaVuSans-64" d="M 2906 2969 
L 2906 4863 
L 3481 4863 
L 3481 0 
L 2906 0 
L 2906 525 
Q 2725 213 2448 61 
Q 2172 -91 1784 -91 
Q 1150 -91 751 415 
Q 353 922 353 1747 
Q 353 2572 751 3078 
Q 1150 3584 1784 3584 
Q 2172 3584 2448 3432 
Q 2725 3281 2906 2969 
z
M 947 1747 
Q 947 1113 1208 752 
Q 1469 391 1925 391 
Q 2381 391 2643 752 
Q 2906 1113 2906 1747 
Q 2906 2381 2643 2742 
Q 2381 3103 1925 3103 
Q 1469 3103 1208 2742 
Q 947 2381 947 1747 
z
" transform="scale(0.015625)"/>
      <path id="DejaVuSans-6c" d="M 603 4863 
L 1178 4863 
L 1178 0 
L 603 0 
L 603 4863 
z
" transform="scale(0.015625)"/>
      <path id="DejaVuSans-47" d="M 3809 666 
L 3809 1919 
L 2778 1919 
L 2778 2438 
L 4434 2438 
L 4434 434 
Q 4069 175 3628 42 
Q 3188 -91 2688 -91 
Q 1594 -91 976 548 
Q 359 1188 359 2328 
Q 359 3472 976 4111 
Q 1594 4750 2688 4750 
Q 3144 4750 3555 4637 
Q 3966 4525 4313 4306 
L 4313 3634 
Q 3963 3931 3569 4081 
Q 3175 4231 2741 4231 
Q 1884 4231 1454 3753 
Q 1025 3275 1025 2328 
Q 1025 1384 1454 906 
Q 1884 428 2741 428 
Q 3075 428 3337 486 
Q 3600 544 3809 666 
z
" transform="scale(0.015625)"/>
      <path id="DejaVuSans-53" d="M 3425 4513 
L 3425 3897 
Q 3066 4069 2747 4153 
Q 2428 4238 2131 4238 
Q 1616 4238 1336 4038 
Q 1056 3838 1056 3469 
Q 1056 3159 1242 3001 
Q 1428 2844 1947 2747 
L 2328 2669 
Q 3034 2534 3370 2195 
Q 3706 1856 3706 1288 
Q 3706 609 3251 259 
Q 2797 -91 1919 -91 
Q 1588 -91 1214 -16 
Q 841 59 441 206 
L 441 856 
Q 825 641 1194 531 
Q 1563 422 1919 422 
Q 2459 422 2753 634 
Q 3047 847 3047 1241 
Q 3047 1584 2836 1778 
Q 2625 1972 2144 2069 
L 1759 2144 
Q 1053 2284 737 2584 
Q 422 2884 422 3419 
Q 422 4038 858 4394 
Q 1294 4750 2059 4750 
Q 2388 4750 2728 4690 
Q 3069 4631 3425 4513 
z
" transform="scale(0.015625)"/>
      <path id="DejaVuSans-57" d="M 213 4666 
L 850 4666 
L 1831 722 
L 2809 4666 
L 3519 4666 
L 4500 722 
L 5478 4666 
L 6119 4666 
L 4947 0 
L 4153 0 
L 3169 4050 
L 2175 0 
L 1381 0 
L 213 4666 
z
" transform="scale(0.015625)"/>
      <path id="DejaVuSans-76" d="M 191 3500 
L 800 3500 
L 1894 563 
L 2988 3500 
L 3597 3500 
L 2284 0 
L 1503 0 
L 191 3500 
z
" transform="scale(0.015625)"/>
     </defs>
     <use xlink:href="#DejaVuSans-43"/>
     <use xlink:href="#DejaVuSans-6f" x="69.824219"/>
     <use xlink:href="#DejaVuSans-6d" x="131.005859"/>
     <use xlink:href="#DejaVuSans-70" x="228.417969"/>
     <use xlink:href="#DejaVuSans-61" x="291.894531"/>
     <use xlink:href="#DejaVuSans-72" x="353.173828"/>
     <use xlink:href="#DejaVuSans-69" x="394.287109"/>
     <use xlink:href="#DejaVuSans-73" x="422.070312"/>
     <use xlink:href="#DejaVuSans-6f" x="474.169922"/>
     <use xlink:href="#DejaVuSans-6e" x="535.351562"/>
     <use xlink:href="#DejaVuSans-20" x="598.730469"/>
     <use xlink:href="#DejaVuSans-42" x="630.517578"/>
     <use xlink:href="#DejaVuSans-65" x="699.121094"/>
     <use xlink:href="#DejaVuSans-74" x="760.644531"/>
     <use xlink:href="#DejaVuSans-77" x="799.853516"/>
     <use xlink:href="#DejaVuSans-65" x="881.640625"/>
     <use xlink:href="#DejaVuSans-65" x="943.164062"/>
     <use xlink:href="#DejaVuSans-6e" x="1004.6875"/>
     <use xlink:href="#DejaVuSans-20" x="1068.066406"/>
     <use xlink:href="#DejaVuSans-49" x="1099.853516"/>
     <use xlink:href="#DejaVuSans-64" x="1129.345703"/>
     <use xlink:href="#DejaVuSans-65" x="1192.822266"/>
     <use xlink:href="#DejaVuSans-61" x="1254.345703"/>
     <use xlink:href="#DejaVuSans-6c" x="1315.625"/>
     <use xlink:href="#DejaVuSans-20" x="1343.408203"/>
     <use xlink:href="#DejaVuSans-61" x="1375.195312"/>
     <use xlink:href="#DejaVuSans-6e" x="1436.474609"/>
     <use xlink:href="#DejaVuSans-64" x="1499.853516"/>
     <use xlink:href="#DejaVuSans-20" x="1563.330078"/>
     <use xlink:href="#DejaVuSans-47" x="1595.117188"/>
     <use xlink:href="#DejaVuSans-65" x="1672.607422"/>
     <use xlink:href="#DejaVuSans-6e" x="1734.130859"/>
     <use xlink:href="#DejaVuSans-65" x="1797.509766"/>
     <use xlink:href="#DejaVuSans-72" x="1859.033203"/>
     <use xlink:href="#DejaVuSans-61" x="1900.146484"/>
     <use xlink:href="#DejaVuSans-74" x="1961.425781"/>
     <use xlink:href="#DejaVuSans-65" x="2000.634766"/>
     <use xlink:href="#DejaVuSans-64" x="2062.158203"/>
     <use xlink:href="#DejaVuSans-20" x="2125.634766"/>
     <use xlink:href="#DejaVuSans-53" x="2157.421875"/>
     <use xlink:href="#DejaVuSans-69" x="2220.898438"/>
     <use xlink:href="#DejaVuSans-6e" x="2248.681641"/>
     <use xlink:href="#DejaVuSans-65" x="2312.060547"/>
     <use xlink:href="#DejaVuSans-20" x="2373.583984"/>
     <use xlink:href="#DejaVuSans-57" x="2405.371094"/>
     <use xlink:href="#DejaVuSans-61" x="2497.873047"/>
     <use xlink:href="#DejaVuSans-76" x="2559.152344"/>
     <use xlink:href="#DejaVuSans-65" x="2618.332031"/>
     <use xlink:href="#DejaVuSans-73" x="2679.855469"/>
    </g>
   </g>
   <g id="legend_1">
    <g id="patch_7">
     <path d="M 288.352813 183.367062 
L 407.72 183.367062 
Q 409.72 183.367062 409.72 181.367062 
L 409.72 167.688937 
Q 409.72 165.688937 407.72 165.688937 
L 288.352813 165.688937 
Q 286.352813 165.688937 286.352813 167.688937 
L 286.352813 181.367062 
Q 286.352813 183.367062 288.352813 183.367062 
z
" style="fill: #ffffff; opacity: 0.8; stroke: #cccccc; stroke-linejoin: miter"/>
    </g>
    <g id="line2d_19">
     <path d="M 290.352813 173.787375 
L 300.352813 173.787375 
L 310.352813 173.787375 
" style="fill: none; stroke: #ff7f0e; stroke-width: 1.5; stroke-linecap: square"/>
    </g>
    <g id="text_21">
     <!-- v(vout+)-v(vout-) -->
     <g transform="translate(318.352813 177.287375)scale(0.1 -0.1)">
      <defs>
       <path id="DejaVuSans-2b" d="M 2944 4013 
L 2944 2272 
L 4684 2272 
L 4684 1741 
L 2944 1741 
L 2944 0 
L 2419 0 
L 2419 1741 
L 678 1741 
L 678 2272 
L 2419 2272 
L 2419 4013 
L 2944 4013 
z
" transform="scale(0.015625)"/>
       <path id="DejaVuSans-2d" d="M 313 2009 
L 1997 2009 
L 1997 1497 
L 313 1497 
L 313 2009 
z
" transform="scale(0.015625)"/>
      </defs>
      <use xlink:href="#DejaVuSans-76"/>
      <use xlink:href="#DejaVuSans-28" x="59.179688"/>
      <use xlink:href="#DejaVuSans-76" x="98.193359"/>
      <use xlink:href="#DejaVuSans-6f" x="157.373047"/>
      <use xlink:href="#DejaVuSans-75" x="218.554688"/>
      <use xlink:href="#DejaVuSans-74" x="281.933594"/>
      <use xlink:href="#DejaVuSans-2b" x="321.142578"/>
      <use xlink:href="#DejaVuSans-29" x="404.931641"/>
      <use xlink:href="#DejaVuSans-2d" x="443.945312"/>
      <use xlink:href="#DejaVuSans-76" x="477.404297"/>
      <use xlink:href="#DejaVuSans-28" x="536.583984"/>
      <use xlink:href="#DejaVuSans-76" x="575.597656"/>
      <use xlink:href="#DejaVuSans-6f" x="634.777344"/>
      <use xlink:href="#DejaVuSans-75" x="695.958984"/>
      <use xlink:href="#DejaVuSans-74" x="759.337891"/>
      <use xlink:href="#DejaVuSans-2d" x="798.546875"/>
      <use xlink:href="#DejaVuSans-29" x="834.630859"/>
     </g>
    </g>
   </g>
  </g>
 </g>
 <defs>
  <clipPath id="p9b1556cdd4">
   <rect x="57.6" y="41.472" width="357.12" height="266.112"/>
  </clipPath>
 </defs>
</svg>
