<?xml version="1.0" encoding="utf-8" standalone="no"?>
<!DOCTYPE svg PUBLIC "-//W3C//DTD SVG 1.1//EN"
  "http://www.w3.org/Graphics/SVG/1.1/DTD/svg11.dtd">
<svg xmlns:xlink="http://www.w3.org/1999/xlink" width="460.8pt" height="345.6pt" viewBox="0 0 460.8 345.6" xmlns="http://www.w3.org/2000/svg" version="1.1">
 <metadata>
  <rdf:RDF xmlns:dc="http://purl.org/dc/elements/1.1/" xmlns:cc="http://creativecommons.org/ns#" xmlns:rdf="http://www.w3.org/1999/02/22-rdf-syntax-ns#">
   <cc:Work>
    <dc:type rdf:resource="http://purl.org/dc/dcmitype/StillImage"/>
    <dc:date>2023-12-18T20:51:02.618782</dc:date>
    <dc:format>image/svg+xml</dc:format>
    <dc:creator>
     <cc:Agent>
      <dc:title>Matplotlib v3.5.1, https://matplotlib.org/</dc:title>
     </cc:Agent>
    </dc:creator>
   </cc:Work>
  </rdf:RDF>
 </metadata>
 <defs>
  <style type="text/css">*{stroke-linejoin: round; stroke-linecap: butt}</style>
 </defs>
 <g id="figure_1">
  <g id="patch_1">
   <path d="M 0 345.6 
L 460.8 345.6 
L 460.8 0 
L 0 0 
z
" style="fill: #ffffff"/>
  </g>
  <g id="axes_1">
   <g id="patch_2">
    <path d="M 57.6 307.584 
L 414.72 307.584 
L 414.72 41.472 
L 57.6 41.472 
z
" style="fill: #ffffff"/>
   </g>
   <g id="matplotlib.axis_1">
    <g id="xtick_1">
     <g id="line2d_1">
      <defs>
       <path id="m2caf7b217d" d="M 0 0 
L 0 3.5 
" style="stroke: #000000; stroke-width: 0.8"/>
      </defs>
      <g>
       <use xlink:href="#m2caf7b217d" x="73.832727" y="307.584" style="stroke: #000000; stroke-width: 0.8"/>
      </g>
     </g>
     <g id="text_1">
      <!-- 0.0 -->
      <g transform="translate(65.881165 322.182437)scale(0.1 -0.1)">
       <defs>
        <path id="DejaVuSans-30" d="M 2034 4250 
Q 1547 4250 1301 3770 
Q 1056 3291 1056 2328 
Q 1056 1369 1301 889 
Q 1547 409 2034 409 
Q 2525 409 2770 889 
Q 3016 1369 3016 2328 
Q 3016 3291 2770 3770 
Q 2525 4250 2034 4250 
z
M 2034 4750 
Q 2819 4750 3233 4129 
Q 3647 3509 3647 2328 
Q 3647 1150 3233 529 
Q 2819 -91 2034 -91 
Q 1250 -91 836 529 
Q 422 1150 422 2328 
Q 422 3509 836 4129 
Q 1250 4750 2034 4750 
z
" transform="scale(0.015625)"/>
        <path id="DejaVuSans-2e" d="M 684 794 
L 1344 794 
L 1344 0 
L 684 0 
L 684 794 
z
" transform="scale(0.015625)"/>
       </defs>
       <use xlink:href="#DejaVuSans-30"/>
       <use xlink:href="#DejaVuSans-2e" x="63.623047"/>
       <use xlink:href="#DejaVuSans-30" x="95.410156"/>
      </g>
     </g>
    </g>
    <g id="xtick_2">
     <g id="line2d_2">
      <g>
       <use xlink:href="#m2caf7b217d" x="114.924338" y="307.584" style="stroke: #000000; stroke-width: 0.8"/>
      </g>
     </g>
     <g id="text_2">
      <!-- 0.2 -->
      <g transform="translate(106.972776 322.182437)scale(0.1 -0.1)">
       <defs>
        <path id="DejaVuSans-32" d="M 1228 531 
L 3431 531 
L 3431 0 
L 469 0 
L 469 531 
Q 828 903 1448 1529 
Q 2069 2156 2228 2338 
Q 2531 2678 2651 2914 
Q 2772 3150 2772 3378 
Q 2772 3750 2511 3984 
Q 2250 4219 1831 4219 
Q 1534 4219 1204 4116 
Q 875 4013 500 3803 
L 500 4441 
Q 881 4594 1212 4672 
Q 1544 4750 1819 4750 
Q 2544 4750 2975 4387 
Q 3406 4025 3406 3419 
Q 3406 3131 3298 2873 
Q 3191 2616 2906 2266 
Q 2828 2175 2409 1742 
Q 1991 1309 1228 531 
z
" transform="scale(0.015625)"/>
       </defs>
       <use xlink:href="#DejaVuSans-30"/>
       <use xlink:href="#DejaVuSans-2e" x="63.623047"/>
       <use xlink:href="#DejaVuSans-32" x="95.410156"/>
      </g>
     </g>
    </g>
    <g id="xtick_3">
     <g id="line2d_3">
      <g>
       <use xlink:href="#m2caf7b217d" x="156.015949" y="307.584" style="stroke: #000000; stroke-width: 0.8"/>
      </g>
     </g>
     <g id="text_3">
      <!-- 0.4 -->
      <g transform="translate(148.064387 322.182437)scale(0.1 -0.1)">
       <defs>
        <path id="DejaVuSans-34" d="M 2419 4116 
L 825 1625 
L 2419 1625 
L 2419 4116 
z
M 2253 4666 
L 3047 4666 
L 3047 1625 
L 3713 1625 
L 3713 1100 
L 3047 1100 
L 3047 0 
L 2419 0 
L 2419 1100 
L 313 1100 
L 313 1709 
L 2253 4666 
z
" transform="scale(0.015625)"/>
       </defs>
       <use xlink:href="#DejaVuSans-30"/>
       <use xlink:href="#DejaVuSans-2e" x="63.623047"/>
       <use xlink:href="#DejaVuSans-34" x="95.410156"/>
      </g>
     </g>
    </g>
    <g id="xtick_4">
     <g id="line2d_4">
      <g>
       <use xlink:href="#m2caf7b217d" x="197.10756" y="307.584" style="stroke: #000000; stroke-width: 0.8"/>
      </g>
     </g>
     <g id="text_4">
      <!-- 0.6 -->
      <g transform="translate(189.155998 322.182437)scale(0.1 -0.1)">
       <defs>
        <path id="DejaVuSans-36" d="M 2113 2584 
Q 1688 2584 1439 2293 
Q 1191 2003 1191 1497 
Q 1191 994 1439 701 
Q 1688 409 2113 409 
Q 2538 409 2786 701 
Q 3034 994 3034 1497 
Q 3034 2003 2786 2293 
Q 2538 2584 2113 2584 
z
M 3366 4563 
L 3366 3988 
Q 3128 4100 2886 4159 
Q 2644 4219 2406 4219 
Q 1781 4219 1451 3797 
Q 1122 3375 1075 2522 
Q 1259 2794 1537 2939 
Q 1816 3084 2150 3084 
Q 2853 3084 3261 2657 
Q 3669 2231 3669 1497 
Q 3669 778 3244 343 
Q 2819 -91 2113 -91 
Q 1303 -91 875 529 
Q 447 1150 447 2328 
Q 447 3434 972 4092 
Q 1497 4750 2381 4750 
Q 2619 4750 2861 4703 
Q 3103 4656 3366 4563 
z
" transform="scale(0.015625)"/>
       </defs>
       <use xlink:href="#DejaVuSans-30"/>
       <use xlink:href="#DejaVuSans-2e" x="63.623047"/>
       <use xlink:href="#DejaVuSans-36" x="95.410156"/>
      </g>
     </g>
    </g>
    <g id="xtick_5">
     <g id="line2d_5">
      <g>
       <use xlink:href="#m2caf7b217d" x="238.199171" y="307.584" style="stroke: #000000; stroke-width: 0.8"/>
      </g>
     </g>
     <g id="text_5">
      <!-- 0.8 -->
      <g transform="translate(230.247609 322.182437)scale(0.1 -0.1)">
       <defs>
        <path id="DejaVuSans-38" d="M 2034 2216 
Q 1584 2216 1326 1975 
Q 1069 1734 1069 1313 
Q 1069 891 1326 650 
Q 1584 409 2034 409 
Q 2484 409 2743 651 
Q 3003 894 3003 1313 
Q 3003 1734 2745 1975 
Q 2488 2216 2034 2216 
z
M 1403 2484 
Q 997 2584 770 2862 
Q 544 3141 544 3541 
Q 544 4100 942 4425 
Q 1341 4750 2034 4750 
Q 2731 4750 3128 4425 
Q 3525 4100 3525 3541 
Q 3525 3141 3298 2862 
Q 3072 2584 2669 2484 
Q 3125 2378 3379 2068 
Q 3634 1759 3634 1313 
Q 3634 634 3220 271 
Q 2806 -91 2034 -91 
Q 1263 -91 848 271 
Q 434 634 434 1313 
Q 434 1759 690 2068 
Q 947 2378 1403 2484 
z
M 1172 3481 
Q 1172 3119 1398 2916 
Q 1625 2713 2034 2713 
Q 2441 2713 2670 2916 
Q 2900 3119 2900 3481 
Q 2900 3844 2670 4047 
Q 2441 4250 2034 4250 
Q 1625 4250 1398 4047 
Q 1172 3844 1172 3481 
z
" transform="scale(0.015625)"/>
       </defs>
       <use xlink:href="#DejaVuSans-30"/>
       <use xlink:href="#DejaVuSans-2e" x="63.623047"/>
       <use xlink:href="#DejaVuSans-38" x="95.410156"/>
      </g>
     </g>
    </g>
    <g id="xtick_6">
     <g id="line2d_6">
      <g>
       <use xlink:href="#m2caf7b217d" x="279.290782" y="307.584" style="stroke: #000000; stroke-width: 0.8"/>
      </g>
     </g>
     <g id="text_6">
      <!-- 1.0 -->
      <g transform="translate(271.33922 322.182437)scale(0.1 -0.1)">
       <defs>
        <path id="DejaVuSans-31" d="M 794 531 
L 1825 531 
L 1825 4091 
L 703 3866 
L 703 4441 
L 1819 4666 
L 2450 4666 
L 2450 531 
L 3481 531 
L 3481 0 
L 794 0 
L 794 531 
z
" transform="scale(0.015625)"/>
       </defs>
       <use xlink:href="#DejaVuSans-31"/>
       <use xlink:href="#DejaVuSans-2e" x="63.623047"/>
       <use xlink:href="#DejaVuSans-30" x="95.410156"/>
      </g>
     </g>
    </g>
    <g id="xtick_7">
     <g id="line2d_7">
      <g>
       <use xlink:href="#m2caf7b217d" x="320.382393" y="307.584" style="stroke: #000000; stroke-width: 0.8"/>
      </g>
     </g>
     <g id="text_7">
      <!-- 1.2 -->
      <g transform="translate(312.430831 322.182437)scale(0.1 -0.1)">
       <use xlink:href="#DejaVuSans-31"/>
       <use xlink:href="#DejaVuSans-2e" x="63.623047"/>
       <use xlink:href="#DejaVuSans-32" x="95.410156"/>
      </g>
     </g>
    </g>
    <g id="xtick_8">
     <g id="line2d_8">
      <g>
       <use xlink:href="#m2caf7b217d" x="361.474004" y="307.584" style="stroke: #000000; stroke-width: 0.8"/>
      </g>
     </g>
     <g id="text_8">
      <!-- 1.4 -->
      <g transform="translate(353.522442 322.182437)scale(0.1 -0.1)">
       <use xlink:href="#DejaVuSans-31"/>
       <use xlink:href="#DejaVuSans-2e" x="63.623047"/>
       <use xlink:href="#DejaVuSans-34" x="95.410156"/>
      </g>
     </g>
    </g>
    <g id="xtick_9">
     <g id="line2d_9">
      <g>
       <use xlink:href="#m2caf7b217d" x="402.565615" y="307.584" style="stroke: #000000; stroke-width: 0.8"/>
      </g>
     </g>
     <g id="text_9">
      <!-- 1.6 -->
      <g transform="translate(394.614053 322.182437)scale(0.1 -0.1)">
       <use xlink:href="#DejaVuSans-31"/>
       <use xlink:href="#DejaVuSans-2e" x="63.623047"/>
       <use xlink:href="#DejaVuSans-36" x="95.410156"/>
      </g>
     </g>
    </g>
    <g id="text_10">
     <!-- Time -->
     <g transform="translate(223.926406 335.860562)scale(0.1 -0.1)">
      <defs>
       <path id="DejaVuSans-54" d="M -19 4666 
L 3928 4666 
L 3928 4134 
L 2272 4134 
L 2272 0 
L 1638 0 
L 1638 4134 
L -19 4134 
L -19 4666 
z
" transform="scale(0.015625)"/>
       <path id="DejaVuSans-69" d="M 603 3500 
L 1178 3500 
L 1178 0 
L 603 0 
L 603 3500 
z
M 603 4863 
L 1178 4863 
L 1178 4134 
L 603 4134 
L 603 4863 
z
" transform="scale(0.015625)"/>
       <path id="DejaVuSans-6d" d="M 3328 2828 
Q 3544 3216 3844 3400 
Q 4144 3584 4550 3584 
Q 5097 3584 5394 3201 
Q 5691 2819 5691 2113 
L 5691 0 
L 5113 0 
L 5113 2094 
Q 5113 2597 4934 2840 
Q 4756 3084 4391 3084 
Q 3944 3084 3684 2787 
Q 3425 2491 3425 1978 
L 3425 0 
L 2847 0 
L 2847 2094 
Q 2847 2600 2669 2842 
Q 2491 3084 2119 3084 
Q 1678 3084 1418 2786 
Q 1159 2488 1159 1978 
L 1159 0 
L 581 0 
L 581 3500 
L 1159 3500 
L 1159 2956 
Q 1356 3278 1631 3431 
Q 1906 3584 2284 3584 
Q 2666 3584 2933 3390 
Q 3200 3197 3328 2828 
z
" transform="scale(0.015625)"/>
       <path id="DejaVuSans-65" d="M 3597 1894 
L 3597 1613 
L 953 1613 
Q 991 1019 1311 708 
Q 1631 397 2203 397 
Q 2534 397 2845 478 
Q 3156 559 3463 722 
L 3463 178 
Q 3153 47 2828 -22 
Q 2503 -91 2169 -91 
Q 1331 -91 842 396 
Q 353 884 353 1716 
Q 353 2575 817 3079 
Q 1281 3584 2069 3584 
Q 2775 3584 3186 3129 
Q 3597 2675 3597 1894 
z
M 3022 2063 
Q 3016 2534 2758 2815 
Q 2500 3097 2075 3097 
Q 1594 3097 1305 2825 
Q 1016 2553 972 2059 
L 3022 2063 
z
" transform="scale(0.015625)"/>
      </defs>
      <use xlink:href="#DejaVuSans-54"/>
      <use xlink:href="#DejaVuSans-69" x="57.958984"/>
      <use xlink:href="#DejaVuSans-6d" x="85.742188"/>
      <use xlink:href="#DejaVuSans-65" x="183.154297"/>
     </g>
    </g>
    <g id="text_11">
     <!-- 1e−7 -->
     <g transform="translate(387.462188 334.860562)scale(0.1 -0.1)">
      <defs>
       <path id="DejaVuSans-2212" d="M 678 2272 
L 4684 2272 
L 4684 1741 
L 678 1741 
L 678 2272 
z
" transform="scale(0.015625)"/>
       <path id="DejaVuSans-37" d="M 525 4666 
L 3525 4666 
L 3525 4397 
L 1831 0 
L 1172 0 
L 2766 4134 
L 525 4134 
L 525 4666 
z
" transform="scale(0.015625)"/>
      </defs>
      <use xlink:href="#DejaVuSans-31"/>
      <use xlink:href="#DejaVuSans-65" x="63.623047"/>
      <use xlink:href="#DejaVuSans-2212" x="125.146484"/>
      <use xlink:href="#DejaVuSans-37" x="208.935547"/>
     </g>
    </g>
   </g>
   <g id="matplotlib.axis_2">
    <g id="ytick_1">
     <g id="line2d_10">
      <defs>
       <path id="m8348bee2e0" d="M 0 0 
L -3.5 0 
" style="stroke: #000000; stroke-width: 0.8"/>
      </defs>
      <g>
       <use xlink:href="#m8348bee2e0" x="57.6" y="295.488" style="stroke: #000000; stroke-width: 0.8"/>
      </g>
     </g>
     <g id="text_12">
      <!-- 0.00 -->
      <g transform="translate(28.334375 299.287219)scale(0.1 -0.1)">
       <use xlink:href="#DejaVuSans-30"/>
       <use xlink:href="#DejaVuSans-2e" x="63.623047"/>
       <use xlink:href="#DejaVuSans-30" x="95.410156"/>
       <use xlink:href="#DejaVuSans-30" x="159.033203"/>
      </g>
     </g>
    </g>
    <g id="ytick_2">
     <g id="line2d_11">
      <g>
       <use xlink:href="#m8348bee2e0" x="57.6" y="263.519628" style="stroke: #000000; stroke-width: 0.8"/>
      </g>
     </g>
     <g id="text_13">
      <!-- 0.25 -->
      <g transform="translate(28.334375 267.318846)scale(0.1 -0.1)">
       <defs>
        <path id="DejaVuSans-35" d="M 691 4666 
L 3169 4666 
L 3169 4134 
L 1269 4134 
L 1269 2991 
Q 1406 3038 1543 3061 
Q 1681 3084 1819 3084 
Q 2600 3084 3056 2656 
Q 3513 2228 3513 1497 
Q 3513 744 3044 326 
Q 2575 -91 1722 -91 
Q 1428 -91 1123 -41 
Q 819 9 494 109 
L 494 744 
Q 775 591 1075 516 
Q 1375 441 1709 441 
Q 2250 441 2565 725 
Q 2881 1009 2881 1497 
Q 2881 1984 2565 2268 
Q 2250 2553 1709 2553 
Q 1456 2553 1204 2497 
Q 953 2441 691 2322 
L 691 4666 
z
" transform="scale(0.015625)"/>
       </defs>
       <use xlink:href="#DejaVuSans-30"/>
       <use xlink:href="#DejaVuSans-2e" x="63.623047"/>
       <use xlink:href="#DejaVuSans-32" x="95.410156"/>
       <use xlink:href="#DejaVuSans-35" x="159.033203"/>
      </g>
     </g>
    </g>
    <g id="ytick_3">
     <g id="line2d_12">
      <g>
       <use xlink:href="#m8348bee2e0" x="57.6" y="231.551255" style="stroke: #000000; stroke-width: 0.8"/>
      </g>
     </g>
     <g id="text_14">
      <!-- 0.50 -->
      <g transform="translate(28.334375 235.350474)scale(0.1 -0.1)">
       <use xlink:href="#DejaVuSans-30"/>
       <use xlink:href="#DejaVuSans-2e" x="63.623047"/>
       <use xlink:href="#DejaVuSans-35" x="95.410156"/>
       <use xlink:href="#DejaVuSans-30" x="159.033203"/>
      </g>
     </g>
    </g>
    <g id="ytick_4">
     <g id="line2d_13">
      <g>
       <use xlink:href="#m8348bee2e0" x="57.6" y="199.582883" style="stroke: #000000; stroke-width: 0.8"/>
      </g>
     </g>
     <g id="text_15">
      <!-- 0.75 -->
      <g transform="translate(28.334375 203.382102)scale(0.1 -0.1)">
       <use xlink:href="#DejaVuSans-30"/>
       <use xlink:href="#DejaVuSans-2e" x="63.623047"/>
       <use xlink:href="#DejaVuSans-37" x="95.410156"/>
       <use xlink:href="#DejaVuSans-35" x="159.033203"/>
      </g>
     </g>
    </g>
    <g id="ytick_5">
     <g id="line2d_14">
      <g>
       <use xlink:href="#m8348bee2e0" x="57.6" y="167.614511" style="stroke: #000000; stroke-width: 0.8"/>
      </g>
     </g>
     <g id="text_16">
      <!-- 1.00 -->
      <g transform="translate(28.334375 171.41373)scale(0.1 -0.1)">
       <use xlink:href="#DejaVuSans-31"/>
       <use xlink:href="#DejaVuSans-2e" x="63.623047"/>
       <use xlink:href="#DejaVuSans-30" x="95.410156"/>
       <use xlink:href="#DejaVuSans-30" x="159.033203"/>
      </g>
     </g>
    </g>
    <g id="ytick_6">
     <g id="line2d_15">
      <g>
       <use xlink:href="#m8348bee2e0" x="57.6" y="135.646139" style="stroke: #000000; stroke-width: 0.8"/>
      </g>
     </g>
     <g id="text_17">
      <!-- 1.25 -->
      <g transform="translate(28.334375 139.445357)scale(0.1 -0.1)">
       <use xlink:href="#DejaVuSans-31"/>
       <use xlink:href="#DejaVuSans-2e" x="63.623047"/>
       <use xlink:href="#DejaVuSans-32" x="95.410156"/>
       <use xlink:href="#DejaVuSans-35" x="159.033203"/>
      </g>
     </g>
    </g>
    <g id="ytick_7">
     <g id="line2d_16">
      <g>
       <use xlink:href="#m8348bee2e0" x="57.6" y="103.677766" style="stroke: #000000; stroke-width: 0.8"/>
      </g>
     </g>
     <g id="text_18">
      <!-- 1.50 -->
      <g transform="translate(28.334375 107.476985)scale(0.1 -0.1)">
       <use xlink:href="#DejaVuSans-31"/>
       <use xlink:href="#DejaVuSans-2e" x="63.623047"/>
       <use xlink:href="#DejaVuSans-35" x="95.410156"/>
       <use xlink:href="#DejaVuSans-30" x="159.033203"/>
      </g>
     </g>
    </g>
    <g id="ytick_8">
     <g id="line2d_17">
      <g>
       <use xlink:href="#m8348bee2e0" x="57.6" y="71.709394" style="stroke: #000000; stroke-width: 0.8"/>
      </g>
     </g>
     <g id="text_19">
      <!-- 1.75 -->
      <g transform="translate(28.334375 75.508613)scale(0.1 -0.1)">
       <use xlink:href="#DejaVuSans-31"/>
       <use xlink:href="#DejaVuSans-2e" x="63.623047"/>
       <use xlink:href="#DejaVuSans-37" x="95.410156"/>
       <use xlink:href="#DejaVuSans-35" x="159.033203"/>
      </g>
     </g>
    </g>
    <g id="text_20">
     <!-- Voltage (V) -->
     <g transform="translate(22.254687 202.195188)rotate(-90)scale(0.1 -0.1)">
      <defs>
       <path id="DejaVuSans-56" d="M 1831 0 
L 50 4666 
L 709 4666 
L 2188 738 
L 3669 4666 
L 4325 4666 
L 2547 0 
L 1831 0 
z
" transform="scale(0.015625)"/>
       <path id="DejaVuSans-6f" d="M 1959 3097 
Q 1497 3097 1228 2736 
Q 959 2375 959 1747 
Q 959 1119 1226 758 
Q 1494 397 1959 397 
Q 2419 397 2687 759 
Q 2956 1122 2956 1747 
Q 2956 2369 2687 2733 
Q 2419 3097 1959 3097 
z
M 1959 3584 
Q 2709 3584 3137 3096 
Q 3566 2609 3566 1747 
Q 3566 888 3137 398 
Q 2709 -91 1959 -91 
Q 1206 -91 779 398 
Q 353 888 353 1747 
Q 353 2609 779 3096 
Q 1206 3584 1959 3584 
z
" transform="scale(0.015625)"/>
       <path id="DejaVuSans-6c" d="M 603 4863 
L 1178 4863 
L 1178 0 
L 603 0 
L 603 4863 
z
" transform="scale(0.015625)"/>
       <path id="DejaVuSans-74" d="M 1172 4494 
L 1172 3500 
L 2356 3500 
L 2356 3053 
L 1172 3053 
L 1172 1153 
Q 1172 725 1289 603 
Q 1406 481 1766 481 
L 2356 481 
L 2356 0 
L 1766 0 
Q 1100 0 847 248 
Q 594 497 594 1153 
L 594 3053 
L 172 3053 
L 172 3500 
L 594 3500 
L 594 4494 
L 1172 4494 
z
" transform="scale(0.015625)"/>
       <path id="DejaVuSans-61" d="M 2194 1759 
Q 1497 1759 1228 1600 
Q 959 1441 959 1056 
Q 959 750 1161 570 
Q 1363 391 1709 391 
Q 2188 391 2477 730 
Q 2766 1069 2766 1631 
L 2766 1759 
L 2194 1759 
z
M 3341 1997 
L 3341 0 
L 2766 0 
L 2766 531 
Q 2569 213 2275 61 
Q 1981 -91 1556 -91 
Q 1019 -91 701 211 
Q 384 513 384 1019 
Q 384 1609 779 1909 
Q 1175 2209 1959 2209 
L 2766 2209 
L 2766 2266 
Q 2766 2663 2505 2880 
Q 2244 3097 1772 3097 
Q 1472 3097 1187 3025 
Q 903 2953 641 2809 
L 641 3341 
Q 956 3463 1253 3523 
Q 1550 3584 1831 3584 
Q 2591 3584 2966 3190 
Q 3341 2797 3341 1997 
z
" transform="scale(0.015625)"/>
       <path id="DejaVuSans-67" d="M 2906 1791 
Q 2906 2416 2648 2759 
Q 2391 3103 1925 3103 
Q 1463 3103 1205 2759 
Q 947 2416 947 1791 
Q 947 1169 1205 825 
Q 1463 481 1925 481 
Q 2391 481 2648 825 
Q 2906 1169 2906 1791 
z
M 3481 434 
Q 3481 -459 3084 -895 
Q 2688 -1331 1869 -1331 
Q 1566 -1331 1297 -1286 
Q 1028 -1241 775 -1147 
L 775 -588 
Q 1028 -725 1275 -790 
Q 1522 -856 1778 -856 
Q 2344 -856 2625 -561 
Q 2906 -266 2906 331 
L 2906 616 
Q 2728 306 2450 153 
Q 2172 0 1784 0 
Q 1141 0 747 490 
Q 353 981 353 1791 
Q 353 2603 747 3093 
Q 1141 3584 1784 3584 
Q 2172 3584 2450 3431 
Q 2728 3278 2906 2969 
L 2906 3500 
L 3481 3500 
L 3481 434 
z
" transform="scale(0.015625)"/>
       <path id="DejaVuSans-20" transform="scale(0.015625)"/>
       <path id="DejaVuSans-28" d="M 1984 4856 
Q 1566 4138 1362 3434 
Q 1159 2731 1159 2009 
Q 1159 1288 1364 580 
Q 1569 -128 1984 -844 
L 1484 -844 
Q 1016 -109 783 600 
Q 550 1309 550 2009 
Q 550 2706 781 3412 
Q 1013 4119 1484 4856 
L 1984 4856 
z
" transform="scale(0.015625)"/>
       <path id="DejaVuSans-29" d="M 513 4856 
L 1013 4856 
Q 1481 4119 1714 3412 
Q 1947 2706 1947 2009 
Q 1947 1309 1714 600 
Q 1481 -109 1013 -844 
L 513 -844 
Q 928 -128 1133 580 
Q 1338 1288 1338 2009 
Q 1338 2731 1133 3434 
Q 928 4138 513 4856 
z
" transform="scale(0.015625)"/>
      </defs>
      <use xlink:href="#DejaVuSans-56"/>
      <use xlink:href="#DejaVuSans-6f" x="60.658203"/>
      <use xlink:href="#DejaVuSans-6c" x="121.839844"/>
      <use xlink:href="#DejaVuSans-74" x="149.623047"/>
      <use xlink:href="#DejaVuSans-61" x="188.832031"/>
      <use xlink:href="#DejaVuSans-67" x="250.111328"/>
      <use xlink:href="#DejaVuSans-65" x="313.587891"/>
      <use xlink:href="#DejaVuSans-20" x="375.111328"/>
      <use xlink:href="#DejaVuSans-28" x="406.898438"/>
      <use xlink:href="#DejaVuSans-56" x="445.912109"/>
      <use xlink:href="#DejaVuSans-29" x="514.320312"/>
     </g>
    </g>
   </g>
   <g id="line2d_18">
    <path d="M 73.832727 295.488 
L 76.555047 295.376587 
L 76.657776 295.189942 
L 76.78105 294.363635 
L 77.007054 290.64851 
L 77.150875 284.542192 
L 77.233058 269.143035 
L 77.520699 217.366269 
L 78.05489 175.981949 
L 78.30144 172.190189 
L 78.958906 165.965136 
L 79.534188 163.206297 
L 80.191654 161.127604 
L 80.951849 159.445524 
L 81.835319 158.014116 
L 82.9037 156.711421 
L 84.156995 155.538318 
L 85.656838 154.442649 
L 86.160211 154.127483 
L 86.166374 154.187746 
L 86.930678 159.822998 
L 86.992316 159.985343 
L 87.012861 159.912024 
L 87.095045 158.425251 
L 87.197774 151.255797 
L 87.36214 118.991371 
L 87.567598 90.030209 
L 87.588144 89.905316 
L 87.629236 90.215376 
L 87.85524 95.750426 
L 87.957969 97.110823 
L 87.978514 96.900859 
L 88.060698 92.100424 
L 88.409976 67.14395 
L 88.594889 65.628878 
L 88.800347 65.404867 
L 89.334538 65.359016 
L 94.388806 65.325297 
L 96.439277 65.220011 
L 96.628298 63.823245 
L 96.936486 63.460049 
L 97.162489 63.260639 
L 97.183035 63.282894 
L 97.265218 63.664653 
L 97.470676 65.952567 
L 97.55286 65.470173 
L 98.487694 56.59971 
L 98.559604 56.618096 
L 105.606815 56.638395 
L 106.720398 56.744927 
L 107.188842 60.042412 
L 107.476484 63.908644 
L 107.805217 68.196842 
L 107.866854 68.106713 
L 108.380499 66.648307 
L 108.774979 66.196689 
L 108.935236 65.359236 
L 109.181786 65.316156 
L 116.985083 65.215566 
L 117.153558 64.23235 
L 117.83157 63.44843 
L 118.016482 62.797237 
L 118.22194 60.984973 
L 118.85886 54.652416 
L 119.033499 53.569477 
L 119.125955 53.586838 
L 127.257985 53.666809 
L 127.816831 58.056439 
L 128.083927 62.689646 
L 128.392114 67.630124 
L 128.433205 67.6648 
L 128.474297 67.607545 
L 129.008488 66.574863 
L 129.312566 66.323616 
L 129.481041 65.359125 
L 129.727591 65.316153 
L 137.530888 65.215568 
L 137.699364 64.232781 
L 138.377375 63.443194 
L 138.582833 62.671499 
L 138.808837 60.488263 
L 139.363574 54.927793 
L 139.579305 53.568239 
L 139.671761 53.585601 
L 147.803791 53.665574 
L 148.362637 58.05529 
L 148.629732 62.688706 
L 148.937919 67.629907 
L 148.979011 67.664634 
L 149.020102 67.607417 
L 149.554293 66.574862 
L 149.858371 66.323615 
L 150.026847 65.359125 
L 150.273397 65.316153 
L 158.076694 65.215568 
L 158.245169 64.232782 
L 158.923181 63.443182 
L 159.128639 62.671493 
L 159.354643 60.48826 
L 159.909379 54.92779 
L 160.12511 53.568237 
L 160.217566 53.585598 
L 168.349596 53.665571 
L 168.908442 58.055288 
L 169.175538 62.688703 
L 169.483725 67.629906 
L 169.524816 67.664634 
L 169.565908 67.607417 
L 170.100099 66.574862 
L 170.404177 66.323615 
L 170.572652 65.359125 
L 170.819202 65.316153 
L 178.622499 65.215568 
L 178.790975 64.232782 
L 179.468986 63.443182 
L 179.674444 62.671493 
L 179.900448 60.48826 
L 180.455185 54.92779 
L 180.670916 53.568237 
L 180.763372 53.585598 
L 188.895402 53.665571 
L 189.454248 58.055288 
L 189.721343 62.688703 
L 190.02953 67.629906 
L 190.070622 67.664634 
L 190.111713 67.607417 
L 190.645904 66.574862 
L 190.949982 66.323615 
L 191.118458 65.359125 
L 191.365008 65.316153 
L 199.168305 65.215568 
L 199.33678 64.232782 
L 200.014792 63.443182 
L 200.22025 62.671493 
L 200.446254 60.48826 
L 201.00099 54.92779 
L 201.216721 53.568237 
L 201.309177 53.585588 
L 209.441207 53.665561 
L 210.000053 58.055279 
L 210.267149 62.688696 
L 210.575336 67.629905 
L 210.616427 67.664633 
L 210.657519 67.607417 
L 211.19171 66.574862 
L 211.495788 66.323615 
L 211.664263 65.359122 
L 211.910813 65.316153 
L 219.71411 65.215568 
L 219.882586 64.232782 
L 220.560597 63.443177 
L 220.766055 62.671778 
L 220.992059 60.487571 
L 221.546796 54.927569 
L 221.762527 53.568 
L 221.854983 53.585379 
L 229.987013 53.66551 
L 230.545859 58.055464 
L 230.812954 62.690084 
L 231.121141 67.631351 
L 231.162233 67.66592 
L 231.203324 67.605852 
L 231.71697 66.591362 
L 232.049812 66.196139 
L 232.210069 65.359122 
L 232.456619 65.316153 
L 240.259915 65.215596 
L 240.428391 64.232791 
L 241.065311 63.493079 
L 241.229678 62.837485 
L 241.270769 62.52663 
L 241.291315 63.132662 
L 241.41459 84.520954 
L 241.620048 165.655772 
L 241.928235 293.580288 
L 242.092601 294.736352 
L 242.322714 295.074015 
L 242.462426 295.400946 
L 242.852796 295.455082 
L 246.078488 295.483406 
L 250.532818 295.397194 
L 250.660202 295.157137 
L 251.194393 295.195023 
L 251.297122 295.482332 
L 251.338214 295.273934 
L 251.50258 293.634381 
L 251.708038 291.554386 
L 251.74913 291.634632 
L 251.831313 291.872448 
L 251.872405 291.751883 
L 252.160046 290.028965 
L 252.221683 290.203007 
L 252.324412 292.090532 
L 252.581235 295.036272 
L 252.595617 294.99443 
L 252.653145 295.197288 
L 252.838058 295.371799 
L 253.495523 295.42846 
L 257.604684 295.472391 
L 261.652208 295.377139 
L 262.001487 295.267611 
L 262.860302 295.38113 
L 262.96714 295.487903 
L 271.078624 295.412358 
L 271.185462 295.307649 
L 272.41821 295.391779 
L 272.972947 295.43842 
L 282.177468 295.368674 
L 282.444563 295.274732 
L 283.401998 295.337045 
L 283.512945 295.487888 
L 291.62032 295.46025 
L 291.731267 295.309034 
L 292.964016 295.390528 
L 293.498207 295.438278 
L 302.64109 295.395271 
L 303.339648 295.28186 
L 303.951913 295.382452 
L 304.058751 295.487888 
L 312.166126 295.46025 
L 312.277073 295.309034 
L 313.509821 295.390527 
L 314.044012 295.438278 
L 323.186896 295.395271 
L 323.885453 295.28186 
L 324.497718 295.382452 
L 324.604556 295.487888 
L 332.711931 295.46025 
L 332.822878 295.309034 
L 334.055627 295.390527 
L 334.589818 295.438278 
L 343.732701 295.395271 
L 344.431258 295.28186 
L 345.043523 295.382452 
L 345.150362 295.487888 
L 353.257737 295.46025 
L 353.368684 295.309034 
L 354.601432 295.390527 
L 355.135623 295.438278 
L 364.278507 295.395271 
L 364.977064 295.28186 
L 365.589329 295.382452 
L 365.696167 295.487888 
L 373.803542 295.46025 
L 373.914489 295.309034 
L 375.147238 295.390528 
L 375.681429 295.438278 
L 384.824312 295.395264 
L 385.543415 295.279933 
L 386.135134 295.38258 
L 386.241973 295.487865 
L 394.349348 295.460234 
L 394.460295 295.308921 
L 395.61086 295.388313 
L 395.877955 295.431017 
L 398.487273 295.487969 
L 398.487273 295.487969 
" clip-path="url(#pe2cbdb0d4d)" style="fill: none; stroke: #1f77b4; stroke-width: 1.5; stroke-linecap: square"/>
   </g>
   <g id="line2d_19">
    <path d="M 73.832727 295.488 
L 76.616684 295.367317 
L 76.739959 295.135778 
L 76.883779 294.500082 
L 76.924871 294.872838 
L 77.068692 295.263558 
L 77.948052 295.382415 
L 78.05489 295.487856 
L 86.162265 295.46023 
L 86.273212 295.308751 
L 87.444323 295.381251 
L 87.649781 295.428886 
L 91.101477 295.487975 
L 97.100852 295.375748 
L 97.203581 295.186062 
L 97.326856 294.360346 
L 97.55286 290.804939 
L 97.69668 285.146157 
L 97.778864 271.679364 
L 98.045959 219.557802 
L 98.559604 177.279345 
L 98.806154 172.533863 
L 99.011612 169.946814 
L 99.401982 166.602391 
L 99.956719 163.694745 
L 100.593639 161.514633 
L 101.333288 159.761926 
L 102.196212 158.278724 
L 103.202956 156.980091 
L 104.415159 155.781125 
L 105.853365 154.674119 
L 106.706016 154.126622 
L 106.71218 154.186883 
L 107.476484 159.822127 
L 107.538121 159.984449 
L 107.558667 159.911122 
L 107.64085 158.42433 
L 107.743579 151.254919 
L 107.907946 118.990778 
L 108.113404 90.030145 
L 108.13395 89.90527 
L 108.175041 90.21535 
L 108.401045 95.750421 
L 108.503774 97.110812 
L 108.52432 96.900846 
L 108.606503 92.100399 
L 108.955782 67.143947 
L 109.140694 65.628877 
L 109.346152 65.404867 
L 109.880343 65.359016 
L 114.934611 65.325297 
L 116.985083 65.220011 
L 117.174104 63.823245 
L 117.482291 63.460049 
L 117.708295 63.26064 
L 117.728841 63.282896 
L 117.811024 63.664657 
L 118.016482 65.952567 
L 118.098665 65.470173 
L 119.033499 56.599708 
L 119.10541 56.618092 
L 126.173167 56.638455 
L 127.266204 56.744923 
L 127.734648 60.042414 
L 128.022289 63.90863 
L 128.351022 68.196852 
L 128.41266 68.10674 
L 128.926305 66.648307 
L 129.320784 66.196689 
L 129.481041 65.359236 
L 129.727591 65.316156 
L 137.530888 65.215566 
L 137.699364 64.23235 
L 138.377375 63.448438 
L 138.562287 62.797235 
L 138.767746 60.984965 
L 139.404665 54.652412 
L 139.579305 53.569472 
L 139.671761 53.586834 
L 147.803791 53.666804 
L 148.362637 58.056441 
L 148.629732 62.689616 
L 148.937919 67.630148 
L 148.979011 67.664827 
L 149.020102 67.607564 
L 149.554293 66.574863 
L 149.858371 66.323616 
L 150.026847 65.359125 
L 150.273397 65.316153 
L 158.076694 65.215568 
L 158.245169 64.232781 
L 158.923181 63.4432 
L 159.128639 62.671497 
L 159.354643 60.488252 
L 159.909379 54.927789 
L 160.12511 53.568235 
L 160.217566 53.585597 
L 168.349596 53.66557 
L 168.908442 58.055293 
L 169.175538 62.688676 
L 169.483725 67.629932 
L 169.524816 67.664661 
L 169.565908 67.607438 
L 170.100099 66.574862 
L 170.404177 66.323615 
L 170.572652 65.359125 
L 170.819202 65.316153 
L 178.622499 65.215568 
L 178.790975 64.232782 
L 179.468986 63.44319 
L 179.674444 62.67149 
L 179.900448 60.48825 
L 180.455185 54.927786 
L 180.670916 53.568233 
L 180.763372 53.585594 
L 188.895402 53.665567 
L 189.454248 58.05529 
L 189.721343 62.688674 
L 190.02953 67.629932 
L 190.070622 67.664661 
L 190.111713 67.607436 
L 190.645904 66.574862 
L 190.949982 66.323615 
L 191.118458 65.359125 
L 191.365008 65.316153 
L 199.168305 65.215568 
L 199.33678 64.232782 
L 200.014792 63.44319 
L 200.22025 62.67149 
L 200.446254 60.48825 
L 201.00099 54.927786 
L 201.216721 53.568233 
L 201.309177 53.585584 
L 209.441207 53.665556 
L 210.000053 58.05528 
L 210.267149 62.688666 
L 210.575336 67.629929 
L 210.616427 67.66466 
L 210.657519 67.607436 
L 211.19171 66.574862 
L 211.495788 66.323615 
L 211.664263 65.359122 
L 211.910813 65.316153 
L 219.71411 65.215568 
L 219.882586 64.232782 
L 220.560597 63.44319 
L 220.766055 62.67149 
L 220.992059 60.48825 
L 221.546796 54.927786 
L 221.762527 53.568233 
L 221.854983 53.585621 
L 229.987013 53.665741 
L 230.545859 58.055453 
L 230.812954 62.688807 
L 231.121141 67.62996 
L 231.162233 67.66468 
L 231.203324 67.607449 
L 231.737515 66.574862 
L 232.041593 66.323615 
L 232.210069 65.359122 
L 232.456619 65.316153 
L 240.259915 65.215568 
L 240.428391 64.232782 
L 241.106403 63.443185 
L 241.311861 62.671743 
L 241.537865 60.487568 
L 242.092601 54.927614 
L 242.308332 53.568046 
L 242.400788 53.585436 
L 250.532818 53.665565 
L 251.091664 58.055516 
L 251.35876 62.690134 
L 251.666947 67.631361 
L 251.708038 67.665926 
L 251.74913 67.605849 
L 252.262775 66.591362 
L 252.595617 66.196139 
L 252.755874 65.359122 
L 253.002424 65.316153 
L 260.805721 65.215596 
L 260.974197 64.232791 
L 261.611117 63.493079 
L 261.775483 62.837487 
L 261.816575 62.526629 
L 261.83712 63.132656 
L 261.960395 84.520943 
L 262.165853 165.655763 
L 262.47404 293.580287 
L 262.638407 294.736352 
L 262.86852 295.074016 
L 263.008231 295.400946 
L 263.398602 295.455082 
L 266.624293 295.483406 
L 271.078624 295.397194 
L 271.206008 295.157137 
L 271.740199 295.195023 
L 271.842928 295.482332 
L 271.884019 295.273934 
L 272.048386 293.634381 
L 272.253844 291.554386 
L 272.294935 291.634632 
L 272.377119 291.872448 
L 272.41821 291.751883 
L 272.705852 290.028965 
L 272.767489 290.203007 
L 272.870218 292.090532 
L 273.127041 295.036272 
L 273.141423 294.99443 
L 273.198951 295.197239 
L 273.383863 295.37175 
L 274.041329 295.428444 
L 278.15049 295.472389 
L 282.198014 295.37714 
L 282.547292 295.267611 
L 283.406107 295.38113 
L 283.512945 295.487886 
L 291.62032 295.460214 
L 291.731267 295.307649 
L 292.964016 295.391779 
L 293.518752 295.43842 
L 302.723273 295.368674 
L 302.990369 295.274732 
L 303.947803 295.337045 
L 304.058751 295.487888 
L 312.166126 295.460249 
L 312.277073 295.309033 
L 313.509821 295.390528 
L 314.044012 295.438278 
L 323.186896 295.395271 
L 323.885453 295.28186 
L 324.497718 295.382453 
L 324.604556 295.487888 
L 332.711931 295.460249 
L 332.822878 295.309034 
L 334.055627 295.390527 
L 334.589818 295.438278 
L 343.732701 295.395271 
L 344.431258 295.28186 
L 345.043523 295.382453 
L 345.150362 295.487888 
L 353.257737 295.460249 
L 353.368684 295.309034 
L 354.601432 295.390527 
L 355.135623 295.438278 
L 364.278507 295.395271 
L 364.977064 295.28186 
L 365.589329 295.382453 
L 365.696167 295.487888 
L 373.803542 295.460249 
L 373.914489 295.309034 
L 375.147238 295.390527 
L 375.681429 295.438278 
L 384.824312 295.395271 
L 385.522869 295.28186 
L 386.135134 295.382453 
L 386.241973 295.487888 
L 394.349348 295.460249 
L 394.460295 295.309034 
L 395.693043 295.390528 
L 396.227234 295.438278 
L 398.487273 295.487969 
L 398.487273 295.487969 
" clip-path="url(#pe2cbdb0d4d)" style="fill: none; stroke: #ff7f0e; stroke-width: 1.5; stroke-linecap: square"/>
   </g>
   <g id="line2d_20">
    <path d="M 73.832727 295.488 
L 76.616684 295.367317 
L 76.739959 295.135784 
L 76.883779 294.500133 
L 76.924871 294.870209 
L 77.068692 295.26328 
L 77.95627 295.442603 
L 78.075436 295.487999 
L 86.166374 295.412514 
L 86.273212 295.308866 
L 87.505961 295.390668 
L 88.040152 295.438262 
L 97.141944 295.404969 
L 98.148688 295.299157 
L 98.493858 295.38258 
L 98.600696 295.487857 
L 106.708071 295.460234 
L 106.819018 295.308921 
L 107.990129 295.380895 
L 108.195587 295.428859 
L 111.544553 295.487969 
L 117.626112 295.389557 
L 117.749387 295.186061 
L 117.872661 294.360346 
L 118.098665 290.804939 
L 118.242486 285.146157 
L 118.324669 271.679367 
L 118.591765 219.557803 
L 119.10541 177.279345 
L 119.351959 172.533863 
L 119.557417 169.946814 
L 119.947788 166.602391 
L 120.502524 163.694745 
L 121.139444 161.514633 
L 121.879093 159.761926 
L 122.742017 158.278724 
L 123.748762 156.980091 
L 124.960964 155.781125 
L 126.399171 154.674119 
L 127.251822 154.126622 
L 127.257985 154.186883 
L 128.022289 159.822127 
L 128.083927 159.984449 
L 128.104472 159.911122 
L 128.186656 158.42433 
L 128.289385 151.254919 
L 128.453751 118.990778 
L 128.659209 90.030145 
L 128.679755 89.90527 
L 128.720847 90.21535 
L 128.946851 95.750421 
L 129.04958 97.110812 
L 129.070125 96.900846 
L 129.152309 92.100399 
L 129.501587 67.143947 
L 129.686499 65.628877 
L 129.891958 65.404867 
L 130.426148 65.359016 
L 135.480417 65.325297 
L 137.530888 65.220011 
L 137.719909 63.823245 
L 138.028097 63.460049 
L 138.2541 63.26064 
L 138.274646 63.282896 
L 138.356829 63.664657 
L 138.562287 65.952567 
L 138.644471 65.470173 
L 139.579305 56.599708 
L 139.651215 56.618092 
L 146.718972 56.638455 
L 147.812009 56.744923 
L 148.280453 60.042414 
L 148.568095 63.90863 
L 148.896828 68.196852 
L 148.958465 68.10674 
L 149.47211 66.648307 
L 149.86659 66.196689 
L 150.026847 65.359236 
L 150.273397 65.316156 
L 158.076694 65.215566 
L 158.245169 64.23235 
L 158.923181 63.448438 
L 159.108093 62.797235 
L 159.313551 60.984965 
L 159.950471 54.652412 
L 160.12511 53.569472 
L 160.217566 53.586834 
L 168.349596 53.666804 
L 168.908442 58.056441 
L 169.175538 62.689616 
L 169.483725 67.630148 
L 169.524816 67.664827 
L 169.565908 67.607564 
L 170.100099 66.574863 
L 170.404177 66.323616 
L 170.572652 65.359125 
L 170.819202 65.316153 
L 178.622499 65.215568 
L 178.790975 64.232781 
L 179.468986 63.4432 
L 179.674444 62.671497 
L 179.900448 60.488252 
L 180.455185 54.927789 
L 180.670916 53.568235 
L 180.763372 53.585597 
L 188.895402 53.66557 
L 189.454248 58.055293 
L 189.721343 62.688676 
L 190.02953 67.629932 
L 190.070622 67.664661 
L 190.111713 67.607438 
L 190.645904 66.574862 
L 190.949982 66.323615 
L 191.118458 65.359125 
L 191.365008 65.316153 
L 199.168305 65.215568 
L 199.33678 64.232782 
L 200.014792 63.44319 
L 200.22025 62.67149 
L 200.446254 60.48825 
L 201.00099 54.927786 
L 201.216721 53.568233 
L 201.309177 53.585584 
L 209.441207 53.665556 
L 210.000053 58.05528 
L 210.267149 62.688666 
L 210.575336 67.629929 
L 210.616427 67.66466 
L 210.657519 67.607436 
L 211.19171 66.574862 
L 211.495788 66.323615 
L 211.664263 65.359122 
L 211.910813 65.316153 
L 219.71411 65.215568 
L 219.882586 64.232782 
L 220.560597 63.44319 
L 220.766055 62.67149 
L 220.992059 60.48825 
L 221.546796 54.927786 
L 221.762527 53.568233 
L 221.854983 53.585621 
L 229.987013 53.665741 
L 230.545859 58.055453 
L 230.812954 62.688807 
L 231.121141 67.62996 
L 231.162233 67.66468 
L 231.203324 67.607449 
L 231.737515 66.574862 
L 232.041593 66.323615 
L 232.210069 65.359122 
L 232.456619 65.316153 
L 240.259915 65.215568 
L 240.428391 64.232782 
L 241.106403 63.44319 
L 241.311861 62.67149 
L 241.537865 60.48825 
L 242.092601 54.927795 
L 242.308332 53.568242 
L 242.400788 53.585641 
L 250.532818 53.665759 
L 251.091664 58.055469 
L 251.35876 62.688829 
L 251.666947 67.629964 
L 251.708038 67.664683 
L 251.74913 67.607452 
L 252.283321 66.574862 
L 252.587399 66.323615 
L 252.755874 65.359122 
L 253.002424 65.316153 
L 260.805721 65.215568 
L 260.974197 64.232782 
L 261.652208 63.443185 
L 261.857666 62.671743 
L 262.08367 60.487568 
L 262.638407 54.927614 
L 262.854138 53.568046 
L 262.946594 53.585436 
L 271.078624 53.665565 
L 271.63747 58.055516 
L 271.904565 62.690133 
L 272.212752 67.631361 
L 272.253844 67.665926 
L 272.294935 67.605849 
L 272.808581 66.591362 
L 273.141423 66.196139 
L 273.30168 65.359125 
L 273.54823 65.316153 
L 281.351526 65.215596 
L 281.520002 64.232791 
L 282.156922 63.493079 
L 282.321288 62.837487 
L 282.36238 62.526626 
L 282.382926 63.132642 
L 282.506201 84.520915 
L 282.711659 165.655728 
L 283.019846 293.580286 
L 283.184212 294.736352 
L 283.414325 295.074016 
L 283.554037 295.40094 
L 283.944407 295.455082 
L 287.170099 295.483406 
L 291.624429 295.397194 
L 291.751813 295.157137 
L 292.286004 295.195023 
L 292.388733 295.482332 
L 292.429825 295.273934 
L 292.594191 293.634381 
L 292.799649 291.554386 
L 292.840741 291.634632 
L 292.922924 291.872448 
L 292.964016 291.751883 
L 293.251657 290.028965 
L 293.313294 290.203007 
L 293.416023 292.090532 
L 293.672846 295.036272 
L 293.687228 294.99443 
L 293.744756 295.197239 
L 293.929669 295.37175 
L 294.587134 295.428444 
L 298.696295 295.472389 
L 302.743819 295.37714 
L 303.093098 295.267611 
L 303.951913 295.38113 
L 304.058751 295.487886 
L 312.166126 295.460214 
L 312.277073 295.307649 
L 313.509821 295.391779 
L 314.064558 295.43842 
L 323.269079 295.368674 
L 323.536174 295.274732 
L 324.493609 295.337045 
L 324.604556 295.487888 
L 332.711931 295.460249 
L 332.822878 295.309033 
L 334.055627 295.390528 
L 334.589818 295.438278 
L 343.732701 295.395271 
L 344.431258 295.28186 
L 345.043523 295.382453 
L 345.150362 295.487888 
L 353.257737 295.460249 
L 353.368684 295.309034 
L 354.601432 295.390527 
L 355.135623 295.438278 
L 364.278507 295.395271 
L 364.977064 295.28186 
L 365.589329 295.382453 
L 365.696167 295.487888 
L 373.803542 295.460249 
L 373.914489 295.309034 
L 375.147238 295.390527 
L 375.681429 295.438278 
L 384.824312 295.395271 
L 385.522869 295.28186 
L 386.135134 295.382453 
L 386.241973 295.487888 
L 394.349348 295.460249 
L 394.460295 295.309034 
L 395.693043 295.390527 
L 396.227234 295.438278 
L 398.487273 295.487969 
L 398.487273 295.487969 
" clip-path="url(#pe2cbdb0d4d)" style="fill: none; stroke: #2ca02c; stroke-width: 1.5; stroke-linecap: square"/>
   </g>
   <g id="line2d_21">
    <path d="M 73.832727 295.488 
L 76.616684 295.367317 
L 76.739959 295.135784 
L 76.883779 294.500133 
L 76.924871 294.870208 
L 77.068692 295.263282 
L 77.95627 295.442603 
L 78.075436 295.487999 
L 86.166374 295.412514 
L 86.273212 295.308866 
L 87.505961 295.390667 
L 88.040152 295.438262 
L 97.141944 295.404971 
L 98.148688 295.299248 
L 98.493858 295.382453 
L 98.600696 295.487881 
L 106.708071 295.460249 
L 106.819018 295.309034 
L 108.051766 295.39053 
L 108.585957 295.438278 
L 117.728841 295.395264 
L 118.447944 295.27997 
L 119.039663 295.38258 
L 119.146501 295.487857 
L 127.253876 295.460234 
L 127.364823 295.308921 
L 128.535934 295.380895 
L 128.741392 295.428859 
L 132.090359 295.487969 
L 138.171917 295.389557 
L 138.295192 295.186061 
L 138.418467 294.360346 
L 138.644471 290.804939 
L 138.788291 285.146157 
L 138.870475 271.679367 
L 139.13757 219.557803 
L 139.651215 177.279345 
L 139.897765 172.533863 
L 140.103223 169.946814 
L 140.493593 166.602391 
L 141.04833 163.694745 
L 141.68525 161.514633 
L 142.424899 159.761926 
L 143.287823 158.278724 
L 144.294567 156.980091 
L 145.50677 155.781125 
L 146.944976 154.674119 
L 147.797627 154.126622 
L 147.803791 154.186883 
L 148.568095 159.822127 
L 148.629732 159.984449 
L 148.650278 159.911122 
L 148.732461 158.42433 
L 148.83519 151.254919 
L 148.999557 118.990778 
L 149.205015 90.030145 
L 149.225561 89.90527 
L 149.266652 90.21535 
L 149.492656 95.750421 
L 149.595385 97.110812 
L 149.615931 96.900846 
L 149.698114 92.100399 
L 150.047393 67.143947 
L 150.232305 65.628877 
L 150.437763 65.404867 
L 150.971954 65.359016 
L 156.026222 65.325297 
L 158.076694 65.220011 
L 158.265715 63.823245 
L 158.573902 63.460049 
L 158.799906 63.26064 
L 158.820452 63.282896 
L 158.902635 63.664657 
L 159.108093 65.952567 
L 159.190276 65.470173 
L 160.12511 56.599708 
L 160.197021 56.618092 
L 167.264778 56.638455 
L 168.357815 56.744923 
L 168.826259 60.042414 
L 169.1139 63.90863 
L 169.442633 68.196852 
L 169.504271 68.10674 
L 170.017916 66.648307 
L 170.412395 66.196689 
L 170.572652 65.359236 
L 170.819202 65.316156 
L 178.622499 65.215566 
L 178.790975 64.23235 
L 179.468986 63.448438 
L 179.653898 62.797235 
L 179.859357 60.984965 
L 180.496276 54.652412 
L 180.670916 53.569472 
L 180.763372 53.586834 
L 188.895402 53.666804 
L 189.454248 58.056441 
L 189.721343 62.689616 
L 190.02953 67.630148 
L 190.070622 67.664827 
L 190.111713 67.607564 
L 190.645904 66.574863 
L 190.949982 66.323616 
L 191.118458 65.359125 
L 191.365008 65.316153 
L 199.168305 65.215568 
L 199.33678 64.232781 
L 200.014792 63.4432 
L 200.22025 62.671497 
L 200.446254 60.488252 
L 201.00099 54.927789 
L 201.216721 53.568235 
L 201.309177 53.585586 
L 209.441207 53.66556 
L 210.000053 58.055283 
L 210.267149 62.688669 
L 210.575336 67.62993 
L 210.616427 67.66466 
L 210.657519 67.607436 
L 211.19171 66.574862 
L 211.495788 66.323615 
L 211.664263 65.359122 
L 211.910813 65.316153 
L 219.71411 65.215568 
L 219.882586 64.232782 
L 220.560597 63.44319 
L 220.766055 62.67149 
L 220.992059 60.48825 
L 221.546796 54.927786 
L 221.762527 53.568233 
L 221.854983 53.585621 
L 229.987013 53.665741 
L 230.545859 58.055453 
L 230.812954 62.688807 
L 231.121141 67.62996 
L 231.162233 67.66468 
L 231.203324 67.607449 
L 231.737515 66.574862 
L 232.041593 66.323615 
L 232.210069 65.359122 
L 232.456619 65.316153 
L 240.259915 65.215568 
L 240.428391 64.232782 
L 241.106403 63.44319 
L 241.311861 62.67149 
L 241.537865 60.48825 
L 242.092601 54.927795 
L 242.308332 53.568242 
L 242.400788 53.585641 
L 250.532818 53.665759 
L 251.091664 58.055469 
L 251.35876 62.688829 
L 251.666947 67.629964 
L 251.708038 67.664683 
L 251.74913 67.607452 
L 252.283321 66.574862 
L 252.587399 66.323615 
L 252.755874 65.359122 
L 253.002424 65.316153 
L 260.805721 65.215568 
L 260.974197 64.232782 
L 261.652208 63.44319 
L 261.857666 62.67149 
L 262.08367 60.48825 
L 262.638407 54.927795 
L 262.854138 53.568242 
L 262.946594 53.585641 
L 271.078624 53.665759 
L 271.63747 58.055469 
L 271.904565 62.688829 
L 272.212752 67.629964 
L 272.253844 67.664683 
L 272.294935 67.607452 
L 272.829126 66.574862 
L 273.133204 66.323615 
L 273.30168 65.359125 
L 273.54823 65.316153 
L 281.351526 65.215568 
L 281.520002 64.232782 
L 282.198014 63.443185 
L 282.403472 62.671743 
L 282.629476 60.487568 
L 283.184212 54.927614 
L 283.399943 53.568046 
L 283.492399 53.58543 
L 291.624429 53.665548 
L 292.183275 58.055499 
L 292.450371 62.69012 
L 292.758558 67.631359 
L 292.799649 67.665924 
L 292.840741 67.605848 
L 293.354386 66.591362 
L 293.687228 66.196139 
L 293.847485 65.359125 
L 294.094035 65.316153 
L 301.897332 65.215596 
L 302.065808 64.232791 
L 302.702728 63.493079 
L 302.867094 62.837487 
L 302.908186 62.526626 
L 302.928731 63.132642 
L 303.052006 84.520915 
L 303.257464 165.655728 
L 303.565651 293.580286 
L 303.730018 294.736352 
L 303.960131 295.074016 
L 304.099842 295.40094 
L 304.490213 295.455082 
L 307.715904 295.483406 
L 312.170235 295.397194 
L 312.297619 295.157137 
L 312.83181 295.195023 
L 312.934539 295.482332 
L 312.97563 295.273934 
L 313.139997 293.634381 
L 313.345455 291.554386 
L 313.386546 291.634632 
L 313.46873 291.872448 
L 313.509821 291.751883 
L 313.797462 290.028965 
L 313.8591 290.203007 
L 313.961829 292.090532 
L 314.218652 295.036272 
L 314.233034 294.99443 
L 314.290562 295.197239 
L 314.475474 295.37175 
L 315.13294 295.428444 
L 319.242101 295.472389 
L 323.289625 295.37714 
L 323.638903 295.267611 
L 324.497718 295.38113 
L 324.604556 295.487886 
L 332.711931 295.460214 
L 332.822878 295.307649 
L 334.055627 295.391779 
L 334.610363 295.43842 
L 343.814884 295.368674 
L 344.08198 295.274732 
L 345.039414 295.337045 
L 345.150362 295.487888 
L 353.257737 295.460249 
L 353.368684 295.309033 
L 354.601432 295.390528 
L 355.135623 295.438278 
L 364.278507 295.395271 
L 364.977064 295.28186 
L 365.589329 295.382453 
L 365.696167 295.487888 
L 373.803542 295.460249 
L 373.914489 295.309034 
L 375.147238 295.390527 
L 375.681429 295.438278 
L 384.824312 295.395271 
L 385.522869 295.28186 
L 386.135134 295.382453 
L 386.241973 295.487888 
L 394.349348 295.460249 
L 394.460295 295.309034 
L 395.693043 295.390527 
L 396.227234 295.438278 
L 398.487273 295.487969 
L 398.487273 295.487969 
" clip-path="url(#pe2cbdb0d4d)" style="fill: none; stroke: #d62728; stroke-width: 1.5; stroke-linecap: square"/>
   </g>
   <g id="line2d_22">
    <path d="M 73.832727 295.488 
L 76.616684 295.367317 
L 76.739959 295.135785 
L 76.883779 294.500134 
L 76.924871 294.870209 
L 77.068692 295.263282 
L 77.95627 295.442603 
L 78.075436 295.487999 
L 86.166374 295.412514 
L 86.273212 295.308866 
L 87.505961 295.390667 
L 88.040152 295.438262 
L 97.141944 295.404971 
L 98.148688 295.299248 
L 98.493858 295.382453 
L 98.600696 295.487881 
L 106.708071 295.460249 
L 106.819018 295.309034 
L 108.051766 295.390529 
L 108.585957 295.438278 
L 117.728841 295.395271 
L 118.427398 295.28186 
L 119.039663 295.382453 
L 119.146501 295.487881 
L 127.253876 295.460249 
L 127.364823 295.309034 
L 128.597572 295.39053 
L 129.131763 295.438278 
L 138.274646 295.395264 
L 138.993749 295.27997 
L 139.585469 295.38258 
L 139.692307 295.487857 
L 147.799682 295.460234 
L 147.910629 295.308921 
L 149.08174 295.380895 
L 149.287198 295.428859 
L 152.636164 295.487969 
L 158.717723 295.389557 
L 158.840997 295.186061 
L 158.964272 294.360346 
L 159.190276 290.804939 
L 159.334097 285.146157 
L 159.41628 271.679367 
L 159.683376 219.557803 
L 160.197021 177.279345 
L 160.44357 172.533863 
L 160.649028 169.946814 
L 161.039399 166.602391 
L 161.594135 163.694745 
L 162.231055 161.514633 
L 162.970704 159.761926 
L 163.833628 158.278724 
L 164.840373 156.980091 
L 166.052575 155.781125 
L 167.490782 154.674119 
L 168.343433 154.126622 
L 168.349596 154.186883 
L 169.1139 159.822127 
L 169.175538 159.984449 
L 169.196083 159.911122 
L 169.278267 158.42433 
L 169.380996 151.254919 
L 169.545362 118.990778 
L 169.75082 90.030145 
L 169.771366 89.90527 
L 169.812458 90.21535 
L 170.038461 95.750421 
L 170.141191 97.110812 
L 170.161736 96.900846 
L 170.24392 92.100399 
L 170.593198 67.143947 
L 170.77811 65.628875 
L 170.983569 65.404867 
L 171.517759 65.359016 
L 176.572028 65.325297 
L 178.622499 65.220011 
L 178.81152 63.823245 
L 179.119708 63.460049 
L 179.345711 63.26064 
L 179.366257 63.282896 
L 179.44844 63.664657 
L 179.653898 65.952567 
L 179.736082 65.470173 
L 180.670916 56.599708 
L 180.742826 56.618092 
L 187.810583 56.638455 
L 188.90362 56.744923 
L 189.372064 60.042414 
L 189.659706 63.90863 
L 189.988439 68.196852 
L 190.050076 68.10674 
L 190.563721 66.648307 
L 190.958201 66.196689 
L 191.118458 65.359236 
L 191.365008 65.316156 
L 199.168305 65.215566 
L 199.33678 64.23235 
L 200.014792 63.448438 
L 200.199704 62.797235 
L 200.405162 60.984965 
L 201.042082 54.652412 
L 201.216721 53.569472 
L 201.309177 53.586824 
L 209.441207 53.666794 
L 210.000053 58.056431 
L 210.267149 62.689609 
L 210.575336 67.630147 
L 210.616427 67.664826 
L 210.657519 67.607564 
L 211.19171 66.574863 
L 211.495788 66.323616 
L 211.664263 65.359124 
L 211.910813 65.316153 
L 219.71411 65.215568 
L 219.882586 64.232781 
L 220.560597 63.4432 
L 220.766055 62.671497 
L 220.992059 60.488252 
L 221.546796 54.927789 
L 221.762527 53.568235 
L 221.854983 53.585624 
L 229.987013 53.665744 
L 230.545859 58.055455 
L 230.812954 62.688809 
L 231.121141 67.62996 
L 231.162233 67.66468 
L 231.203324 67.60745 
L 231.737515 66.574862 
L 232.041593 66.323615 
L 232.210069 65.359122 
L 232.456619 65.316153 
L 240.259915 65.215568 
L 240.428391 64.232782 
L 241.106403 63.44319 
L 241.311861 62.67149 
L 241.537865 60.48825 
L 242.092601 54.927795 
L 242.308332 53.568242 
L 242.400788 53.585641 
L 250.532818 53.665759 
L 251.091664 58.055469 
L 251.35876 62.688829 
L 251.666947 67.629964 
L 251.708038 67.664683 
L 251.74913 67.607452 
L 252.283321 66.574862 
L 252.587399 66.323615 
L 252.755874 65.359122 
L 253.002424 65.316153 
L 260.805721 65.215568 
L 260.974197 64.232782 
L 261.652208 63.44319 
L 261.857666 62.67149 
L 262.08367 60.48825 
L 262.638407 54.927795 
L 262.854138 53.568242 
L 262.946594 53.585641 
L 271.078624 53.665759 
L 271.63747 58.055469 
L 271.904565 62.688829 
L 272.212752 67.629964 
L 272.253844 67.664683 
L 272.294935 67.607452 
L 272.829126 66.574862 
L 273.133204 66.323615 
L 273.30168 65.359125 
L 273.54823 65.316153 
L 281.351526 65.215568 
L 281.520002 64.232782 
L 282.198014 63.44319 
L 282.403472 62.67149 
L 282.629476 60.48825 
L 283.184212 54.927795 
L 283.399943 53.568242 
L 283.492399 53.585636 
L 291.624429 53.665743 
L 292.183275 58.055454 
L 292.450371 62.688814 
L 292.758558 67.629961 
L 292.799649 67.664681 
L 292.840741 67.60745 
L 293.374932 66.574862 
L 293.67901 66.323615 
L 293.847485 65.359125 
L 294.094035 65.316153 
L 301.897332 65.215568 
L 302.065808 64.232782 
L 302.743819 63.443185 
L 302.949277 62.671743 
L 303.175281 60.487568 
L 303.730018 54.927614 
L 303.945749 53.568046 
L 304.038205 53.58543 
L 312.170235 53.665548 
L 312.729081 58.055499 
L 312.996176 62.69012 
L 313.304363 67.631359 
L 313.345455 67.665924 
L 313.386546 67.605848 
L 313.900192 66.591362 
L 314.233034 66.196139 
L 314.393291 65.359125 
L 314.639841 65.316153 
L 322.443137 65.215596 
L 322.611613 64.232791 
L 323.248533 63.493079 
L 323.412899 62.837487 
L 323.453991 62.526626 
L 323.474537 63.132642 
L 323.597812 84.520915 
L 323.80327 165.655728 
L 324.111457 293.580286 
L 324.275823 294.736352 
L 324.505936 295.074016 
L 324.645648 295.40094 
L 325.036018 295.455082 
L 328.26171 295.483406 
L 332.71604 295.397194 
L 332.843424 295.157137 
L 333.377615 295.195023 
L 333.480344 295.482332 
L 333.521436 295.273934 
L 333.685802 293.634381 
L 333.89126 291.554386 
L 333.932352 291.634632 
L 334.014535 291.872448 
L 334.055627 291.751883 
L 334.343268 290.028965 
L 334.404905 290.203007 
L 334.507634 292.090532 
L 334.764457 295.036272 
L 334.778839 294.99443 
L 334.836367 295.197239 
L 335.02128 295.37175 
L 335.678745 295.428444 
L 339.787906 295.472389 
L 343.83543 295.37714 
L 344.184709 295.267611 
L 345.043523 295.38113 
L 345.150362 295.487886 
L 353.257737 295.460214 
L 353.368684 295.307649 
L 354.601432 295.391779 
L 355.156169 295.43842 
L 364.36069 295.368674 
L 364.627785 295.274732 
L 365.58522 295.337045 
L 365.696167 295.487888 
L 373.803542 295.460249 
L 373.914489 295.309033 
L 375.147238 295.390528 
L 375.681429 295.438278 
L 384.824312 295.395271 
L 385.522869 295.28186 
L 386.135134 295.382453 
L 386.241973 295.487888 
L 394.349348 295.460249 
L 394.460295 295.309034 
L 395.693043 295.390527 
L 396.227234 295.438278 
L 398.487273 295.487969 
L 398.487273 295.487969 
" clip-path="url(#pe2cbdb0d4d)" style="fill: none; stroke: #9467bd; stroke-width: 1.5; stroke-linecap: square"/>
   </g>
   <g id="line2d_23">
    <path d="M 73.832727 295.488 
L 76.616684 295.367317 
L 76.739959 295.135785 
L 76.883779 294.500134 
L 76.924871 294.870209 
L 77.068692 295.263282 
L 77.95627 295.442603 
L 78.075436 295.487999 
L 86.166374 295.412514 
L 86.273212 295.308866 
L 87.505961 295.390667 
L 88.040152 295.438262 
L 97.141944 295.404971 
L 98.148688 295.299248 
L 98.493858 295.382453 
L 98.600696 295.487881 
L 106.708071 295.460249 
L 106.819018 295.309034 
L 108.051766 295.390529 
L 108.585957 295.438278 
L 117.728841 295.395271 
L 118.427398 295.28186 
L 119.039663 295.382453 
L 119.146501 295.487881 
L 127.253876 295.460249 
L 127.364823 295.309034 
L 128.597572 295.390529 
L 129.131763 295.438278 
L 138.274646 295.395271 
L 138.973204 295.28186 
L 139.585469 295.382453 
L 139.692307 295.487881 
L 147.799682 295.460249 
L 147.910629 295.309034 
L 149.143377 295.39053 
L 149.677568 295.438278 
L 158.820452 295.395264 
L 159.539555 295.27997 
L 160.131274 295.38258 
L 160.238112 295.487857 
L 168.345487 295.460234 
L 168.456434 295.308921 
L 169.627545 295.380895 
L 169.833003 295.428859 
L 173.18197 295.487969 
L 179.263528 295.389557 
L 179.386803 295.186061 
L 179.510078 294.360346 
L 179.736082 290.804939 
L 179.879902 285.146157 
L 179.962086 271.679367 
L 180.229181 219.557803 
L 180.742826 177.279345 
L 180.989376 172.533863 
L 181.194834 169.946814 
L 181.585204 166.602391 
L 182.139941 163.694745 
L 182.776861 161.514633 
L 183.51651 159.761926 
L 184.379434 158.278724 
L 185.386178 156.980091 
L 186.598381 155.781125 
L 188.036587 154.674119 
L 188.889238 154.126622 
L 188.895402 154.186883 
L 189.659706 159.822127 
L 189.721343 159.984449 
L 189.741889 159.911122 
L 189.824072 158.42433 
L 189.926801 151.254919 
L 190.091168 118.990778 
L 190.296626 90.030145 
L 190.317171 89.90527 
L 190.358263 90.21535 
L 190.584267 95.750421 
L 190.686996 97.110812 
L 190.707542 96.900846 
L 190.789725 92.100399 
L 191.139004 67.143947 
L 191.323916 65.628875 
L 191.529374 65.404867 
L 192.063565 65.359016 
L 197.117833 65.325297 
L 199.168305 65.220011 
L 199.357326 63.823245 
L 199.665513 63.460049 
L 199.891517 63.26064 
L 199.912063 63.282896 
L 199.994246 63.664657 
L 200.199704 65.952567 
L 200.281887 65.470173 
L 201.216721 56.599708 
L 201.288632 56.618084 
L 208.335843 56.638383 
L 209.449426 56.744915 
L 209.91787 60.042405 
L 210.205511 63.908623 
L 210.534244 68.19685 
L 210.595882 68.106737 
L 211.109527 66.648307 
L 211.504006 66.196689 
L 211.664263 65.359234 
L 211.910813 65.316156 
L 219.71411 65.215566 
L 219.882586 64.23235 
L 220.560597 63.448438 
L 220.745509 62.797233 
L 220.950967 60.984965 
L 221.587887 54.652412 
L 221.762527 53.569472 
L 221.854983 53.586861 
L 229.987013 53.666978 
L 230.545859 58.056602 
L 230.812954 62.689749 
L 231.121141 67.630176 
L 231.162233 67.664846 
L 231.203324 67.607577 
L 231.737515 66.574863 
L 232.041593 66.323616 
L 232.210069 65.359122 
L 232.456619 65.316153 
L 240.259915 65.215568 
L 240.428391 64.232781 
L 241.106403 63.443202 
L 241.311861 62.671497 
L 241.537865 60.488252 
L 242.092601 54.927798 
L 242.308332 53.568244 
L 242.400788 53.585644 
L 250.532818 53.665763 
L 251.091664 58.055472 
L 251.35876 62.68883 
L 251.666947 67.629965 
L 251.708038 67.664683 
L 251.74913 67.607452 
L 252.283321 66.574862 
L 252.587399 66.323615 
L 252.755874 65.359122 
L 253.002424 65.316153 
L 260.805721 65.215568 
L 260.974197 64.232782 
L 261.652208 63.44319 
L 261.857666 62.67149 
L 262.08367 60.48825 
L 262.638407 54.927795 
L 262.854138 53.568242 
L 262.946594 53.585641 
L 271.078624 53.665759 
L 271.63747 58.055469 
L 271.904565 62.688829 
L 272.212752 67.629964 
L 272.253844 67.664683 
L 272.294935 67.607452 
L 272.829126 66.574862 
L 273.133204 66.323615 
L 273.30168 65.359125 
L 273.54823 65.316153 
L 281.351526 65.215568 
L 281.520002 64.232782 
L 282.198014 63.44319 
L 282.403472 62.67149 
L 282.629476 60.48825 
L 283.184212 54.927795 
L 283.399943 53.568242 
L 283.492399 53.585636 
L 291.624429 53.665743 
L 292.183275 58.055454 
L 292.450371 62.688814 
L 292.758558 67.629961 
L 292.799649 67.664681 
L 292.840741 67.60745 
L 293.374932 66.574862 
L 293.67901 66.323615 
L 293.847485 65.359125 
L 294.094035 65.316153 
L 301.897332 65.215568 
L 302.065808 64.232782 
L 302.743819 63.44319 
L 302.949277 62.67149 
L 303.175281 60.48825 
L 303.730018 54.927795 
L 303.945749 53.568242 
L 304.038205 53.585636 
L 312.170235 53.665743 
L 312.729081 58.055454 
L 312.996176 62.688814 
L 313.304363 67.629961 
L 313.345455 67.664681 
L 313.386546 67.60745 
L 313.920737 66.574862 
L 314.224815 66.323615 
L 314.393291 65.359125 
L 314.639841 65.316153 
L 322.443137 65.215568 
L 322.611613 64.232782 
L 323.289625 63.443185 
L 323.495083 62.671743 
L 323.721087 60.487568 
L 324.275823 54.927614 
L 324.491554 53.568046 
L 324.58401 53.58543 
L 332.71604 53.665548 
L 333.274886 58.055499 
L 333.541982 62.69012 
L 333.850169 67.631359 
L 333.89126 67.665924 
L 333.932352 67.605848 
L 334.445997 66.591362 
L 334.778839 66.196139 
L 334.939096 65.359125 
L 335.185646 65.316153 
L 342.988943 65.215596 
L 343.157419 64.232791 
L 343.794339 63.493077 
L 343.958705 62.837487 
L 343.999797 62.526626 
L 344.020342 63.132642 
L 344.143617 84.520915 
L 344.349075 165.655728 
L 344.657262 293.580286 
L 344.821629 294.736352 
L 345.051742 295.074016 
L 345.191453 295.40094 
L 345.581824 295.455082 
L 348.807515 295.483406 
L 353.261846 295.397194 
L 353.38923 295.157137 
L 353.923421 295.195023 
L 354.02615 295.482332 
L 354.067241 295.273934 
L 354.231608 293.634381 
L 354.437066 291.554386 
L 354.478157 291.634632 
L 354.560341 291.872448 
L 354.601432 291.751883 
L 354.889073 290.028965 
L 354.950711 290.203007 
L 355.05344 292.090532 
L 355.310262 295.036272 
L 355.324645 294.99443 
L 355.382173 295.197239 
L 355.567085 295.37175 
L 356.224551 295.428444 
L 360.333712 295.472389 
L 364.381236 295.37714 
L 364.730514 295.267611 
L 365.589329 295.38113 
L 365.696167 295.487886 
L 373.803542 295.460214 
L 373.914489 295.307649 
L 375.147238 295.391779 
L 375.701974 295.43842 
L 384.906495 295.368674 
L 385.173591 295.274732 
L 386.131025 295.337045 
L 386.241973 295.487888 
L 394.349348 295.460249 
L 394.460295 295.309033 
L 395.693043 295.390528 
L 396.227234 295.438278 
L 398.487273 295.487969 
L 398.487273 295.487969 
" clip-path="url(#pe2cbdb0d4d)" style="fill: none; stroke: #8c564b; stroke-width: 1.5; stroke-linecap: square"/>
   </g>
   <g id="line2d_24">
    <path d="M 73.832727 295.488 
L 76.616684 295.367317 
L 76.739959 295.135785 
L 76.883779 294.500132 
L 76.924871 294.870213 
L 77.068692 295.263279 
L 77.95627 295.442603 
L 78.075436 295.487999 
L 86.166374 295.412514 
L 86.273212 295.308866 
L 87.505961 295.390668 
L 88.040152 295.438262 
L 97.141944 295.404971 
L 98.148688 295.299248 
L 98.493858 295.382453 
L 98.600696 295.48788 
L 106.708071 295.460249 
L 106.819018 295.309034 
L 108.051766 295.390529 
L 108.585957 295.438278 
L 117.728841 295.395271 
L 118.427398 295.28186 
L 119.039663 295.382453 
L 119.146501 295.48788 
L 127.253876 295.460249 
L 127.364823 295.309034 
L 128.597572 295.390529 
L 129.131763 295.438278 
L 138.274646 295.395271 
L 138.973204 295.28186 
L 139.585469 295.382453 
L 139.692307 295.48788 
L 147.799682 295.460249 
L 147.910629 295.309034 
L 149.143377 295.390529 
L 149.677568 295.438278 
L 158.820452 295.395271 
L 159.519009 295.28186 
L 160.131274 295.382453 
L 160.238112 295.48788 
L 168.345487 295.460249 
L 168.456434 295.309034 
L 169.689183 295.39053 
L 170.223374 295.438278 
L 179.366257 295.395264 
L 180.08536 295.27997 
L 180.67708 295.38258 
L 180.783918 295.487857 
L 188.891293 295.460234 
L 189.00224 295.308921 
L 190.173351 295.380895 
L 190.378809 295.428859 
L 193.727775 295.487969 
L 199.809334 295.389557 
L 199.932608 295.186061 
L 200.055883 294.360346 
L 200.281887 290.804939 
L 200.425708 285.146157 
L 200.507891 271.679365 
L 200.774986 219.557802 
L 201.288632 177.279376 
L 201.535181 172.533867 
L 201.740639 169.946819 
L 202.13101 166.602393 
L 202.685746 163.694746 
L 203.322666 161.514635 
L 204.062315 159.761928 
L 204.925239 158.278726 
L 205.931984 156.980091 
L 207.144186 155.781126 
L 208.582393 154.674119 
L 209.435044 154.126622 
L 209.441207 154.186883 
L 210.205511 159.822127 
L 210.267149 159.984449 
L 210.287694 159.911122 
L 210.369878 158.42433 
L 210.472607 151.254919 
L 210.636973 118.990776 
L 210.842431 90.030136 
L 210.862977 89.90526 
L 210.904069 90.215339 
L 211.130072 95.750404 
L 211.232801 97.110778 
L 211.253347 96.900805 
L 211.335531 92.100319 
L 211.684809 67.143317 
L 211.869721 65.628744 
L 212.07518 65.404831 
L 212.60937 65.359005 
L 217.663639 65.325296 
L 219.71411 65.220011 
L 219.903131 63.823248 
L 220.211318 63.460053 
L 220.437322 63.260612 
L 220.457868 63.282832 
L 220.540051 63.664037 
L 220.745509 65.948062 
L 220.827693 65.465986 
L 221.762527 56.58785 
L 221.834437 56.606282 
L 229.826755 56.629676 
L 229.995231 56.733437 
L 230.463675 60.031358 
L 230.751317 63.898551 
L 231.08005 68.193924 
L 231.141687 68.105376 
L 231.655332 66.648275 
L 232.049812 66.196659 
L 232.210069 65.359228 
L 232.456619 65.316156 
L 240.259915 65.215565 
L 240.428391 64.232372 
L 241.106403 63.448189 
L 241.291315 62.797045 
L 241.496773 60.984873 
L 242.133693 54.652339 
L 242.308332 53.569399 
L 242.400788 53.586799 
L 250.532818 53.666914 
L 251.091664 58.056544 
L 251.35876 62.689711 
L 251.666947 67.63013 
L 251.708038 67.664813 
L 251.74913 67.60756 
L 252.283321 66.574863 
L 252.587399 66.323616 
L 252.755874 65.359122 
L 253.002424 65.316153 
L 260.805721 65.215566 
L 260.974197 64.232781 
L 261.652208 63.443207 
L 261.857666 62.671495 
L 262.08367 60.488245 
L 262.638407 54.92779 
L 262.854138 53.568235 
L 262.946594 53.585635 
L 271.078624 53.665754 
L 271.63747 58.055464 
L 271.904565 62.688826 
L 272.212752 67.629919 
L 272.253844 67.664649 
L 272.294935 67.607432 
L 272.829126 66.574862 
L 273.133204 66.323616 
L 273.30168 65.359125 
L 273.54823 65.316153 
L 281.351526 65.215566 
L 281.520002 64.232782 
L 282.198014 63.443198 
L 282.403472 62.67149 
L 282.629476 60.488242 
L 283.184212 54.927788 
L 283.399943 53.568234 
L 283.492399 53.585629 
L 291.624429 53.665735 
L 292.183275 58.055446 
L 292.450371 62.688811 
L 292.758558 67.629916 
L 292.799649 67.664647 
L 292.840741 67.607431 
L 293.374932 66.574862 
L 293.67901 66.323616 
L 293.847485 65.359125 
L 294.094035 65.316153 
L 301.897332 65.215566 
L 302.065808 64.232782 
L 302.743819 63.443198 
L 302.949277 62.67149 
L 303.175281 60.488242 
L 303.730018 54.927788 
L 303.945749 53.568234 
L 304.038205 53.585629 
L 312.170235 53.665735 
L 312.729081 58.055446 
L 312.996176 62.688811 
L 313.304363 67.629916 
L 313.345455 67.664647 
L 313.386546 67.607431 
L 313.920737 66.574862 
L 314.224815 66.323616 
L 314.393291 65.359125 
L 314.639841 65.316153 
L 322.443137 65.215566 
L 322.611613 64.232782 
L 323.289625 63.443198 
L 323.495083 62.67149 
L 323.721087 60.488242 
L 324.275823 54.927788 
L 324.491554 53.568234 
L 324.58401 53.585629 
L 332.71604 53.665735 
L 333.274886 58.055446 
L 333.541982 62.688811 
L 333.850169 67.629916 
L 333.89126 67.664647 
L 333.932352 67.607431 
L 334.466543 66.574862 
L 334.770621 66.323616 
L 334.939096 65.359125 
L 335.185646 65.316153 
L 342.988943 65.215566 
L 343.157419 64.232782 
L 343.83543 63.443193 
L 344.040888 62.671743 
L 344.266892 60.487561 
L 344.821629 54.927606 
L 345.03736 53.568038 
L 345.129816 53.585423 
L 353.261846 53.665541 
L 353.820692 58.055492 
L 354.087787 62.690116 
L 354.395974 67.631314 
L 354.437066 67.66589 
L 354.478157 67.605829 
L 354.991803 66.591362 
L 355.324645 66.19614 
L 355.484902 65.359125 
L 355.731452 65.316153 
L 363.534748 65.215596 
L 363.703224 64.232791 
L 364.340144 63.493085 
L 364.50451 62.837492 
L 364.545602 62.526629 
L 364.566148 63.132643 
L 364.689423 84.52091 
L 364.894881 165.655714 
L 365.203068 293.580286 
L 365.367434 294.736352 
L 365.597547 295.074015 
L 365.737259 295.40094 
L 366.127629 295.455082 
L 369.353321 295.483406 
L 373.807651 295.397194 
L 373.935035 295.157137 
L 374.469226 295.195021 
L 374.571955 295.482335 
L 374.613047 295.273937 
L 374.777413 293.634344 
L 374.982871 291.554386 
L 375.023963 291.63464 
L 375.106146 291.872457 
L 375.147238 291.751893 
L 375.434879 290.028997 
L 375.496516 290.203056 
L 375.599245 292.090603 
L 375.856068 295.036281 
L 375.87045 294.994437 
L 375.927978 295.197242 
L 376.112891 295.37175 
L 376.770356 295.428444 
L 380.879517 295.472389 
L 384.927041 295.377139 
L 385.27632 295.267568 
L 386.135134 295.381146 
L 386.241973 295.487886 
L 394.349348 295.460215 
L 394.460295 295.307666 
L 395.693043 295.39177 
L 396.24778 295.438417 
L 398.487273 295.487969 
L 398.487273 295.487969 
" clip-path="url(#pe2cbdb0d4d)" style="fill: none; stroke: #e377c2; stroke-width: 1.5; stroke-linecap: square"/>
   </g>
   <g id="patch_3">
    <path d="M 57.6 307.584 
L 57.6 41.472 
" style="fill: none; stroke: #000000; stroke-width: 0.8; stroke-linejoin: miter; stroke-linecap: square"/>
   </g>
   <g id="patch_4">
    <path d="M 414.72 307.584 
L 414.72 41.472 
" style="fill: none; stroke: #000000; stroke-width: 0.8; stroke-linejoin: miter; stroke-linecap: square"/>
   </g>
   <g id="patch_5">
    <path d="M 57.6 307.584 
L 414.72 307.584 
" style="fill: none; stroke: #000000; stroke-width: 0.8; stroke-linejoin: miter; stroke-linecap: square"/>
   </g>
   <g id="patch_6">
    <path d="M 57.6 41.472 
L 414.72 41.472 
" style="fill: none; stroke: #000000; stroke-width: 0.8; stroke-linejoin: miter; stroke-linecap: square"/>
   </g>
   <g id="text_21">
    <!-- Phi Signals Output from the 16-bit Shift Register -->
    <g transform="translate(91.551562 35.472)scale(0.12 -0.12)">
     <defs>
      <path id="DejaVuSans-50" d="M 1259 4147 
L 1259 2394 
L 2053 2394 
Q 2494 2394 2734 2622 
Q 2975 2850 2975 3272 
Q 2975 3691 2734 3919 
Q 2494 4147 2053 4147 
L 1259 4147 
z
M 628 4666 
L 2053 4666 
Q 2838 4666 3239 4311 
Q 3641 3956 3641 3272 
Q 3641 2581 3239 2228 
Q 2838 1875 2053 1875 
L 1259 1875 
L 1259 0 
L 628 0 
L 628 4666 
z
" transform="scale(0.015625)"/>
      <path id="DejaVuSans-68" d="M 3513 2113 
L 3513 0 
L 2938 0 
L 2938 2094 
Q 2938 2591 2744 2837 
Q 2550 3084 2163 3084 
Q 1697 3084 1428 2787 
Q 1159 2491 1159 1978 
L 1159 0 
L 581 0 
L 581 4863 
L 1159 4863 
L 1159 2956 
Q 1366 3272 1645 3428 
Q 1925 3584 2291 3584 
Q 2894 3584 3203 3211 
Q 3513 2838 3513 2113 
z
" transform="scale(0.015625)"/>
      <path id="DejaVuSans-53" d="M 3425 4513 
L 3425 3897 
Q 3066 4069 2747 4153 
Q 2428 4238 2131 4238 
Q 1616 4238 1336 4038 
Q 1056 3838 1056 3469 
Q 1056 3159 1242 3001 
Q 1428 2844 1947 2747 
L 2328 2669 
Q 3034 2534 3370 2195 
Q 3706 1856 3706 1288 
Q 3706 609 3251 259 
Q 2797 -91 1919 -91 
Q 1588 -91 1214 -16 
Q 841 59 441 206 
L 441 856 
Q 825 641 1194 531 
Q 1563 422 1919 422 
Q 2459 422 2753 634 
Q 3047 847 3047 1241 
Q 3047 1584 2836 1778 
Q 2625 1972 2144 2069 
L 1759 2144 
Q 1053 2284 737 2584 
Q 422 2884 422 3419 
Q 422 4038 858 4394 
Q 1294 4750 2059 4750 
Q 2388 4750 2728 4690 
Q 3069 4631 3425 4513 
z
" transform="scale(0.015625)"/>
      <path id="DejaVuSans-6e" d="M 3513 2113 
L 3513 0 
L 2938 0 
L 2938 2094 
Q 2938 2591 2744 2837 
Q 2550 3084 2163 3084 
Q 1697 3084 1428 2787 
Q 1159 2491 1159 1978 
L 1159 0 
L 581 0 
L 581 3500 
L 1159 3500 
L 1159 2956 
Q 1366 3272 1645 3428 
Q 1925 3584 2291 3584 
Q 2894 3584 3203 3211 
Q 3513 2838 3513 2113 
z
" transform="scale(0.015625)"/>
      <path id="DejaVuSans-73" d="M 2834 3397 
L 2834 2853 
Q 2591 2978 2328 3040 
Q 2066 3103 1784 3103 
Q 1356 3103 1142 2972 
Q 928 2841 928 2578 
Q 928 2378 1081 2264 
Q 1234 2150 1697 2047 
L 1894 2003 
Q 2506 1872 2764 1633 
Q 3022 1394 3022 966 
Q 3022 478 2636 193 
Q 2250 -91 1575 -91 
Q 1294 -91 989 -36 
Q 684 19 347 128 
L 347 722 
Q 666 556 975 473 
Q 1284 391 1588 391 
Q 1994 391 2212 530 
Q 2431 669 2431 922 
Q 2431 1156 2273 1281 
Q 2116 1406 1581 1522 
L 1381 1569 
Q 847 1681 609 1914 
Q 372 2147 372 2553 
Q 372 3047 722 3315 
Q 1072 3584 1716 3584 
Q 2034 3584 2315 3537 
Q 2597 3491 2834 3397 
z
" transform="scale(0.015625)"/>
      <path id="DejaVuSans-4f" d="M 2522 4238 
Q 1834 4238 1429 3725 
Q 1025 3213 1025 2328 
Q 1025 1447 1429 934 
Q 1834 422 2522 422 
Q 3209 422 3611 934 
Q 4013 1447 4013 2328 
Q 4013 3213 3611 3725 
Q 3209 4238 2522 4238 
z
M 2522 4750 
Q 3503 4750 4090 4092 
Q 4678 3434 4678 2328 
Q 4678 1225 4090 567 
Q 3503 -91 2522 -91 
Q 1538 -91 948 565 
Q 359 1222 359 2328 
Q 359 3434 948 4092 
Q 1538 4750 2522 4750 
z
" transform="scale(0.015625)"/>
      <path id="DejaVuSans-75" d="M 544 1381 
L 544 3500 
L 1119 3500 
L 1119 1403 
Q 1119 906 1312 657 
Q 1506 409 1894 409 
Q 2359 409 2629 706 
Q 2900 1003 2900 1516 
L 2900 3500 
L 3475 3500 
L 3475 0 
L 2900 0 
L 2900 538 
Q 2691 219 2414 64 
Q 2138 -91 1772 -91 
Q 1169 -91 856 284 
Q 544 659 544 1381 
z
M 1991 3584 
L 1991 3584 
z
" transform="scale(0.015625)"/>
      <path id="DejaVuSans-70" d="M 1159 525 
L 1159 -1331 
L 581 -1331 
L 581 3500 
L 1159 3500 
L 1159 2969 
Q 1341 3281 1617 3432 
Q 1894 3584 2278 3584 
Q 2916 3584 3314 3078 
Q 3713 2572 3713 1747 
Q 3713 922 3314 415 
Q 2916 -91 2278 -91 
Q 1894 -91 1617 61 
Q 1341 213 1159 525 
z
M 3116 1747 
Q 3116 2381 2855 2742 
Q 2594 3103 2138 3103 
Q 1681 3103 1420 2742 
Q 1159 2381 1159 1747 
Q 1159 1113 1420 752 
Q 1681 391 2138 391 
Q 2594 391 2855 752 
Q 3116 1113 3116 1747 
z
" transform="scale(0.015625)"/>
      <path id="DejaVuSans-66" d="M 2375 4863 
L 2375 4384 
L 1825 4384 
Q 1516 4384 1395 4259 
Q 1275 4134 1275 3809 
L 1275 3500 
L 2222 3500 
L 2222 3053 
L 1275 3053 
L 1275 0 
L 697 0 
L 697 3053 
L 147 3053 
L 147 3500 
L 697 3500 
L 697 3744 
Q 697 4328 969 4595 
Q 1241 4863 1831 4863 
L 2375 4863 
z
" transform="scale(0.015625)"/>
      <path id="DejaVuSans-72" d="M 2631 2963 
Q 2534 3019 2420 3045 
Q 2306 3072 2169 3072 
Q 1681 3072 1420 2755 
Q 1159 2438 1159 1844 
L 1159 0 
L 581 0 
L 581 3500 
L 1159 3500 
L 1159 2956 
Q 1341 3275 1631 3429 
Q 1922 3584 2338 3584 
Q 2397 3584 2469 3576 
Q 2541 3569 2628 3553 
L 2631 2963 
z
" transform="scale(0.015625)"/>
      <path id="DejaVuSans-2d" d="M 313 2009 
L 1997 2009 
L 1997 1497 
L 313 1497 
L 313 2009 
z
" transform="scale(0.015625)"/>
      <path id="DejaVuSans-62" d="M 3116 1747 
Q 3116 2381 2855 2742 
Q 2594 3103 2138 3103 
Q 1681 3103 1420 2742 
Q 1159 2381 1159 1747 
Q 1159 1113 1420 752 
Q 1681 391 2138 391 
Q 2594 391 2855 752 
Q 3116 1113 3116 1747 
z
M 1159 2969 
Q 1341 3281 1617 3432 
Q 1894 3584 2278 3584 
Q 2916 3584 3314 3078 
Q 3713 2572 3713 1747 
Q 3713 922 3314 415 
Q 2916 -91 2278 -91 
Q 1894 -91 1617 61 
Q 1341 213 1159 525 
L 1159 0 
L 581 0 
L 581 4863 
L 1159 4863 
L 1159 2969 
z
" transform="scale(0.015625)"/>
      <path id="DejaVuSans-52" d="M 2841 2188 
Q 3044 2119 3236 1894 
Q 3428 1669 3622 1275 
L 4263 0 
L 3584 0 
L 2988 1197 
Q 2756 1666 2539 1819 
Q 2322 1972 1947 1972 
L 1259 1972 
L 1259 0 
L 628 0 
L 628 4666 
L 2053 4666 
Q 2853 4666 3247 4331 
Q 3641 3997 3641 3322 
Q 3641 2881 3436 2590 
Q 3231 2300 2841 2188 
z
M 1259 4147 
L 1259 2491 
L 2053 2491 
Q 2509 2491 2742 2702 
Q 2975 2913 2975 3322 
Q 2975 3731 2742 3939 
Q 2509 4147 2053 4147 
L 1259 4147 
z
" transform="scale(0.015625)"/>
     </defs>
     <use xlink:href="#DejaVuSans-50"/>
     <use xlink:href="#DejaVuSans-68" x="60.302734"/>
     <use xlink:href="#DejaVuSans-69" x="123.681641"/>
     <use xlink:href="#DejaVuSans-20" x="151.464844"/>
     <use xlink:href="#DejaVuSans-53" x="183.251953"/>
     <use xlink:href="#DejaVuSans-69" x="246.728516"/>
     <use xlink:href="#DejaVuSans-67" x="274.511719"/>
     <use xlink:href="#DejaVuSans-6e" x="337.988281"/>
     <use xlink:href="#DejaVuSans-61" x="401.367188"/>
     <use xlink:href="#DejaVuSans-6c" x="462.646484"/>
     <use xlink:href="#DejaVuSans-73" x="490.429688"/>
     <use xlink:href="#DejaVuSans-20" x="542.529297"/>
     <use xlink:href="#DejaVuSans-4f" x="574.316406"/>
     <use xlink:href="#DejaVuSans-75" x="653.027344"/>
     <use xlink:href="#DejaVuSans-74" x="716.40625"/>
     <use xlink:href="#DejaVuSans-70" x="755.615234"/>
     <use xlink:href="#DejaVuSans-75" x="819.091797"/>
     <use xlink:href="#DejaVuSans-74" x="882.470703"/>
     <use xlink:href="#DejaVuSans-20" x="921.679688"/>
     <use xlink:href="#DejaVuSans-66" x="953.466797"/>
     <use xlink:href="#DejaVuSans-72" x="988.671875"/>
     <use xlink:href="#DejaVuSans-6f" x="1027.535156"/>
     <use xlink:href="#DejaVuSans-6d" x="1088.716797"/>
     <use xlink:href="#DejaVuSans-20" x="1186.128906"/>
     <use xlink:href="#DejaVuSans-74" x="1217.916016"/>
     <use xlink:href="#DejaVuSans-68" x="1257.125"/>
     <use xlink:href="#DejaVuSans-65" x="1320.503906"/>
     <use xlink:href="#DejaVuSans-20" x="1382.027344"/>
     <use xlink:href="#DejaVuSans-31" x="1413.814453"/>
     <use xlink:href="#DejaVuSans-36" x="1477.4375"/>
     <use xlink:href="#DejaVuSans-2d" x="1541.060547"/>
     <use xlink:href="#DejaVuSans-62" x="1577.144531"/>
     <use xlink:href="#DejaVuSans-69" x="1640.621094"/>
     <use xlink:href="#DejaVuSans-74" x="1668.404297"/>
     <use xlink:href="#DejaVuSans-20" x="1707.613281"/>
     <use xlink:href="#DejaVuSans-53" x="1739.400391"/>
     <use xlink:href="#DejaVuSans-68" x="1802.876953"/>
     <use xlink:href="#DejaVuSans-69" x="1866.255859"/>
     <use xlink:href="#DejaVuSans-66" x="1894.039062"/>
     <use xlink:href="#DejaVuSans-74" x="1927.494141"/>
     <use xlink:href="#DejaVuSans-20" x="1966.703125"/>
     <use xlink:href="#DejaVuSans-52" x="1998.490234"/>
     <use xlink:href="#DejaVuSans-65" x="2063.472656"/>
     <use xlink:href="#DejaVuSans-67" x="2124.996094"/>
     <use xlink:href="#DejaVuSans-69" x="2188.472656"/>
     <use xlink:href="#DejaVuSans-73" x="2216.255859"/>
     <use xlink:href="#DejaVuSans-74" x="2268.355469"/>
     <use xlink:href="#DejaVuSans-65" x="2307.564453"/>
     <use xlink:href="#DejaVuSans-72" x="2369.087891"/>
    </g>
   </g>
   <g id="legend_1">
    <g id="patch_7">
     <path d="M 333.330938 227.401437 
L 407.72 227.401437 
Q 409.72 227.401437 409.72 225.401437 
L 409.72 123.654562 
Q 409.72 121.654562 407.72 121.654562 
L 333.330938 121.654562 
Q 331.330938 121.654562 331.330938 123.654562 
L 331.330938 225.401437 
Q 331.330938 227.401437 333.330938 227.401437 
z
" style="fill: #ffffff; opacity: 0.8; stroke: #cccccc; stroke-linejoin: miter"/>
    </g>
    <g id="line2d_25">
     <path d="M 335.330938 129.753 
L 345.330938 129.753 
L 355.330938 129.753 
" style="fill: none; stroke: #1f77b4; stroke-width: 1.5; stroke-linecap: square"/>
    </g>
    <g id="text_22">
     <!-- v(Vphi1) -->
     <g transform="translate(363.330938 133.253)scale(0.1 -0.1)">
      <defs>
       <path id="DejaVuSans-76" d="M 191 3500 
L 800 3500 
L 1894 563 
L 2988 3500 
L 3597 3500 
L 2284 0 
L 1503 0 
L 191 3500 
z
" transform="scale(0.015625)"/>
      </defs>
      <use xlink:href="#DejaVuSans-76"/>
      <use xlink:href="#DejaVuSans-28" x="59.179688"/>
      <use xlink:href="#DejaVuSans-56" x="98.193359"/>
      <use xlink:href="#DejaVuSans-70" x="166.601562"/>
      <use xlink:href="#DejaVuSans-68" x="230.078125"/>
      <use xlink:href="#DejaVuSans-69" x="293.457031"/>
      <use xlink:href="#DejaVuSans-31" x="321.240234"/>
      <use xlink:href="#DejaVuSans-29" x="384.863281"/>
     </g>
    </g>
    <g id="line2d_26">
     <path d="M 335.330938 144.431125 
L 345.330938 144.431125 
L 355.330938 144.431125 
" style="fill: none; stroke: #ff7f0e; stroke-width: 1.5; stroke-linecap: square"/>
    </g>
    <g id="text_23">
     <!-- v(Vphi2) -->
     <g transform="translate(363.330938 147.931125)scale(0.1 -0.1)">
      <use xlink:href="#DejaVuSans-76"/>
      <use xlink:href="#DejaVuSans-28" x="59.179688"/>
      <use xlink:href="#DejaVuSans-56" x="98.193359"/>
      <use xlink:href="#DejaVuSans-70" x="166.601562"/>
      <use xlink:href="#DejaVuSans-68" x="230.078125"/>
      <use xlink:href="#DejaVuSans-69" x="293.457031"/>
      <use xlink:href="#DejaVuSans-32" x="321.240234"/>
      <use xlink:href="#DejaVuSans-29" x="384.863281"/>
     </g>
    </g>
    <g id="line2d_27">
     <path d="M 335.330938 159.10925 
L 345.330938 159.10925 
L 355.330938 159.10925 
" style="fill: none; stroke: #2ca02c; stroke-width: 1.5; stroke-linecap: square"/>
    </g>
    <g id="text_24">
     <!-- v(Vphi3) -->
     <g transform="translate(363.330938 162.60925)scale(0.1 -0.1)">
      <defs>
       <path id="DejaVuSans-33" d="M 2597 2516 
Q 3050 2419 3304 2112 
Q 3559 1806 3559 1356 
Q 3559 666 3084 287 
Q 2609 -91 1734 -91 
Q 1441 -91 1130 -33 
Q 819 25 488 141 
L 488 750 
Q 750 597 1062 519 
Q 1375 441 1716 441 
Q 2309 441 2620 675 
Q 2931 909 2931 1356 
Q 2931 1769 2642 2001 
Q 2353 2234 1838 2234 
L 1294 2234 
L 1294 2753 
L 1863 2753 
Q 2328 2753 2575 2939 
Q 2822 3125 2822 3475 
Q 2822 3834 2567 4026 
Q 2313 4219 1838 4219 
Q 1578 4219 1281 4162 
Q 984 4106 628 3988 
L 628 4550 
Q 988 4650 1302 4700 
Q 1616 4750 1894 4750 
Q 2613 4750 3031 4423 
Q 3450 4097 3450 3541 
Q 3450 3153 3228 2886 
Q 3006 2619 2597 2516 
z
" transform="scale(0.015625)"/>
      </defs>
      <use xlink:href="#DejaVuSans-76"/>
      <use xlink:href="#DejaVuSans-28" x="59.179688"/>
      <use xlink:href="#DejaVuSans-56" x="98.193359"/>
      <use xlink:href="#DejaVuSans-70" x="166.601562"/>
      <use xlink:href="#DejaVuSans-68" x="230.078125"/>
      <use xlink:href="#DejaVuSans-69" x="293.457031"/>
      <use xlink:href="#DejaVuSans-33" x="321.240234"/>
      <use xlink:href="#DejaVuSans-29" x="384.863281"/>
     </g>
    </g>
    <g id="line2d_28">
     <path d="M 335.330938 173.787375 
L 345.330938 173.787375 
L 355.330938 173.787375 
" style="fill: none; stroke: #d62728; stroke-width: 1.5; stroke-linecap: square"/>
    </g>
    <g id="text_25">
     <!-- v(Vphi4) -->
     <g transform="translate(363.330938 177.287375)scale(0.1 -0.1)">
      <use xlink:href="#DejaVuSans-76"/>
      <use xlink:href="#DejaVuSans-28" x="59.179688"/>
      <use xlink:href="#DejaVuSans-56" x="98.193359"/>
      <use xlink:href="#DejaVuSans-70" x="166.601562"/>
      <use xlink:href="#DejaVuSans-68" x="230.078125"/>
      <use xlink:href="#DejaVuSans-69" x="293.457031"/>
      <use xlink:href="#DejaVuSans-34" x="321.240234"/>
      <use xlink:href="#DejaVuSans-29" x="384.863281"/>
     </g>
    </g>
    <g id="line2d_29">
     <path d="M 335.330938 188.4655 
L 345.330938 188.4655 
L 355.330938 188.4655 
" style="fill: none; stroke: #9467bd; stroke-width: 1.5; stroke-linecap: square"/>
    </g>
    <g id="text_26">
     <!-- v(Vphi5) -->
     <g transform="translate(363.330938 191.9655)scale(0.1 -0.1)">
      <use xlink:href="#DejaVuSans-76"/>
      <use xlink:href="#DejaVuSans-28" x="59.179688"/>
      <use xlink:href="#DejaVuSans-56" x="98.193359"/>
      <use xlink:href="#DejaVuSans-70" x="166.601562"/>
      <use xlink:href="#DejaVuSans-68" x="230.078125"/>
      <use xlink:href="#DejaVuSans-69" x="293.457031"/>
      <use xlink:href="#DejaVuSans-35" x="321.240234"/>
      <use xlink:href="#DejaVuSans-29" x="384.863281"/>
     </g>
    </g>
    <g id="line2d_30">
     <path d="M 335.330938 203.143625 
L 345.330938 203.143625 
L 355.330938 203.143625 
" style="fill: none; stroke: #8c564b; stroke-width: 1.5; stroke-linecap: square"/>
    </g>
    <g id="text_27">
     <!-- v(Vphi6) -->
     <g transform="translate(363.330938 206.643625)scale(0.1 -0.1)">
      <use xlink:href="#DejaVuSans-76"/>
      <use xlink:href="#DejaVuSans-28" x="59.179688"/>
      <use xlink:href="#DejaVuSans-56" x="98.193359"/>
      <use xlink:href="#DejaVuSans-70" x="166.601562"/>
      <use xlink:href="#DejaVuSans-68" x="230.078125"/>
      <use xlink:href="#DejaVuSans-69" x="293.457031"/>
      <use xlink:href="#DejaVuSans-36" x="321.240234"/>
      <use xlink:href="#DejaVuSans-29" x="384.863281"/>
     </g>
    </g>
    <g id="line2d_31">
     <path d="M 335.330938 217.82175 
L 345.330938 217.82175 
L 355.330938 217.82175 
" style="fill: none; stroke: #e377c2; stroke-width: 1.5; stroke-linecap: square"/>
    </g>
    <g id="text_28">
     <!-- v(Vphi7) -->
     <g transform="translate(363.330938 221.32175)scale(0.1 -0.1)">
      <use xlink:href="#DejaVuSans-76"/>
      <use xlink:href="#DejaVuSans-28" x="59.179688"/>
      <use xlink:href="#DejaVuSans-56" x="98.193359"/>
      <use xlink:href="#DejaVuSans-70" x="166.601562"/>
      <use xlink:href="#DejaVuSans-68" x="230.078125"/>
      <use xlink:href="#DejaVuSans-69" x="293.457031"/>
      <use xlink:href="#DejaVuSans-37" x="321.240234"/>
      <use xlink:href="#DejaVuSans-29" x="384.863281"/>
     </g>
    </g>
   </g>
  </g>
 </g>
 <defs>
  <clipPath id="pe2cbdb0d4d">
   <rect x="57.6" y="41.472" width="357.12" height="266.112"/>
  </clipPath>
 </defs>
</svg>
