<?xml version="1.0" encoding="utf-8" standalone="no"?>
<!DOCTYPE svg PUBLIC "-//W3C//DTD SVG 1.1//EN"
  "http://www.w3.org/Graphics/SVG/1.1/DTD/svg11.dtd">
<svg xmlns:xlink="http://www.w3.org/1999/xlink" width="460.8pt" height="345.6pt" viewBox="0 0 460.8 345.6" xmlns="http://www.w3.org/2000/svg" version="1.1">
 <metadata>
  <rdf:RDF xmlns:dc="http://purl.org/dc/elements/1.1/" xmlns:cc="http://creativecommons.org/ns#" xmlns:rdf="http://www.w3.org/1999/02/22-rdf-syntax-ns#">
   <cc:Work>
    <dc:type rdf:resource="http://purl.org/dc/dcmitype/StillImage"/>
    <dc:date>2023-12-18T10:29:22.928075</dc:date>
    <dc:format>image/svg+xml</dc:format>
    <dc:creator>
     <cc:Agent>
      <dc:title>Matplotlib v3.5.1, https://matplotlib.org/</dc:title>
     </cc:Agent>
    </dc:creator>
   </cc:Work>
  </rdf:RDF>
 </metadata>
 <defs>
  <style type="text/css">*{stroke-linejoin: round; stroke-linecap: butt}</style>
 </defs>
 <g id="figure_1">
  <g id="patch_1">
   <path d="M 0 345.6 
L 460.8 345.6 
L 460.8 0 
L 0 0 
z
" style="fill: #ffffff"/>
  </g>
  <g id="axes_1">
   <g id="patch_2">
    <path d="M 57.6 307.584 
L 414.72 307.584 
L 414.72 41.472 
L 57.6 41.472 
z
" style="fill: #ffffff"/>
   </g>
   <g id="matplotlib.axis_1">
    <g id="xtick_1">
     <g id="line2d_1">
      <defs>
       <path id="mea56074b2f" d="M 0 0 
L 0 3.5 
" style="stroke: #000000; stroke-width: 0.8"/>
      </defs>
      <g>
       <use xlink:href="#mea56074b2f" x="129.762648" y="307.584" style="stroke: #000000; stroke-width: 0.8"/>
      </g>
     </g>
     <g id="text_1">
      <!-- 4000 -->
      <g transform="translate(117.037648 322.182437)scale(0.1 -0.1)">
       <defs>
        <path id="DejaVuSans-34" d="M 2419 4116 
L 825 1625 
L 2419 1625 
L 2419 4116 
z
M 2253 4666 
L 3047 4666 
L 3047 1625 
L 3713 1625 
L 3713 1100 
L 3047 1100 
L 3047 0 
L 2419 0 
L 2419 1100 
L 313 1100 
L 313 1709 
L 2253 4666 
z
" transform="scale(0.015625)"/>
        <path id="DejaVuSans-30" d="M 2034 4250 
Q 1547 4250 1301 3770 
Q 1056 3291 1056 2328 
Q 1056 1369 1301 889 
Q 1547 409 2034 409 
Q 2525 409 2770 889 
Q 3016 1369 3016 2328 
Q 3016 3291 2770 3770 
Q 2525 4250 2034 4250 
z
M 2034 4750 
Q 2819 4750 3233 4129 
Q 3647 3509 3647 2328 
Q 3647 1150 3233 529 
Q 2819 -91 2034 -91 
Q 1250 -91 836 529 
Q 422 1150 422 2328 
Q 422 3509 836 4129 
Q 1250 4750 2034 4750 
z
" transform="scale(0.015625)"/>
       </defs>
       <use xlink:href="#DejaVuSans-34"/>
       <use xlink:href="#DejaVuSans-30" x="63.623047"/>
       <use xlink:href="#DejaVuSans-30" x="127.246094"/>
       <use xlink:href="#DejaVuSans-30" x="190.869141"/>
      </g>
     </g>
    </g>
    <g id="xtick_2">
     <g id="line2d_2">
      <g>
       <use xlink:href="#mea56074b2f" x="204.335875" y="307.584" style="stroke: #000000; stroke-width: 0.8"/>
      </g>
     </g>
     <g id="text_2">
      <!-- 6000 -->
      <g transform="translate(191.610875 322.182437)scale(0.1 -0.1)">
       <defs>
        <path id="DejaVuSans-36" d="M 2113 2584 
Q 1688 2584 1439 2293 
Q 1191 2003 1191 1497 
Q 1191 994 1439 701 
Q 1688 409 2113 409 
Q 2538 409 2786 701 
Q 3034 994 3034 1497 
Q 3034 2003 2786 2293 
Q 2538 2584 2113 2584 
z
M 3366 4563 
L 3366 3988 
Q 3128 4100 2886 4159 
Q 2644 4219 2406 4219 
Q 1781 4219 1451 3797 
Q 1122 3375 1075 2522 
Q 1259 2794 1537 2939 
Q 1816 3084 2150 3084 
Q 2853 3084 3261 2657 
Q 3669 2231 3669 1497 
Q 3669 778 3244 343 
Q 2819 -91 2113 -91 
Q 1303 -91 875 529 
Q 447 1150 447 2328 
Q 447 3434 972 4092 
Q 1497 4750 2381 4750 
Q 2619 4750 2861 4703 
Q 3103 4656 3366 4563 
z
" transform="scale(0.015625)"/>
       </defs>
       <use xlink:href="#DejaVuSans-36"/>
       <use xlink:href="#DejaVuSans-30" x="63.623047"/>
       <use xlink:href="#DejaVuSans-30" x="127.246094"/>
       <use xlink:href="#DejaVuSans-30" x="190.869141"/>
      </g>
     </g>
    </g>
    <g id="xtick_3">
     <g id="line2d_3">
      <g>
       <use xlink:href="#mea56074b2f" x="278.909103" y="307.584" style="stroke: #000000; stroke-width: 0.8"/>
      </g>
     </g>
     <g id="text_3">
      <!-- 8000 -->
      <g transform="translate(266.184103 322.182437)scale(0.1 -0.1)">
       <defs>
        <path id="DejaVuSans-38" d="M 2034 2216 
Q 1584 2216 1326 1975 
Q 1069 1734 1069 1313 
Q 1069 891 1326 650 
Q 1584 409 2034 409 
Q 2484 409 2743 651 
Q 3003 894 3003 1313 
Q 3003 1734 2745 1975 
Q 2488 2216 2034 2216 
z
M 1403 2484 
Q 997 2584 770 2862 
Q 544 3141 544 3541 
Q 544 4100 942 4425 
Q 1341 4750 2034 4750 
Q 2731 4750 3128 4425 
Q 3525 4100 3525 3541 
Q 3525 3141 3298 2862 
Q 3072 2584 2669 2484 
Q 3125 2378 3379 2068 
Q 3634 1759 3634 1313 
Q 3634 634 3220 271 
Q 2806 -91 2034 -91 
Q 1263 -91 848 271 
Q 434 634 434 1313 
Q 434 1759 690 2068 
Q 947 2378 1403 2484 
z
M 1172 3481 
Q 1172 3119 1398 2916 
Q 1625 2713 2034 2713 
Q 2441 2713 2670 2916 
Q 2900 3119 2900 3481 
Q 2900 3844 2670 4047 
Q 2441 4250 2034 4250 
Q 1625 4250 1398 4047 
Q 1172 3844 1172 3481 
z
" transform="scale(0.015625)"/>
       </defs>
       <use xlink:href="#DejaVuSans-38"/>
       <use xlink:href="#DejaVuSans-30" x="63.623047"/>
       <use xlink:href="#DejaVuSans-30" x="127.246094"/>
       <use xlink:href="#DejaVuSans-30" x="190.869141"/>
      </g>
     </g>
    </g>
    <g id="xtick_4">
     <g id="line2d_4">
      <g>
       <use xlink:href="#mea56074b2f" x="353.48233" y="307.584" style="stroke: #000000; stroke-width: 0.8"/>
      </g>
     </g>
     <g id="text_4">
      <!-- 10000 -->
      <g transform="translate(337.57608 322.182437)scale(0.1 -0.1)">
       <defs>
        <path id="DejaVuSans-31" d="M 794 531 
L 1825 531 
L 1825 4091 
L 703 3866 
L 703 4441 
L 1819 4666 
L 2450 4666 
L 2450 531 
L 3481 531 
L 3481 0 
L 794 0 
L 794 531 
z
" transform="scale(0.015625)"/>
       </defs>
       <use xlink:href="#DejaVuSans-31"/>
       <use xlink:href="#DejaVuSans-30" x="63.623047"/>
       <use xlink:href="#DejaVuSans-30" x="127.246094"/>
       <use xlink:href="#DejaVuSans-30" x="190.869141"/>
       <use xlink:href="#DejaVuSans-30" x="254.492188"/>
      </g>
     </g>
    </g>
    <g id="text_5">
     <!-- Time (ns) -->
     <g transform="translate(212.662344 335.860562)scale(0.1 -0.1)">
      <defs>
       <path id="DejaVuSans-54" d="M -19 4666 
L 3928 4666 
L 3928 4134 
L 2272 4134 
L 2272 0 
L 1638 0 
L 1638 4134 
L -19 4134 
L -19 4666 
z
" transform="scale(0.015625)"/>
       <path id="DejaVuSans-69" d="M 603 3500 
L 1178 3500 
L 1178 0 
L 603 0 
L 603 3500 
z
M 603 4863 
L 1178 4863 
L 1178 4134 
L 603 4134 
L 603 4863 
z
" transform="scale(0.015625)"/>
       <path id="DejaVuSans-6d" d="M 3328 2828 
Q 3544 3216 3844 3400 
Q 4144 3584 4550 3584 
Q 5097 3584 5394 3201 
Q 5691 2819 5691 2113 
L 5691 0 
L 5113 0 
L 5113 2094 
Q 5113 2597 4934 2840 
Q 4756 3084 4391 3084 
Q 3944 3084 3684 2787 
Q 3425 2491 3425 1978 
L 3425 0 
L 2847 0 
L 2847 2094 
Q 2847 2600 2669 2842 
Q 2491 3084 2119 3084 
Q 1678 3084 1418 2786 
Q 1159 2488 1159 1978 
L 1159 0 
L 581 0 
L 581 3500 
L 1159 3500 
L 1159 2956 
Q 1356 3278 1631 3431 
Q 1906 3584 2284 3584 
Q 2666 3584 2933 3390 
Q 3200 3197 3328 2828 
z
" transform="scale(0.015625)"/>
       <path id="DejaVuSans-65" d="M 3597 1894 
L 3597 1613 
L 953 1613 
Q 991 1019 1311 708 
Q 1631 397 2203 397 
Q 2534 397 2845 478 
Q 3156 559 3463 722 
L 3463 178 
Q 3153 47 2828 -22 
Q 2503 -91 2169 -91 
Q 1331 -91 842 396 
Q 353 884 353 1716 
Q 353 2575 817 3079 
Q 1281 3584 2069 3584 
Q 2775 3584 3186 3129 
Q 3597 2675 3597 1894 
z
M 3022 2063 
Q 3016 2534 2758 2815 
Q 2500 3097 2075 3097 
Q 1594 3097 1305 2825 
Q 1016 2553 972 2059 
L 3022 2063 
z
" transform="scale(0.015625)"/>
       <path id="DejaVuSans-20" transform="scale(0.015625)"/>
       <path id="DejaVuSans-28" d="M 1984 4856 
Q 1566 4138 1362 3434 
Q 1159 2731 1159 2009 
Q 1159 1288 1364 580 
Q 1569 -128 1984 -844 
L 1484 -844 
Q 1016 -109 783 600 
Q 550 1309 550 2009 
Q 550 2706 781 3412 
Q 1013 4119 1484 4856 
L 1984 4856 
z
" transform="scale(0.015625)"/>
       <path id="DejaVuSans-6e" d="M 3513 2113 
L 3513 0 
L 2938 0 
L 2938 2094 
Q 2938 2591 2744 2837 
Q 2550 3084 2163 3084 
Q 1697 3084 1428 2787 
Q 1159 2491 1159 1978 
L 1159 0 
L 581 0 
L 581 3500 
L 1159 3500 
L 1159 2956 
Q 1366 3272 1645 3428 
Q 1925 3584 2291 3584 
Q 2894 3584 3203 3211 
Q 3513 2838 3513 2113 
z
" transform="scale(0.015625)"/>
       <path id="DejaVuSans-73" d="M 2834 3397 
L 2834 2853 
Q 2591 2978 2328 3040 
Q 2066 3103 1784 3103 
Q 1356 3103 1142 2972 
Q 928 2841 928 2578 
Q 928 2378 1081 2264 
Q 1234 2150 1697 2047 
L 1894 2003 
Q 2506 1872 2764 1633 
Q 3022 1394 3022 966 
Q 3022 478 2636 193 
Q 2250 -91 1575 -91 
Q 1294 -91 989 -36 
Q 684 19 347 128 
L 347 722 
Q 666 556 975 473 
Q 1284 391 1588 391 
Q 1994 391 2212 530 
Q 2431 669 2431 922 
Q 2431 1156 2273 1281 
Q 2116 1406 1581 1522 
L 1381 1569 
Q 847 1681 609 1914 
Q 372 2147 372 2553 
Q 372 3047 722 3315 
Q 1072 3584 1716 3584 
Q 2034 3584 2315 3537 
Q 2597 3491 2834 3397 
z
" transform="scale(0.015625)"/>
       <path id="DejaVuSans-29" d="M 513 4856 
L 1013 4856 
Q 1481 4119 1714 3412 
Q 1947 2706 1947 2009 
Q 1947 1309 1714 600 
Q 1481 -109 1013 -844 
L 513 -844 
Q 928 -128 1133 580 
Q 1338 1288 1338 2009 
Q 1338 2731 1133 3434 
Q 928 4138 513 4856 
z
" transform="scale(0.015625)"/>
      </defs>
      <use xlink:href="#DejaVuSans-54"/>
      <use xlink:href="#DejaVuSans-69" x="57.958984"/>
      <use xlink:href="#DejaVuSans-6d" x="85.742188"/>
      <use xlink:href="#DejaVuSans-65" x="183.154297"/>
      <use xlink:href="#DejaVuSans-20" x="244.677734"/>
      <use xlink:href="#DejaVuSans-28" x="276.464844"/>
      <use xlink:href="#DejaVuSans-6e" x="315.478516"/>
      <use xlink:href="#DejaVuSans-73" x="378.857422"/>
      <use xlink:href="#DejaVuSans-29" x="430.957031"/>
     </g>
    </g>
   </g>
   <g id="matplotlib.axis_2">
    <g id="ytick_1">
     <g id="line2d_5">
      <defs>
       <path id="m7e7d857201" d="M 0 0 
L -3.5 0 
" style="stroke: #000000; stroke-width: 0.8"/>
      </defs>
      <g>
       <use xlink:href="#m7e7d857201" x="57.6" y="290.716115" style="stroke: #000000; stroke-width: 0.8"/>
      </g>
     </g>
     <g id="text_6">
      <!-- −0.6 -->
      <g transform="translate(26.317187 294.515334)scale(0.1 -0.1)">
       <defs>
        <path id="DejaVuSans-2212" d="M 678 2272 
L 4684 2272 
L 4684 1741 
L 678 1741 
L 678 2272 
z
" transform="scale(0.015625)"/>
        <path id="DejaVuSans-2e" d="M 684 794 
L 1344 794 
L 1344 0 
L 684 0 
L 684 794 
z
" transform="scale(0.015625)"/>
       </defs>
       <use xlink:href="#DejaVuSans-2212"/>
       <use xlink:href="#DejaVuSans-30" x="83.789062"/>
       <use xlink:href="#DejaVuSans-2e" x="147.412109"/>
       <use xlink:href="#DejaVuSans-36" x="179.199219"/>
      </g>
     </g>
    </g>
    <g id="ytick_2">
     <g id="line2d_6">
      <g>
       <use xlink:href="#m7e7d857201" x="57.6" y="251.779654" style="stroke: #000000; stroke-width: 0.8"/>
      </g>
     </g>
     <g id="text_7">
      <!-- −0.4 -->
      <g transform="translate(26.317187 255.578873)scale(0.1 -0.1)">
       <use xlink:href="#DejaVuSans-2212"/>
       <use xlink:href="#DejaVuSans-30" x="83.789062"/>
       <use xlink:href="#DejaVuSans-2e" x="147.412109"/>
       <use xlink:href="#DejaVuSans-34" x="179.199219"/>
      </g>
     </g>
    </g>
    <g id="ytick_3">
     <g id="line2d_7">
      <g>
       <use xlink:href="#m7e7d857201" x="57.6" y="212.843194" style="stroke: #000000; stroke-width: 0.8"/>
      </g>
     </g>
     <g id="text_8">
      <!-- −0.2 -->
      <g transform="translate(26.317187 216.642413)scale(0.1 -0.1)">
       <defs>
        <path id="DejaVuSans-32" d="M 1228 531 
L 3431 531 
L 3431 0 
L 469 0 
L 469 531 
Q 828 903 1448 1529 
Q 2069 2156 2228 2338 
Q 2531 2678 2651 2914 
Q 2772 3150 2772 3378 
Q 2772 3750 2511 3984 
Q 2250 4219 1831 4219 
Q 1534 4219 1204 4116 
Q 875 4013 500 3803 
L 500 4441 
Q 881 4594 1212 4672 
Q 1544 4750 1819 4750 
Q 2544 4750 2975 4387 
Q 3406 4025 3406 3419 
Q 3406 3131 3298 2873 
Q 3191 2616 2906 2266 
Q 2828 2175 2409 1742 
Q 1991 1309 1228 531 
z
" transform="scale(0.015625)"/>
       </defs>
       <use xlink:href="#DejaVuSans-2212"/>
       <use xlink:href="#DejaVuSans-30" x="83.789062"/>
       <use xlink:href="#DejaVuSans-2e" x="147.412109"/>
       <use xlink:href="#DejaVuSans-32" x="179.199219"/>
      </g>
     </g>
    </g>
    <g id="ytick_4">
     <g id="line2d_8">
      <g>
       <use xlink:href="#m7e7d857201" x="57.6" y="173.906733" style="stroke: #000000; stroke-width: 0.8"/>
      </g>
     </g>
     <g id="text_9">
      <!-- 0.0 -->
      <g transform="translate(34.696875 177.705952)scale(0.1 -0.1)">
       <use xlink:href="#DejaVuSans-30"/>
       <use xlink:href="#DejaVuSans-2e" x="63.623047"/>
       <use xlink:href="#DejaVuSans-30" x="95.410156"/>
      </g>
     </g>
    </g>
    <g id="ytick_5">
     <g id="line2d_9">
      <g>
       <use xlink:href="#m7e7d857201" x="57.6" y="134.970273" style="stroke: #000000; stroke-width: 0.8"/>
      </g>
     </g>
     <g id="text_10">
      <!-- 0.2 -->
      <g transform="translate(34.696875 138.769491)scale(0.1 -0.1)">
       <use xlink:href="#DejaVuSans-30"/>
       <use xlink:href="#DejaVuSans-2e" x="63.623047"/>
       <use xlink:href="#DejaVuSans-32" x="95.410156"/>
      </g>
     </g>
    </g>
    <g id="ytick_6">
     <g id="line2d_10">
      <g>
       <use xlink:href="#m7e7d857201" x="57.6" y="96.033812" style="stroke: #000000; stroke-width: 0.8"/>
      </g>
     </g>
     <g id="text_11">
      <!-- 0.4 -->
      <g transform="translate(34.696875 99.833031)scale(0.1 -0.1)">
       <use xlink:href="#DejaVuSans-30"/>
       <use xlink:href="#DejaVuSans-2e" x="63.623047"/>
       <use xlink:href="#DejaVuSans-34" x="95.410156"/>
      </g>
     </g>
    </g>
    <g id="ytick_7">
     <g id="line2d_11">
      <g>
       <use xlink:href="#m7e7d857201" x="57.6" y="57.097351" style="stroke: #000000; stroke-width: 0.8"/>
      </g>
     </g>
     <g id="text_12">
      <!-- 0.6 -->
      <g transform="translate(34.696875 60.89657)scale(0.1 -0.1)">
       <use xlink:href="#DejaVuSans-30"/>
       <use xlink:href="#DejaVuSans-2e" x="63.623047"/>
       <use xlink:href="#DejaVuSans-36" x="95.410156"/>
      </g>
     </g>
    </g>
    <g id="text_13">
     <!-- Vout (V) -->
     <g transform="translate(20.2375 194.660031)rotate(-90)scale(0.1 -0.1)">
      <defs>
       <path id="DejaVuSans-56" d="M 1831 0 
L 50 4666 
L 709 4666 
L 2188 738 
L 3669 4666 
L 4325 4666 
L 2547 0 
L 1831 0 
z
" transform="scale(0.015625)"/>
       <path id="DejaVuSans-6f" d="M 1959 3097 
Q 1497 3097 1228 2736 
Q 959 2375 959 1747 
Q 959 1119 1226 758 
Q 1494 397 1959 397 
Q 2419 397 2687 759 
Q 2956 1122 2956 1747 
Q 2956 2369 2687 2733 
Q 2419 3097 1959 3097 
z
M 1959 3584 
Q 2709 3584 3137 3096 
Q 3566 2609 3566 1747 
Q 3566 888 3137 398 
Q 2709 -91 1959 -91 
Q 1206 -91 779 398 
Q 353 888 353 1747 
Q 353 2609 779 3096 
Q 1206 3584 1959 3584 
z
" transform="scale(0.015625)"/>
       <path id="DejaVuSans-75" d="M 544 1381 
L 544 3500 
L 1119 3500 
L 1119 1403 
Q 1119 906 1312 657 
Q 1506 409 1894 409 
Q 2359 409 2629 706 
Q 2900 1003 2900 1516 
L 2900 3500 
L 3475 3500 
L 3475 0 
L 2900 0 
L 2900 538 
Q 2691 219 2414 64 
Q 2138 -91 1772 -91 
Q 1169 -91 856 284 
Q 544 659 544 1381 
z
M 1991 3584 
L 1991 3584 
z
" transform="scale(0.015625)"/>
       <path id="DejaVuSans-74" d="M 1172 4494 
L 1172 3500 
L 2356 3500 
L 2356 3053 
L 1172 3053 
L 1172 1153 
Q 1172 725 1289 603 
Q 1406 481 1766 481 
L 2356 481 
L 2356 0 
L 1766 0 
Q 1100 0 847 248 
Q 594 497 594 1153 
L 594 3053 
L 172 3053 
L 172 3500 
L 594 3500 
L 594 4494 
L 1172 4494 
z
" transform="scale(0.015625)"/>
      </defs>
      <use xlink:href="#DejaVuSans-56"/>
      <use xlink:href="#DejaVuSans-6f" x="60.658203"/>
      <use xlink:href="#DejaVuSans-75" x="121.839844"/>
      <use xlink:href="#DejaVuSans-74" x="185.21875"/>
      <use xlink:href="#DejaVuSans-20" x="224.427734"/>
      <use xlink:href="#DejaVuSans-28" x="256.214844"/>
      <use xlink:href="#DejaVuSans-56" x="295.228516"/>
      <use xlink:href="#DejaVuSans-29" x="363.636719"/>
     </g>
    </g>
   </g>
   <g id="line2d_12">
    <path d="M 73.832727 216.153948 
L 75.286905 197.290107 
L 75.398765 196.144872 
L 77.300382 171.011458 
L 77.374956 170.852957 
L 77.486815 169.691672 
L 77.896968 165.3825 
L 78.381694 158.732878 
L 79.463006 145.214319 
L 79.574866 144.132674 
L 79.985019 140.141662 
L 80.469745 134.043236 
L 81.551056 121.809149 
L 81.662916 120.837237 
L 82.073069 117.253579 
L 82.520508 112.093019 
L 83.60182 100.788675 
L 83.676393 100.559543 
L 86.211883 80.754451 
L 86.323743 80.099941 
L 87.703348 69.71627 
L 88.038927 68.386331 
L 88.33722 67.312559 
L 89.977831 60.793933 
L 90.42527 59.651401 
L 90.76085 58.473398 
L 91.506582 56.071073 
L 91.916735 55.318002 
L 92.103168 55.190283 
L 92.476034 54.90578 
L 93.221766 54.809598 
L 93.706492 55.104582 
L 95.757256 56.959732 
L 96.502988 58.677944 
L 97.5843 62.810278 
L 98.740185 68.0013 
L 98.852045 68.463456 
L 101.238388 82.201124 
L 104.034884 106.747351 
L 104.929763 114.998361 
L 105.004336 115.125993 
L 105.116196 116.067361 
L 109.180437 161.759444 
L 109.292297 162.81363 
L 110.821048 181.113168 
L 111.90236 193.237822 
L 112.871812 204.098085 
L 112.983672 205.083418 
L 113.393824 208.726418 
L 113.87855 214.316759 
L 114.959862 225.624609 
L 115.071722 226.528462 
L 115.481875 229.864416 
L 115.966601 235.010234 
L 117.010626 245.305099 
L 117.085199 245.526539 
L 118.61395 258.47384 
L 119.135963 262.145583 
L 119.247823 262.812882 
L 119.657976 265.254852 
L 120.142701 268.980338 
L 121.186727 276.348709 
L 121.2613 276.498602 
L 123.200204 286.283812 
L 123.535783 287.217428 
L 123.834076 287.989773 
L 124.356089 289.957546 
L 125.288254 293.187605 
L 125.698407 293.915916 
L 125.959413 294.22102 
L 126.518712 295.044342 
L 127.003438 295.400505 
L 127.488164 295.487954 
L 128.122037 295.385499 
L 129.352495 294.831623 
L 130.210087 293.724363 
L 130.769386 292.111773 
L 131.477832 289.350582 
L 132.074418 287.172892 
L 132.186278 287.043504 
L 132.633717 284.835043 
L 134.050608 277.306476 
L 135.35564 266.95411 
L 136.250519 259.047696 
L 136.362378 258.766798 
L 136.847104 253.666222 
L 138.375856 238.584746 
L 138.450429 238.313659 
L 138.860582 233.306387 
L 140.463906 214.086038 
L 140.538479 213.77864 
L 141.023205 207.296424 
L 142.477383 189.094073 
L 142.775676 186.504184 
L 144.565433 163.04278 
L 144.901013 159.955639 
L 146.243331 142.651603 
L 146.317904 142.360372 
L 147.473789 129.242274 
L 148.368668 119.488655 
L 148.480528 118.530704 
L 148.890681 114.998363 
L 149.33812 109.90971 
L 150.419432 98.765563 
L 150.494005 98.53978 
L 153.029495 79.038207 
L 153.141355 78.393838 
L 154.520959 68.174578 
L 154.856539 66.870027 
L 155.154832 65.817837 
L 156.758156 59.554978 
L 157.727608 56.650022 
L 158.361481 54.77501 
L 158.771633 54.135535 
L 158.958066 53.978293 
L 159.293646 53.761167 
L 159.964805 53.6933 
L 160.449531 53.987499 
L 162.500295 55.886815 
L 163.20874 57.411706 
L 164.215479 61.065299 
L 166.900115 74.489337 
L 167.571274 78.334227 
L 167.683134 78.535888 
L 168.056 81.498715 
L 170.852496 106.122092 
L 171.747375 114.395876 
L 171.821948 114.523845 
L 171.933808 115.467687 
L 175.960762 161.175529 
L 176.035335 161.463607 
L 176.482775 167.139161 
L 177.63866 180.670356 
L 178.719972 192.822295 
L 179.689424 203.70648 
L 179.801283 204.693963 
L 180.211436 208.344885 
L 180.696162 213.947306 
L 181.777474 225.279352 
L 181.889334 226.185127 
L 182.299487 229.52816 
L 182.784212 234.684768 
L 183.828238 245.001054 
L 183.902811 245.222962 
L 185.431562 258.198364 
L 185.953575 261.87834 
L 186.065434 262.547147 
L 186.475587 264.994663 
L 186.960313 268.728575 
L 188.004338 276.113484 
L 188.078912 276.263736 
L 190.017816 286.076039 
L 190.353395 287.012718 
L 190.651688 287.787674 
L 191.173701 289.762183 
L 192.105866 293.003553 
L 192.516019 293.735239 
L 192.777025 294.041993 
L 193.336324 294.871292 
L 193.82105 295.232383 
L 194.305776 295.323757 
L 194.939649 295.225903 
L 196.170107 294.682446 
L 197.027699 293.579777 
L 197.586998 291.970971 
L 198.295444 289.214384 
L 198.89203 287.039706 
L 199.003889 286.910487 
L 199.451329 284.704863 
L 200.86822 277.184216 
L 202.173252 266.83769 
L 203.06813 258.933824 
L 203.17999 258.652997 
L 203.664716 253.553562 
L 205.193467 238.473206 
L 205.268041 238.202112 
L 205.678193 233.194645 
L 207.281518 213.972552 
L 207.356091 213.66512 
L 207.840817 207.182117 
L 209.294995 188.97728 
L 209.593288 186.387096 
L 211.383045 162.924829 
L 211.718625 159.837875 
L 213.060943 142.536125 
L 213.135516 142.244948 
L 214.291401 129.129597 
L 215.18628 119.378279 
L 215.29814 118.420559 
L 215.708292 114.889074 
L 216.155732 109.801701 
L 217.237044 98.661413 
L 217.311617 98.435718 
L 219.847107 78.941693 
L 219.958966 78.297545 
L 221.338571 68.084854 
L 221.674151 66.781698 
L 221.972443 65.730693 
L 223.575768 59.4753 
L 224.54522 56.573459 
L 225.179092 54.702677 
L 225.589245 54.066065 
L 225.775678 53.909834 
L 226.111258 53.694678 
L 226.782417 53.63125 
L 227.267143 53.928191 
L 229.317906 55.836467 
L 230.026352 57.366322 
L 231.033091 61.026067 
L 233.717727 74.455551 
L 234.388886 78.301022 
L 234.500746 78.502703 
L 234.873612 81.465739 
L 237.670108 106.092 
L 238.564987 114.367809 
L 238.63956 114.495808 
L 238.75142 115.439871 
L 242.778374 161.156153 
L 242.852947 161.44426 
L 243.300387 167.120351 
L 244.456272 180.652837 
L 245.537583 192.806359 
L 246.507035 203.692446 
L 246.618895 204.680125 
L 247.029048 208.331803 
L 247.513774 213.935482 
L 248.595086 225.270399 
L 248.706946 226.176421 
L 249.117098 229.520386 
L 249.601824 234.67846 
L 250.645849 244.997491 
L 250.720423 245.219456 
L 252.249174 258.198446 
L 252.771186 261.879548 
L 252.883046 262.548565 
L 253.293199 264.996867 
L 253.777925 268.732002 
L 254.82195 276.118714 
L 254.896523 276.268992 
L 256.835427 286.083123 
L 257.171007 287.020056 
L 257.4693 287.79524 
L 257.991312 289.770414 
L 258.923478 293.012369 
L 259.33363 293.744003 
L 259.594637 294.050718 
L 260.153936 294.87987 
L 260.638662 295.240904 
L 261.123388 295.332309 
L 261.75726 295.234599 
L 262.987719 294.691586 
L 263.845311 293.588583 
L 264.40461 291.979688 
L 265.113056 289.223764 
L 265.709641 287.050239 
L 265.821501 286.921106 
L 266.268941 284.717044 
L 267.685832 277.202593 
L 268.990863 266.860873 
L 269.885742 258.957681 
L 269.997602 258.676845 
L 270.482328 253.576917 
L 272.011079 238.492294 
L 272.085652 238.221105 
L 272.495805 233.211828 
L 274.099129 213.982442 
L 274.173703 213.674892 
L 274.658429 207.189373 
L 276.112607 188.977582 
L 276.410899 186.386495 
L 278.200657 162.917441 
L 278.536236 159.829786 
L 279.878555 142.524812 
L 279.953128 142.233589 
L 281.109013 129.116354 
L 282.003892 119.363787 
L 282.115751 118.405948 
L 282.525904 114.874027 
L 282.973343 109.786085 
L 284.054655 98.645008 
L 284.129229 98.4193 
L 286.664718 78.923899 
L 286.776578 78.279691 
L 288.156183 68.067434 
L 288.491762 66.764524 
L 288.790055 65.713727 
L 290.39338 59.459373 
L 291.362832 56.557742 
L 291.996704 54.688014 
L 292.406857 54.052224 
L 292.59329 53.896288 
L 292.928869 53.681699 
L 293.600028 53.619497 
L 294.084754 53.917119 
L 296.135518 55.827525 
L 296.843964 57.359012 
L 297.850702 61.020685 
L 300.535339 74.450761 
L 301.206498 78.296133 
L 301.318357 78.497806 
L 301.691224 81.460703 
L 304.48772 106.086704 
L 305.382598 114.362961 
L 305.457172 114.490967 
L 305.569031 115.43508 
L 309.595986 161.153115 
L 309.670559 161.441224 
L 310.117998 167.11735 
L 311.273883 180.649953 
L 312.355195 192.803788 
L 313.324647 203.690376 
L 313.436507 204.678111 
L 313.84666 208.33001 
L 314.331386 213.934071 
L 315.412697 225.269906 
L 315.524557 226.176008 
L 315.93471 229.520281 
L 316.419436 234.678844 
L 317.463461 244.998782 
L 317.538034 245.220766 
L 319.066786 258.200944 
L 319.588798 261.882425 
L 319.700658 262.551514 
L 320.110811 265.000083 
L 320.595537 268.735635 
L 321.639562 276.122926 
L 321.714135 276.273211 
L 323.653039 286.087837 
L 323.988619 287.024844 
L 324.286911 287.800097 
L 324.808924 289.775481 
L 325.741089 293.017575 
L 326.151242 293.749161 
L 326.412248 294.055846 
L 326.971548 294.88489 
L 327.456274 295.24586 
L 327.941 295.337246 
L 328.574872 295.239559 
L 329.80533 294.696649 
L 330.662922 293.593482 
L 331.222222 291.984526 
L 331.930667 289.228837 
L 332.527253 287.055751 
L 332.639113 286.92665 
L 333.086552 284.723191 
L 334.503444 277.211163 
L 335.808475 266.871346 
L 336.703354 258.968428 
L 336.815214 258.687589 
L 337.29994 253.587473 
L 338.828691 238.501205 
L 338.903264 238.22998 
L 339.313417 233.220006 
L 340.916741 213.987823 
L 340.991314 213.680228 
L 341.47604 207.193747 
L 342.930218 188.979303 
L 343.228511 186.387873 
L 345.018269 162.916222 
L 345.353848 159.828297 
L 346.696166 142.522059 
L 346.77074 142.230818 
L 347.926625 129.112828 
L 348.821503 119.359753 
L 348.933363 118.401865 
L 349.343516 114.869767 
L 349.790955 109.78159 
L 350.872267 98.64016 
L 350.94684 98.414446 
L 353.48233 78.918419 
L 353.59419 78.274184 
L 354.973795 68.062004 
L 355.309374 66.759169 
L 355.607667 65.708435 
L 357.210991 59.454375 
L 358.180443 56.55278 
L 358.814316 54.683395 
L 359.224469 54.047878 
L 359.410902 53.892039 
L 359.746481 53.677639 
L 360.41764 53.61584 
L 360.902366 53.913682 
L 362.95313 55.824767 
L 363.661576 57.356802 
L 364.668314 61.019115 
L 367.35295 74.449323 
L 368.024109 78.294646 
L 368.135969 78.496315 
L 368.508835 81.459153 
L 371.305331 106.084984 
L 372.20021 114.361371 
L 372.274783 114.489379 
L 372.386643 115.433507 
L 376.413597 161.152059 
L 376.488171 161.440169 
L 376.93561 167.116301 
L 378.091495 180.648932 
L 379.172807 192.802865 
L 380.142259 203.689618 
L 380.254119 204.677371 
L 380.664271 208.329344 
L 381.148997 213.933531 
L 382.230309 225.269673 
L 382.342169 226.175802 
L 382.752322 229.520178 
L 383.237048 234.678905 
L 384.281073 244.999146 
L 384.355646 245.221137 
L 385.884397 258.201714 
L 386.40641 261.883323 
L 386.51827 262.552435 
L 386.928422 265.001094 
L 387.413148 268.736787 
L 388.457174 276.124274 
L 388.531747 276.274561 
L 390.470651 286.089357 
L 390.80623 287.02639 
L 391.104523 287.801666 
L 391.626536 289.777121 
L 392.558701 293.019264 
L 392.968854 293.750834 
L 393.22986 294.05751 
L 393.789159 294.88652 
L 394.273885 295.247472 
L 394.758611 295.338853 
L 395.392484 295.241174 
L 396.622942 294.698303 
L 397.480534 293.595084 
L 398.039833 291.986111 
L 398.487273 290.403848 
L 398.487273 290.403848 
" clip-path="url(#pf90e157e2c)" style="fill: none; stroke: #1f77b4; stroke-width: 1.5; stroke-linecap: square"/>
   </g>
   <g id="patch_3">
    <path d="M 57.6 307.584 
L 57.6 41.472 
" style="fill: none; stroke: #000000; stroke-width: 0.8; stroke-linejoin: miter; stroke-linecap: square"/>
   </g>
   <g id="patch_4">
    <path d="M 414.72 307.584 
L 414.72 41.472 
" style="fill: none; stroke: #000000; stroke-width: 0.8; stroke-linejoin: miter; stroke-linecap: square"/>
   </g>
   <g id="patch_5">
    <path d="M 57.6 307.584 
L 414.72 307.584 
" style="fill: none; stroke: #000000; stroke-width: 0.8; stroke-linejoin: miter; stroke-linecap: square"/>
   </g>
   <g id="patch_6">
    <path d="M 57.6 41.472 
L 414.72 41.472 
" style="fill: none; stroke: #000000; stroke-width: 0.8; stroke-linejoin: miter; stroke-linecap: square"/>
   </g>
   <g id="text_14">
    <!-- Post Layout Simulation of the Sine Wave Generator -->
    <g transform="translate(82.366875 35.472)scale(0.12 -0.12)">
     <defs>
      <path id="DejaVuSans-50" d="M 1259 4147 
L 1259 2394 
L 2053 2394 
Q 2494 2394 2734 2622 
Q 2975 2850 2975 3272 
Q 2975 3691 2734 3919 
Q 2494 4147 2053 4147 
L 1259 4147 
z
M 628 4666 
L 2053 4666 
Q 2838 4666 3239 4311 
Q 3641 3956 3641 3272 
Q 3641 2581 3239 2228 
Q 2838 1875 2053 1875 
L 1259 1875 
L 1259 0 
L 628 0 
L 628 4666 
z
" transform="scale(0.015625)"/>
      <path id="DejaVuSans-4c" d="M 628 4666 
L 1259 4666 
L 1259 531 
L 3531 531 
L 3531 0 
L 628 0 
L 628 4666 
z
" transform="scale(0.015625)"/>
      <path id="DejaVuSans-61" d="M 2194 1759 
Q 1497 1759 1228 1600 
Q 959 1441 959 1056 
Q 959 750 1161 570 
Q 1363 391 1709 391 
Q 2188 391 2477 730 
Q 2766 1069 2766 1631 
L 2766 1759 
L 2194 1759 
z
M 3341 1997 
L 3341 0 
L 2766 0 
L 2766 531 
Q 2569 213 2275 61 
Q 1981 -91 1556 -91 
Q 1019 -91 701 211 
Q 384 513 384 1019 
Q 384 1609 779 1909 
Q 1175 2209 1959 2209 
L 2766 2209 
L 2766 2266 
Q 2766 2663 2505 2880 
Q 2244 3097 1772 3097 
Q 1472 3097 1187 3025 
Q 903 2953 641 2809 
L 641 3341 
Q 956 3463 1253 3523 
Q 1550 3584 1831 3584 
Q 2591 3584 2966 3190 
Q 3341 2797 3341 1997 
z
" transform="scale(0.015625)"/>
      <path id="DejaVuSans-79" d="M 2059 -325 
Q 1816 -950 1584 -1140 
Q 1353 -1331 966 -1331 
L 506 -1331 
L 506 -850 
L 844 -850 
Q 1081 -850 1212 -737 
Q 1344 -625 1503 -206 
L 1606 56 
L 191 3500 
L 800 3500 
L 1894 763 
L 2988 3500 
L 3597 3500 
L 2059 -325 
z
" transform="scale(0.015625)"/>
      <path id="DejaVuSans-53" d="M 3425 4513 
L 3425 3897 
Q 3066 4069 2747 4153 
Q 2428 4238 2131 4238 
Q 1616 4238 1336 4038 
Q 1056 3838 1056 3469 
Q 1056 3159 1242 3001 
Q 1428 2844 1947 2747 
L 2328 2669 
Q 3034 2534 3370 2195 
Q 3706 1856 3706 1288 
Q 3706 609 3251 259 
Q 2797 -91 1919 -91 
Q 1588 -91 1214 -16 
Q 841 59 441 206 
L 441 856 
Q 825 641 1194 531 
Q 1563 422 1919 422 
Q 2459 422 2753 634 
Q 3047 847 3047 1241 
Q 3047 1584 2836 1778 
Q 2625 1972 2144 2069 
L 1759 2144 
Q 1053 2284 737 2584 
Q 422 2884 422 3419 
Q 422 4038 858 4394 
Q 1294 4750 2059 4750 
Q 2388 4750 2728 4690 
Q 3069 4631 3425 4513 
z
" transform="scale(0.015625)"/>
      <path id="DejaVuSans-6c" d="M 603 4863 
L 1178 4863 
L 1178 0 
L 603 0 
L 603 4863 
z
" transform="scale(0.015625)"/>
      <path id="DejaVuSans-66" d="M 2375 4863 
L 2375 4384 
L 1825 4384 
Q 1516 4384 1395 4259 
Q 1275 4134 1275 3809 
L 1275 3500 
L 2222 3500 
L 2222 3053 
L 1275 3053 
L 1275 0 
L 697 0 
L 697 3053 
L 147 3053 
L 147 3500 
L 697 3500 
L 697 3744 
Q 697 4328 969 4595 
Q 1241 4863 1831 4863 
L 2375 4863 
z
" transform="scale(0.015625)"/>
      <path id="DejaVuSans-68" d="M 3513 2113 
L 3513 0 
L 2938 0 
L 2938 2094 
Q 2938 2591 2744 2837 
Q 2550 3084 2163 3084 
Q 1697 3084 1428 2787 
Q 1159 2491 1159 1978 
L 1159 0 
L 581 0 
L 581 4863 
L 1159 4863 
L 1159 2956 
Q 1366 3272 1645 3428 
Q 1925 3584 2291 3584 
Q 2894 3584 3203 3211 
Q 3513 2838 3513 2113 
z
" transform="scale(0.015625)"/>
      <path id="DejaVuSans-57" d="M 213 4666 
L 850 4666 
L 1831 722 
L 2809 4666 
L 3519 4666 
L 4500 722 
L 5478 4666 
L 6119 4666 
L 4947 0 
L 4153 0 
L 3169 4050 
L 2175 0 
L 1381 0 
L 213 4666 
z
" transform="scale(0.015625)"/>
      <path id="DejaVuSans-76" d="M 191 3500 
L 800 3500 
L 1894 563 
L 2988 3500 
L 3597 3500 
L 2284 0 
L 1503 0 
L 191 3500 
z
" transform="scale(0.015625)"/>
      <path id="DejaVuSans-47" d="M 3809 666 
L 3809 1919 
L 2778 1919 
L 2778 2438 
L 4434 2438 
L 4434 434 
Q 4069 175 3628 42 
Q 3188 -91 2688 -91 
Q 1594 -91 976 548 
Q 359 1188 359 2328 
Q 359 3472 976 4111 
Q 1594 4750 2688 4750 
Q 3144 4750 3555 4637 
Q 3966 4525 4313 4306 
L 4313 3634 
Q 3963 3931 3569 4081 
Q 3175 4231 2741 4231 
Q 1884 4231 1454 3753 
Q 1025 3275 1025 2328 
Q 1025 1384 1454 906 
Q 1884 428 2741 428 
Q 3075 428 3337 486 
Q 3600 544 3809 666 
z
" transform="scale(0.015625)"/>
      <path id="DejaVuSans-72" d="M 2631 2963 
Q 2534 3019 2420 3045 
Q 2306 3072 2169 3072 
Q 1681 3072 1420 2755 
Q 1159 2438 1159 1844 
L 1159 0 
L 581 0 
L 581 3500 
L 1159 3500 
L 1159 2956 
Q 1341 3275 1631 3429 
Q 1922 3584 2338 3584 
Q 2397 3584 2469 3576 
Q 2541 3569 2628 3553 
L 2631 2963 
z
" transform="scale(0.015625)"/>
     </defs>
     <use xlink:href="#DejaVuSans-50"/>
     <use xlink:href="#DejaVuSans-6f" x="56.677734"/>
     <use xlink:href="#DejaVuSans-73" x="117.859375"/>
     <use xlink:href="#DejaVuSans-74" x="169.958984"/>
     <use xlink:href="#DejaVuSans-20" x="209.167969"/>
     <use xlink:href="#DejaVuSans-4c" x="240.955078"/>
     <use xlink:href="#DejaVuSans-61" x="296.667969"/>
     <use xlink:href="#DejaVuSans-79" x="357.947266"/>
     <use xlink:href="#DejaVuSans-6f" x="417.126953"/>
     <use xlink:href="#DejaVuSans-75" x="478.308594"/>
     <use xlink:href="#DejaVuSans-74" x="541.6875"/>
     <use xlink:href="#DejaVuSans-20" x="580.896484"/>
     <use xlink:href="#DejaVuSans-53" x="612.683594"/>
     <use xlink:href="#DejaVuSans-69" x="676.160156"/>
     <use xlink:href="#DejaVuSans-6d" x="703.943359"/>
     <use xlink:href="#DejaVuSans-75" x="801.355469"/>
     <use xlink:href="#DejaVuSans-6c" x="864.734375"/>
     <use xlink:href="#DejaVuSans-61" x="892.517578"/>
     <use xlink:href="#DejaVuSans-74" x="953.796875"/>
     <use xlink:href="#DejaVuSans-69" x="993.005859"/>
     <use xlink:href="#DejaVuSans-6f" x="1020.789062"/>
     <use xlink:href="#DejaVuSans-6e" x="1081.970703"/>
     <use xlink:href="#DejaVuSans-20" x="1145.349609"/>
     <use xlink:href="#DejaVuSans-6f" x="1177.136719"/>
     <use xlink:href="#DejaVuSans-66" x="1238.318359"/>
     <use xlink:href="#DejaVuSans-20" x="1273.523438"/>
     <use xlink:href="#DejaVuSans-74" x="1305.310547"/>
     <use xlink:href="#DejaVuSans-68" x="1344.519531"/>
     <use xlink:href="#DejaVuSans-65" x="1407.898438"/>
     <use xlink:href="#DejaVuSans-20" x="1469.421875"/>
     <use xlink:href="#DejaVuSans-53" x="1501.208984"/>
     <use xlink:href="#DejaVuSans-69" x="1564.685547"/>
     <use xlink:href="#DejaVuSans-6e" x="1592.46875"/>
     <use xlink:href="#DejaVuSans-65" x="1655.847656"/>
     <use xlink:href="#DejaVuSans-20" x="1717.371094"/>
     <use xlink:href="#DejaVuSans-57" x="1749.158203"/>
     <use xlink:href="#DejaVuSans-61" x="1841.660156"/>
     <use xlink:href="#DejaVuSans-76" x="1902.939453"/>
     <use xlink:href="#DejaVuSans-65" x="1962.119141"/>
     <use xlink:href="#DejaVuSans-20" x="2023.642578"/>
     <use xlink:href="#DejaVuSans-47" x="2055.429688"/>
     <use xlink:href="#DejaVuSans-65" x="2132.919922"/>
     <use xlink:href="#DejaVuSans-6e" x="2194.443359"/>
     <use xlink:href="#DejaVuSans-65" x="2257.822266"/>
     <use xlink:href="#DejaVuSans-72" x="2319.345703"/>
     <use xlink:href="#DejaVuSans-61" x="2360.458984"/>
     <use xlink:href="#DejaVuSans-74" x="2421.738281"/>
     <use xlink:href="#DejaVuSans-6f" x="2460.947266"/>
     <use xlink:href="#DejaVuSans-72" x="2522.128906"/>
    </g>
   </g>
   <g id="legend_1">
    <g id="patch_7">
     <path d="M 287.360625 183.367062 
L 407.72 183.367062 
Q 409.72 183.367062 409.72 181.367062 
L 409.72 167.688937 
Q 409.72 165.688937 407.72 165.688937 
L 287.360625 165.688937 
Q 285.360625 165.688937 285.360625 167.688937 
L 285.360625 181.367062 
Q 285.360625 183.367062 287.360625 183.367062 
z
" style="fill: #ffffff; opacity: 0.8; stroke: #cccccc; stroke-linejoin: miter"/>
    </g>
    <g id="line2d_13">
     <path d="M 289.360625 173.787375 
L 299.360625 173.787375 
L 309.360625 173.787375 
" style="fill: none; stroke: #1f77b4; stroke-width: 1.5; stroke-linecap: square"/>
    </g>
    <g id="text_15">
     <!-- v(Voutp)-v(Voutn) -->
     <g transform="translate(317.360625 177.287375)scale(0.1 -0.1)">
      <defs>
       <path id="DejaVuSans-70" d="M 1159 525 
L 1159 -1331 
L 581 -1331 
L 581 3500 
L 1159 3500 
L 1159 2969 
Q 1341 3281 1617 3432 
Q 1894 3584 2278 3584 
Q 2916 3584 3314 3078 
Q 3713 2572 3713 1747 
Q 3713 922 3314 415 
Q 2916 -91 2278 -91 
Q 1894 -91 1617 61 
Q 1341 213 1159 525 
z
M 3116 1747 
Q 3116 2381 2855 2742 
Q 2594 3103 2138 3103 
Q 1681 3103 1420 2742 
Q 1159 2381 1159 1747 
Q 1159 1113 1420 752 
Q 1681 391 2138 391 
Q 2594 391 2855 752 
Q 3116 1113 3116 1747 
z
" transform="scale(0.015625)"/>
       <path id="DejaVuSans-2d" d="M 313 2009 
L 1997 2009 
L 1997 1497 
L 313 1497 
L 313 2009 
z
" transform="scale(0.015625)"/>
      </defs>
      <use xlink:href="#DejaVuSans-76"/>
      <use xlink:href="#DejaVuSans-28" x="59.179688"/>
      <use xlink:href="#DejaVuSans-56" x="98.193359"/>
      <use xlink:href="#DejaVuSans-6f" x="158.851562"/>
      <use xlink:href="#DejaVuSans-75" x="220.033203"/>
      <use xlink:href="#DejaVuSans-74" x="283.412109"/>
      <use xlink:href="#DejaVuSans-70" x="322.621094"/>
      <use xlink:href="#DejaVuSans-29" x="386.097656"/>
      <use xlink:href="#DejaVuSans-2d" x="425.111328"/>
      <use xlink:href="#DejaVuSans-76" x="458.570312"/>
      <use xlink:href="#DejaVuSans-28" x="517.75"/>
      <use xlink:href="#DejaVuSans-56" x="556.763672"/>
      <use xlink:href="#DejaVuSans-6f" x="617.421875"/>
      <use xlink:href="#DejaVuSans-75" x="678.603516"/>
      <use xlink:href="#DejaVuSans-74" x="741.982422"/>
      <use xlink:href="#DejaVuSans-6e" x="781.191406"/>
      <use xlink:href="#DejaVuSans-29" x="844.570312"/>
     </g>
    </g>
   </g>
  </g>
 </g>
 <defs>
  <clipPath id="pf90e157e2c">
   <rect x="57.6" y="41.472" width="357.12" height="266.112"/>
  </clipPath>
 </defs>
</svg>
